<?xml version="1.0" encoding="UTF-8" standalone="no"?>
<!DOCTYPE svg PUBLIC "-//W3C//DTD SVG 1.1//EN"
 "http://www.w3.org/Graphics/SVG/1.1/DTD/svg11.dtd">
<!-- Generated by graphviz version 2.38.0 (20140413.2041)
 -->
<!-- Title: tasks::qp::ContactConstr Pages: 1 -->
<svg width="652pt" height="110pt"
 viewBox="0.00 0.00 652.00 110.00" xmlns="http://www.w3.org/2000/svg" xmlns:xlink="http://www.w3.org/1999/xlink">
<g id="graph0" class="graph" transform="scale(1 1) rotate(0) translate(4 106)">
<title>tasks::qp::ContactConstr</title>
<polygon fill="white" stroke="none" points="-4,4 -4,-106 648,-106 648,4 -4,4"/>
<!-- Node1 -->
<g id="node1" class="node"><title>Node1</title>
<polygon fill="#bfbfbf" stroke="black" points="326,-38.5 326,-57.5 453,-57.5 453,-38.5 326,-38.5"/>
<text text-anchor="middle" x="389.5" y="-45.5" font-family="Helvetica,sans-Serif" font-size="10.00">tasks::qp::ContactConstr</text>
</g>
<!-- Node6 -->
<g id="node6" class="node"><title>Node6</title>
<g id="a_node6"><a xlink:href="a00016.html" target="_top" xlink:title="Contact constraint by targeting a null acceleration. ">
<polygon fill="white" stroke="black" points="494.5,-76.5 494.5,-95.5 638.5,-95.5 638.5,-76.5 494.5,-76.5"/>
<text text-anchor="middle" x="566.5" y="-83.5" font-family="Helvetica,sans-Serif" font-size="10.00">tasks::qp::ContactAccConstr</text>
</a>
</g>
</g>
<!-- Node1&#45;&gt;Node6 -->
<g id="edge5" class="edge"><title>Node1&#45;&gt;Node6</title>
<path fill="none" stroke="midnightblue" d="M444.624,-59.7526C469.369,-65.1258 498.303,-71.4086 521.658,-76.4799"/>
<polygon fill="midnightblue" stroke="midnightblue" points="445.175,-56.2908 434.66,-57.589 443.689,-63.1314 445.175,-56.2908"/>
</g>
<!-- Node7 -->
<g id="node7" class="node"><title>Node7</title>
<g id="a_node7"><a xlink:href="a00023.html" target="_top" xlink:title="Contact constraint by targeting a constant frame. ">
<polygon fill="white" stroke="black" points="494.5,-38.5 494.5,-57.5 638.5,-57.5 638.5,-38.5 494.5,-38.5"/>
<text text-anchor="middle" x="566.5" y="-45.5" font-family="Helvetica,sans-Serif" font-size="10.00">tasks::qp::ContactPosConstr</text>
</a>
</g>
</g>
<!-- Node1&#45;&gt;Node7 -->
<g id="edge6" class="edge"><title>Node1&#45;&gt;Node7</title>
<path fill="none" stroke="midnightblue" d="M463.324,-48C473.577,-48 484.107,-48 494.329,-48"/>
<polygon fill="midnightblue" stroke="midnightblue" points="463.185,-44.5001 453.185,-48 463.185,-51.5001 463.185,-44.5001"/>
</g>
<!-- Node8 -->
<g id="node8" class="node"><title>Node8</title>
<g id="a_node8"><a xlink:href="a00025.html" target="_top" xlink:title="Contact constraint by targeting a null velocity. ">
<polygon fill="white" stroke="black" points="489,-0.5 489,-19.5 644,-19.5 644,-0.5 489,-0.5"/>
<text text-anchor="middle" x="566.5" y="-7.5" font-family="Helvetica,sans-Serif" font-size="10.00">tasks::qp::ContactSpeedConstr</text>
</a>
</g>
</g>
<!-- Node1&#45;&gt;Node8 -->
<g id="edge7" class="edge"><title>Node1&#45;&gt;Node8</title>
<path fill="none" stroke="midnightblue" d="M444.624,-36.2474C469.369,-30.8742 498.303,-24.5914 521.658,-19.5201"/>
<polygon fill="midnightblue" stroke="midnightblue" points="443.689,-32.8686 434.66,-38.411 445.175,-39.7092 443.689,-32.8686"/>
</g>
<!-- Node2 -->
<g id="node2" class="node"><title>Node2</title>
<g id="a_node2"><a xlink:href="a00015.html" target="_top" xlink:title="tasks::qp::ConstraintFunction\l\&lt; Equality \&gt;">
<polygon fill="white" stroke="black" points="144,-58 144,-88 290,-88 290,-58 144,-58"/>
<text text-anchor="start" x="152" y="-76" font-family="Helvetica,sans-Serif" font-size="10.00">tasks::qp::ConstraintFunction</text>
<text text-anchor="middle" x="217" y="-65" font-family="Helvetica,sans-Serif" font-size="10.00">&lt; Equality &gt;</text>
</a>
</g>
</g>
<!-- Node2&#45;&gt;Node1 -->
<g id="edge1" class="edge"><title>Node2&#45;&gt;Node1</title>
<path fill="none" stroke="midnightblue" d="M300.322,-60.9293C308.887,-59.6735 317.491,-58.4119 325.788,-57.1954"/>
<polygon fill="midnightblue" stroke="midnightblue" points="299.694,-57.4839 290.307,-62.3977 300.709,-64.4099 299.694,-57.4839"/>
</g>
<!-- Node3 -->
<g id="node3" class="node"><title>Node3</title>
<g id="a_node3"><a xlink:href="a00014.html" target="_top" xlink:title="tasks::qp::Constraint">
<polygon fill="white" stroke="black" points="0,-82.5 0,-101.5 108,-101.5 108,-82.5 0,-82.5"/>
<text text-anchor="middle" x="54" y="-89.5" font-family="Helvetica,sans-Serif" font-size="10.00">tasks::qp::Constraint</text>
</a>
</g>
</g>
<!-- Node3&#45;&gt;Node2 -->
<g id="edge2" class="edge"><title>Node3&#45;&gt;Node2</title>
<path fill="none" stroke="midnightblue" d="M118.276,-84.5327C126.695,-83.5392 135.377,-82.5145 143.931,-81.505"/>
<polygon fill="midnightblue" stroke="midnightblue" points="117.684,-81.0781 108.164,-85.726 118.505,-88.0298 117.684,-81.0781"/>
</g>
<!-- Node4 -->
<g id="node4" class="node"><title>Node4</title>
<polygon fill="white" stroke="#bfbfbf" points="37.5,-44.5 37.5,-63.5 70.5,-63.5 70.5,-44.5 37.5,-44.5"/>
<text text-anchor="middle" x="54" y="-51.5" font-family="Helvetica,sans-Serif" font-size="10.00">Fun</text>
</g>
<!-- Node4&#45;&gt;Node2 -->
<g id="edge3" class="edge"><title>Node4&#45;&gt;Node2</title>
<path fill="none" stroke="midnightblue" d="M81.0294,-57.0718C98.1756,-59.0953 121.532,-61.8516 143.995,-64.5026"/>
<polygon fill="midnightblue" stroke="midnightblue" points="81.0718,-53.5526 70.7305,-55.8564 80.2514,-60.5044 81.0718,-53.5526"/>
</g>
<!-- Node5 -->
<g id="node5" class="node"><title>Node5</title>
<g id="a_node5"><a xlink:href="a00019.html" target="_top" xlink:title="Manage modifier on contact constraint. ">
<polygon fill="white" stroke="black" points="153.5,-9 153.5,-39 280.5,-39 280.5,-9 153.5,-9"/>
<text text-anchor="start" x="161.5" y="-27" font-family="Helvetica,sans-Serif" font-size="10.00">tasks::qp::ContactConstr</text>
<text text-anchor="middle" x="217" y="-16" font-family="Helvetica,sans-Serif" font-size="10.00">Common</text>
</a>
</g>
</g>
<!-- Node5&#45;&gt;Node1 -->
<g id="edge4" class="edge"><title>Node5&#45;&gt;Node1</title>
<path fill="none" stroke="midnightblue" d="M290.726,-34.2371C302.462,-35.889 314.521,-37.5865 325.988,-39.2006"/>
<polygon fill="midnightblue" stroke="midnightblue" points="290.91,-30.7286 280.52,-32.8004 289.934,-37.6602 290.91,-30.7286"/>
</g>
</g>
</svg>
