<?xml version="1.0" encoding="UTF-8" standalone="no"?>
<!DOCTYPE svg PUBLIC "-//W3C//DTD SVG 1.1//EN"
 "http://www.w3.org/Graphics/SVG/1.1/DTD/svg11.dtd">
<!-- Generated by graphviz version 2.38.0 (20140413.2041)
 -->
<!-- Title: Tasks.h Pages: 1 -->
<svg width="707pt" height="84pt"
 viewBox="0.00 0.00 706.50 84.00" xmlns="http://www.w3.org/2000/svg" xmlns:xlink="http://www.w3.org/1999/xlink">
<g id="graph0" class="graph" transform="scale(1 1) rotate(0) translate(4 80)">
<title>Tasks.h</title>
<polygon fill="white" stroke="none" points="-4,4 -4,-80 702.5,-80 702.5,4 -4,4"/>
<!-- Node1 -->
<g id="node1" class="node"><title>Node1</title>
<polygon fill="#bfbfbf" stroke="black" points="327.5,-56.5 327.5,-75.5 379.5,-75.5 379.5,-56.5 327.5,-56.5"/>
<text text-anchor="middle" x="353.5" y="-63.5" font-family="Helvetica,sans-Serif" font-size="10.00">Tasks.h</text>
</g>
<!-- Node2 -->
<g id="node2" class="node"><title>Node2</title>
<polygon fill="white" stroke="#bfbfbf" points="0,-0.5 0,-19.5 65,-19.5 65,-0.5 0,-0.5"/>
<text text-anchor="middle" x="32.5" y="-7.5" font-family="Helvetica,sans-Serif" font-size="10.00">Eigen/Core</text>
</g>
<!-- Node1&#45;&gt;Node2 -->
<g id="edge1" class="edge"><title>Node1&#45;&gt;Node2</title>
<path fill="none" stroke="midnightblue" d="M327.163,-61.2765C279.086,-54.3703 173.678,-38.726 75.2529,-20.2528"/>
<polygon fill="midnightblue" stroke="midnightblue" points="75.6157,-16.7594 65.1394,-18.3397 74.3146,-23.6374 75.6157,-16.7594"/>
</g>
<!-- Node3 -->
<g id="node3" class="node"><title>Node3</title>
<polygon fill="white" stroke="#bfbfbf" points="83,-0.5 83,-19.5 164,-19.5 164,-0.5 83,-0.5"/>
<text text-anchor="middle" x="123.5" y="-7.5" font-family="Helvetica,sans-Serif" font-size="10.00">RBDyn/CoM.h</text>
</g>
<!-- Node1&#45;&gt;Node3 -->
<g id="edge2" class="edge"><title>Node1&#45;&gt;Node3</title>
<path fill="none" stroke="midnightblue" d="M327.116,-58.8055C288.751,-49.798 216.998,-32.9518 169.735,-21.8552"/>
<polygon fill="midnightblue" stroke="midnightblue" points="170.285,-18.3892 159.75,-19.5108 168.685,-25.2039 170.285,-18.3892"/>
</g>
<!-- Node4 -->
<g id="node4" class="node"><title>Node4</title>
<polygon fill="white" stroke="#bfbfbf" points="182,-0.5 182,-19.5 281,-19.5 281,-0.5 182,-0.5"/>
<text text-anchor="middle" x="231.5" y="-7.5" font-family="Helvetica,sans-Serif" font-size="10.00">RBDyn/Jacobian.h</text>
</g>
<!-- Node1&#45;&gt;Node4 -->
<g id="edge3" class="edge"><title>Node1&#45;&gt;Node4</title>
<path fill="none" stroke="midnightblue" d="M334.169,-56.4435C314.18,-47.5961 282.757,-33.6875 259.936,-23.5865"/>
<polygon fill="midnightblue" stroke="midnightblue" points="261.302,-20.3635 250.741,-19.5164 258.468,-26.7645 261.302,-20.3635"/>
</g>
<!-- Node5 -->
<g id="node5" class="node"><title>Node5</title>
<polygon fill="white" stroke="#bfbfbf" points="299,-0.5 299,-19.5 408,-19.5 408,-0.5 299,-0.5"/>
<text text-anchor="middle" x="353.5" y="-7.5" font-family="Helvetica,sans-Serif" font-size="10.00">RBDyn/Momentum.h</text>
</g>
<!-- Node1&#45;&gt;Node5 -->
<g id="edge4" class="edge"><title>Node1&#45;&gt;Node5</title>
<path fill="none" stroke="midnightblue" d="M353.5,-56.083C353.5,-49.0059 353.5,-38.8611 353.5,-29.9865"/>
<polygon fill="midnightblue" stroke="midnightblue" points="357,-29.751 353.5,-19.7511 350,-29.7511 357,-29.751"/>
</g>
<!-- Node6 -->
<g id="node6" class="node"><title>Node6</title>
<polygon fill="white" stroke="#bfbfbf" points="426.5,-0.5 426.5,-19.5 526.5,-19.5 526.5,-0.5 426.5,-0.5"/>
<text text-anchor="middle" x="476.5" y="-7.5" font-family="Helvetica,sans-Serif" font-size="10.00">RBDyn/VisServo.h</text>
</g>
<!-- Node1&#45;&gt;Node6 -->
<g id="edge5" class="edge"><title>Node1&#45;&gt;Node6</title>
<path fill="none" stroke="midnightblue" d="M372.99,-56.4435C393.142,-47.5961 424.823,-33.6875 447.831,-23.5865"/>
<polygon fill="midnightblue" stroke="midnightblue" points="449.352,-26.7411 457.101,-19.5164 446.538,-20.3316 449.352,-26.7411"/>
</g>
<!-- Node7 -->
<g id="node7" class="node"><title>Node7</title>
<polygon fill="white" stroke="#bfbfbf" points="545,-0.5 545,-19.5 628,-19.5 628,-0.5 545,-0.5"/>
<text text-anchor="middle" x="586.5" y="-7.5" font-family="Helvetica,sans-Serif" font-size="10.00">tasks/config.hh</text>
</g>
<!-- Node1&#45;&gt;Node7 -->
<g id="edge6" class="edge"><title>Node1&#45;&gt;Node7</title>
<path fill="none" stroke="midnightblue" d="M379.775,-58.9105C418.553,-49.9234 491.694,-32.9721 539.759,-21.8326"/>
<polygon fill="midnightblue" stroke="midnightblue" points="540.662,-25.2162 549.614,-19.5488 539.082,-18.397 540.662,-25.2162"/>
</g>
<!-- Node8 -->
<g id="node8" class="node"><title>Node8</title>
<polygon fill="white" stroke="#bfbfbf" points="646.5,-0.5 646.5,-19.5 698.5,-19.5 698.5,-0.5 646.5,-0.5"/>
<text text-anchor="middle" x="672.5" y="-7.5" font-family="Helvetica,sans-Serif" font-size="10.00">memory</text>
</g>
<!-- Node1&#45;&gt;Node8 -->
<g id="edge7" class="edge"><title>Node1&#45;&gt;Node8</title>
<path fill="none" stroke="midnightblue" d="M379.884,-61.6681C428.614,-55.333 536.175,-40.5044 636.222,-20.1061"/>
<polygon fill="midnightblue" stroke="midnightblue" points="637.102,-23.4983 646.189,-18.05 635.688,-16.6426 637.102,-23.4983"/>
</g>
</g>
</svg>
