<?xml version="1.0" encoding="UTF-8" standalone="no"?>
<!DOCTYPE svg PUBLIC "-//W3C//DTD SVG 1.1//EN"
 "http://www.w3.org/Graphics/SVG/1.1/DTD/svg11.dtd">
<!-- Generated by graphviz version 2.38.0 (20140413.2041)
 -->
<!-- Title: tasks::qp::Constraint Pages: 1 -->
<svg width="871pt" height="470pt"
 viewBox="0.00 0.00 871.00 469.50" xmlns="http://www.w3.org/2000/svg" xmlns:xlink="http://www.w3.org/1999/xlink">
<g id="graph0" class="graph" transform="scale(1 1) rotate(0) translate(4 465.5)">
<title>tasks::qp::Constraint</title>
<polygon fill="white" stroke="none" points="-4,4 -4,-465.5 867,-465.5 867,4 -4,4"/>
<!-- Node1 -->
<g id="node1" class="node"><title>Node1</title>
<polygon fill="#bfbfbf" stroke="black" points="0,-174.5 0,-193.5 108,-193.5 108,-174.5 0,-174.5"/>
<text text-anchor="middle" x="54" y="-181.5" font-family="Helvetica,sans-Serif" font-size="10.00">tasks::qp::Constraint</text>
</g>
<!-- Node2 -->
<g id="node2" class="node"><title>Node2</title>
<g id="a_node2"><a xlink:href="a00015.html" target="_top" xlink:title="tasks::qp::ConstraintFunction\l\&lt; Bound \&gt;">
<polygon fill="white" stroke="black" points="144,-349 144,-379 290,-379 290,-349 144,-349"/>
<text text-anchor="start" x="152" y="-367" font-family="Helvetica,sans-Serif" font-size="10.00">tasks::qp::ConstraintFunction</text>
<text text-anchor="middle" x="217" y="-356" font-family="Helvetica,sans-Serif" font-size="10.00">&lt; Bound &gt;</text>
</a>
</g>
</g>
<!-- Node1&#45;&gt;Node2 -->
<g id="edge1" class="edge"><title>Node1&#45;&gt;Node2</title>
<path fill="none" stroke="midnightblue" d="M70.4068,-201.225C101.822,-236.347 172.812,-315.715 202.524,-348.934"/>
<polygon fill="midnightblue" stroke="midnightblue" points="72.9316,-198.798 63.6561,-193.678 67.7141,-203.464 72.9316,-198.798"/>
</g>
<!-- Node7 -->
<g id="node7" class="node"><title>Node7</title>
<g id="a_node7"><a xlink:href="a00015.html" target="_top" xlink:title="tasks::qp::ConstraintFunction\l\&lt; Equality \&gt;">
<polygon fill="white" stroke="black" points="144,-235 144,-265 290,-265 290,-235 144,-235"/>
<text text-anchor="start" x="152" y="-253" font-family="Helvetica,sans-Serif" font-size="10.00">tasks::qp::ConstraintFunction</text>
<text text-anchor="middle" x="217" y="-242" font-family="Helvetica,sans-Serif" font-size="10.00">&lt; Equality &gt;</text>
</a>
</g>
</g>
<!-- Node1&#45;&gt;Node7 -->
<g id="edge6" class="edge"><title>Node1&#45;&gt;Node7</title>
<path fill="none" stroke="midnightblue" d="M87.9998,-197.528C114.496,-208.39 151.681,-223.633 179.148,-234.893"/>
<polygon fill="midnightblue" stroke="midnightblue" points="88.9911,-194.152 78.4108,-193.597 86.3359,-200.629 88.9911,-194.152"/>
</g>
<!-- Node13 -->
<g id="node13" class="node"><title>Node13</title>
<g id="a_node13"><a xlink:href="a00015.html" target="_top" xlink:title="tasks::qp::ConstraintFunction\l\&lt; GenInequality \&gt;">
<polygon fill="white" stroke="black" points="144,-169 144,-199 290,-199 290,-169 144,-169"/>
<text text-anchor="start" x="152" y="-187" font-family="Helvetica,sans-Serif" font-size="10.00">tasks::qp::ConstraintFunction</text>
<text text-anchor="middle" x="217" y="-176" font-family="Helvetica,sans-Serif" font-size="10.00">&lt; GenInequality &gt;</text>
</a>
</g>
</g>
<!-- Node1&#45;&gt;Node13 -->
<g id="edge12" class="edge"><title>Node1&#45;&gt;Node13</title>
<path fill="none" stroke="midnightblue" d="M118.276,-184C126.695,-184 135.377,-184 143.931,-184"/>
<polygon fill="midnightblue" stroke="midnightblue" points="118.164,-180.5 108.164,-184 118.164,-187.5 118.164,-180.5"/>
</g>
<!-- Node19 -->
<g id="node19" class="node"><title>Node19</title>
<g id="a_node19"><a xlink:href="a00015.html" target="_top" xlink:title="tasks::qp::ConstraintFunction\l\&lt; Inequality \&gt;">
<polygon fill="white" stroke="black" points="144,-112 144,-142 290,-142 290,-112 144,-112"/>
<text text-anchor="start" x="152" y="-130" font-family="Helvetica,sans-Serif" font-size="10.00">tasks::qp::ConstraintFunction</text>
<text text-anchor="middle" x="217" y="-119" font-family="Helvetica,sans-Serif" font-size="10.00">&lt; Inequality &gt;</text>
</a>
</g>
</g>
<!-- Node1&#45;&gt;Node19 -->
<g id="edge18" class="edge"><title>Node1&#45;&gt;Node19</title>
<path fill="none" stroke="midnightblue" d="M91.537,-171.065C115.895,-162.441 147.998,-151.075 173.499,-142.047"/>
<polygon fill="midnightblue" stroke="midnightblue" points="90.2063,-167.823 81.9478,-174.459 92.5426,-174.421 90.2063,-167.823"/>
</g>
<!-- Node24 -->
<g id="node24" class="node"><title>Node24</title>
<g id="a_node24"><a xlink:href="a00015.html" target="_top" xlink:title="tasks::qp::ConstraintFunction\l\&lt; Fun \&gt;">
<polygon fill="white" stroke="black" points="144,-63 144,-93 290,-93 290,-63 144,-63"/>
<text text-anchor="start" x="152" y="-81" font-family="Helvetica,sans-Serif" font-size="10.00">tasks::qp::ConstraintFunction</text>
<text text-anchor="middle" x="217" y="-70" font-family="Helvetica,sans-Serif" font-size="10.00">&lt; Fun &gt;</text>
</a>
</g>
</g>
<!-- Node1&#45;&gt;Node24 -->
<g id="edge23" class="edge"><title>Node1&#45;&gt;Node24</title>
<path fill="none" stroke="midnightblue" d="M69.7547,-166.591C86.1807,-148.204 114.344,-119.5 144,-102 149.674,-98.6518 155.878,-95.696 162.189,-93.1069"/>
<polygon fill="midnightblue" stroke="midnightblue" points="67.0175,-164.405 63.0703,-174.237 72.2873,-169.012 67.0175,-164.405"/>
</g>
<!-- Node3 -->
<g id="node3" class="node"><title>Node3</title>
<g id="a_node3"><a xlink:href="a00027.html" target="_top" xlink:title="Avoid to reach articular position and velocity limits based on a velocity damper. ...">
<polygon fill="white" stroke="black" points="334,-431 334,-461 479,-461 479,-431 334,-431"/>
<text text-anchor="start" x="342" y="-449" font-family="Helvetica,sans-Serif" font-size="10.00">tasks::qp::DamperJointLimits</text>
<text text-anchor="middle" x="406.5" y="-438" font-family="Helvetica,sans-Serif" font-size="10.00">Constr</text>
</a>
</g>
</g>
<!-- Node2&#45;&gt;Node3 -->
<g id="edge2" class="edge"><title>Node2&#45;&gt;Node3</title>
<path fill="none" stroke="midnightblue" d="M252.348,-384.178C273.197,-395.904 300.603,-410.407 326,-421 334.546,-424.565 343.788,-427.909 352.844,-430.921"/>
<polygon fill="midnightblue" stroke="midnightblue" points="253.973,-381.076 243.55,-379.176 250.514,-387.161 253.973,-381.076"/>
</g>
<!-- Node4 -->
<g id="node4" class="node"><title>Node4</title>
<g id="a_node4"><a xlink:href="a00040.html" target="_top" xlink:title="tasks::qp::JointAccConstr">
<polygon fill="white" stroke="black" points="341,-392.5 341,-411.5 472,-411.5 472,-392.5 341,-392.5"/>
<text text-anchor="middle" x="406.5" y="-399.5" font-family="Helvetica,sans-Serif" font-size="10.00">tasks::qp::JointAccConstr</text>
</a>
</g>
</g>
<!-- Node2&#45;&gt;Node4 -->
<g id="edge3" class="edge"><title>Node2&#45;&gt;Node4</title>
<path fill="none" stroke="midnightblue" d="M300.25,-380.669C320.185,-384.71 340.825,-388.892 358.489,-392.472"/>
<polygon fill="midnightblue" stroke="midnightblue" points="300.72,-377.194 290.224,-378.637 299.33,-384.054 300.72,-377.194"/>
</g>
<!-- Node5 -->
<g id="node5" class="node"><title>Node5</title>
<g id="a_node5"><a xlink:href="a00042.html" target="_top" xlink:title="Avoid to reach articular position limits based on direct integration. ">
<polygon fill="white" stroke="black" points="336.5,-354.5 336.5,-373.5 476.5,-373.5 476.5,-354.5 336.5,-354.5"/>
<text text-anchor="middle" x="406.5" y="-361.5" font-family="Helvetica,sans-Serif" font-size="10.00">tasks::qp::JointLimitsConstr</text>
</a>
</g>
</g>
<!-- Node2&#45;&gt;Node5 -->
<g id="edge4" class="edge"><title>Node2&#45;&gt;Node5</title>
<path fill="none" stroke="midnightblue" d="M300.272,-364C312.328,-364 324.64,-364 336.396,-364"/>
<polygon fill="midnightblue" stroke="midnightblue" points="300.224,-360.5 290.224,-364 300.224,-367.5 300.224,-360.5"/>
</g>
<!-- Node6 -->
<g id="node6" class="node"><title>Node6</title>
<g id="a_node6"><a xlink:href="a00069.html" target="_top" xlink:title="tasks::qp::PositiveLambda">
<polygon fill="white" stroke="black" points="340,-316.5 340,-335.5 473,-335.5 473,-316.5 340,-316.5"/>
<text text-anchor="middle" x="406.5" y="-323.5" font-family="Helvetica,sans-Serif" font-size="10.00">tasks::qp::PositiveLambda</text>
</a>
</g>
</g>
<!-- Node2&#45;&gt;Node6 -->
<g id="edge5" class="edge"><title>Node2&#45;&gt;Node6</title>
<path fill="none" stroke="midnightblue" d="M300.25,-347.331C320.185,-343.29 340.825,-339.108 358.489,-335.528"/>
<polygon fill="midnightblue" stroke="midnightblue" points="299.33,-343.946 290.224,-349.363 300.72,-350.806 299.33,-343.946"/>
</g>
<!-- Node8 -->
<g id="node8" class="node"><title>Node8</title>
<g id="a_node8"><a xlink:href="a00018.html" target="_top" xlink:title="Common contact constraint computation. ">
<polygon fill="white" stroke="black" points="343,-278.5 343,-297.5 470,-297.5 470,-278.5 343,-278.5"/>
<text text-anchor="middle" x="406.5" y="-285.5" font-family="Helvetica,sans-Serif" font-size="10.00">tasks::qp::ContactConstr</text>
</a>
</g>
</g>
<!-- Node7&#45;&gt;Node8 -->
<g id="edge7" class="edge"><title>Node7&#45;&gt;Node8</title>
<path fill="none" stroke="midnightblue" d="M300.25,-266.669C320.185,-270.71 340.825,-274.892 358.489,-278.472"/>
<polygon fill="midnightblue" stroke="midnightblue" points="300.72,-263.194 290.224,-264.637 299.33,-270.054 300.72,-263.194"/>
</g>
<!-- Node12 -->
<g id="node12" class="node"><title>Node12</title>
<g id="a_node12"><a xlink:href="a00045.html" target="_top" xlink:title="tasks::qp::LambdaConstr">
<polygon fill="white" stroke="black" points="343,-240.5 343,-259.5 470,-259.5 470,-240.5 343,-240.5"/>
<text text-anchor="middle" x="406.5" y="-247.5" font-family="Helvetica,sans-Serif" font-size="10.00">tasks::qp::LambdaConstr</text>
</a>
</g>
</g>
<!-- Node7&#45;&gt;Node12 -->
<g id="edge11" class="edge"><title>Node7&#45;&gt;Node12</title>
<path fill="none" stroke="midnightblue" d="M300.479,-250C314.673,-250 329.217,-250 342.784,-250"/>
<polygon fill="midnightblue" stroke="midnightblue" points="300.224,-246.5 290.224,-250 300.224,-253.5 300.224,-246.5"/>
</g>
<!-- Node9 -->
<g id="node9" class="node"><title>Node9</title>
<g id="a_node9"><a xlink:href="a00016.html" target="_top" xlink:title="Contact constraint by targeting a null acceleration. ">
<polygon fill="white" stroke="black" points="528.5,-316.5 528.5,-335.5 672.5,-335.5 672.5,-316.5 528.5,-316.5"/>
<text text-anchor="middle" x="600.5" y="-323.5" font-family="Helvetica,sans-Serif" font-size="10.00">tasks::qp::ContactAccConstr</text>
</a>
</g>
</g>
<!-- Node8&#45;&gt;Node9 -->
<g id="edge8" class="edge"><title>Node8&#45;&gt;Node9</title>
<path fill="none" stroke="midnightblue" d="M465.798,-299.538C493.183,-304.958 525.433,-311.341 551.399,-316.48"/>
<polygon fill="midnightblue" stroke="midnightblue" points="466.439,-296.097 455.95,-297.589 465.08,-302.964 466.439,-296.097"/>
</g>
<!-- Node10 -->
<g id="node10" class="node"><title>Node10</title>
<g id="a_node10"><a xlink:href="a00023.html" target="_top" xlink:title="Contact constraint by targeting a constant frame. ">
<polygon fill="white" stroke="black" points="528.5,-278.5 528.5,-297.5 672.5,-297.5 672.5,-278.5 528.5,-278.5"/>
<text text-anchor="middle" x="600.5" y="-285.5" font-family="Helvetica,sans-Serif" font-size="10.00">tasks::qp::ContactPosConstr</text>
</a>
</g>
</g>
<!-- Node8&#45;&gt;Node10 -->
<g id="edge9" class="edge"><title>Node8&#45;&gt;Node10</title>
<path fill="none" stroke="midnightblue" d="M480.297,-288C496.033,-288 512.654,-288 528.327,-288"/>
<polygon fill="midnightblue" stroke="midnightblue" points="480.102,-284.5 470.102,-288 480.102,-291.5 480.102,-284.5"/>
</g>
<!-- Node11 -->
<g id="node11" class="node"><title>Node11</title>
<g id="a_node11"><a xlink:href="a00025.html" target="_top" xlink:title="Contact constraint by targeting a null velocity. ">
<polygon fill="white" stroke="black" points="523,-240.5 523,-259.5 678,-259.5 678,-240.5 523,-240.5"/>
<text text-anchor="middle" x="600.5" y="-247.5" font-family="Helvetica,sans-Serif" font-size="10.00">tasks::qp::ContactSpeedConstr</text>
</a>
</g>
</g>
<!-- Node8&#45;&gt;Node11 -->
<g id="edge10" class="edge"><title>Node8&#45;&gt;Node11</title>
<path fill="none" stroke="midnightblue" d="M465.798,-276.462C493.183,-271.042 525.433,-264.659 551.399,-259.52"/>
<polygon fill="midnightblue" stroke="midnightblue" points="465.08,-273.036 455.95,-278.411 466.439,-279.903 465.08,-273.036"/>
</g>
<!-- Node14 -->
<g id="node14" class="node"><title>Node14</title>
<g id="a_node14"><a xlink:href="a00005.html" target="_top" xlink:title="Constraint some link velocity in link frame by direct integration. ">
<polygon fill="white" stroke="black" points="327.5,-202.5 327.5,-221.5 485.5,-221.5 485.5,-202.5 327.5,-202.5"/>
<text text-anchor="middle" x="406.5" y="-209.5" font-family="Helvetica,sans-Serif" font-size="10.00">tasks::qp::BoundedSpeedConstr</text>
</a>
</g>
</g>
<!-- Node13&#45;&gt;Node14 -->
<g id="edge13" class="edge"><title>Node13&#45;&gt;Node14</title>
<path fill="none" stroke="midnightblue" d="M300.295,-196.289C314.232,-198.371 328.513,-200.503 341.88,-202.499"/>
<polygon fill="midnightblue" stroke="midnightblue" points="300.631,-192.801 290.224,-194.785 299.598,-199.724 300.631,-192.801"/>
</g>
<!-- Node15 -->
<g id="node15" class="node"><title>Node15</title>
<g id="a_node15"><a xlink:href="a00052.html" target="_top" xlink:title="tasks::qp::MotionConstrCommon">
<polygon fill="white" stroke="black" points="326,-164.5 326,-183.5 487,-183.5 487,-164.5 326,-164.5"/>
<text text-anchor="middle" x="406.5" y="-171.5" font-family="Helvetica,sans-Serif" font-size="10.00">tasks::qp::MotionConstrCommon</text>
</a>
</g>
</g>
<!-- Node13&#45;&gt;Node15 -->
<g id="edge14" class="edge"><title>Node13&#45;&gt;Node15</title>
<path fill="none" stroke="midnightblue" d="M300.432,-179.604C308.867,-179.154 317.426,-178.697 325.83,-178.249"/>
<polygon fill="midnightblue" stroke="midnightblue" points="300.024,-176.12 290.224,-180.148 300.396,-183.11 300.024,-176.12"/>
</g>
<!-- Node16 -->
<g id="node16" class="node"><title>Node16</title>
<g id="a_node16"><a xlink:href="a00051.html" target="_top" xlink:title="tasks::qp::MotionConstr">
<polygon fill="white" stroke="black" points="539.5,-183.5 539.5,-202.5 661.5,-202.5 661.5,-183.5 539.5,-183.5"/>
<text text-anchor="middle" x="600.5" y="-190.5" font-family="Helvetica,sans-Serif" font-size="10.00">tasks::qp::MotionConstr</text>
</a>
</g>
</g>
<!-- Node15&#45;&gt;Node16 -->
<g id="edge15" class="edge"><title>Node15&#45;&gt;Node16</title>
<path fill="none" stroke="midnightblue" d="M497.526,-182.909C511.695,-184.311 526.038,-185.73 539.315,-187.044"/>
<polygon fill="midnightblue" stroke="midnightblue" points="497.553,-179.395 487.257,-181.893 496.864,-186.36 497.553,-179.395"/>
</g>
<!-- Node18 -->
<g id="node18" class="node"><title>Node18</title>
<g id="a_node18"><a xlink:href="a00053.html" target="_top" xlink:title="Use polynome in function of q to compute torque limits. ">
<polygon fill="white" stroke="black" points="530,-145.5 530,-164.5 671,-164.5 671,-145.5 530,-145.5"/>
<text text-anchor="middle" x="600.5" y="-152.5" font-family="Helvetica,sans-Serif" font-size="10.00">tasks::qp::MotionPolyConstr</text>
</a>
</g>
</g>
<!-- Node15&#45;&gt;Node18 -->
<g id="edge17" class="edge"><title>Node15&#45;&gt;Node18</title>
<path fill="none" stroke="midnightblue" d="M497.245,-165.119C508.172,-164.038 519.207,-162.946 529.782,-161.899"/>
<polygon fill="midnightblue" stroke="midnightblue" points="496.864,-161.64 487.257,-166.107 497.553,-168.605 496.864,-161.64"/>
</g>
<!-- Node17 -->
<g id="node17" class="node"><title>Node17</title>
<g id="a_node17"><a xlink:href="a00054.html" target="_top" xlink:title="tasks::qp::MotionSpringConstr">
<polygon fill="white" stroke="black" points="714,-183.5 714,-202.5 863,-202.5 863,-183.5 714,-183.5"/>
<text text-anchor="middle" x="788.5" y="-190.5" font-family="Helvetica,sans-Serif" font-size="10.00">tasks::qp::MotionSpringConstr</text>
</a>
</g>
</g>
<!-- Node16&#45;&gt;Node17 -->
<g id="edge16" class="edge"><title>Node16&#45;&gt;Node17</title>
<path fill="none" stroke="midnightblue" d="M671.965,-193C685.683,-193 700.097,-193 713.912,-193"/>
<polygon fill="midnightblue" stroke="midnightblue" points="671.632,-189.5 661.632,-193 671.632,-196.5 671.632,-189.5"/>
</g>
<!-- Node20 -->
<g id="node20" class="node"><title>Node20</title>
<g id="a_node20"><a xlink:href="a00006.html" target="_top" xlink:title="Avoid that too robot links enter into collision based on a velocity damper. ">
<polygon fill="white" stroke="black" points="341.5,-126.5 341.5,-145.5 471.5,-145.5 471.5,-126.5 341.5,-126.5"/>
<text text-anchor="middle" x="406.5" y="-133.5" font-family="Helvetica,sans-Serif" font-size="10.00">tasks::qp::CollisionConstr</text>
</a>
</g>
</g>
<!-- Node19&#45;&gt;Node20 -->
<g id="edge19" class="edge"><title>Node19&#45;&gt;Node20</title>
<path fill="none" stroke="midnightblue" d="M300.573,-130.963C314.212,-131.618 328.172,-132.288 341.275,-132.917"/>
<polygon fill="midnightblue" stroke="midnightblue" points="300.381,-127.45 290.224,-130.467 300.045,-134.442 300.381,-127.45"/>
</g>
<!-- Node21 -->
<g id="node21" class="node"><title>Node21</title>
<g id="a_node21"><a xlink:href="a00007.html" target="_top" xlink:title="Prevent robot CoM to go out of a convex hull. ">
<polygon fill="white" stroke="black" points="330.5,-88.5 330.5,-107.5 482.5,-107.5 482.5,-88.5 330.5,-88.5"/>
<text text-anchor="middle" x="406.5" y="-95.5" font-family="Helvetica,sans-Serif" font-size="10.00">tasks::qp::CoMIncPlaneConstr</text>
</a>
</g>
</g>
<!-- Node19&#45;&gt;Node21 -->
<g id="edge20" class="edge"><title>Node19&#45;&gt;Node21</title>
<path fill="none" stroke="midnightblue" d="M300.302,-114.271C314.972,-112.002 330.022,-109.674 343.986,-107.514"/>
<polygon fill="midnightblue" stroke="midnightblue" points="299.572,-110.842 290.224,-115.829 300.642,-117.76 299.572,-110.842"/>
</g>
<!-- Node22 -->
<g id="node22" class="node"><title>Node22</title>
<g id="a_node22"><a xlink:href="a00035.html" target="_top" xlink:title="tasks::qp::GripperTorque\lConstr">
<polygon fill="white" stroke="black" points="344,-39 344,-69 469,-69 469,-39 344,-39"/>
<text text-anchor="start" x="352" y="-57" font-family="Helvetica,sans-Serif" font-size="10.00">tasks::qp::GripperTorque</text>
<text text-anchor="middle" x="406.5" y="-46" font-family="Helvetica,sans-Serif" font-size="10.00">Constr</text>
</a>
</g>
</g>
<!-- Node19&#45;&gt;Node22 -->
<g id="edge21" class="edge"><title>Node19&#45;&gt;Node22</title>
<path fill="none" stroke="midnightblue" d="M275.719,-108.321C280.61,-106.329 285.429,-104.216 290,-102 307.085,-93.7182 308.794,-87.0287 326,-79 333.867,-75.3291 342.413,-72.0057 350.888,-69.0685"/>
<polygon fill="midnightblue" stroke="midnightblue" points="274.324,-105.109 266.274,-111.997 276.863,-111.632 274.324,-105.109"/>
</g>
<!-- Node23 -->
<g id="node23" class="node"><title>Node23</title>
<g id="a_node23"><a xlink:href="a00038.html" target="_top" xlink:title="Generalized Image Point Constraint This can be used as either a Field of View constraint or an Occlus...">
<polygon fill="white" stroke="black" points="347,-0.5 347,-19.5 466,-19.5 466,-0.5 347,-0.5"/>
<text text-anchor="middle" x="406.5" y="-7.5" font-family="Helvetica,sans-Serif" font-size="10.00">tasks::qp::ImageConstr</text>
</a>
</g>
</g>
<!-- Node19&#45;&gt;Node23 -->
<g id="edge22" class="edge"><title>Node19&#45;&gt;Node23</title>
<path fill="none" stroke="midnightblue" d="M283.941,-106.729C286.062,-105.26 288.091,-103.686 290,-102 317.115,-78.0538 297.727,-51.5667 326,-29 332.1,-24.1311 339.249,-20.4774 346.713,-17.7413"/>
<polygon fill="midnightblue" stroke="midnightblue" points="282.132,-103.733 275.372,-111.891 285.744,-109.729 282.132,-103.733"/>
</g>
</g>
</svg>
