<?xml version="1.0" encoding="UTF-8" standalone="no"?>
<!DOCTYPE svg PUBLIC "-//W3C//DTD SVG 1.1//EN"
 "http://www.w3.org/Graphics/SVG/1.1/DTD/svg11.dtd">
<!-- Generated by graphviz version 2.38.0 (20140413.2041)
 -->
<!-- Title: QLDQPSolver.h Pages: 1 -->
<svg width="289pt" height="140pt"
 viewBox="0.00 0.00 289.00 140.00" xmlns="http://www.w3.org/2000/svg" xmlns:xlink="http://www.w3.org/1999/xlink">
<g id="graph0" class="graph" transform="scale(1 1) rotate(0) translate(4 136)">
<title>QLDQPSolver.h</title>
<polygon fill="white" stroke="none" points="-4,4 -4,-136 285,-136 285,4 -4,4"/>
<!-- Node1 -->
<g id="node1" class="node"><title>Node1</title>
<polygon fill="#bfbfbf" stroke="black" points="52,-112.5 52,-131.5 139,-131.5 139,-112.5 52,-112.5"/>
<text text-anchor="middle" x="95.5" y="-119.5" font-family="Helvetica,sans-Serif" font-size="10.00">QLDQPSolver.h</text>
</g>
<!-- Node2 -->
<g id="node2" class="node"><title>Node2</title>
<polygon fill="white" stroke="#bfbfbf" points="0,-56.5 0,-75.5 87,-75.5 87,-56.5 0,-56.5"/>
<text text-anchor="middle" x="43.5" y="-63.5" font-family="Helvetica,sans-Serif" font-size="10.00">eigen&#45;qld/QLD.h</text>
</g>
<!-- Node1&#45;&gt;Node2 -->
<g id="edge1" class="edge"><title>Node1&#45;&gt;Node2</title>
<path fill="none" stroke="midnightblue" d="M86.9133,-112.083C79.341,-104.22 68.1218,-92.5688 58.9856,-83.0813"/>
<polygon fill="midnightblue" stroke="midnightblue" points="61.3845,-80.5266 51.927,-75.7511 56.3423,-85.3821 61.3845,-80.5266"/>
</g>
<!-- Node3 -->
<g id="node3" class="node"><title>Node3</title>
<g id="a_node3"><a xlink:href="a00102.html" target="_top" xlink:title="GenQPSolver.h">
<polygon fill="white" stroke="black" points="105,-56.5 105,-75.5 190,-75.5 190,-56.5 105,-56.5"/>
<text text-anchor="middle" x="147.5" y="-63.5" font-family="Helvetica,sans-Serif" font-size="10.00">GenQPSolver.h</text>
</a>
</g>
</g>
<!-- Node1&#45;&gt;Node3 -->
<g id="edge2" class="edge"><title>Node1&#45;&gt;Node3</title>
<path fill="none" stroke="midnightblue" d="M104.087,-112.083C111.659,-104.22 122.878,-92.5688 132.014,-83.0813"/>
<polygon fill="midnightblue" stroke="midnightblue" points="134.658,-85.3821 139.073,-75.7511 129.615,-80.5266 134.658,-85.3821"/>
</g>
<!-- Node4 -->
<g id="node4" class="node"><title>Node4</title>
<polygon fill="white" stroke="#bfbfbf" points="52.5,-0.5 52.5,-19.5 96.5,-19.5 96.5,-0.5 52.5,-0.5"/>
<text text-anchor="middle" x="74.5" y="-7.5" font-family="Helvetica,sans-Serif" font-size="10.00">vector</text>
</g>
<!-- Node3&#45;&gt;Node4 -->
<g id="edge3" class="edge"><title>Node3&#45;&gt;Node4</title>
<path fill="none" stroke="midnightblue" d="M135.771,-56.324C124.663,-48.1066 107.758,-35.6017 94.5167,-25.8069"/>
<polygon fill="midnightblue" stroke="midnightblue" points="96.5631,-22.9671 86.4421,-19.8339 92.4001,-28.5948 96.5631,-22.9671"/>
</g>
<!-- Node5 -->
<g id="node5" class="node"><title>Node5</title>
<polygon fill="white" stroke="#bfbfbf" points="115,-0.5 115,-19.5 180,-19.5 180,-0.5 115,-0.5"/>
<text text-anchor="middle" x="147.5" y="-7.5" font-family="Helvetica,sans-Serif" font-size="10.00">Eigen/Core</text>
</g>
<!-- Node3&#45;&gt;Node5 -->
<g id="edge4" class="edge"><title>Node3&#45;&gt;Node5</title>
<path fill="none" stroke="midnightblue" d="M147.5,-56.083C147.5,-49.0059 147.5,-38.8611 147.5,-29.9865"/>
<polygon fill="midnightblue" stroke="midnightblue" points="151,-29.751 147.5,-19.7511 144,-29.7511 151,-29.751"/>
</g>
<!-- Node6 -->
<g id="node6" class="node"><title>Node6</title>
<polygon fill="white" stroke="#bfbfbf" points="198,-0.5 198,-19.5 281,-19.5 281,-0.5 198,-0.5"/>
<text text-anchor="middle" x="239.5" y="-7.5" font-family="Helvetica,sans-Serif" font-size="10.00">tasks/config.hh</text>
</g>
<!-- Node3&#45;&gt;Node6 -->
<g id="edge5" class="edge"><title>Node3&#45;&gt;Node6</title>
<path fill="none" stroke="midnightblue" d="M162.281,-56.324C176.767,-47.8215 199.073,-34.7288 215.993,-24.7975"/>
<polygon fill="midnightblue" stroke="midnightblue" points="217.903,-27.735 224.755,-19.6545 214.359,-21.6981 217.903,-27.735"/>
</g>
</g>
</svg>
