<?xml version="1.0" encoding="UTF-8" standalone="no"?>
<!DOCTYPE svg PUBLIC "-//W3C//DTD SVG 1.1//EN"
 "http://www.w3.org/Graphics/SVG/1.1/DTD/svg11.dtd">
<!-- Generated by graphviz version 2.38.0 (20140413.2041)
 -->
<!-- Title: QPMotionConstr.h Pages: 1 -->
<svg width="550pt" height="252pt"
 viewBox="0.00 0.00 550.00 252.00" xmlns="http://www.w3.org/2000/svg" xmlns:xlink="http://www.w3.org/1999/xlink">
<g id="graph0" class="graph" transform="scale(1 1) rotate(0) translate(4 248)">
<title>QPMotionConstr.h</title>
<polygon fill="white" stroke="none" points="-4,4 -4,-248 546,-248 546,4 -4,4"/>
<!-- Node1 -->
<g id="node1" class="node"><title>Node1</title>
<polygon fill="#bfbfbf" stroke="black" points="212.5,-224.5 212.5,-243.5 310.5,-243.5 310.5,-224.5 212.5,-224.5"/>
<text text-anchor="middle" x="261.5" y="-231.5" font-family="Helvetica,sans-Serif" font-size="10.00">QPMotionConstr.h</text>
</g>
<!-- Node2 -->
<g id="node2" class="node"><title>Node2</title>
<polygon fill="white" stroke="#bfbfbf" points="0,-168.5 0,-187.5 35,-187.5 35,-168.5 0,-168.5"/>
<text text-anchor="middle" x="17.5" y="-175.5" font-family="Helvetica,sans-Serif" font-size="10.00">map</text>
</g>
<!-- Node1&#45;&gt;Node2 -->
<g id="edge1" class="edge"><title>Node1&#45;&gt;Node2</title>
<path fill="none" stroke="midnightblue" d="M217.05,-224.439C174.022,-215.947 107.038,-202.182 49.5,-188 48.0291,-187.637 46.5234,-187.255 45.0055,-186.859"/>
<polygon fill="midnightblue" stroke="midnightblue" points="45.6184,-183.399 35.0508,-184.158 43.7849,-190.155 45.6184,-183.399"/>
</g>
<!-- Node3 -->
<g id="node3" class="node"><title>Node3</title>
<polygon fill="white" stroke="#bfbfbf" points="69,-0.5 69,-19.5 134,-19.5 134,-0.5 69,-0.5"/>
<text text-anchor="middle" x="101.5" y="-7.5" font-family="Helvetica,sans-Serif" font-size="10.00">Eigen/Core</text>
</g>
<!-- Node1&#45;&gt;Node3 -->
<g id="edge2" class="edge"><title>Node1&#45;&gt;Node3</title>
<path fill="none" stroke="midnightblue" d="M236.759,-224.415C201.33,-210.755 136.856,-180.543 104.5,-132 83.7892,-100.928 90.3857,-54.69 96.3582,-29.3128"/>
<polygon fill="midnightblue" stroke="midnightblue" points="99.7719,-30.091 98.8781,-19.534 92.9934,-28.3442 99.7719,-30.091"/>
</g>
<!-- Node4 -->
<g id="node4" class="node"><title>Node4</title>
<polygon fill="white" stroke="#bfbfbf" points="313.5,-168.5 313.5,-187.5 387.5,-187.5 387.5,-168.5 313.5,-168.5"/>
<text text-anchor="middle" x="350.5" y="-175.5" font-family="Helvetica,sans-Serif" font-size="10.00">RBDyn/FD.h</text>
</g>
<!-- Node1&#45;&gt;Node4 -->
<g id="edge3" class="edge"><title>Node1&#45;&gt;Node4</title>
<path fill="none" stroke="midnightblue" d="M275.799,-224.324C289.683,-215.9 310.992,-202.971 327.304,-193.074"/>
<polygon fill="midnightblue" stroke="midnightblue" points="329.502,-195.834 336.236,-187.655 325.871,-189.85 329.502,-195.834"/>
</g>
<!-- Node5 -->
<g id="node5" class="node"><title>Node5</title>
<polygon fill="white" stroke="#bfbfbf" points="406,-168.5 406,-187.5 505,-187.5 505,-168.5 406,-168.5"/>
<text text-anchor="middle" x="455.5" y="-175.5" font-family="Helvetica,sans-Serif" font-size="10.00">RBDyn/Jacobian.h</text>
</g>
<!-- Node1&#45;&gt;Node5 -->
<g id="edge4" class="edge"><title>Node1&#45;&gt;Node5</title>
<path fill="none" stroke="midnightblue" d="M292.24,-224.444C325.444,-215.201 378.491,-200.436 415.057,-190.257"/>
<polygon fill="midnightblue" stroke="midnightblue" points="416.209,-193.57 424.904,-187.516 414.332,-186.826 416.209,-193.57"/>
</g>
<!-- Node6 -->
<g id="node6" class="node"><title>Node6</title>
<g id="a_node6"><a xlink:href="a00110.html" target="_top" xlink:title="QPSolver.h">
<polygon fill="white" stroke="black" points="228,-168.5 228,-187.5 295,-187.5 295,-168.5 228,-168.5"/>
<text text-anchor="middle" x="261.5" y="-175.5" font-family="Helvetica,sans-Serif" font-size="10.00">QPSolver.h</text>
</a>
</g>
</g>
<!-- Node1&#45;&gt;Node6 -->
<g id="edge5" class="edge"><title>Node1&#45;&gt;Node6</title>
<path fill="none" stroke="midnightblue" d="M261.5,-224.083C261.5,-217.006 261.5,-206.861 261.5,-197.986"/>
<polygon fill="midnightblue" stroke="midnightblue" points="265,-197.751 261.5,-187.751 258,-197.751 265,-197.751"/>
</g>
<!-- Node6&#45;&gt;Node3 -->
<g id="edge9" class="edge"><title>Node6&#45;&gt;Node3</title>
<path fill="none" stroke="midnightblue" d="M227.871,-175.901C195.347,-172.925 147.178,-163.113 120.5,-132 95.7825,-103.174 96.3035,-55.6866 98.8797,-29.599"/>
<polygon fill="midnightblue" stroke="midnightblue" points="102.369,-29.8987 100.083,-19.5533 95.4185,-29.0659 102.369,-29.8987"/>
</g>
<!-- Node7 -->
<g id="node7" class="node"><title>Node7</title>
<polygon fill="white" stroke="#bfbfbf" points="235.5,-112.5 235.5,-131.5 287.5,-131.5 287.5,-112.5 235.5,-112.5"/>
<text text-anchor="middle" x="261.5" y="-119.5" font-family="Helvetica,sans-Serif" font-size="10.00">memory</text>
</g>
<!-- Node6&#45;&gt;Node7 -->
<g id="edge6" class="edge"><title>Node6&#45;&gt;Node7</title>
<path fill="none" stroke="midnightblue" d="M261.5,-168.083C261.5,-161.006 261.5,-150.861 261.5,-141.986"/>
<polygon fill="midnightblue" stroke="midnightblue" points="265,-141.751 261.5,-131.751 258,-141.751 265,-141.751"/>
</g>
<!-- Node8 -->
<g id="node8" class="node"><title>Node8</title>
<polygon fill="white" stroke="#bfbfbf" points="377.5,-0.5 377.5,-19.5 421.5,-19.5 421.5,-0.5 377.5,-0.5"/>
<text text-anchor="middle" x="399.5" y="-7.5" font-family="Helvetica,sans-Serif" font-size="10.00">vector</text>
</g>
<!-- Node6&#45;&gt;Node8 -->
<g id="edge7" class="edge"><title>Node6&#45;&gt;Node8</title>
<path fill="none" stroke="midnightblue" d="M295.351,-169.611C345.97,-158.404 435.981,-137.796 440.5,-132 465.388,-100.081 433.961,-52.1843 413.859,-27.3076"/>
<polygon fill="midnightblue" stroke="midnightblue" points="416.442,-24.941 407.332,-19.5324 411.081,-29.4417 416.442,-24.941"/>
</g>
<!-- Node9 -->
<g id="node9" class="node"><title>Node9</title>
<polygon fill="white" stroke="#bfbfbf" points="306,-112.5 306,-131.5 415,-131.5 415,-112.5 306,-112.5"/>
<text text-anchor="middle" x="360.5" y="-119.5" font-family="Helvetica,sans-Serif" font-size="10.00">boost/timer/timer.hpp</text>
</g>
<!-- Node6&#45;&gt;Node9 -->
<g id="edge8" class="edge"><title>Node6&#45;&gt;Node9</title>
<path fill="none" stroke="midnightblue" d="M277.406,-168.324C293.138,-159.743 317.442,-146.486 335.709,-136.522"/>
<polygon fill="midnightblue" stroke="midnightblue" points="337.53,-139.516 344.633,-131.655 334.178,-133.37 337.53,-139.516"/>
</g>
<!-- Node10 -->
<g id="node10" class="node"><title>Node10</title>
<g id="a_node10"><a xlink:href="a00111.html" target="_top" xlink:title="QPSolverData.h">
<polygon fill="white" stroke="black" points="129.5,-112.5 129.5,-131.5 217.5,-131.5 217.5,-112.5 129.5,-112.5"/>
<text text-anchor="middle" x="173.5" y="-119.5" font-family="Helvetica,sans-Serif" font-size="10.00">QPSolverData.h</text>
</a>
</g>
</g>
<!-- Node6&#45;&gt;Node10 -->
<g id="edge10" class="edge"><title>Node6&#45;&gt;Node10</title>
<path fill="none" stroke="midnightblue" d="M247.361,-168.324C233.634,-159.9 212.564,-146.971 196.436,-137.074"/>
<polygon fill="midnightblue" stroke="midnightblue" points="197.957,-133.902 187.604,-131.655 194.296,-139.868 197.957,-133.902"/>
</g>
<!-- Node12 -->
<g id="node12" class="node"><title>Node12</title>
<g id="a_node12"><a xlink:href="a00108.html" target="_top" xlink:title="QPContacts.h">
<polygon fill="white" stroke="black" points="286,-56.5 286,-75.5 365,-75.5 365,-56.5 286,-56.5"/>
<text text-anchor="middle" x="325.5" y="-63.5" font-family="Helvetica,sans-Serif" font-size="10.00">QPContacts.h</text>
</a>
</g>
</g>
<!-- Node6&#45;&gt;Node12 -->
<g id="edge17" class="edge"><title>Node6&#45;&gt;Node12</title>
<path fill="none" stroke="midnightblue" d="M295.264,-169.893C340.39,-160.057 415.64,-142.341 423.5,-132 442.109,-107.517 404.89,-89.3413 371.098,-78.5272"/>
<polygon fill="midnightblue" stroke="midnightblue" points="371.834,-75.093 361.249,-75.541 369.803,-81.7919 371.834,-75.093"/>
</g>
<!-- Node13 -->
<g id="node13" class="node"><title>Node13</title>
<polygon fill="white" stroke="#bfbfbf" points="459,-0.5 459,-19.5 542,-19.5 542,-0.5 459,-0.5"/>
<text text-anchor="middle" x="500.5" y="-7.5" font-family="Helvetica,sans-Serif" font-size="10.00">tasks/config.hh</text>
</g>
<!-- Node6&#45;&gt;Node13 -->
<g id="edge18" class="edge"><title>Node6&#45;&gt;Node13</title>
<path fill="none" stroke="midnightblue" d="M295.338,-169.749C351.083,-157.742 456.424,-134.774 459.5,-132 489.058,-105.346 497.323,-56.6061 499.623,-29.8393"/>
<polygon fill="midnightblue" stroke="midnightblue" points="503.137,-29.7512 500.302,-19.5426 496.152,-29.2906 503.137,-29.7512"/>
</g>
<!-- Node11 -->
<g id="node11" class="node"><title>Node11</title>
<polygon fill="white" stroke="#bfbfbf" points="184.5,-0.5 184.5,-19.5 322.5,-19.5 322.5,-0.5 184.5,-0.5"/>
<text text-anchor="middle" x="253.5" y="-7.5" font-family="Helvetica,sans-Serif" font-size="10.00">SpaceVecAlg/SpaceVecAlg</text>
</g>
<!-- Node10&#45;&gt;Node11 -->
<g id="edge11" class="edge"><title>Node10&#45;&gt;Node11</title>
<path fill="none" stroke="midnightblue" d="M179.777,-112.368C192.98,-94.2153 223.826,-51.8015 241.144,-27.9902"/>
<polygon fill="midnightblue" stroke="midnightblue" points="244.201,-29.7374 247.252,-19.5914 238.539,-25.6202 244.201,-29.7374"/>
</g>
<!-- Node10&#45;&gt;Node12 -->
<g id="edge12" class="edge"><title>Node10&#45;&gt;Node12</title>
<path fill="none" stroke="midnightblue" d="M197.585,-112.444C223.045,-103.399 263.394,-89.064 291.959,-78.9158"/>
<polygon fill="midnightblue" stroke="midnightblue" points="293.277,-82.1622 301.528,-75.5164 290.933,-75.5661 293.277,-82.1622"/>
</g>
<!-- Node12&#45;&gt;Node3 -->
<g id="edge14" class="edge"><title>Node12&#45;&gt;Node3</title>
<path fill="none" stroke="midnightblue" d="M290.007,-56.4435C250.46,-46.9101 186.537,-31.5001 144.266,-21.3096"/>
<polygon fill="midnightblue" stroke="midnightblue" points="144.818,-17.8427 134.277,-18.9015 143.178,-24.6477 144.818,-17.8427"/>
</g>
<!-- Node12&#45;&gt;Node8 -->
<g id="edge13" class="edge"><title>Node12&#45;&gt;Node8</title>
<path fill="none" stroke="midnightblue" d="M337.389,-56.324C348.65,-48.1066 365.787,-35.6017 379.209,-25.8069"/>
<polygon fill="midnightblue" stroke="midnightblue" points="381.38,-28.5559 387.394,-19.8339 377.253,-22.9014 381.38,-28.5559"/>
</g>
<!-- Node12&#45;&gt;Node11 -->
<g id="edge15" class="edge"><title>Node12&#45;&gt;Node11</title>
<path fill="none" stroke="midnightblue" d="M313.932,-56.324C303.08,-48.1849 286.619,-35.8395 273.617,-26.0874"/>
<polygon fill="midnightblue" stroke="midnightblue" points="275.379,-23.0339 265.279,-19.8339 271.179,-28.6339 275.379,-23.0339"/>
</g>
<!-- Node12&#45;&gt;Node13 -->
<g id="edge16" class="edge"><title>Node12&#45;&gt;Node13</title>
<path fill="none" stroke="midnightblue" d="M353.229,-56.4435C382.926,-47.2801 430.216,-32.6876 463.169,-22.5192"/>
<polygon fill="midnightblue" stroke="midnightblue" points="464.377,-25.8094 472.9,-19.5164 462.313,-19.1206 464.377,-25.8094"/>
</g>
</g>
</svg>
