<?xml version="1.0" encoding="UTF-8" standalone="no"?>
<!DOCTYPE svg PUBLIC "-//W3C//DTD SVG 1.1//EN"
 "http://www.w3.org/Graphics/SVG/1.1/DTD/svg11.dtd">
<!-- Generated by graphviz version 2.38.0 (20140413.2041)
 -->
<!-- Title: tasks::qp::Constraint Pages: 1 -->
<svg width="924pt" height="394pt"
 viewBox="0.00 0.00 924.00 393.50" xmlns="http://www.w3.org/2000/svg" xmlns:xlink="http://www.w3.org/1999/xlink">
<g id="graph0" class="graph" transform="scale(1 1) rotate(0) translate(4 389.5)">
<title>tasks::qp::Constraint</title>
<polygon fill="white" stroke="none" points="-4,4 -4,-389.5 920,-389.5 920,4 -4,4"/>
<!-- Node1 -->
<g id="node1" class="node"><title>Node1</title>
<polygon fill="#bfbfbf" stroke="black" points="0,-174.5 0,-193.5 116,-193.5 116,-174.5 0,-174.5"/>
<text text-anchor="middle" x="58" y="-181.5" font-family="Helvetica,sans-Serif" font-size="10.00">tasks::qp::Constraint</text>
</g>
<!-- Node2 -->
<g id="node2" class="node"><title>Node2</title>
<g id="a_node2"><a xlink:href="a00015.html" target="_top" xlink:title="tasks::qp::ConstraintFunction\l\&lt; Bound \&gt;">
<polygon fill="white" stroke="black" points="152,-298 152,-328 307,-328 307,-298 152,-298"/>
<text text-anchor="start" x="160" y="-316" font-family="Helvetica,sans-Serif" font-size="10.00">tasks::qp::ConstraintFunction</text>
<text text-anchor="middle" x="229.5" y="-305" font-family="Helvetica,sans-Serif" font-size="10.00">&lt; Bound &gt;</text>
</a>
</g>
</g>
<!-- Node1&#45;&gt;Node2 -->
<g id="edge1" class="edge"><title>Node1&#45;&gt;Node2</title>
<path fill="none" stroke="midnightblue" d="M74.8185,-201.172C92.4975,-219.772 122.525,-249.641 152,-271 165.986,-281.135 182.686,-290.572 196.909,-297.924"/>
<polygon fill="midnightblue" stroke="midnightblue" points="77.219,-198.616 67.8231,-193.72 72.1151,-203.406 77.219,-198.616"/>
</g>
<!-- Node6 -->
<g id="node6" class="node"><title>Node6</title>
<g id="a_node6"><a xlink:href="a00015.html" target="_top" xlink:title="tasks::qp::ConstraintFunction\l\&lt; Equality \&gt;">
<polygon fill="white" stroke="black" points="152,-231 152,-261 307,-261 307,-231 152,-231"/>
<text text-anchor="start" x="160" y="-249" font-family="Helvetica,sans-Serif" font-size="10.00">tasks::qp::ConstraintFunction</text>
<text text-anchor="middle" x="229.5" y="-238" font-family="Helvetica,sans-Serif" font-size="10.00">&lt; Equality &gt;</text>
</a>
</g>
</g>
<!-- Node1&#45;&gt;Node6 -->
<g id="edge5" class="edge"><title>Node1&#45;&gt;Node6</title>
<path fill="none" stroke="midnightblue" d="M94.5731,-197.012C121.6,-206.898 158.828,-220.515 187.175,-230.884"/>
<polygon fill="midnightblue" stroke="midnightblue" points="95.7067,-193.7 85.1129,-193.552 93.302,-200.274 95.7067,-193.7"/>
</g>
<!-- Node11 -->
<g id="node11" class="node"><title>Node11</title>
<g id="a_node11"><a xlink:href="a00015.html" target="_top" xlink:title="tasks::qp::ConstraintFunction\l\&lt; GenInequality \&gt;">
<polygon fill="white" stroke="black" points="152,-169 152,-199 307,-199 307,-169 152,-169"/>
<text text-anchor="start" x="160" y="-187" font-family="Helvetica,sans-Serif" font-size="10.00">tasks::qp::ConstraintFunction</text>
<text text-anchor="middle" x="229.5" y="-176" font-family="Helvetica,sans-Serif" font-size="10.00">&lt; GenInequality &gt;</text>
</a>
</g>
</g>
<!-- Node1&#45;&gt;Node11 -->
<g id="edge10" class="edge"><title>Node1&#45;&gt;Node11</title>
<path fill="none" stroke="midnightblue" d="M126.459,-184C134.833,-184 143.442,-184 151.94,-184"/>
<polygon fill="midnightblue" stroke="midnightblue" points="126.385,-180.5 116.385,-184 126.385,-187.5 126.385,-180.5"/>
</g>
<!-- Node17 -->
<g id="node17" class="node"><title>Node17</title>
<g id="a_node17"><a xlink:href="a00015.html" target="_top" xlink:title="tasks::qp::ConstraintFunction\l\&lt; Inequality \&gt;">
<polygon fill="white" stroke="black" points="152,-112 152,-142 307,-142 307,-112 152,-112"/>
<text text-anchor="start" x="160" y="-130" font-family="Helvetica,sans-Serif" font-size="10.00">tasks::qp::ConstraintFunction</text>
<text text-anchor="middle" x="229.5" y="-119" font-family="Helvetica,sans-Serif" font-size="10.00">&lt; Inequality &gt;</text>
</a>
</g>
</g>
<!-- Node1&#45;&gt;Node17 -->
<g id="edge16" class="edge"><title>Node1&#45;&gt;Node17</title>
<path fill="none" stroke="midnightblue" d="M97.1245,-171.179C122.809,-162.542 156.789,-151.115 183.755,-142.047"/>
<polygon fill="midnightblue" stroke="midnightblue" points="95.7333,-167.955 87.3705,-174.459 97.9645,-174.589 95.7333,-167.955"/>
</g>
<!-- Node22 -->
<g id="node22" class="node"><title>Node22</title>
<g id="a_node22"><a xlink:href="a00015.html" target="_top" xlink:title="tasks::qp::ConstraintFunction\l\&lt; Fun \&gt;">
<polygon fill="white" stroke="black" points="152,-63 152,-93 307,-93 307,-63 152,-63"/>
<text text-anchor="start" x="160" y="-81" font-family="Helvetica,sans-Serif" font-size="10.00">tasks::qp::ConstraintFunction</text>
<text text-anchor="middle" x="229.5" y="-70" font-family="Helvetica,sans-Serif" font-size="10.00">&lt; Fun &gt;</text>
</a>
</g>
</g>
<!-- Node1&#45;&gt;Node22 -->
<g id="edge21" class="edge"><title>Node1&#45;&gt;Node22</title>
<path fill="none" stroke="midnightblue" d="M74.0125,-167.064C91.1868,-148.643 120.965,-119.495 152,-102 157.942,-98.6507 164.411,-95.7042 170.989,-93.1291"/>
<polygon fill="midnightblue" stroke="midnightblue" points="71.4127,-164.72 67.2528,-174.464 76.5812,-169.441 71.4127,-164.72"/>
</g>
<!-- Node3 -->
<g id="node3" class="node"><title>Node3</title>
<g id="a_node3"><a xlink:href="a00027.html" target="_top" xlink:title="Avoid to reach articular position and velocity limits based on a velocity damper. ...">
<polygon fill="white" stroke="black" points="353,-355 353,-385 507,-385 507,-355 353,-355"/>
<text text-anchor="start" x="361" y="-373" font-family="Helvetica,sans-Serif" font-size="10.00">tasks::qp::DamperJointLimits</text>
<text text-anchor="middle" x="430" y="-362" font-family="Helvetica,sans-Serif" font-size="10.00">Constr</text>
</a>
</g>
</g>
<!-- Node2&#45;&gt;Node3 -->
<g id="edge2" class="edge"><title>Node2&#45;&gt;Node3</title>
<path fill="none" stroke="midnightblue" d="M292.64,-330.844C319.616,-338.59 350.865,-347.563 376.638,-354.964"/>
<polygon fill="midnightblue" stroke="midnightblue" points="293.491,-327.447 282.913,-328.051 291.559,-334.175 293.491,-327.447"/>
</g>
<!-- Node4 -->
<g id="node4" class="node"><title>Node4</title>
<g id="a_node4"><a xlink:href="a00040.html" target="_top" xlink:title="Avoid to reach articular position limits based on direct integration. ">
<polygon fill="white" stroke="black" points="357,-316.5 357,-335.5 503,-335.5 503,-316.5 357,-316.5"/>
<text text-anchor="middle" x="430" y="-323.5" font-family="Helvetica,sans-Serif" font-size="10.00">tasks::qp::JointLimitsConstr</text>
</a>
</g>
</g>
<!-- Node2&#45;&gt;Node4 -->
<g id="edge3" class="edge"><title>Node2&#45;&gt;Node4</title>
<path fill="none" stroke="midnightblue" d="M317.241,-318.681C330.408,-319.543 343.874,-320.425 356.691,-321.264"/>
<polygon fill="midnightblue" stroke="midnightblue" points="317.453,-315.187 307.245,-318.026 316.995,-322.172 317.453,-315.187"/>
</g>
<!-- Node5 -->
<g id="node5" class="node"><title>Node5</title>
<g id="a_node5"><a xlink:href="a00066.html" target="_top" xlink:title="tasks::qp::PositiveLambda">
<polygon fill="white" stroke="black" points="359,-278.5 359,-297.5 501,-297.5 501,-278.5 359,-278.5"/>
<text text-anchor="middle" x="430" y="-285.5" font-family="Helvetica,sans-Serif" font-size="10.00">tasks::qp::PositiveLambda</text>
</a>
</g>
</g>
<!-- Node2&#45;&gt;Node5 -->
<g id="edge4" class="edge"><title>Node2&#45;&gt;Node5</title>
<path fill="none" stroke="midnightblue" d="M317.308,-302.067C331.23,-300.314 345.484,-298.518 358.951,-296.822"/>
<polygon fill="midnightblue" stroke="midnightblue" points="316.73,-298.612 307.245,-303.334 317.604,-305.557 316.73,-298.612"/>
</g>
<!-- Node7 -->
<g id="node7" class="node"><title>Node7</title>
<g id="a_node7"><a xlink:href="a00018.html" target="_top" xlink:title="Common contact constraint computation. ">
<polygon fill="white" stroke="black" points="362.5,-240.5 362.5,-259.5 497.5,-259.5 497.5,-240.5 362.5,-240.5"/>
<text text-anchor="middle" x="430" y="-247.5" font-family="Helvetica,sans-Serif" font-size="10.00">tasks::qp::ContactConstr</text>
</a>
</g>
</g>
<!-- Node6&#45;&gt;Node7 -->
<g id="edge6" class="edge"><title>Node6&#45;&gt;Node7</title>
<path fill="none" stroke="midnightblue" d="M317.589,-247.755C332.642,-248.058 348.074,-248.369 362.472,-248.659"/>
<polygon fill="midnightblue" stroke="midnightblue" points="317.314,-244.249 307.245,-247.547 317.173,-251.247 317.314,-244.249"/>
</g>
<!-- Node8 -->
<g id="node8" class="node"><title>Node8</title>
<g id="a_node8"><a xlink:href="a00016.html" target="_top" xlink:title="Contact constraint by targeting a null acceleration. ">
<polygon fill="white" stroke="black" points="560,-278.5 560,-297.5 712,-297.5 712,-278.5 560,-278.5"/>
<text text-anchor="middle" x="636" y="-285.5" font-family="Helvetica,sans-Serif" font-size="10.00">tasks::qp::ContactAccConstr</text>
</a>
</g>
</g>
<!-- Node7&#45;&gt;Node8 -->
<g id="edge7" class="edge"><title>Node7&#45;&gt;Node8</title>
<path fill="none" stroke="midnightblue" d="M492.297,-261.418C521.486,-266.855 555.994,-273.283 583.764,-278.456"/>
<polygon fill="midnightblue" stroke="midnightblue" points="492.686,-257.93 482.214,-259.54 491.404,-264.812 492.686,-257.93"/>
</g>
<!-- Node9 -->
<g id="node9" class="node"><title>Node9</title>
<g id="a_node9"><a xlink:href="a00023.html" target="_top" xlink:title="Contact constraint by targeting a constant frame. ">
<polygon fill="white" stroke="black" points="560,-240.5 560,-259.5 712,-259.5 712,-240.5 560,-240.5"/>
<text text-anchor="middle" x="636" y="-247.5" font-family="Helvetica,sans-Serif" font-size="10.00">tasks::qp::ContactPosConstr</text>
</a>
</g>
</g>
<!-- Node7&#45;&gt;Node9 -->
<g id="edge8" class="edge"><title>Node7&#45;&gt;Node9</title>
<path fill="none" stroke="midnightblue" d="M507.931,-250C524.893,-250 542.841,-250 559.737,-250"/>
<polygon fill="midnightblue" stroke="midnightblue" points="507.515,-246.5 497.515,-250 507.515,-253.5 507.515,-246.5"/>
</g>
<!-- Node10 -->
<g id="node10" class="node"><title>Node10</title>
<g id="a_node10"><a xlink:href="a00025.html" target="_top" xlink:title="Contact constraint by targeting a null velocity. ">
<polygon fill="white" stroke="black" points="553,-202.5 553,-221.5 719,-221.5 719,-202.5 553,-202.5"/>
<text text-anchor="middle" x="636" y="-209.5" font-family="Helvetica,sans-Serif" font-size="10.00">tasks::qp::ContactSpeedConstr</text>
</a>
</g>
</g>
<!-- Node7&#45;&gt;Node10 -->
<g id="edge9" class="edge"><title>Node7&#45;&gt;Node10</title>
<path fill="none" stroke="midnightblue" d="M492.297,-238.582C521.486,-233.145 555.994,-226.717 583.764,-221.544"/>
<polygon fill="midnightblue" stroke="midnightblue" points="491.404,-235.188 482.214,-240.46 492.686,-242.07 491.404,-235.188"/>
</g>
<!-- Node12 -->
<g id="node12" class="node"><title>Node12</title>
<g id="a_node12"><a xlink:href="a00005.html" target="_top" xlink:title="Constraint some link velocity in link frame by direct integration. ">
<polygon fill="white" stroke="black" points="344.5,-202.5 344.5,-221.5 515.5,-221.5 515.5,-202.5 344.5,-202.5"/>
<text text-anchor="middle" x="430" y="-209.5" font-family="Helvetica,sans-Serif" font-size="10.00">tasks::qp::BoundedSpeedConstr</text>
</a>
</g>
</g>
<!-- Node11&#45;&gt;Node12 -->
<g id="edge11" class="edge"><title>Node11&#45;&gt;Node12</title>
<path fill="none" stroke="midnightblue" d="M317.402,-196.258C332.181,-198.343 347.332,-200.48 361.516,-202.481"/>
<polygon fill="midnightblue" stroke="midnightblue" points="317.636,-192.757 307.245,-194.826 316.658,-199.688 317.636,-192.757"/>
</g>
<!-- Node13 -->
<g id="node13" class="node"><title>Node13</title>
<g id="a_node13"><a xlink:href="a00049.html" target="_top" xlink:title="tasks::qp::MotionConstrCommon">
<polygon fill="white" stroke="black" points="343,-164.5 343,-183.5 517,-183.5 517,-164.5 343,-164.5"/>
<text text-anchor="middle" x="430" y="-171.5" font-family="Helvetica,sans-Serif" font-size="10.00">tasks::qp::MotionConstrCommon</text>
</a>
</g>
</g>
<!-- Node11&#45;&gt;Node13 -->
<g id="edge12" class="edge"><title>Node11&#45;&gt;Node13</title>
<path fill="none" stroke="midnightblue" d="M317.461,-179.619C325.9,-179.194 334.458,-178.763 342.888,-178.338"/>
<polygon fill="midnightblue" stroke="midnightblue" points="317.056,-176.135 307.245,-180.134 317.409,-183.126 317.056,-176.135"/>
</g>
<!-- Node14 -->
<g id="node14" class="node"><title>Node14</title>
<g id="a_node14"><a xlink:href="a00048.html" target="_top" xlink:title="tasks::qp::MotionConstr">
<polygon fill="white" stroke="black" points="571,-164.5 571,-183.5 701,-183.5 701,-164.5 571,-164.5"/>
<text text-anchor="middle" x="636" y="-171.5" font-family="Helvetica,sans-Serif" font-size="10.00">tasks::qp::MotionConstr</text>
</a>
</g>
</g>
<!-- Node13&#45;&gt;Node14 -->
<g id="edge13" class="edge"><title>Node13&#45;&gt;Node14</title>
<path fill="none" stroke="midnightblue" d="M527.367,-174C542.083,-174 556.956,-174 570.756,-174"/>
<polygon fill="midnightblue" stroke="midnightblue" points="527.219,-170.5 517.219,-174 527.219,-177.5 527.219,-170.5"/>
</g>
<!-- Node16 -->
<g id="node16" class="node"><title>Node16</title>
<g id="a_node16"><a xlink:href="a00050.html" target="_top" xlink:title="Use polynome in function of q to compute torque limits. ">
<polygon fill="white" stroke="black" points="561.5,-126.5 561.5,-145.5 710.5,-145.5 710.5,-126.5 561.5,-126.5"/>
<text text-anchor="middle" x="636" y="-133.5" font-family="Helvetica,sans-Serif" font-size="10.00">tasks::qp::MotionPolyConstr</text>
</a>
</g>
</g>
<!-- Node13&#45;&gt;Node16 -->
<g id="edge15" class="edge"><title>Node13&#45;&gt;Node16</title>
<path fill="none" stroke="midnightblue" d="M492.297,-162.582C521.486,-157.145 555.994,-150.717 583.764,-145.544"/>
<polygon fill="midnightblue" stroke="midnightblue" points="491.404,-159.188 482.214,-164.46 492.686,-166.07 491.404,-159.188"/>
</g>
<!-- Node15 -->
<g id="node15" class="node"><title>Node15</title>
<g id="a_node15"><a xlink:href="a00051.html" target="_top" xlink:title="tasks::qp::MotionSpringConstr">
<polygon fill="white" stroke="black" points="755,-164.5 755,-183.5 916,-183.5 916,-164.5 755,-164.5"/>
<text text-anchor="middle" x="835.5" y="-171.5" font-family="Helvetica,sans-Serif" font-size="10.00">tasks::qp::MotionSpringConstr</text>
</a>
</g>
</g>
<!-- Node14&#45;&gt;Node15 -->
<g id="edge14" class="edge"><title>Node14&#45;&gt;Node15</title>
<path fill="none" stroke="midnightblue" d="M711.318,-174C725.519,-174 740.439,-174 754.801,-174"/>
<polygon fill="midnightblue" stroke="midnightblue" points="711.123,-170.5 701.123,-174 711.123,-177.5 711.123,-170.5"/>
</g>
<!-- Node18 -->
<g id="node18" class="node"><title>Node18</title>
<g id="a_node18"><a xlink:href="a00006.html" target="_top" xlink:title="Avoid that too robot links enter into collision based on a velocity damper. ">
<polygon fill="white" stroke="black" points="361.5,-126.5 361.5,-145.5 498.5,-145.5 498.5,-126.5 361.5,-126.5"/>
<text text-anchor="middle" x="430" y="-133.5" font-family="Helvetica,sans-Serif" font-size="10.00">tasks::qp::CollisionConstr</text>
</a>
</g>
</g>
<!-- Node17&#45;&gt;Node18 -->
<g id="edge17" class="edge"><title>Node17&#45;&gt;Node18</title>
<path fill="none" stroke="midnightblue" d="M317.339,-130.937C332.028,-131.603 347.085,-132.286 361.196,-132.926"/>
<polygon fill="midnightblue" stroke="midnightblue" points="317.394,-127.436 307.245,-130.48 317.076,-134.429 317.394,-127.436"/>
</g>
<!-- Node19 -->
<g id="node19" class="node"><title>Node19</title>
<g id="a_node19"><a xlink:href="a00007.html" target="_top" xlink:title="Prevent robot CoM to go out of a convex hull. ">
<polygon fill="white" stroke="black" points="351,-88.5 351,-107.5 509,-107.5 509,-88.5 351,-88.5"/>
<text text-anchor="middle" x="430" y="-95.5" font-family="Helvetica,sans-Serif" font-size="10.00">tasks::qp::CoMIncPlaneConstr</text>
</a>
</g>
</g>
<!-- Node17&#45;&gt;Node19 -->
<g id="edge18" class="edge"><title>Node17&#45;&gt;Node19</title>
<path fill="none" stroke="midnightblue" d="M317.394,-114.305C332.953,-112.032 348.923,-109.699 363.743,-107.534"/>
<polygon fill="midnightblue" stroke="midnightblue" points="316.634,-110.879 307.245,-115.788 317.646,-117.805 316.634,-110.879"/>
</g>
<!-- Node20 -->
<g id="node20" class="node"><title>Node20</title>
<g id="a_node20"><a xlink:href="a00034.html" target="_top" xlink:title="tasks::qp::GripperTorque\lConstr">
<polygon fill="white" stroke="black" points="363.5,-39 363.5,-69 496.5,-69 496.5,-39 363.5,-39"/>
<text text-anchor="start" x="371.5" y="-57" font-family="Helvetica,sans-Serif" font-size="10.00">tasks::qp::GripperTorque</text>
<text text-anchor="middle" x="430" y="-46" font-family="Helvetica,sans-Serif" font-size="10.00">Constr</text>
</a>
</g>
</g>
<!-- Node17&#45;&gt;Node20 -->
<g id="edge19" class="edge"><title>Node17&#45;&gt;Node20</title>
<path fill="none" stroke="midnightblue" d="M292.34,-108.3C297.362,-106.327 302.306,-104.223 307,-102 324.16,-93.8752 325.708,-86.8409 343,-79 351.213,-75.2758 360.119,-71.9558 368.983,-69.0481"/>
<polygon fill="midnightblue" stroke="midnightblue" points="290.771,-105.15 282.631,-111.93 293.223,-111.706 290.771,-105.15"/>
</g>
<!-- Node21 -->
<g id="node21" class="node"><title>Node21</title>
<g id="a_node21"><a xlink:href="a00037.html" target="_top" xlink:title="Generalized Image Point Constraint This can be used as either a Field of View constraint or an Occlus...">
<polygon fill="white" stroke="black" points="366,-0.5 366,-19.5 494,-19.5 494,-0.5 366,-0.5"/>
<text text-anchor="middle" x="430" y="-7.5" font-family="Helvetica,sans-Serif" font-size="10.00">tasks::qp::ImageConstr</text>
</a>
</g>
</g>
<!-- Node17&#45;&gt;Node21 -->
<g id="edge20" class="edge"><title>Node17&#45;&gt;Node21</title>
<path fill="none" stroke="midnightblue" d="M300.86,-106.715C303.005,-105.251 305.06,-103.682 307,-102 334.333,-78.3034 314.534,-51.3234 343,-29 349.738,-23.716 357.643,-19.8346 365.883,-16.995"/>
<polygon fill="midnightblue" stroke="midnightblue" points="299.013,-103.741 292.203,-111.857 302.588,-109.759 299.013,-103.741"/>
</g>
</g>
</svg>
