<?xml version="1.0" encoding="UTF-8" standalone="no"?>
<!DOCTYPE svg PUBLIC "-//W3C//DTD SVG 1.1//EN"
 "http://www.w3.org/Graphics/SVG/1.1/DTD/svg11.dtd">
<!-- Generated by graphviz version 2.38.0 (20140413.2041)
 -->
<!-- Title: QPContacts.h Pages: 1 -->
<svg width="394pt" height="84pt"
 viewBox="0.00 0.00 393.50 84.00" xmlns="http://www.w3.org/2000/svg" xmlns:xlink="http://www.w3.org/1999/xlink">
<g id="graph0" class="graph" transform="scale(1 1) rotate(0) translate(4 80)">
<title>QPContacts.h</title>
<polygon fill="white" stroke="none" points="-4,4 -4,-80 389.5,-80 389.5,4 -4,4"/>
<!-- Node1 -->
<g id="node1" class="node"><title>Node1</title>
<polygon fill="#bfbfbf" stroke="black" points="115.5,-56.5 115.5,-75.5 194.5,-75.5 194.5,-56.5 115.5,-56.5"/>
<text text-anchor="middle" x="155" y="-63.5" font-family="Helvetica,sans-Serif" font-size="10.00">QPContacts.h</text>
</g>
<!-- Node2 -->
<g id="node2" class="node"><title>Node2</title>
<polygon fill="white" stroke="#bfbfbf" points="0,-0.5 0,-19.5 44,-19.5 44,-0.5 0,-0.5"/>
<text text-anchor="middle" x="22" y="-7.5" font-family="Helvetica,sans-Serif" font-size="10.00">vector</text>
</g>
<!-- Node1&#45;&gt;Node2 -->
<g id="edge1" class="edge"><title>Node1&#45;&gt;Node2</title>
<path fill="none" stroke="midnightblue" d="M133.926,-56.4435C111.94,-47.5171 77.2657,-33.4387 52.3359,-23.3168"/>
<polygon fill="midnightblue" stroke="midnightblue" points="53.5578,-20.0355 42.9756,-19.5164 50.9244,-26.5213 53.5578,-20.0355"/>
</g>
<!-- Node3 -->
<g id="node3" class="node"><title>Node3</title>
<polygon fill="white" stroke="#bfbfbf" points="62.5,-0.5 62.5,-19.5 127.5,-19.5 127.5,-0.5 62.5,-0.5"/>
<text text-anchor="middle" x="95" y="-7.5" font-family="Helvetica,sans-Serif" font-size="10.00">Eigen/Core</text>
</g>
<!-- Node1&#45;&gt;Node3 -->
<g id="edge2" class="edge"><title>Node1&#45;&gt;Node3</title>
<path fill="none" stroke="midnightblue" d="M145.36,-56.324C136.49,-48.3414 123.125,-36.3128 112.392,-26.6529"/>
<polygon fill="midnightblue" stroke="midnightblue" points="114.59,-23.922 104.815,-19.8339 109.907,-29.1251 114.59,-23.922"/>
</g>
<!-- Node4 -->
<g id="node4" class="node"><title>Node4</title>
<polygon fill="white" stroke="#bfbfbf" points="146,-0.5 146,-19.5 284,-19.5 284,-0.5 146,-0.5"/>
<text text-anchor="middle" x="215" y="-7.5" font-family="Helvetica,sans-Serif" font-size="10.00">SpaceVecAlg/SpaceVecAlg</text>
</g>
<!-- Node1&#45;&gt;Node4 -->
<g id="edge3" class="edge"><title>Node1&#45;&gt;Node4</title>
<path fill="none" stroke="midnightblue" d="M164.64,-56.324C173.51,-48.3414 186.875,-36.3128 197.608,-26.6529"/>
<polygon fill="midnightblue" stroke="midnightblue" points="200.093,-29.1251 205.185,-19.8339 195.41,-23.922 200.093,-29.1251"/>
</g>
<!-- Node5 -->
<g id="node5" class="node"><title>Node5</title>
<polygon fill="white" stroke="#bfbfbf" points="302.5,-0.5 302.5,-19.5 385.5,-19.5 385.5,-0.5 302.5,-0.5"/>
<text text-anchor="middle" x="344" y="-7.5" font-family="Helvetica,sans-Serif" font-size="10.00">tasks/config.hh</text>
</g>
<!-- Node1&#45;&gt;Node5 -->
<g id="edge4" class="edge"><title>Node1&#45;&gt;Node5</title>
<path fill="none" stroke="midnightblue" d="M184.948,-56.4435C217.158,-47.2406 268.534,-32.5617 304.142,-22.3879"/>
<polygon fill="midnightblue" stroke="midnightblue" points="305.539,-25.629 314.192,-19.5164 303.616,-18.8984 305.539,-25.629"/>
</g>
</g>
</svg>
