<?xml version="1.0" encoding="UTF-8" standalone="no"?>
<!DOCTYPE svg PUBLIC "-//W3C//DTD SVG 1.1//EN"
 "http://www.w3.org/Graphics/SVG/1.1/DTD/svg11.dtd">
<!-- Generated by graphviz version 2.38.0 (20140413.2041)
 -->
<!-- Title: QPContactConstr.h Pages: 1 -->
<svg width="598pt" height="252pt"
 viewBox="0.00 0.00 598.00 252.00" xmlns="http://www.w3.org/2000/svg" xmlns:xlink="http://www.w3.org/1999/xlink">
<g id="graph0" class="graph" transform="scale(1 1) rotate(0) translate(4 248)">
<title>QPContactConstr.h</title>
<polygon fill="white" stroke="none" points="-4,4 -4,-248 594,-248 594,4 -4,4"/>
<!-- Node1 -->
<g id="node1" class="node"><title>Node1</title>
<polygon fill="#bfbfbf" stroke="black" points="60,-224.5 60,-243.5 163,-243.5 163,-224.5 60,-224.5"/>
<text text-anchor="middle" x="111.5" y="-231.5" font-family="Helvetica,sans-Serif" font-size="10.00">QPContactConstr.h</text>
</g>
<!-- Node2 -->
<g id="node2" class="node"><title>Node2</title>
<polygon fill="white" stroke="#bfbfbf" points="0,-168.5 0,-187.5 35,-187.5 35,-168.5 0,-168.5"/>
<text text-anchor="middle" x="17.5" y="-175.5" font-family="Helvetica,sans-Serif" font-size="10.00">map</text>
</g>
<!-- Node1&#45;&gt;Node2 -->
<g id="edge1" class="edge"><title>Node1&#45;&gt;Node2</title>
<path fill="none" stroke="midnightblue" d="M96.3973,-224.324C81.5967,-215.822 58.8058,-202.729 41.5178,-192.797"/>
<polygon fill="midnightblue" stroke="midnightblue" points="42.9798,-189.601 32.5652,-187.655 39.4929,-195.671 42.9798,-189.601"/>
</g>
<!-- Node3 -->
<g id="node3" class="node"><title>Node3</title>
<polygon fill="white" stroke="#bfbfbf" points="53.5,-168.5 53.5,-187.5 83.5,-187.5 83.5,-168.5 53.5,-168.5"/>
<text text-anchor="middle" x="68.5" y="-175.5" font-family="Helvetica,sans-Serif" font-size="10.00">set</text>
</g>
<!-- Node1&#45;&gt;Node3 -->
<g id="edge2" class="edge"><title>Node1&#45;&gt;Node3</title>
<path fill="none" stroke="midnightblue" d="M104.399,-224.083C98.263,-216.377 89.2303,-205.033 81.7608,-195.653"/>
<polygon fill="midnightblue" stroke="midnightblue" points="84.4357,-193.394 75.4685,-187.751 78.9598,-197.754 84.4357,-193.394"/>
</g>
<!-- Node4 -->
<g id="node4" class="node"><title>Node4</title>
<polygon fill="white" stroke="#bfbfbf" points="117,-0.5 117,-19.5 182,-19.5 182,-0.5 117,-0.5"/>
<text text-anchor="middle" x="149.5" y="-7.5" font-family="Helvetica,sans-Serif" font-size="10.00">Eigen/Core</text>
</g>
<!-- Node1&#45;&gt;Node4 -->
<g id="edge3" class="edge"><title>Node1&#45;&gt;Node4</title>
<path fill="none" stroke="midnightblue" d="M112.99,-224.297C118.581,-191.633 138.397,-75.8661 146.255,-29.9573"/>
<polygon fill="midnightblue" stroke="midnightblue" points="149.742,-30.3309 147.979,-19.8837 142.842,-29.1499 149.742,-30.3309"/>
</g>
<!-- Node5 -->
<g id="node5" class="node"><title>Node5</title>
<polygon fill="white" stroke="#bfbfbf" points="361,-168.5 361,-187.5 460,-187.5 460,-168.5 361,-168.5"/>
<text text-anchor="middle" x="410.5" y="-175.5" font-family="Helvetica,sans-Serif" font-size="10.00">RBDyn/Jacobian.h</text>
</g>
<!-- Node1&#45;&gt;Node5 -->
<g id="edge4" class="edge"><title>Node1&#45;&gt;Node5</title>
<path fill="none" stroke="midnightblue" d="M158.877,-224.444C211.584,-214.925 296.729,-199.547 353.157,-189.356"/>
<polygon fill="midnightblue" stroke="midnightblue" points="354.125,-192.738 363.344,-187.516 352.881,-185.849 354.125,-192.738"/>
</g>
<!-- Node6 -->
<g id="node6" class="node"><title>Node6</title>
<g id="a_node6"><a xlink:href="a00110.html" target="_top" xlink:title="QPSolver.h">
<polygon fill="white" stroke="black" points="276,-168.5 276,-187.5 343,-187.5 343,-168.5 276,-168.5"/>
<text text-anchor="middle" x="309.5" y="-175.5" font-family="Helvetica,sans-Serif" font-size="10.00">QPSolver.h</text>
</a>
</g>
</g>
<!-- Node1&#45;&gt;Node6 -->
<g id="edge5" class="edge"><title>Node1&#45;&gt;Node6</title>
<path fill="none" stroke="midnightblue" d="M142.874,-224.444C176.763,-215.201 230.903,-200.436 268.224,-190.257"/>
<polygon fill="midnightblue" stroke="midnightblue" points="269.546,-193.524 278.273,-187.516 267.705,-186.771 269.546,-193.524"/>
</g>
<!-- Node6&#45;&gt;Node4 -->
<g id="edge9" class="edge"><title>Node6&#45;&gt;Node4</title>
<path fill="none" stroke="midnightblue" d="M275.871,-175.901C243.347,-172.925 195.178,-163.113 168.5,-132 143.782,-103.174 144.304,-55.6866 146.88,-29.599"/>
<polygon fill="midnightblue" stroke="midnightblue" points="150.369,-29.8987 148.083,-19.5533 143.418,-29.0659 150.369,-29.8987"/>
</g>
<!-- Node7 -->
<g id="node7" class="node"><title>Node7</title>
<polygon fill="white" stroke="#bfbfbf" points="283.5,-112.5 283.5,-131.5 335.5,-131.5 335.5,-112.5 283.5,-112.5"/>
<text text-anchor="middle" x="309.5" y="-119.5" font-family="Helvetica,sans-Serif" font-size="10.00">memory</text>
</g>
<!-- Node6&#45;&gt;Node7 -->
<g id="edge6" class="edge"><title>Node6&#45;&gt;Node7</title>
<path fill="none" stroke="midnightblue" d="M309.5,-168.083C309.5,-161.006 309.5,-150.861 309.5,-141.986"/>
<polygon fill="midnightblue" stroke="midnightblue" points="313,-141.751 309.5,-131.751 306,-141.751 313,-141.751"/>
</g>
<!-- Node8 -->
<g id="node8" class="node"><title>Node8</title>
<polygon fill="white" stroke="#bfbfbf" points="425.5,-0.5 425.5,-19.5 469.5,-19.5 469.5,-0.5 425.5,-0.5"/>
<text text-anchor="middle" x="447.5" y="-7.5" font-family="Helvetica,sans-Serif" font-size="10.00">vector</text>
</g>
<!-- Node6&#45;&gt;Node8 -->
<g id="edge7" class="edge"><title>Node6&#45;&gt;Node8</title>
<path fill="none" stroke="midnightblue" d="M343.351,-169.611C393.97,-158.404 483.981,-137.796 488.5,-132 513.388,-100.081 481.961,-52.1843 461.859,-27.3076"/>
<polygon fill="midnightblue" stroke="midnightblue" points="464.442,-24.941 455.332,-19.5324 459.081,-29.4417 464.442,-24.941"/>
</g>
<!-- Node9 -->
<g id="node9" class="node"><title>Node9</title>
<polygon fill="white" stroke="#bfbfbf" points="354,-112.5 354,-131.5 463,-131.5 463,-112.5 354,-112.5"/>
<text text-anchor="middle" x="408.5" y="-119.5" font-family="Helvetica,sans-Serif" font-size="10.00">boost/timer/timer.hpp</text>
</g>
<!-- Node6&#45;&gt;Node9 -->
<g id="edge8" class="edge"><title>Node6&#45;&gt;Node9</title>
<path fill="none" stroke="midnightblue" d="M325.406,-168.324C341.138,-159.743 365.442,-146.486 383.709,-136.522"/>
<polygon fill="midnightblue" stroke="midnightblue" points="385.53,-139.516 392.633,-131.655 382.178,-133.37 385.53,-139.516"/>
</g>
<!-- Node10 -->
<g id="node10" class="node"><title>Node10</title>
<g id="a_node10"><a xlink:href="a00111.html" target="_top" xlink:title="QPSolverData.h">
<polygon fill="white" stroke="black" points="177.5,-112.5 177.5,-131.5 265.5,-131.5 265.5,-112.5 177.5,-112.5"/>
<text text-anchor="middle" x="221.5" y="-119.5" font-family="Helvetica,sans-Serif" font-size="10.00">QPSolverData.h</text>
</a>
</g>
</g>
<!-- Node6&#45;&gt;Node10 -->
<g id="edge10" class="edge"><title>Node6&#45;&gt;Node10</title>
<path fill="none" stroke="midnightblue" d="M295.361,-168.324C281.634,-159.9 260.564,-146.971 244.436,-137.074"/>
<polygon fill="midnightblue" stroke="midnightblue" points="245.957,-133.902 235.604,-131.655 242.296,-139.868 245.957,-133.902"/>
</g>
<!-- Node12 -->
<g id="node12" class="node"><title>Node12</title>
<g id="a_node12"><a xlink:href="a00108.html" target="_top" xlink:title="QPContacts.h">
<polygon fill="white" stroke="black" points="334,-56.5 334,-75.5 413,-75.5 413,-56.5 334,-56.5"/>
<text text-anchor="middle" x="373.5" y="-63.5" font-family="Helvetica,sans-Serif" font-size="10.00">QPContacts.h</text>
</a>
</g>
</g>
<!-- Node6&#45;&gt;Node12 -->
<g id="edge17" class="edge"><title>Node6&#45;&gt;Node12</title>
<path fill="none" stroke="midnightblue" d="M343.191,-168.743C389.485,-157.24 467.537,-137.214 471.5,-132 490.109,-107.517 452.89,-89.3413 419.098,-78.5272"/>
<polygon fill="midnightblue" stroke="midnightblue" points="419.834,-75.093 409.249,-75.541 417.803,-81.7919 419.834,-75.093"/>
</g>
<!-- Node13 -->
<g id="node13" class="node"><title>Node13</title>
<polygon fill="white" stroke="#bfbfbf" points="507,-0.5 507,-19.5 590,-19.5 590,-0.5 507,-0.5"/>
<text text-anchor="middle" x="548.5" y="-7.5" font-family="Helvetica,sans-Serif" font-size="10.00">tasks/config.hh</text>
</g>
<!-- Node6&#45;&gt;Node13 -->
<g id="edge18" class="edge"><title>Node6&#45;&gt;Node13</title>
<path fill="none" stroke="midnightblue" d="M343.338,-169.749C399.083,-157.742 504.424,-134.774 507.5,-132 537.058,-105.346 545.323,-56.6061 547.623,-29.8393"/>
<polygon fill="midnightblue" stroke="midnightblue" points="551.137,-29.7512 548.302,-19.5426 544.152,-29.2906 551.137,-29.7512"/>
</g>
<!-- Node11 -->
<g id="node11" class="node"><title>Node11</title>
<polygon fill="white" stroke="#bfbfbf" points="232.5,-0.5 232.5,-19.5 370.5,-19.5 370.5,-0.5 232.5,-0.5"/>
<text text-anchor="middle" x="301.5" y="-7.5" font-family="Helvetica,sans-Serif" font-size="10.00">SpaceVecAlg/SpaceVecAlg</text>
</g>
<!-- Node10&#45;&gt;Node11 -->
<g id="edge11" class="edge"><title>Node10&#45;&gt;Node11</title>
<path fill="none" stroke="midnightblue" d="M227.777,-112.368C240.98,-94.2153 271.826,-51.8015 289.144,-27.9902"/>
<polygon fill="midnightblue" stroke="midnightblue" points="292.201,-29.7374 295.252,-19.5914 286.539,-25.6202 292.201,-29.7374"/>
</g>
<!-- Node10&#45;&gt;Node12 -->
<g id="edge12" class="edge"><title>Node10&#45;&gt;Node12</title>
<path fill="none" stroke="midnightblue" d="M245.585,-112.444C271.045,-103.399 311.394,-89.064 339.959,-78.9158"/>
<polygon fill="midnightblue" stroke="midnightblue" points="341.277,-82.1622 349.528,-75.5164 338.933,-75.5661 341.277,-82.1622"/>
</g>
<!-- Node12&#45;&gt;Node4 -->
<g id="edge14" class="edge"><title>Node12&#45;&gt;Node4</title>
<path fill="none" stroke="midnightblue" d="M338.007,-56.4435C298.46,-46.9101 234.537,-31.5001 192.266,-21.3096"/>
<polygon fill="midnightblue" stroke="midnightblue" points="192.818,-17.8427 182.277,-18.9015 191.178,-24.6477 192.818,-17.8427"/>
</g>
<!-- Node12&#45;&gt;Node8 -->
<g id="edge13" class="edge"><title>Node12&#45;&gt;Node8</title>
<path fill="none" stroke="midnightblue" d="M385.389,-56.324C396.65,-48.1066 413.787,-35.6017 427.209,-25.8069"/>
<polygon fill="midnightblue" stroke="midnightblue" points="429.38,-28.5559 435.394,-19.8339 425.253,-22.9014 429.38,-28.5559"/>
</g>
<!-- Node12&#45;&gt;Node11 -->
<g id="edge15" class="edge"><title>Node12&#45;&gt;Node11</title>
<path fill="none" stroke="midnightblue" d="M361.932,-56.324C351.08,-48.1849 334.619,-35.8395 321.617,-26.0874"/>
<polygon fill="midnightblue" stroke="midnightblue" points="323.379,-23.0339 313.279,-19.8339 319.179,-28.6339 323.379,-23.0339"/>
</g>
<!-- Node12&#45;&gt;Node13 -->
<g id="edge16" class="edge"><title>Node12&#45;&gt;Node13</title>
<path fill="none" stroke="midnightblue" d="M401.229,-56.4435C430.926,-47.2801 478.216,-32.6876 511.169,-22.5192"/>
<polygon fill="midnightblue" stroke="midnightblue" points="512.377,-25.8094 520.9,-19.5164 510.313,-19.1206 512.377,-25.8094"/>
</g>
</g>
</svg>
