<?xml version="1.0" encoding="UTF-8" standalone="no"?>
<!DOCTYPE svg PUBLIC "-//W3C//DTD SVG 1.1//EN"
 "http://www.w3.org/Graphics/SVG/1.1/DTD/svg11.dtd">
<!-- Generated by graphviz version 2.38.0 (20140413.2041)
 -->
<!-- Title: tasks::qp::BoundedSpeedConstr Pages: 1 -->
<svg width="198pt" height="151pt"
 viewBox="0.00 0.00 197.50 151.00" xmlns="http://www.w3.org/2000/svg" xmlns:xlink="http://www.w3.org/1999/xlink">
<g id="graph0" class="graph" transform="scale(1 1) rotate(0) translate(4 147)">
<title>tasks::qp::BoundedSpeedConstr</title>
<polygon fill="white" stroke="none" points="-4,4 -4,-147 193.5,-147 193.5,4 -4,4"/>
<!-- Node1 -->
<g id="node1" class="node"><title>Node1</title>
<polygon fill="#bfbfbf" stroke="black" points="18.5,-0.5 18.5,-19.5 189.5,-19.5 189.5,-0.5 18.5,-0.5"/>
<text text-anchor="middle" x="104" y="-7.5" font-family="Helvetica,sans-Serif" font-size="10.00">tasks::qp::BoundedSpeedConstr</text>
</g>
<!-- Node2 -->
<g id="node2" class="node"><title>Node2</title>
<g id="a_node2"><a xlink:href="a00015.html" target="_top" xlink:title="tasks::qp::ConstraintFunction\l\&lt; GenInequality \&gt;">
<polygon fill="white" stroke="black" points="26,-56.5 26,-86.5 182,-86.5 182,-56.5 26,-56.5"/>
<text text-anchor="start" x="34" y="-74.5" font-family="Helvetica,sans-Serif" font-size="10.00">tasks::qp::ConstraintFunction</text>
<text text-anchor="middle" x="104" y="-63.5" font-family="Helvetica,sans-Serif" font-size="10.00">&lt; GenInequality &gt;</text>
</a>
</g>
</g>
<!-- Node2&#45;&gt;Node1 -->
<g id="edge1" class="edge"><title>Node2&#45;&gt;Node1</title>
<path fill="none" stroke="midnightblue" d="M104,-46.2892C104,-36.857 104,-26.6548 104,-19.6578"/>
<polygon fill="midnightblue" stroke="midnightblue" points="100.5,-46.3993 104,-56.3993 107.5,-46.3994 100.5,-46.3993"/>
</g>
<!-- Node3 -->
<g id="node3" class="node"><title>Node3</title>
<g id="a_node3"><a xlink:href="a00014.html" target="_top" xlink:title="tasks::qp::Constraint">
<polygon fill="white" stroke="black" points="0,-123.5 0,-142.5 116,-142.5 116,-123.5 0,-123.5"/>
<text text-anchor="middle" x="58" y="-130.5" font-family="Helvetica,sans-Serif" font-size="10.00">tasks::qp::Constraint</text>
</a>
</g>
</g>
<!-- Node3&#45;&gt;Node2 -->
<g id="edge2" class="edge"><title>Node3&#45;&gt;Node2</title>
<path fill="none" stroke="midnightblue" d="M70.7334,-115.53C77.7782,-106.417 86.4399,-95.2136 93.1587,-86.523"/>
<polygon fill="midnightblue" stroke="midnightblue" points="67.9381,-113.423 64.5907,-123.475 73.4761,-117.704 67.9381,-113.423"/>
</g>
<!-- Node4 -->
<g id="node4" class="node"><title>Node4</title>
<polygon fill="white" stroke="#bfbfbf" points="134,-123.5 134,-142.5 168,-142.5 168,-123.5 134,-123.5"/>
<text text-anchor="middle" x="151" y="-130.5" font-family="Helvetica,sans-Serif" font-size="10.00">Fun</text>
</g>
<!-- Node4&#45;&gt;Node2 -->
<g id="edge3" class="edge"><title>Node4&#45;&gt;Node2</title>
<path fill="none" stroke="midnightblue" d="M137.99,-115.53C130.792,-106.417 121.942,-95.2136 115.077,-86.523"/>
<polygon fill="midnightblue" stroke="midnightblue" points="135.321,-117.797 144.266,-123.475 140.814,-113.458 135.321,-117.797"/>
</g>
</g>
</svg>
