<?xml version="1.0" encoding="UTF-8" standalone="no"?>
<!DOCTYPE svg PUBLIC "-//W3C//DTD SVG 1.1//EN"
 "http://www.w3.org/Graphics/SVG/1.1/DTD/svg11.dtd">
<!-- Generated by graphviz version 2.38.0 (20140413.2041)
 -->
<!-- Title: QPTasks.h Pages: 1 -->
<svg width="1063pt" height="308pt"
 viewBox="0.00 0.00 1063.00 308.00" xmlns="http://www.w3.org/2000/svg" xmlns:xlink="http://www.w3.org/1999/xlink">
<g id="graph0" class="graph" transform="scale(1 1) rotate(0) translate(4 304)">
<title>QPTasks.h</title>
<polygon fill="white" stroke="none" points="-4,4 -4,-304 1059,-304 1059,4 -4,4"/>
<!-- Node1 -->
<g id="node1" class="node"><title>Node1</title>
<polygon fill="#bfbfbf" stroke="black" points="518,-280.5 518,-299.5 584,-299.5 584,-280.5 518,-280.5"/>
<text text-anchor="middle" x="551" y="-287.5" font-family="Helvetica,sans-Serif" font-size="10.00">QPTasks.h</text>
</g>
<!-- Node2 -->
<g id="node2" class="node"><title>Node2</title>
<polygon fill="white" stroke="#bfbfbf" points="375.5,-0.5 375.5,-19.5 440.5,-19.5 440.5,-0.5 375.5,-0.5"/>
<text text-anchor="middle" x="408" y="-7.5" font-family="Helvetica,sans-Serif" font-size="10.00">Eigen/Core</text>
</g>
<!-- Node1&#45;&gt;Node2 -->
<g id="edge1" class="edge"><title>Node1&#45;&gt;Node2</title>
<path fill="none" stroke="midnightblue" d="M584.069,-288.867C696.195,-287.537 1055,-275.725 1055,-179 1055,-179 1055,-179 1055,-121 1055,-59.5165 595.038,-23.5129 450.755,-13.7316"/>
<polygon fill="midnightblue" stroke="midnightblue" points="450.74,-10.2229 440.528,-13.0466 450.272,-17.2072 450.74,-10.2229"/>
</g>
<!-- Node3 -->
<g id="node3" class="node"><title>Node3</title>
<g id="a_node3"><a xlink:href="a00113.html" target="_top" xlink:title="Tasks.h">
<polygon fill="white" stroke="black" points="633,-168.5 633,-187.5 685,-187.5 685,-168.5 633,-168.5"/>
<text text-anchor="middle" x="659" y="-175.5" font-family="Helvetica,sans-Serif" font-size="10.00">Tasks.h</text>
</a>
</g>
</g>
<!-- Node1&#45;&gt;Node3 -->
<g id="edge2" class="edge"><title>Node1&#45;&gt;Node3</title>
<path fill="none" stroke="midnightblue" d="M559.475,-280.368C577.613,-261.894 620.422,-218.293 643.543,-194.744"/>
<polygon fill="midnightblue" stroke="midnightblue" points="646.056,-197.179 650.565,-187.591 641.061,-192.275 646.056,-197.179"/>
</g>
<!-- Node10 -->
<g id="node10" class="node"><title>Node10</title>
<g id="a_node10"><a xlink:href="a00110.html" target="_top" xlink:title="QPSolver.h">
<polygon fill="white" stroke="black" points="253.5,-168.5 253.5,-187.5 320.5,-187.5 320.5,-168.5 253.5,-168.5"/>
<text text-anchor="middle" x="287" y="-175.5" font-family="Helvetica,sans-Serif" font-size="10.00">QPSolver.h</text>
</a>
</g>
</g>
<!-- Node1&#45;&gt;Node10 -->
<g id="edge10" class="edge"><title>Node1&#45;&gt;Node10</title>
<path fill="none" stroke="midnightblue" d="M524.88,-280.378C499.405,-271.787 459.685,-257.905 426,-244 385.91,-227.451 340.594,-205.662 312.913,-191.991"/>
<polygon fill="midnightblue" stroke="midnightblue" points="314.408,-188.826 303.894,-187.516 311.296,-195.097 314.408,-188.826"/>
</g>
<!-- Node16 -->
<g id="node16" class="node"><title>Node16</title>
<g id="a_node16"><a xlink:href="a00109.html" target="_top" xlink:title="QPMotionConstr.h">
<polygon fill="white" stroke="black" points="435,-224.5 435,-243.5 533,-243.5 533,-224.5 435,-224.5"/>
<text text-anchor="middle" x="484" y="-231.5" font-family="Helvetica,sans-Serif" font-size="10.00">QPMotionConstr.h</text>
</a>
</g>
</g>
<!-- Node1&#45;&gt;Node16 -->
<g id="edge24" class="edge"><title>Node1&#45;&gt;Node16</title>
<path fill="none" stroke="midnightblue" d="M540.235,-280.324C530.234,-272.263 515.113,-260.077 503.07,-250.369"/>
<polygon fill="midnightblue" stroke="midnightblue" points="504.943,-247.384 494.961,-243.834 500.55,-252.834 504.943,-247.384"/>
</g>
<!-- Node3&#45;&gt;Node2 -->
<g id="edge3" class="edge"><title>Node3&#45;&gt;Node2</title>
<path fill="none" stroke="midnightblue" d="M659.983,-168.384C661.039,-154.864 661.078,-128.506 648,-112 599.076,-50.2532 505.544,-25.7694 450.808,-16.4296"/>
<polygon fill="midnightblue" stroke="midnightblue" points="451.16,-12.9413 440.731,-14.8066 450.047,-19.8522 451.16,-12.9413"/>
</g>
<!-- Node4 -->
<g id="node4" class="node"><title>Node4</title>
<polygon fill="white" stroke="#bfbfbf" points="700.5,-112.5 700.5,-131.5 781.5,-131.5 781.5,-112.5 700.5,-112.5"/>
<text text-anchor="middle" x="741" y="-119.5" font-family="Helvetica,sans-Serif" font-size="10.00">RBDyn/CoM.h</text>
</g>
<!-- Node3&#45;&gt;Node4 -->
<g id="edge4" class="edge"><title>Node3&#45;&gt;Node4</title>
<path fill="none" stroke="midnightblue" d="M672.175,-168.324C684.847,-159.979 704.233,-147.212 719.206,-137.352"/>
<polygon fill="midnightblue" stroke="midnightblue" points="721.431,-140.078 727.858,-131.655 717.581,-134.231 721.431,-140.078"/>
</g>
<!-- Node5 -->
<g id="node5" class="node"><title>Node5</title>
<polygon fill="white" stroke="#bfbfbf" points="506.5,-112.5 506.5,-131.5 605.5,-131.5 605.5,-112.5 506.5,-112.5"/>
<text text-anchor="middle" x="556" y="-119.5" font-family="Helvetica,sans-Serif" font-size="10.00">RBDyn/Jacobian.h</text>
</g>
<!-- Node3&#45;&gt;Node5 -->
<g id="edge5" class="edge"><title>Node3&#45;&gt;Node5</title>
<path fill="none" stroke="midnightblue" d="M642.451,-168.324C626.008,-159.703 600.565,-146.364 581.532,-136.386"/>
<polygon fill="midnightblue" stroke="midnightblue" points="582.989,-133.198 572.508,-131.655 579.739,-139.398 582.989,-133.198"/>
</g>
<!-- Node6 -->
<g id="node6" class="node"><title>Node6</title>
<polygon fill="white" stroke="#bfbfbf" points="799.5,-112.5 799.5,-131.5 908.5,-131.5 908.5,-112.5 799.5,-112.5"/>
<text text-anchor="middle" x="854" y="-119.5" font-family="Helvetica,sans-Serif" font-size="10.00">RBDyn/Momentum.h</text>
</g>
<!-- Node3&#45;&gt;Node6 -->
<g id="edge6" class="edge"><title>Node3&#45;&gt;Node6</title>
<path fill="none" stroke="midnightblue" d="M685.299,-169.717C718.127,-160.626 774.634,-144.978 813.123,-134.32"/>
<polygon fill="midnightblue" stroke="midnightblue" points="814.277,-137.632 822.98,-131.59 812.409,-130.886 814.277,-137.632"/>
</g>
<!-- Node7 -->
<g id="node7" class="node"><title>Node7</title>
<polygon fill="white" stroke="#bfbfbf" points="927,-112.5 927,-131.5 1027,-131.5 1027,-112.5 927,-112.5"/>
<text text-anchor="middle" x="977" y="-119.5" font-family="Helvetica,sans-Serif" font-size="10.00">RBDyn/VisServo.h</text>
</g>
<!-- Node3&#45;&gt;Node7 -->
<g id="edge7" class="edge"><title>Node3&#45;&gt;Node7</title>
<path fill="none" stroke="midnightblue" d="M685.023,-172.581C735.355,-164.034 847.211,-145.04 916.938,-133.199"/>
<polygon fill="midnightblue" stroke="midnightblue" points="917.635,-136.631 926.908,-131.506 916.463,-129.73 917.635,-136.631"/>
</g>
<!-- Node8 -->
<g id="node8" class="node"><title>Node8</title>
<polygon fill="white" stroke="#bfbfbf" points="218.5,-0.5 218.5,-19.5 301.5,-19.5 301.5,-0.5 218.5,-0.5"/>
<text text-anchor="middle" x="260" y="-7.5" font-family="Helvetica,sans-Serif" font-size="10.00">tasks/config.hh</text>
</g>
<!-- Node3&#45;&gt;Node8 -->
<g id="edge8" class="edge"><title>Node3&#45;&gt;Node8</title>
<path fill="none" stroke="midnightblue" d="M655.401,-168.413C649.105,-154.443 634.754,-126.866 614,-112 521.148,-45.4891 385.419,-22.6191 311.927,-14.8722"/>
<polygon fill="midnightblue" stroke="midnightblue" points="311.847,-11.3468 301.548,-13.8355 311.151,-18.3121 311.847,-11.3468"/>
</g>
<!-- Node9 -->
<g id="node9" class="node"><title>Node9</title>
<polygon fill="white" stroke="#bfbfbf" points="436,-112.5 436,-131.5 488,-131.5 488,-112.5 436,-112.5"/>
<text text-anchor="middle" x="462" y="-119.5" font-family="Helvetica,sans-Serif" font-size="10.00">memory</text>
</g>
<!-- Node3&#45;&gt;Node9 -->
<g id="edge9" class="edge"><title>Node3&#45;&gt;Node9</title>
<path fill="none" stroke="midnightblue" d="M632.84,-169.829C598.252,-160.348 537.141,-143.597 498.155,-132.911"/>
<polygon fill="midnightblue" stroke="midnightblue" points="498.838,-129.469 488.268,-130.2 496.987,-136.22 498.838,-129.469"/>
</g>
<!-- Node10&#45;&gt;Node2 -->
<g id="edge14" class="edge"><title>Node10&#45;&gt;Node2</title>
<path fill="none" stroke="midnightblue" d="M303.237,-168.499C317.112,-160.574 336.858,-147.642 350,-132 376.499,-100.46 394.064,-54.7593 402.393,-29.5095"/>
<polygon fill="midnightblue" stroke="midnightblue" points="405.799,-30.3458 405.483,-19.7557 399.126,-28.2317 405.799,-30.3458"/>
</g>
<!-- Node10&#45;&gt;Node8 -->
<g id="edge23" class="edge"><title>Node10&#45;&gt;Node8</title>
<path fill="none" stroke="midnightblue" d="M265.517,-168.36C250.608,-161.09 231.889,-149.117 223,-132 204.866,-97.0811 230.221,-51.7909 247.086,-27.7369"/>
<polygon fill="midnightblue" stroke="midnightblue" points="249.943,-29.76 253.026,-19.6237 244.294,-25.625 249.943,-29.76"/>
</g>
<!-- Node10&#45;&gt;Node9 -->
<g id="edge11" class="edge"><title>Node10&#45;&gt;Node9</title>
<path fill="none" stroke="midnightblue" d="M314.729,-168.444C344.862,-159.145 393.111,-144.257 426.114,-134.073"/>
<polygon fill="midnightblue" stroke="midnightblue" points="427.306,-137.368 435.83,-131.075 425.242,-130.68 427.306,-137.368"/>
</g>
<!-- Node11 -->
<g id="node11" class="node"><title>Node11</title>
<polygon fill="white" stroke="#bfbfbf" points="0,-0.5 0,-19.5 44,-19.5 44,-0.5 0,-0.5"/>
<text text-anchor="middle" x="22" y="-7.5" font-family="Helvetica,sans-Serif" font-size="10.00">vector</text>
</g>
<!-- Node10&#45;&gt;Node11 -->
<g id="edge12" class="edge"><title>Node10&#45;&gt;Node11</title>
<path fill="none" stroke="midnightblue" d="M253.074,-175.511C192.637,-172.124 69.9476,-161.686 41,-132 14.3705,-104.692 15.7305,-56.2464 18.9304,-29.6921"/>
<polygon fill="midnightblue" stroke="midnightblue" points="22.3976,-30.1702 20.3382,-19.7774 15.4671,-29.1861 22.3976,-30.1702"/>
</g>
<!-- Node12 -->
<g id="node12" class="node"><title>Node12</title>
<polygon fill="white" stroke="#bfbfbf" points="232.5,-112.5 232.5,-131.5 341.5,-131.5 341.5,-112.5 232.5,-112.5"/>
<text text-anchor="middle" x="287" y="-119.5" font-family="Helvetica,sans-Serif" font-size="10.00">boost/timer/timer.hpp</text>
</g>
<!-- Node10&#45;&gt;Node12 -->
<g id="edge13" class="edge"><title>Node10&#45;&gt;Node12</title>
<path fill="none" stroke="midnightblue" d="M287,-168.083C287,-161.006 287,-150.861 287,-141.986"/>
<polygon fill="midnightblue" stroke="midnightblue" points="290.5,-141.751 287,-131.751 283.5,-141.751 290.5,-141.751"/>
</g>
<!-- Node13 -->
<g id="node13" class="node"><title>Node13</title>
<g id="a_node13"><a xlink:href="a00111.html" target="_top" xlink:title="QPSolverData.h">
<polygon fill="white" stroke="black" points="50,-112.5 50,-131.5 138,-131.5 138,-112.5 50,-112.5"/>
<text text-anchor="middle" x="94" y="-119.5" font-family="Helvetica,sans-Serif" font-size="10.00">QPSolverData.h</text>
</a>
</g>
</g>
<!-- Node10&#45;&gt;Node13 -->
<g id="edge15" class="edge"><title>Node10&#45;&gt;Node13</title>
<path fill="none" stroke="midnightblue" d="M256.419,-168.444C223.385,-159.201 170.612,-144.436 134.234,-134.257"/>
<polygon fill="midnightblue" stroke="midnightblue" points="135.012,-130.84 124.438,-131.516 133.125,-137.582 135.012,-130.84"/>
</g>
<!-- Node15 -->
<g id="node15" class="node"><title>Node15</title>
<g id="a_node15"><a xlink:href="a00108.html" target="_top" xlink:title="QPContacts.h">
<polygon fill="white" stroke="black" points="96.5,-56.5 96.5,-75.5 175.5,-75.5 175.5,-56.5 96.5,-56.5"/>
<text text-anchor="middle" x="136" y="-63.5" font-family="Helvetica,sans-Serif" font-size="10.00">QPContacts.h</text>
</a>
</g>
</g>
<!-- Node10&#45;&gt;Node15 -->
<g id="edge22" class="edge"><title>Node10&#45;&gt;Node15</title>
<path fill="none" stroke="midnightblue" d="M260.56,-168.371C240.008,-160.843 211.479,-148.531 190,-132 172.452,-118.494 156.825,-98.3183 146.953,-84.0331"/>
<polygon fill="midnightblue" stroke="midnightblue" points="149.801,-81.9955 141.335,-75.6255 143.981,-85.8847 149.801,-81.9955"/>
</g>
<!-- Node14 -->
<g id="node14" class="node"><title>Node14</title>
<polygon fill="white" stroke="#bfbfbf" points="62,-0.5 62,-19.5 200,-19.5 200,-0.5 62,-0.5"/>
<text text-anchor="middle" x="131" y="-7.5" font-family="Helvetica,sans-Serif" font-size="10.00">SpaceVecAlg/SpaceVecAlg</text>
</g>
<!-- Node13&#45;&gt;Node14 -->
<g id="edge16" class="edge"><title>Node13&#45;&gt;Node14</title>
<path fill="none" stroke="midnightblue" d="M90.4764,-112.217C85.8817,-99.3678 79.288,-74.9184 87,-56 91.8,-44.2251 101.329,-33.8564 110.295,-26.0486"/>
<polygon fill="midnightblue" stroke="midnightblue" points="112.65,-28.6448 118.219,-19.6314 108.245,-23.2048 112.65,-28.6448"/>
</g>
<!-- Node13&#45;&gt;Node15 -->
<g id="edge17" class="edge"><title>Node13&#45;&gt;Node15</title>
<path fill="none" stroke="midnightblue" d="M100.935,-112.083C106.929,-104.377 115.752,-93.0333 123.048,-83.6531"/>
<polygon fill="midnightblue" stroke="midnightblue" points="125.817,-85.7934 129.194,-75.7511 120.291,-81.4958 125.817,-85.7934"/>
</g>
<!-- Node15&#45;&gt;Node2 -->
<g id="edge19" class="edge"><title>Node15&#45;&gt;Node2</title>
<path fill="none" stroke="midnightblue" d="M175.551,-57.1479C226.107,-47.111 313.3,-29.8008 365.317,-19.4738"/>
<polygon fill="midnightblue" stroke="midnightblue" points="366.104,-22.8861 375.231,-17.5057 364.74,-16.0201 366.104,-22.8861"/>
</g>
<!-- Node15&#45;&gt;Node8 -->
<g id="edge21" class="edge"><title>Node15&#45;&gt;Node8</title>
<path fill="none" stroke="midnightblue" d="M155.648,-56.4435C175.965,-47.5961 207.903,-33.6875 231.098,-23.5865"/>
<polygon fill="midnightblue" stroke="midnightblue" points="232.673,-26.7181 240.444,-19.5164 229.878,-20.3002 232.673,-26.7181"/>
</g>
<!-- Node15&#45;&gt;Node11 -->
<g id="edge18" class="edge"><title>Node15&#45;&gt;Node11</title>
<path fill="none" stroke="midnightblue" d="M117.936,-56.4435C99.4252,-47.6751 70.4193,-33.9355 49.1445,-23.8579"/>
<polygon fill="midnightblue" stroke="midnightblue" points="50.5148,-20.6343 39.9791,-19.5164 47.5182,-26.9604 50.5148,-20.6343"/>
</g>
<!-- Node15&#45;&gt;Node14 -->
<g id="edge20" class="edge"><title>Node15&#45;&gt;Node14</title>
<path fill="none" stroke="midnightblue" d="M135.174,-56.083C134.519,-49.0059 133.58,-38.8611 132.758,-29.9865"/>
<polygon fill="midnightblue" stroke="midnightblue" points="136.217,-29.3858 131.81,-19.7511 129.247,-30.0312 136.217,-29.3858"/>
</g>
<!-- Node16&#45;&gt;Node2 -->
<g id="edge26" class="edge"><title>Node16&#45;&gt;Node2</title>
<path fill="none" stroke="midnightblue" d="M469.637,-224.185C458.018,-216.236 442.274,-203.441 434,-188 406.18,-136.083 405.31,-63.9542 406.728,-30.0484"/>
<polygon fill="midnightblue" stroke="midnightblue" points="410.239,-29.9197 407.284,-19.7454 403.25,-29.542 410.239,-29.9197"/>
</g>
<!-- Node16&#45;&gt;Node5 -->
<g id="edge28" class="edge"><title>Node16&#45;&gt;Node5</title>
<path fill="none" stroke="midnightblue" d="M489.666,-224.143C497.698,-211.608 512.877,-187.993 526,-168 532.064,-158.761 538.894,-148.505 544.503,-140.12"/>
<polygon fill="midnightblue" stroke="midnightblue" points="547.552,-141.858 550.212,-131.602 541.737,-137.961 547.552,-141.858"/>
</g>
<!-- Node16&#45;&gt;Node10 -->
<g id="edge29" class="edge"><title>Node16&#45;&gt;Node10</title>
<path fill="none" stroke="midnightblue" d="M452.785,-224.444C419.067,-215.201 365.2,-200.436 328.068,-190.257"/>
<polygon fill="midnightblue" stroke="midnightblue" points="328.639,-186.785 318.069,-187.516 326.788,-193.536 328.639,-186.785"/>
</g>
<!-- Node17 -->
<g id="node17" class="node"><title>Node17</title>
<polygon fill="white" stroke="#bfbfbf" points="443.5,-168.5 443.5,-187.5 478.5,-187.5 478.5,-168.5 443.5,-168.5"/>
<text text-anchor="middle" x="461" y="-175.5" font-family="Helvetica,sans-Serif" font-size="10.00">map</text>
</g>
<!-- Node16&#45;&gt;Node17 -->
<g id="edge25" class="edge"><title>Node16&#45;&gt;Node17</title>
<path fill="none" stroke="midnightblue" d="M480.202,-224.083C477.087,-216.77 472.577,-206.181 468.711,-197.103"/>
<polygon fill="midnightblue" stroke="midnightblue" points="471.866,-195.58 464.727,-187.751 465.426,-198.323 471.866,-195.58"/>
</g>
<!-- Node18 -->
<g id="node18" class="node"><title>Node18</title>
<polygon fill="white" stroke="#bfbfbf" points="535,-168.5 535,-187.5 609,-187.5 609,-168.5 535,-168.5"/>
<text text-anchor="middle" x="572" y="-175.5" font-family="Helvetica,sans-Serif" font-size="10.00">RBDyn/FD.h</text>
</g>
<!-- Node16&#45;&gt;Node18 -->
<g id="edge27" class="edge"><title>Node16&#45;&gt;Node18</title>
<path fill="none" stroke="midnightblue" d="M498.139,-224.324C511.866,-215.9 532.936,-202.971 549.064,-193.074"/>
<polygon fill="midnightblue" stroke="midnightblue" points="551.204,-195.868 557.896,-187.655 547.543,-189.902 551.204,-195.868"/>
</g>
</g>
</svg>
