<?xml version="1.0" encoding="UTF-8" standalone="no"?>
<!DOCTYPE svg PUBLIC "-//W3C//DTD SVG 1.1//EN"
 "http://www.w3.org/Graphics/SVG/1.1/DTD/svg11.dtd">
<!-- Generated by graphviz version 2.38.0 (20140413.2041)
 -->
<!-- Title: tasks::qp::BilateralContact Pages: 1 -->
<svg width="725pt" height="128pt"
 viewBox="0.00 0.00 725.00 127.50" xmlns="http://www.w3.org/2000/svg" xmlns:xlink="http://www.w3.org/1999/xlink">
<g id="graph0" class="graph" transform="scale(1 1) rotate(0) translate(4 123.5)">
<title>tasks::qp::BilateralContact</title>
<polygon fill="white" stroke="none" points="-4,4 -4,-123.5 721,-123.5 721,4 -4,4"/>
<!-- Node1 -->
<g id="node1" class="node"><title>Node1</title>
<polygon fill="#bfbfbf" stroke="black" points="584,-50 584,-69 717,-69 717,-50 584,-50"/>
<text text-anchor="middle" x="650.5" y="-57" font-family="Helvetica,sans-Serif" font-size="10.00">tasks::qp::BilateralContact</text>
</g>
<!-- Node2 -->
<g id="node2" class="node"><title>Node2</title>
<polygon fill="white" stroke="#bfbfbf" points="399,-44.5 399,-74.5 503,-74.5 503,-44.5 399,-44.5"/>
<text text-anchor="start" x="407" y="-62.5" font-family="Helvetica,sans-Serif" font-size="10.00">std::vector&lt; tasks</text>
<text text-anchor="middle" x="451" y="-51.5" font-family="Helvetica,sans-Serif" font-size="10.00">::qp::FrictionCone &gt;</text>
</g>
<!-- Node2&#45;&gt;Node1 -->
<g id="edge1" class="edge"><title>Node2&#45;&gt;Node1</title>
<path fill="none" stroke="#9a32cd" stroke-dasharray="5,2" d="M513.162,-59.5C535.531,-59.5 560.924,-59.5 583.682,-59.5"/>
<polygon fill="#9a32cd" stroke="#9a32cd" points="513.118,-56.0001 503.118,-59.5 513.118,-63.0001 513.118,-56.0001"/>
<text text-anchor="middle" x="544" y="-73.5" font-family="Helvetica,sans-Serif" font-size="10.00"> r1Cones</text>
<text text-anchor="middle" x="544" y="-62.5" font-family="Helvetica,sans-Serif" font-size="10.00">r2Cones</text>
</g>
<!-- Node3 -->
<g id="node3" class="node"><title>Node3</title>
<g id="a_node3"><a xlink:href="a00029.html" target="_top" xlink:title="Linearized friction cone generator. ">
<polygon fill="white" stroke="black" points="182,-54 182,-73 301,-73 301,-54 182,-54"/>
<text text-anchor="middle" x="241.5" y="-61" font-family="Helvetica,sans-Serif" font-size="10.00">tasks::qp::FrictionCone</text>
</a>
</g>
</g>
<!-- Node3&#45;&gt;Node2 -->
<g id="edge2" class="edge"><title>Node3&#45;&gt;Node2</title>
<path fill="none" stroke="#9a32cd" stroke-dasharray="5,2" d="M311.453,-62.1708C340.015,-61.6202 372.556,-60.9929 398.921,-60.4847"/>
<polygon fill="#9a32cd" stroke="#9a32cd" points="311.06,-58.6776 301.129,-62.3698 311.195,-65.6763 311.06,-58.6776"/>
<text text-anchor="middle" x="349.5" y="-65.5" font-family="Helvetica,sans-Serif" font-size="10.00"> elements</text>
</g>
<!-- Node4 -->
<g id="node4" class="node"><title>Node4</title>
<polygon fill="white" stroke="#bfbfbf" points="0,-68.5 0,-98.5 97,-98.5 97,-68.5 0,-68.5"/>
<text text-anchor="start" x="8" y="-86.5" font-family="Helvetica,sans-Serif" font-size="10.00">std::vector&lt; Eigen</text>
<text text-anchor="middle" x="48.5" y="-75.5" font-family="Helvetica,sans-Serif" font-size="10.00">::Vector3d &gt;</text>
</g>
<!-- Node4&#45;&gt;Node1 -->
<g id="edge7" class="edge"><title>Node4&#45;&gt;Node1</title>
<path fill="none" stroke="#9a32cd" stroke-dasharray="5,2" d="M107.231,-89.0804C109.856,-89.242 112.455,-89.3837 115,-89.5 136.755,-90.4943 142.222,-89.6083 164,-89.5 342.673,-88.6111 389.492,-113.244 566,-85.5 586.548,-82.2702 609.017,-75.0511 625.466,-69.0375"/>
<polygon fill="#9a32cd" stroke="#9a32cd" points="107.265,-85.5743 97.0453,-88.369 106.777,-92.5573 107.265,-85.5743"/>
<text text-anchor="middle" x="349.5" y="-111.5" font-family="Helvetica,sans-Serif" font-size="10.00"> r1Points</text>
<text text-anchor="middle" x="349.5" y="-100.5" font-family="Helvetica,sans-Serif" font-size="10.00">r2Points</text>
</g>
<!-- Node4&#45;&gt;Node3 -->
<g id="edge3" class="edge"><title>Node4&#45;&gt;Node3</title>
<path fill="none" stroke="#9a32cd" stroke-dasharray="5,2" d="M107.403,-77.4368C130.966,-74.9695 158.163,-72.1217 181.806,-69.646"/>
<polygon fill="#9a32cd" stroke="#9a32cd" points="106.786,-73.9823 97.2047,-78.5047 107.515,-80.9442 106.786,-73.9823"/>
<text text-anchor="middle" x="139.5" y="-79.5" font-family="Helvetica,sans-Serif" font-size="10.00"> generators</text>
</g>
<!-- Node5 -->
<g id="node5" class="node"><title>Node5</title>
<g id="a_node5"><a xlink:href="a00022.html" target="_top" xlink:title="Unique identifier for a contact. ">
<polygon fill="white" stroke="black" points="398,-6 398,-25 504,-25 504,-6 398,-6"/>
<text text-anchor="middle" x="451" y="-13" font-family="Helvetica,sans-Serif" font-size="10.00">tasks::qp::ContactId</text>
</a>
</g>
</g>
<!-- Node5&#45;&gt;Node1 -->
<g id="edge4" class="edge"><title>Node5&#45;&gt;Node1</title>
<path fill="none" stroke="#9a32cd" stroke-dasharray="5,2" d="M504.895,-27.2841C536.777,-34.3869 576.856,-43.316 606.729,-49.9713"/>
<polygon fill="#9a32cd" stroke="#9a32cd" points="505.376,-23.8057 494.855,-25.0473 503.854,-30.6382 505.376,-23.8057"/>
<text text-anchor="middle" x="544" y="-43.5" font-family="Helvetica,sans-Serif" font-size="10.00"> contactId</text>
</g>
<!-- Node6 -->
<g id="node6" class="node"><title>Node6</title>
<g id="a_node6"><a xlink:title="STL class. ">
<polygon fill="white" stroke="#bfbfbf" points="211.5,-6 211.5,-25 271.5,-25 271.5,-6 211.5,-6"/>
<text text-anchor="middle" x="241.5" y="-13" font-family="Helvetica,sans-Serif" font-size="10.00">std::string</text>
</a>
</g>
</g>
<!-- Node6&#45;&gt;Node5 -->
<g id="edge5" class="edge"><title>Node6&#45;&gt;Node5</title>
<path fill="none" stroke="#9a32cd" stroke-dasharray="5,2" d="M281.908,-15.5C314.706,-15.5 361.678,-15.5 397.635,-15.5"/>
<polygon fill="#9a32cd" stroke="#9a32cd" points="281.79,-12.0001 271.79,-15.5 281.79,-19.0001 281.79,-12.0001"/>
<text text-anchor="middle" x="349.5" y="-29.5" font-family="Helvetica,sans-Serif" font-size="10.00"> r2BodyName</text>
<text text-anchor="middle" x="349.5" y="-18.5" font-family="Helvetica,sans-Serif" font-size="10.00">r1BodyName</text>
</g>
<!-- Node7 -->
<g id="node7" class="node"><title>Node7</title>
<g id="a_node7"><a xlink:title="STL class. ">
<polygon fill="white" stroke="#bfbfbf" points="1,-0.5 1,-30.5 96,-30.5 96,-0.5 1,-0.5"/>
<text text-anchor="start" x="9" y="-18.5" font-family="Helvetica,sans-Serif" font-size="10.00">std::basic_string&lt;</text>
<text text-anchor="middle" x="48.5" y="-7.5" font-family="Helvetica,sans-Serif" font-size="10.00"> char &gt;</text>
</a>
</g>
</g>
<!-- Node7&#45;&gt;Node6 -->
<g id="edge6" class="edge"><title>Node7&#45;&gt;Node6</title>
<path fill="none" stroke="midnightblue" d="M106.658,-15.5C141.19,-15.5 183.742,-15.5 211.467,-15.5"/>
<polygon fill="midnightblue" stroke="midnightblue" points="106.224,-12.0001 96.2239,-15.5 106.224,-19.0001 106.224,-12.0001"/>
</g>
</g>
</svg>
