<?xml version="1.0" encoding="UTF-8" standalone="no"?>
<!DOCTYPE svg PUBLIC "-//W3C//DTD SVG 1.1//EN"
 "http://www.w3.org/Graphics/SVG/1.1/DTD/svg11.dtd">
<!-- Generated by graphviz version 2.38.0 (20140413.2041)
 -->
<!-- Title: tasks::qp::ContactAccConstr Pages: 1 -->
<svg width="1322pt" height="231pt"
 viewBox="0.00 0.00 1322.00 231.00" xmlns="http://www.w3.org/2000/svg" xmlns:xlink="http://www.w3.org/1999/xlink">
<g id="graph0" class="graph" transform="scale(1 1) rotate(0) translate(4 227)">
<title>tasks::qp::ContactAccConstr</title>
<polygon fill="white" stroke="none" points="-4,4 -4,-227 1318,-227 1318,4 -4,4"/>
<!-- Node1 -->
<g id="node1" class="node"><title>Node1</title>
<polygon fill="#bfbfbf" stroke="black" points="1170,-116.5 1170,-135.5 1314,-135.5 1314,-116.5 1170,-116.5"/>
<text text-anchor="middle" x="1242" y="-123.5" font-family="Helvetica,sans-Serif" font-size="10.00">tasks::qp::ContactAccConstr</text>
</g>
<!-- Node2 -->
<g id="node2" class="node"><title>Node2</title>
<g id="a_node2"><a xlink:href="a00018.html" target="_top" xlink:title="Common contact constraint computation. ">
<polygon fill="white" stroke="black" points="1006,-116.5 1006,-135.5 1133,-135.5 1133,-116.5 1006,-116.5"/>
<text text-anchor="middle" x="1069.5" y="-123.5" font-family="Helvetica,sans-Serif" font-size="10.00">tasks::qp::ContactConstr</text>
</a>
</g>
</g>
<!-- Node2&#45;&gt;Node1 -->
<g id="edge1" class="edge"><title>Node2&#45;&gt;Node1</title>
<path fill="none" stroke="midnightblue" d="M1143.25,-126C1152.06,-126 1161.05,-126 1169.84,-126"/>
<polygon fill="midnightblue" stroke="midnightblue" points="1143.02,-122.5 1133.02,-126 1143.02,-129.5 1143.02,-122.5"/>
</g>
<!-- Node3 -->
<g id="node3" class="node"><title>Node3</title>
<g id="a_node3"><a xlink:href="a00015.html" target="_top" xlink:title="tasks::qp::ConstraintFunction\l\&lt; Equality \&gt;">
<polygon fill="white" stroke="black" points="796,-165 796,-195 942,-195 942,-165 796,-165"/>
<text text-anchor="start" x="804" y="-183" font-family="Helvetica,sans-Serif" font-size="10.00">tasks::qp::ConstraintFunction</text>
<text text-anchor="middle" x="869" y="-172" font-family="Helvetica,sans-Serif" font-size="10.00">&lt; Equality &gt;</text>
</a>
</g>
</g>
<!-- Node3&#45;&gt;Node2 -->
<g id="edge2" class="edge"><title>Node3&#45;&gt;Node2</title>
<path fill="none" stroke="midnightblue" d="M935.254,-162.248C967.992,-153.342 1006.34,-142.909 1033.47,-135.529"/>
<polygon fill="midnightblue" stroke="midnightblue" points="934.024,-158.956 925.293,-164.958 935.861,-165.71 934.024,-158.956"/>
</g>
<!-- Node4 -->
<g id="node4" class="node"><title>Node4</title>
<g id="a_node4"><a xlink:href="a00014.html" target="_top" xlink:title="tasks::qp::Constraint">
<polygon fill="white" stroke="black" points="567.5,-203.5 567.5,-222.5 675.5,-222.5 675.5,-203.5 567.5,-203.5"/>
<text text-anchor="middle" x="621.5" y="-210.5" font-family="Helvetica,sans-Serif" font-size="10.00">tasks::qp::Constraint</text>
</a>
</g>
</g>
<!-- Node4&#45;&gt;Node3 -->
<g id="edge3" class="edge"><title>Node4&#45;&gt;Node3</title>
<path fill="none" stroke="midnightblue" d="M685.928,-204.474C719.519,-199.959 760.913,-194.395 795.74,-189.713"/>
<polygon fill="midnightblue" stroke="midnightblue" points="685.214,-201.038 675.77,-205.839 686.147,-207.976 685.214,-201.038"/>
</g>
<!-- Node5 -->
<g id="node5" class="node"><title>Node5</title>
<polygon fill="white" stroke="#bfbfbf" points="605,-165.5 605,-184.5 638,-184.5 638,-165.5 605,-165.5"/>
<text text-anchor="middle" x="621.5" y="-172.5" font-family="Helvetica,sans-Serif" font-size="10.00">Fun</text>
</g>
<!-- Node5&#45;&gt;Node3 -->
<g id="edge4" class="edge"><title>Node5&#45;&gt;Node3</title>
<path fill="none" stroke="midnightblue" d="M648.477,-175.529C683.262,-176.238 746.344,-177.522 795.989,-178.533"/>
<polygon fill="midnightblue" stroke="midnightblue" points="648.3,-172.025 638.231,-175.32 648.157,-179.023 648.3,-172.025"/>
</g>
<!-- Node6 -->
<g id="node6" class="node"><title>Node6</title>
<g id="a_node6"><a xlink:href="a00019.html" target="_top" xlink:title="Manage modifier on contact constraint. ">
<polygon fill="white" stroke="black" points="805.5,-57 805.5,-87 932.5,-87 932.5,-57 805.5,-57"/>
<text text-anchor="start" x="813.5" y="-75" font-family="Helvetica,sans-Serif" font-size="10.00">tasks::qp::ContactConstr</text>
<text text-anchor="middle" x="869" y="-64" font-family="Helvetica,sans-Serif" font-size="10.00">Common</text>
</a>
</g>
</g>
<!-- Node6&#45;&gt;Node2 -->
<g id="edge5" class="edge"><title>Node6&#45;&gt;Node2</title>
<path fill="none" stroke="midnightblue" d="M935.254,-89.7518C967.992,-98.6578 1006.34,-109.091 1033.47,-116.471"/>
<polygon fill="midnightblue" stroke="midnightblue" points="935.861,-86.2898 925.293,-87.042 934.024,-93.0443 935.861,-86.2898"/>
</g>
<!-- Node7 -->
<g id="node7" class="node"><title>Node7</title>
<polygon fill="white" stroke="#bfbfbf" points="572,-60 572,-90 671,-90 671,-60 572,-60"/>
<text text-anchor="start" x="580" y="-78" font-family="Helvetica,sans-Serif" font-size="10.00">std::set&lt; tasks::qp</text>
<text text-anchor="middle" x="621.5" y="-67" font-family="Helvetica,sans-Serif" font-size="10.00">::ContactId &gt;</text>
</g>
<!-- Node7&#45;&gt;Node6 -->
<g id="edge6" class="edge"><title>Node7&#45;&gt;Node6</title>
<path fill="none" stroke="#9a32cd" stroke-dasharray="5,2" d="M681.237,-74.2822C718.618,-73.8254 766.997,-73.2343 805.149,-72.768"/>
<polygon fill="#9a32cd" stroke="#9a32cd" points="680.959,-70.7853 671.003,-74.4073 681.045,-77.7847 680.959,-70.7853"/>
<text text-anchor="middle" x="740.5" y="-77" font-family="Helvetica,sans-Serif" font-size="10.00"> virtualContacts_</text>
</g>
<!-- Node8 -->
<g id="node8" class="node"><title>Node8</title>
<g id="a_node8"><a xlink:href="a00022.html" target="_top" xlink:title="Unique identifier for a contact. ">
<polygon fill="white" stroke="black" points="371.5,-57.5 371.5,-76.5 477.5,-76.5 477.5,-57.5 371.5,-57.5"/>
<text text-anchor="middle" x="424.5" y="-64.5" font-family="Helvetica,sans-Serif" font-size="10.00">tasks::qp::ContactId</text>
</a>
</g>
</g>
<!-- Node8&#45;&gt;Node7 -->
<g id="edge7" class="edge"><title>Node8&#45;&gt;Node7</title>
<path fill="none" stroke="#9a32cd" stroke-dasharray="5,2" d="M487.991,-66.6638C504.879,-66.8136 523.145,-67.1948 540,-68 550.229,-68.4887 561.17,-69.2678 571.585,-70.1321"/>
<polygon fill="#9a32cd" stroke="#9a32cd" points="487.701,-63.162 477.679,-66.5987 487.657,-70.1619 487.701,-63.162"/>
<text text-anchor="middle" x="518" y="-71" font-family="Helvetica,sans-Serif" font-size="10.00"> keys</text>
</g>
<!-- Node11 -->
<g id="node11" class="node"><title>Node11</title>
<polygon fill="white" stroke="#bfbfbf" points="569.5,-0.5 569.5,-41.5 673.5,-41.5 673.5,-0.5 569.5,-0.5"/>
<text text-anchor="start" x="577.5" y="-29.5" font-family="Helvetica,sans-Serif" font-size="10.00">std::map&lt; tasks::qp</text>
<text text-anchor="start" x="577.5" y="-18.5" font-family="Helvetica,sans-Serif" font-size="10.00">::ContactId, Eigen::</text>
<text text-anchor="middle" x="621.5" y="-7.5" font-family="Helvetica,sans-Serif" font-size="10.00">MatrixXd &gt;</text>
</g>
<!-- Node8&#45;&gt;Node11 -->
<g id="edge11" class="edge"><title>Node8&#45;&gt;Node11</title>
<path fill="none" stroke="#9a32cd" stroke-dasharray="5,2" d="M475.747,-55.1468C504.494,-48.3654 540.469,-39.879 569.364,-33.0629"/>
<polygon fill="#9a32cd" stroke="#9a32cd" points="474.833,-51.7662 465.904,-57.4688 476.441,-58.5792 474.833,-51.7662"/>
<text text-anchor="middle" x="518" y="-53" font-family="Helvetica,sans-Serif" font-size="10.00"> keys</text>
</g>
<!-- Node13 -->
<g id="node13" class="node"><title>Node13</title>
<g id="a_node13"><a xlink:href="a00021.html" target="_top" xlink:title="tasks::qp::ContactConstr\l::ContactData">
<polygon fill="white" stroke="black" points="558,-111 558,-141 685,-141 685,-111 558,-111"/>
<text text-anchor="start" x="566" y="-129" font-family="Helvetica,sans-Serif" font-size="10.00">tasks::qp::ContactConstr</text>
<text text-anchor="middle" x="621.5" y="-118" font-family="Helvetica,sans-Serif" font-size="10.00">::ContactData</text>
</a>
</g>
</g>
<!-- Node8&#45;&gt;Node13 -->
<g id="edge14" class="edge"><title>Node8&#45;&gt;Node13</title>
<path fill="none" stroke="#9a32cd" stroke-dasharray="5,2" d="M467.112,-79.5903C497.47,-88.7756 538.743,-101.263 570.829,-110.971"/>
<polygon fill="#9a32cd" stroke="#9a32cd" points="467.849,-76.1567 457.264,-76.6107 465.822,-82.8568 467.849,-76.1567"/>
<text text-anchor="middle" x="518" y="-104" font-family="Helvetica,sans-Serif" font-size="10.00"> contactId</text>
</g>
<!-- Node9 -->
<g id="node9" class="node"><title>Node9</title>
<g id="a_node9"><a xlink:title="STL class. ">
<polygon fill="white" stroke="#bfbfbf" points="180.5,-57.5 180.5,-76.5 240.5,-76.5 240.5,-57.5 180.5,-57.5"/>
<text text-anchor="middle" x="210.5" y="-64.5" font-family="Helvetica,sans-Serif" font-size="10.00">std::string</text>
</a>
</g>
</g>
<!-- Node9&#45;&gt;Node8 -->
<g id="edge8" class="edge"><title>Node9&#45;&gt;Node8</title>
<path fill="none" stroke="#9a32cd" stroke-dasharray="5,2" d="M250.972,-67C284.879,-67 334.031,-67 371.206,-67"/>
<polygon fill="#9a32cd" stroke="#9a32cd" points="250.533,-63.5001 240.533,-67 250.533,-70.5001 250.533,-63.5001"/>
<text text-anchor="middle" x="322.5" y="-81" font-family="Helvetica,sans-Serif" font-size="10.00"> r2BodyName</text>
<text text-anchor="middle" x="322.5" y="-70" font-family="Helvetica,sans-Serif" font-size="10.00">r1BodyName</text>
</g>
<!-- Node10 -->
<g id="node10" class="node"><title>Node10</title>
<g id="a_node10"><a xlink:title="STL class. ">
<polygon fill="white" stroke="#bfbfbf" points="0,-52 0,-82 95,-82 95,-52 0,-52"/>
<text text-anchor="start" x="8" y="-70" font-family="Helvetica,sans-Serif" font-size="10.00">std::basic_string&lt;</text>
<text text-anchor="middle" x="47.5" y="-59" font-family="Helvetica,sans-Serif" font-size="10.00"> char &gt;</text>
</a>
</g>
</g>
<!-- Node10&#45;&gt;Node9 -->
<g id="edge9" class="edge"><title>Node10&#45;&gt;Node9</title>
<path fill="none" stroke="midnightblue" d="M105.309,-67C130.63,-67 159.385,-67 180.262,-67"/>
<polygon fill="midnightblue" stroke="midnightblue" points="105.068,-63.5001 95.0679,-67 105.068,-70.5001 105.068,-63.5001"/>
</g>
<!-- Node11&#45;&gt;Node6 -->
<g id="edge10" class="edge"><title>Node11&#45;&gt;Node6</title>
<path fill="none" stroke="#9a32cd" stroke-dasharray="5,2" d="M683.819,-33.7384C720.819,-41.4247 767.851,-51.1951 805.126,-58.9387"/>
<polygon fill="#9a32cd" stroke="#9a32cd" points="684.169,-30.2364 673.666,-31.6292 682.745,-37.0901 684.169,-30.2364"/>
<text text-anchor="middle" x="740.5" y="-56" font-family="Helvetica,sans-Serif" font-size="10.00"> dofContacts_</text>
</g>
<!-- Node12 -->
<g id="node12" class="node"><title>Node12</title>
<polygon fill="white" stroke="#bfbfbf" points="817.5,-105.5 817.5,-146.5 920.5,-146.5 920.5,-105.5 817.5,-105.5"/>
<text text-anchor="start" x="825.5" y="-134.5" font-family="Helvetica,sans-Serif" font-size="10.00">std::vector&lt; tasks</text>
<text text-anchor="start" x="825.5" y="-123.5" font-family="Helvetica,sans-Serif" font-size="10.00">::qp::ContactConstr</text>
<text text-anchor="middle" x="869" y="-112.5" font-family="Helvetica,sans-Serif" font-size="10.00">::ContactData &gt;</text>
</g>
<!-- Node12&#45;&gt;Node2 -->
<g id="edge12" class="edge"><title>Node12&#45;&gt;Node2</title>
<path fill="none" stroke="#9a32cd" stroke-dasharray="5,2" d="M930.915,-126C954.704,-126 981.965,-126 1005.91,-126"/>
<polygon fill="#9a32cd" stroke="#9a32cd" points="930.604,-122.5 920.604,-126 930.604,-129.5 930.604,-122.5"/>
<text text-anchor="middle" x="974" y="-129" font-family="Helvetica,sans-Serif" font-size="10.00"> cont_</text>
</g>
<!-- Node13&#45;&gt;Node12 -->
<g id="edge13" class="edge"><title>Node13&#45;&gt;Node12</title>
<path fill="none" stroke="#9a32cd" stroke-dasharray="5,2" d="M695.164,-126C734.533,-126 782.199,-126 817.494,-126"/>
<polygon fill="#9a32cd" stroke="#9a32cd" points="695.085,-122.5 685.085,-126 695.085,-129.5 695.085,-122.5"/>
<text text-anchor="middle" x="740.5" y="-129" font-family="Helvetica,sans-Serif" font-size="10.00"> elements</text>
</g>
<!-- Node14 -->
<g id="node14" class="node"><title>Node14</title>
<polygon fill="white" stroke="#bfbfbf" points="371,-114.5 371,-155.5 478,-155.5 478,-114.5 371,-114.5"/>
<text text-anchor="start" x="379" y="-143.5" font-family="Helvetica,sans-Serif" font-size="10.00">std::vector&lt; tasks</text>
<text text-anchor="start" x="379" y="-132.5" font-family="Helvetica,sans-Serif" font-size="10.00">::qp::ContactConstr</text>
<text text-anchor="middle" x="424.5" y="-121.5" font-family="Helvetica,sans-Serif" font-size="10.00">::ContactSideData &gt;</text>
</g>
<!-- Node14&#45;&gt;Node13 -->
<g id="edge15" class="edge"><title>Node14&#45;&gt;Node13</title>
<path fill="none" stroke="#9a32cd" stroke-dasharray="5,2" d="M488.05,-132.113C510.37,-131.083 535.506,-129.923 557.836,-128.892"/>
<polygon fill="#9a32cd" stroke="#9a32cd" points="487.841,-128.619 478.013,-132.576 488.164,-135.611 487.841,-128.619"/>
<text text-anchor="middle" x="518" y="-135" font-family="Helvetica,sans-Serif" font-size="10.00"> contacts</text>
</g>
<!-- Node15 -->
<g id="node15" class="node"><title>Node15</title>
<g id="a_node15"><a xlink:href="a00024.html" target="_top" xlink:title="tasks::qp::ContactConstr\l::ContactSideData">
<polygon fill="white" stroke="black" points="147,-120 147,-150 274,-150 274,-120 147,-120"/>
<text text-anchor="start" x="155" y="-138" font-family="Helvetica,sans-Serif" font-size="10.00">tasks::qp::ContactConstr</text>
<text text-anchor="middle" x="210.5" y="-127" font-family="Helvetica,sans-Serif" font-size="10.00">::ContactSideData</text>
</a>
</g>
</g>
<!-- Node15&#45;&gt;Node14 -->
<g id="edge16" class="edge"><title>Node15&#45;&gt;Node14</title>
<path fill="none" stroke="#9a32cd" stroke-dasharray="5,2" d="M284.536,-135C312.941,-135 344.854,-135 370.927,-135"/>
<polygon fill="#9a32cd" stroke="#9a32cd" points="284.247,-131.5 274.247,-135 284.246,-138.5 284.247,-131.5"/>
<text text-anchor="middle" x="322.5" y="-138" font-family="Helvetica,sans-Serif" font-size="10.00"> elements</text>
</g>
<!-- Node16 -->
<g id="node16" class="node"><title>Node16</title>
<g id="a_node16"><a doxygen="/usr/local/share/doc/RBDyn/doxygen-html/RBDyn.doxytag:/usr/local/share/doc/RBDyn/doxygen-html/" xlink:href="/usr/local/share/doc/RBDyn/doxygen-html/a00013.html" target="_top" xlink:title="rbd::Jacobian">
<polygon fill="white" stroke="black" points="10,-125.5 10,-144.5 85,-144.5 85,-125.5 10,-125.5"/>
<text text-anchor="middle" x="47.5" y="-132.5" font-family="Helvetica,sans-Serif" font-size="10.00">rbd::Jacobian</text>
</a>
</g>
</g>
<!-- Node16&#45;&gt;Node15 -->
<g id="edge17" class="edge"><title>Node16&#45;&gt;Node15</title>
<path fill="none" stroke="#9a32cd" stroke-dasharray="5,2" d="M95.2732,-135C111.391,-135 129.712,-135 146.888,-135"/>
<polygon fill="#9a32cd" stroke="#9a32cd" points="95.0334,-131.5 85.0334,-135 95.0334,-138.5 95.0334,-131.5"/>
<text text-anchor="middle" x="121" y="-138" font-family="Helvetica,sans-Serif" font-size="10.00"> jac</text>
</g>
</g>
</svg>
