<?xml version="1.0" encoding="UTF-8" standalone="no"?>
<!DOCTYPE svg PUBLIC "-//W3C//DTD SVG 1.1//EN"
 "http://www.w3.org/Graphics/SVG/1.1/DTD/svg11.dtd">
<!-- Generated by graphviz version 2.38.0 (20140413.2041)
 -->
<!-- Title: tasks::PolyTorqueBound Pages: 1 -->
<svg width="164pt" height="195pt"
 viewBox="0.00 0.00 163.50 195.00" xmlns="http://www.w3.org/2000/svg" xmlns:xlink="http://www.w3.org/1999/xlink">
<g id="graph0" class="graph" transform="scale(1 1) rotate(0) translate(4 191)">
<title>tasks::PolyTorqueBound</title>
<polygon fill="white" stroke="none" points="-4,4 -4,-191 159.5,-191 159.5,4 -4,4"/>
<!-- Node1 -->
<g id="node1" class="node"><title>Node1</title>
<polygon fill="#bfbfbf" stroke="black" points="0,-0.5 0,-19.5 131,-19.5 131,-0.5 0,-0.5"/>
<text text-anchor="middle" x="65.5" y="-7.5" font-family="Helvetica,sans-Serif" font-size="10.00">tasks::PolyTorqueBound</text>
</g>
<!-- Node2 -->
<g id="node2" class="node"><title>Node2</title>
<polygon fill="white" stroke="#bfbfbf" points="0.5,-78.5 0.5,-108.5 130.5,-108.5 130.5,-78.5 0.5,-78.5"/>
<text text-anchor="start" x="8.5" y="-96.5" font-family="Helvetica,sans-Serif" font-size="10.00">std::vector&lt; std::vector</text>
<text text-anchor="middle" x="65.5" y="-85.5" font-family="Helvetica,sans-Serif" font-size="10.00">&lt; Eigen::VectorXd &gt; &gt;</text>
</g>
<!-- Node2&#45;&gt;Node1 -->
<g id="edge1" class="edge"><title>Node2&#45;&gt;Node1</title>
<path fill="none" stroke="#9a32cd" stroke-dasharray="5,2" d="M65.5,-68.2485C65.5,-51.781 65.5,-30.9886 65.5,-19.5391"/>
<polygon fill="#9a32cd" stroke="#9a32cd" points="62.0001,-68.3037 65.5,-78.3038 69.0001,-68.3038 62.0001,-68.3037"/>
<text text-anchor="middle" x="110.5" y="-52" font-family="Helvetica,sans-Serif" font-size="10.00"> lPolyTorqueBound</text>
<text text-anchor="middle" x="110.5" y="-41" font-family="Helvetica,sans-Serif" font-size="10.00">uPolyTorqueBound</text>
</g>
<!-- Node3 -->
<g id="node3" class="node"><title>Node3</title>
<polygon fill="white" stroke="#bfbfbf" points="13,-156.5 13,-186.5 118,-186.5 118,-156.5 13,-156.5"/>
<text text-anchor="start" x="21" y="-174.5" font-family="Helvetica,sans-Serif" font-size="10.00">std::vector&lt; Eigen</text>
<text text-anchor="middle" x="65.5" y="-163.5" font-family="Helvetica,sans-Serif" font-size="10.00">::VectorXd &gt;</text>
</g>
<!-- Node3&#45;&gt;Node2 -->
<g id="edge2" class="edge"><title>Node3&#45;&gt;Node2</title>
<path fill="none" stroke="#9a32cd" stroke-dasharray="5,2" d="M65.5,-146.09C65.5,-133.757 65.5,-119.224 65.5,-108.731"/>
<polygon fill="#9a32cd" stroke="#9a32cd" points="62.0001,-146.205 65.5,-156.205 69.0001,-146.205 62.0001,-146.205"/>
<text text-anchor="middle" x="90" y="-130" font-family="Helvetica,sans-Serif" font-size="10.00"> elements</text>
</g>
</g>
</svg>
