<?xml version="1.0" encoding="UTF-8" standalone="no"?>
<!DOCTYPE svg PUBLIC "-//W3C//DTD SVG 1.1//EN"
 "http://www.w3.org/Graphics/SVG/1.1/DTD/svg11.dtd">
<!-- Generated by graphviz version 2.38.0 (20140413.2041)
 -->
<!-- Title: QPContacts.h Pages: 1 -->
<svg width="432pt" height="252pt"
 viewBox="0.00 0.00 431.50 252.00" xmlns="http://www.w3.org/2000/svg" xmlns:xlink="http://www.w3.org/1999/xlink">
<g id="graph0" class="graph" transform="scale(1 1) rotate(0) translate(4 248)">
<title>QPContacts.h</title>
<polygon fill="white" stroke="none" points="-4,4 -4,-248 427.5,-248 427.5,4 -4,4"/>
<!-- Node1 -->
<g id="node1" class="node"><title>Node1</title>
<polygon fill="#bfbfbf" stroke="black" points="194,-224.5 194,-243.5 273,-243.5 273,-224.5 194,-224.5"/>
<text text-anchor="middle" x="233.5" y="-231.5" font-family="Helvetica,sans-Serif" font-size="10.00">QPContacts.h</text>
</g>
<!-- Node2 -->
<g id="node2" class="node"><title>Node2</title>
<g id="a_node2"><a xlink:href="a00111.html" target="_top" xlink:title="QPSolverData.h">
<polygon fill="white" stroke="black" points="153.5,-168.5 153.5,-187.5 241.5,-187.5 241.5,-168.5 153.5,-168.5"/>
<text text-anchor="middle" x="197.5" y="-175.5" font-family="Helvetica,sans-Serif" font-size="10.00">QPSolverData.h</text>
</a>
</g>
</g>
<!-- Node1&#45;&gt;Node2 -->
<g id="edge1" class="edge"><title>Node1&#45;&gt;Node2</title>
<path fill="none" stroke="midnightblue" d="M221.877,-215.566C215.683,-206.275 208.332,-195.248 203.334,-187.751"/>
<polygon fill="midnightblue" stroke="midnightblue" points="219.096,-217.704 227.555,-224.083 224.92,-213.821 219.096,-217.704"/>
</g>
<!-- Node3 -->
<g id="node3" class="node"><title>Node3</title>
<g id="a_node3"><a xlink:href="a00110.html" target="_top" xlink:title="QPSolver.h">
<polygon fill="white" stroke="black" points="200,-112.5 200,-131.5 267,-131.5 267,-112.5 200,-112.5"/>
<text text-anchor="middle" x="233.5" y="-119.5" font-family="Helvetica,sans-Serif" font-size="10.00">QPSolver.h</text>
</a>
</g>
</g>
<!-- Node1&#45;&gt;Node3 -->
<g id="edge9" class="edge"><title>Node1&#45;&gt;Node3</title>
<path fill="none" stroke="midnightblue" d="M242.562,-215.078C248.039,-202.114 253.443,-184.116 250.5,-168 248.1,-154.855 242.059,-140.563 237.866,-131.693"/>
<polygon fill="midnightblue" stroke="midnightblue" points="239.335,-213.717 238.311,-224.263 245.688,-216.657 239.335,-213.717"/>
</g>
<!-- Node2&#45;&gt;Node3 -->
<g id="edge2" class="edge"><title>Node2&#45;&gt;Node3</title>
<path fill="none" stroke="midnightblue" d="M209.123,-159.566C215.317,-150.275 222.668,-139.248 227.666,-131.751"/>
<polygon fill="midnightblue" stroke="midnightblue" points="206.08,-157.821 203.445,-168.083 211.904,-161.704 206.08,-157.821"/>
</g>
<!-- Node4 -->
<g id="node4" class="node"><title>Node4</title>
<g id="a_node4"><a xlink:href="a00103.html" target="_top" xlink:title="GenQPUtils.h">
<polygon fill="white" stroke="black" points="0,-56.5 0,-75.5 77,-75.5 77,-56.5 0,-56.5"/>
<text text-anchor="middle" x="38.5" y="-63.5" font-family="Helvetica,sans-Serif" font-size="10.00">GenQPUtils.h</text>
</a>
</g>
</g>
<!-- Node3&#45;&gt;Node4 -->
<g id="edge3" class="edge"><title>Node3&#45;&gt;Node4</title>
<path fill="none" stroke="midnightblue" d="M192.69,-109.699C155.887,-99.507 102.571,-84.7429 69.2538,-75.5164"/>
<polygon fill="midnightblue" stroke="midnightblue" points="192.03,-113.148 202.602,-112.444 193.898,-106.402 192.03,-113.148"/>
</g>
<!-- Node5 -->
<g id="node5" class="node"><title>Node5</title>
<g id="a_node5"><a xlink:href="a00106.html" target="_top" xlink:title="QPConstr.h">
<polygon fill="white" stroke="black" points="95.5,-56.5 95.5,-75.5 163.5,-75.5 163.5,-56.5 95.5,-56.5"/>
<text text-anchor="middle" x="129.5" y="-63.5" font-family="Helvetica,sans-Serif" font-size="10.00">QPConstr.h</text>
</a>
</g>
</g>
<!-- Node3&#45;&gt;Node5 -->
<g id="edge4" class="edge"><title>Node3&#45;&gt;Node5</title>
<path fill="none" stroke="midnightblue" d="M207.672,-107.59C188.443,-97.6052 162.755,-84.2672 146.168,-75.6545"/>
<polygon fill="midnightblue" stroke="midnightblue" points="206.303,-110.822 216.791,-112.324 209.529,-104.61 206.303,-110.822"/>
</g>
<!-- Node6 -->
<g id="node6" class="node"><title>Node6</title>
<g id="a_node6"><a xlink:href="a00107.html" target="_top" xlink:title="QPContactConstr.h">
<polygon fill="white" stroke="black" points="182,-56.5 182,-75.5 285,-75.5 285,-56.5 182,-56.5"/>
<text text-anchor="middle" x="233.5" y="-63.5" font-family="Helvetica,sans-Serif" font-size="10.00">QPContactConstr.h</text>
</a>
</g>
</g>
<!-- Node3&#45;&gt;Node6 -->
<g id="edge5" class="edge"><title>Node3&#45;&gt;Node6</title>
<path fill="none" stroke="midnightblue" d="M233.5,-101.805C233.5,-92.9102 233.5,-82.7798 233.5,-75.7511"/>
<polygon fill="midnightblue" stroke="midnightblue" points="230,-102.083 233.5,-112.083 237,-102.083 230,-102.083"/>
</g>
<!-- Node7 -->
<g id="node7" class="node"><title>Node7</title>
<g id="a_node7"><a xlink:href="a00109.html" target="_top" xlink:title="QPMotionConstr.h">
<polygon fill="white" stroke="black" points="303.5,-56.5 303.5,-75.5 401.5,-75.5 401.5,-56.5 303.5,-56.5"/>
<text text-anchor="middle" x="352.5" y="-63.5" font-family="Helvetica,sans-Serif" font-size="10.00">QPMotionConstr.h</text>
</a>
</g>
</g>
<!-- Node3&#45;&gt;Node7 -->
<g id="edge6" class="edge"><title>Node3&#45;&gt;Node7</title>
<path fill="none" stroke="midnightblue" d="M261.637,-108.232C283.896,-98.1312 314.356,-84.3091 333.732,-75.5164"/>
<polygon fill="midnightblue" stroke="midnightblue" points="260.016,-105.124 252.356,-112.444 262.909,-111.498 260.016,-105.124"/>
</g>
<!-- Node8 -->
<g id="node8" class="node"><title>Node8</title>
<g id="a_node8"><a xlink:href="a00112.html" target="_top" xlink:title="QPTasks.h">
<polygon fill="white" stroke="black" points="357.5,-0.5 357.5,-19.5 423.5,-19.5 423.5,-0.5 357.5,-0.5"/>
<text text-anchor="middle" x="390.5" y="-7.5" font-family="Helvetica,sans-Serif" font-size="10.00">QPTasks.h</text>
</a>
</g>
</g>
<!-- Node3&#45;&gt;Node8 -->
<g id="edge8" class="edge"><title>Node3&#45;&gt;Node8</title>
<path fill="none" stroke="midnightblue" d="M277.111,-116.016C324.076,-109.646 394.271,-96.8707 410.5,-76 423.69,-59.0364 408.017,-33.3398 397.854,-19.9014"/>
<polygon fill="midnightblue" stroke="midnightblue" points="276.64,-112.548 267.179,-117.316 277.548,-119.489 276.64,-112.548"/>
</g>
<!-- Node7&#45;&gt;Node8 -->
<g id="edge7" class="edge"><title>Node7&#45;&gt;Node8</title>
<path fill="none" stroke="midnightblue" d="M364.565,-47.8554C371.145,-38.5048 379.011,-27.3265 384.342,-19.7511"/>
<polygon fill="midnightblue" stroke="midnightblue" points="361.668,-45.8907 358.775,-56.083 367.392,-49.9192 361.668,-45.8907"/>
</g>
</g>
</svg>
