<?xml version="1.0" encoding="UTF-8" standalone="no"?>
<!DOCTYPE svg PUBLIC "-//W3C//DTD SVG 1.1//EN"
 "http://www.w3.org/Graphics/SVG/1.1/DTD/svg11.dtd">
<!-- Generated by graphviz version 2.38.0 (20140413.2041)
 -->
<!-- Title: GenQPSolver.h Pages: 1 -->
<svg width="212pt" height="84pt"
 viewBox="0.00 0.00 211.50 84.00" xmlns="http://www.w3.org/2000/svg" xmlns:xlink="http://www.w3.org/1999/xlink">
<g id="graph0" class="graph" transform="scale(1 1) rotate(0) translate(4 80)">
<title>GenQPSolver.h</title>
<polygon fill="white" stroke="none" points="-4,4 -4,-80 207.5,-80 207.5,4 -4,4"/>
<!-- Node1 -->
<g id="node1" class="node"><title>Node1</title>
<polygon fill="#bfbfbf" stroke="black" points="61.5,-56.5 61.5,-75.5 146.5,-75.5 146.5,-56.5 61.5,-56.5"/>
<text text-anchor="middle" x="104" y="-63.5" font-family="Helvetica,sans-Serif" font-size="10.00">GenQPSolver.h</text>
</g>
<!-- Node2 -->
<g id="node2" class="node"><title>Node2</title>
<g id="a_node2"><a xlink:href="a00104.html" target="_top" xlink:title="LSSOLQPSolver.h">
<polygon fill="white" stroke="black" points="0,-0.5 0,-19.5 98,-19.5 98,-0.5 0,-0.5"/>
<text text-anchor="middle" x="49" y="-7.5" font-family="Helvetica,sans-Serif" font-size="10.00">LSSOLQPSolver.h</text>
</a>
</g>
</g>
<!-- Node1&#45;&gt;Node2 -->
<g id="edge1" class="edge"><title>Node1&#45;&gt;Node2</title>
<path fill="none" stroke="midnightblue" d="M87.7062,-49.0024C77.9594,-39.4329 65.947,-27.6389 57.9131,-19.7511"/>
<polygon fill="midnightblue" stroke="midnightblue" points="85.3301,-51.5746 94.9179,-56.083 90.2343,-46.5796 85.3301,-51.5746"/>
</g>
<!-- Node3 -->
<g id="node3" class="node"><title>Node3</title>
<g id="a_node3"><a xlink:href="a00105.html" target="_top" xlink:title="QLDQPSolver.h">
<polygon fill="white" stroke="black" points="116.5,-0.5 116.5,-19.5 203.5,-19.5 203.5,-0.5 116.5,-0.5"/>
<text text-anchor="middle" x="160" y="-7.5" font-family="Helvetica,sans-Serif" font-size="10.00">QLDQPSolver.h</text>
</a>
</g>
</g>
<!-- Node1&#45;&gt;Node3 -->
<g id="edge2" class="edge"><title>Node1&#45;&gt;Node3</title>
<path fill="none" stroke="midnightblue" d="M120.33,-49.2533C130.265,-39.6731 142.588,-27.7906 150.839,-19.8339"/>
<polygon fill="midnightblue" stroke="midnightblue" points="117.766,-46.8631 112.997,-56.324 122.625,-51.902 117.766,-46.8631"/>
</g>
</g>
</svg>
