<?xml version="1.0" encoding="UTF-8" standalone="no"?>
<!DOCTYPE svg PUBLIC "-//W3C//DTD SVG 1.1//EN"
 "http://www.w3.org/Graphics/SVG/1.1/DTD/svg11.dtd">
<!-- Generated by graphviz version 2.38.0 (20140413.2041)
 -->
<!-- Title: LSSOLQPSolver.h Pages: 1 -->
<svg width="309pt" height="140pt"
 viewBox="0.00 0.00 308.50 140.00" xmlns="http://www.w3.org/2000/svg" xmlns:xlink="http://www.w3.org/1999/xlink">
<g id="graph0" class="graph" transform="scale(1 1) rotate(0) translate(4 136)">
<title>LSSOLQPSolver.h</title>
<polygon fill="white" stroke="none" points="-4,4 -4,-136 304.5,-136 304.5,4 -4,4"/>
<!-- Node1 -->
<g id="node1" class="node"><title>Node1</title>
<polygon fill="#bfbfbf" stroke="black" points="61,-112.5 61,-131.5 159,-131.5 159,-112.5 61,-112.5"/>
<text text-anchor="middle" x="110" y="-119.5" font-family="Helvetica,sans-Serif" font-size="10.00">LSSOLQPSolver.h</text>
</g>
<!-- Node2 -->
<g id="node2" class="node"><title>Node2</title>
<polygon fill="white" stroke="#bfbfbf" points="-7.10543e-15,-56.5 -7.10543e-15,-75.5 106,-75.5 106,-56.5 -7.10543e-15,-56.5"/>
<text text-anchor="middle" x="53" y="-63.5" font-family="Helvetica,sans-Serif" font-size="10.00">eigen&#45;lssol/LSSOL.h</text>
</g>
<!-- Node1&#45;&gt;Node2 -->
<g id="edge1" class="edge"><title>Node1&#45;&gt;Node2</title>
<path fill="none" stroke="midnightblue" d="M100.842,-112.324C92.4985,-104.42 79.9676,-92.5482 69.8231,-82.9377"/>
<polygon fill="midnightblue" stroke="midnightblue" points="71.9913,-80.1705 62.3247,-75.8339 67.1771,-85.2522 71.9913,-80.1705"/>
</g>
<!-- Node3 -->
<g id="node3" class="node"><title>Node3</title>
<g id="a_node3"><a xlink:href="a00102.html" target="_top" xlink:title="GenQPSolver.h">
<polygon fill="white" stroke="black" points="124.5,-56.5 124.5,-75.5 209.5,-75.5 209.5,-56.5 124.5,-56.5"/>
<text text-anchor="middle" x="167" y="-63.5" font-family="Helvetica,sans-Serif" font-size="10.00">GenQPSolver.h</text>
</a>
</g>
</g>
<!-- Node1&#45;&gt;Node3 -->
<g id="edge2" class="edge"><title>Node1&#45;&gt;Node3</title>
<path fill="none" stroke="midnightblue" d="M119.158,-112.324C127.501,-104.42 140.032,-92.5482 150.177,-82.9377"/>
<polygon fill="midnightblue" stroke="midnightblue" points="152.823,-85.2522 157.675,-75.8339 148.009,-80.1705 152.823,-85.2522"/>
</g>
<!-- Node4 -->
<g id="node4" class="node"><title>Node4</title>
<polygon fill="white" stroke="#bfbfbf" points="72,-0.5 72,-19.5 116,-19.5 116,-0.5 72,-0.5"/>
<text text-anchor="middle" x="94" y="-7.5" font-family="Helvetica,sans-Serif" font-size="10.00">vector</text>
</g>
<!-- Node3&#45;&gt;Node4 -->
<g id="edge3" class="edge"><title>Node3&#45;&gt;Node4</title>
<path fill="none" stroke="midnightblue" d="M155.271,-56.324C144.163,-48.1066 127.258,-35.6017 114.017,-25.8069"/>
<polygon fill="midnightblue" stroke="midnightblue" points="116.063,-22.9671 105.942,-19.8339 111.9,-28.5948 116.063,-22.9671"/>
</g>
<!-- Node5 -->
<g id="node5" class="node"><title>Node5</title>
<polygon fill="white" stroke="#bfbfbf" points="134.5,-0.5 134.5,-19.5 199.5,-19.5 199.5,-0.5 134.5,-0.5"/>
<text text-anchor="middle" x="167" y="-7.5" font-family="Helvetica,sans-Serif" font-size="10.00">Eigen/Core</text>
</g>
<!-- Node3&#45;&gt;Node5 -->
<g id="edge4" class="edge"><title>Node3&#45;&gt;Node5</title>
<path fill="none" stroke="midnightblue" d="M167,-56.083C167,-49.0059 167,-38.8611 167,-29.9865"/>
<polygon fill="midnightblue" stroke="midnightblue" points="170.5,-29.751 167,-19.7511 163.5,-29.7511 170.5,-29.751"/>
</g>
<!-- Node6 -->
<g id="node6" class="node"><title>Node6</title>
<polygon fill="white" stroke="#bfbfbf" points="217.5,-0.5 217.5,-19.5 300.5,-19.5 300.5,-0.5 217.5,-0.5"/>
<text text-anchor="middle" x="259" y="-7.5" font-family="Helvetica,sans-Serif" font-size="10.00">tasks/config.hh</text>
</g>
<!-- Node3&#45;&gt;Node6 -->
<g id="edge5" class="edge"><title>Node3&#45;&gt;Node6</title>
<path fill="none" stroke="midnightblue" d="M181.781,-56.324C196.267,-47.8215 218.573,-34.7288 235.493,-24.7975"/>
<polygon fill="midnightblue" stroke="midnightblue" points="237.403,-27.735 244.255,-19.6545 233.859,-21.6981 237.403,-27.735"/>
</g>
</g>
</svg>
