<?xml version="1.0" encoding="UTF-8" standalone="no"?>
<!DOCTYPE svg PUBLIC "-//W3C//DTD SVG 1.1//EN"
 "http://www.w3.org/Graphics/SVG/1.1/DTD/svg11.dtd">
<!-- Generated by graphviz version 2.38.0 (20140413.2041)
 -->
<!-- Title: GenQPUtils.h Pages: 1 -->
<svg width="481pt" height="252pt"
 viewBox="0.00 0.00 480.50 252.00" xmlns="http://www.w3.org/2000/svg" xmlns:xlink="http://www.w3.org/1999/xlink">
<g id="graph0" class="graph" transform="scale(1 1) rotate(0) translate(4 248)">
<title>GenQPUtils.h</title>
<polygon fill="white" stroke="none" points="-4,4 -4,-248 476.5,-248 476.5,4 -4,4"/>
<!-- Node1 -->
<g id="node1" class="node"><title>Node1</title>
<polygon fill="#bfbfbf" stroke="black" points="242.5,-224.5 242.5,-243.5 319.5,-243.5 319.5,-224.5 242.5,-224.5"/>
<text text-anchor="middle" x="281" y="-231.5" font-family="Helvetica,sans-Serif" font-size="10.00">GenQPUtils.h</text>
</g>
<!-- Node2 -->
<g id="node2" class="node"><title>Node2</title>
<polygon fill="white" stroke="#bfbfbf" points="0,-0.5 0,-19.5 44,-19.5 44,-0.5 0,-0.5"/>
<text text-anchor="middle" x="22" y="-7.5" font-family="Helvetica,sans-Serif" font-size="10.00">vector</text>
</g>
<!-- Node1&#45;&gt;Node2 -->
<g id="edge1" class="edge"><title>Node1&#45;&gt;Node2</title>
<path fill="none" stroke="midnightblue" d="M242.208,-229.183C185.402,-221.424 80.3457,-198.449 25,-132 0.876966,-103.038 9.08629,-55.2563 16.1618,-29.2476"/>
<polygon fill="midnightblue" stroke="midnightblue" points="19.5494,-30.1343 19.0272,-19.5524 12.8364,-28.1503 19.5494,-30.1343"/>
</g>
<!-- Node3 -->
<g id="node3" class="node"><title>Node3</title>
<polygon fill="white" stroke="#bfbfbf" points="407.5,-0.5 407.5,-19.5 472.5,-19.5 472.5,-0.5 407.5,-0.5"/>
<text text-anchor="middle" x="440" y="-7.5" font-family="Helvetica,sans-Serif" font-size="10.00">Eigen/Core</text>
</g>
<!-- Node1&#45;&gt;Node3 -->
<g id="edge2" class="edge"><title>Node1&#45;&gt;Node3</title>
<path fill="none" stroke="midnightblue" d="M296.016,-224.49C329.966,-204.177 411.5,-149.057 435,-76 439.825,-61.0001 440.881,-43.0914 440.84,-29.8738"/>
<polygon fill="midnightblue" stroke="midnightblue" points="444.334,-29.568 440.589,-19.657 437.336,-29.74 444.334,-29.568"/>
</g>
<!-- Node4 -->
<g id="node4" class="node"><title>Node4</title>
<g id="a_node4"><a xlink:href="a00110.html" target="_top" xlink:title="QPSolver.h">
<polygon fill="white" stroke="black" points="247.5,-168.5 247.5,-187.5 314.5,-187.5 314.5,-168.5 247.5,-168.5"/>
<text text-anchor="middle" x="281" y="-175.5" font-family="Helvetica,sans-Serif" font-size="10.00">QPSolver.h</text>
</a>
</g>
</g>
<!-- Node1&#45;&gt;Node4 -->
<g id="edge3" class="edge"><title>Node1&#45;&gt;Node4</title>
<path fill="none" stroke="midnightblue" d="M281,-224.083C281,-217.006 281,-206.861 281,-197.986"/>
<polygon fill="midnightblue" stroke="midnightblue" points="284.5,-197.751 281,-187.751 277.5,-197.751 284.5,-197.751"/>
</g>
<!-- Node4&#45;&gt;Node2 -->
<g id="edge5" class="edge"><title>Node4&#45;&gt;Node2</title>
<path fill="none" stroke="midnightblue" d="M247.43,-175.36C188.292,-171.744 69.1267,-160.972 41,-132 14.4309,-104.633 15.7667,-56.2112 18.9466,-29.6763"/>
<polygon fill="midnightblue" stroke="midnightblue" points="22.4129,-30.1608 20.3464,-19.7694 15.4817,-29.1814 22.4129,-30.1608"/>
</g>
<!-- Node4&#45;&gt;Node3 -->
<g id="edge7" class="edge"><title>Node4&#45;&gt;Node3</title>
<path fill="none" stroke="midnightblue" d="M312.058,-168.45C332.789,-161.446 359.534,-149.757 378,-132 408.519,-102.653 426.709,-55.026 434.864,-29.1442"/>
<polygon fill="midnightblue" stroke="midnightblue" points="438.236,-30.0838 437.751,-19.5 431.53,-28.0761 438.236,-30.0838"/>
</g>
<!-- Node5 -->
<g id="node5" class="node"><title>Node5</title>
<polygon fill="white" stroke="#bfbfbf" points="50,-112.5 50,-131.5 102,-131.5 102,-112.5 50,-112.5"/>
<text text-anchor="middle" x="76" y="-119.5" font-family="Helvetica,sans-Serif" font-size="10.00">memory</text>
</g>
<!-- Node4&#45;&gt;Node5 -->
<g id="edge4" class="edge"><title>Node4&#45;&gt;Node5</title>
<path fill="none" stroke="midnightblue" d="M248.517,-168.444C211.311,-158.643 150.528,-142.632 111.934,-132.465"/>
<polygon fill="midnightblue" stroke="midnightblue" points="112.713,-129.051 102.151,-129.889 110.93,-135.82 112.713,-129.051"/>
</g>
<!-- Node6 -->
<g id="node6" class="node"><title>Node6</title>
<polygon fill="white" stroke="#bfbfbf" points="226.5,-112.5 226.5,-131.5 335.5,-131.5 335.5,-112.5 226.5,-112.5"/>
<text text-anchor="middle" x="281" y="-119.5" font-family="Helvetica,sans-Serif" font-size="10.00">boost/timer/timer.hpp</text>
</g>
<!-- Node4&#45;&gt;Node6 -->
<g id="edge6" class="edge"><title>Node4&#45;&gt;Node6</title>
<path fill="none" stroke="midnightblue" d="M281,-168.083C281,-161.006 281,-150.861 281,-141.986"/>
<polygon fill="midnightblue" stroke="midnightblue" points="284.5,-141.751 281,-131.751 277.5,-141.751 284.5,-141.751"/>
</g>
<!-- Node7 -->
<g id="node7" class="node"><title>Node7</title>
<g id="a_node7"><a xlink:href="a00111.html" target="_top" xlink:title="QPSolverData.h">
<polygon fill="white" stroke="black" points="120,-112.5 120,-131.5 208,-131.5 208,-112.5 120,-112.5"/>
<text text-anchor="middle" x="164" y="-119.5" font-family="Helvetica,sans-Serif" font-size="10.00">QPSolverData.h</text>
</a>
</g>
</g>
<!-- Node4&#45;&gt;Node7 -->
<g id="edge8" class="edge"><title>Node4&#45;&gt;Node7</title>
<path fill="none" stroke="midnightblue" d="M262.461,-168.444C243.377,-159.636 213.425,-145.812 191.564,-135.722"/>
<polygon fill="midnightblue" stroke="midnightblue" points="192.999,-132.529 182.452,-131.516 190.065,-138.885 192.999,-132.529"/>
</g>
<!-- Node9 -->
<g id="node9" class="node"><title>Node9</title>
<g id="a_node9"><a xlink:href="a00108.html" target="_top" xlink:title="QPContacts.h">
<polygon fill="white" stroke="black" points="250.5,-56.5 250.5,-75.5 329.5,-75.5 329.5,-56.5 250.5,-56.5"/>
<text text-anchor="middle" x="290" y="-63.5" font-family="Helvetica,sans-Serif" font-size="10.00">QPContacts.h</text>
</a>
</g>
</g>
<!-- Node4&#45;&gt;Node9 -->
<g id="edge15" class="edge"><title>Node4&#45;&gt;Node9</title>
<path fill="none" stroke="midnightblue" d="M301.847,-168.427C316.578,-161.129 335.205,-149.091 344,-132 354.142,-112.293 333.508,-93.2084 314.889,-80.8752"/>
<polygon fill="midnightblue" stroke="midnightblue" points="316.666,-77.8581 306.326,-75.5478 312.968,-83.8019 316.666,-77.8581"/>
</g>
<!-- Node10 -->
<g id="node10" class="node"><title>Node10</title>
<polygon fill="white" stroke="#bfbfbf" points="292.5,-0.5 292.5,-19.5 375.5,-19.5 375.5,-0.5 292.5,-0.5"/>
<text text-anchor="middle" x="334" y="-7.5" font-family="Helvetica,sans-Serif" font-size="10.00">tasks/config.hh</text>
</g>
<!-- Node4&#45;&gt;Node10 -->
<g id="edge16" class="edge"><title>Node4&#45;&gt;Node10</title>
<path fill="none" stroke="midnightblue" d="M310.881,-168.387C328.54,-161.587 349.451,-150.15 360,-132 379.35,-98.7089 358.867,-52.731 344.838,-28.1435"/>
<polygon fill="midnightblue" stroke="midnightblue" points="347.84,-26.3445 339.7,-19.5624 341.834,-29.9402 347.84,-26.3445"/>
</g>
<!-- Node8 -->
<g id="node8" class="node"><title>Node8</title>
<polygon fill="white" stroke="#bfbfbf" points="109,-0.5 109,-19.5 247,-19.5 247,-0.5 109,-0.5"/>
<text text-anchor="middle" x="178" y="-7.5" font-family="Helvetica,sans-Serif" font-size="10.00">SpaceVecAlg/SpaceVecAlg</text>
</g>
<!-- Node7&#45;&gt;Node8 -->
<g id="edge9" class="edge"><title>Node7&#45;&gt;Node8</title>
<path fill="none" stroke="midnightblue" d="M165.099,-112.368C167.358,-94.617 172.57,-53.6664 175.633,-29.5974"/>
<polygon fill="midnightblue" stroke="midnightblue" points="179.116,-29.9533 176.907,-19.5914 172.172,-29.0695 179.116,-29.9533"/>
</g>
<!-- Node7&#45;&gt;Node9 -->
<g id="edge10" class="edge"><title>Node7&#45;&gt;Node9</title>
<path fill="none" stroke="midnightblue" d="M183.965,-112.444C204.609,-103.596 237.063,-89.6875 260.632,-79.5865"/>
<polygon fill="midnightblue" stroke="midnightblue" points="262.316,-82.6727 270.128,-75.5164 259.558,-76.2387 262.316,-82.6727"/>
</g>
<!-- Node9&#45;&gt;Node2 -->
<g id="edge11" class="edge"><title>Node9&#45;&gt;Node2</title>
<path fill="none" stroke="midnightblue" d="M250.456,-57.0321C197.145,-46.2905 103.253,-27.3719 54.0813,-17.4641"/>
<polygon fill="midnightblue" stroke="midnightblue" points="54.5077,-13.9798 44.0134,-15.4355 53.125,-20.8419 54.5077,-13.9798"/>
</g>
<!-- Node9&#45;&gt;Node3 -->
<g id="edge12" class="edge"><title>Node9&#45;&gt;Node3</title>
<path fill="none" stroke="midnightblue" d="M313.768,-56.4435C338.893,-47.3986 378.711,-33.064 406.9,-22.9158"/>
<polygon fill="midnightblue" stroke="midnightblue" points="408.12,-26.1968 416.343,-19.5164 405.749,-19.6106 408.12,-26.1968"/>
</g>
<!-- Node9&#45;&gt;Node8 -->
<g id="edge13" class="edge"><title>Node9&#45;&gt;Node8</title>
<path fill="none" stroke="midnightblue" d="M272.005,-56.324C253.962,-47.6247 225.953,-34.1202 205.197,-24.113"/>
<polygon fill="midnightblue" stroke="midnightblue" points="206.478,-20.8449 195.95,-19.6545 203.438,-27.1502 206.478,-20.8449"/>
</g>
<!-- Node9&#45;&gt;Node10 -->
<g id="edge14" class="edge"><title>Node9&#45;&gt;Node10</title>
<path fill="none" stroke="midnightblue" d="M297.266,-56.083C303.545,-48.3768 312.788,-37.0333 320.431,-27.6531"/>
<polygon fill="midnightblue" stroke="midnightblue" points="323.266,-29.7143 326.869,-19.7511 317.839,-25.2926 323.266,-29.7143"/>
</g>
</g>
</svg>
