<?xml version="1.0" encoding="UTF-8" standalone="no"?>
<!DOCTYPE svg PUBLIC "-//W3C//DTD SVG 1.1//EN"
 "http://www.w3.org/Graphics/SVG/1.1/DTD/svg11.dtd">
<!-- Generated by graphviz version 2.38.0 (20140413.2041)
 -->
<!-- Title: QPSolver.h Pages: 1 -->
<svg width="446pt" height="196pt"
 viewBox="0.00 0.00 445.50 196.00" xmlns="http://www.w3.org/2000/svg" xmlns:xlink="http://www.w3.org/1999/xlink">
<g id="graph0" class="graph" transform="scale(1 1) rotate(0) translate(4 192)">
<title>QPSolver.h</title>
<polygon fill="white" stroke="none" points="-4,4 -4,-192 441.5,-192 441.5,4 -4,4"/>
<!-- Node1 -->
<g id="node1" class="node"><title>Node1</title>
<polygon fill="#bfbfbf" stroke="black" points="190.5,-168.5 190.5,-187.5 257.5,-187.5 257.5,-168.5 190.5,-168.5"/>
<text text-anchor="middle" x="224" y="-175.5" font-family="Helvetica,sans-Serif" font-size="10.00">QPSolver.h</text>
</g>
<!-- Node2 -->
<g id="node2" class="node"><title>Node2</title>
<polygon fill="white" stroke="#bfbfbf" points="0,-112.5 0,-131.5 52,-131.5 52,-112.5 0,-112.5"/>
<text text-anchor="middle" x="26" y="-119.5" font-family="Helvetica,sans-Serif" font-size="10.00">memory</text>
</g>
<!-- Node1&#45;&gt;Node2 -->
<g id="edge1" class="edge"><title>Node1&#45;&gt;Node2</title>
<path fill="none" stroke="midnightblue" d="M192.626,-168.444C157.143,-158.766 99.4567,-143.034 62.1232,-132.852"/>
<polygon fill="midnightblue" stroke="midnightblue" points="62.7369,-129.391 52.1683,-130.137 60.8951,-136.145 62.7369,-129.391"/>
</g>
<!-- Node3 -->
<g id="node3" class="node"><title>Node3</title>
<polygon fill="white" stroke="#bfbfbf" points="3,-0.5 3,-19.5 47,-19.5 47,-0.5 3,-0.5"/>
<text text-anchor="middle" x="25" y="-7.5" font-family="Helvetica,sans-Serif" font-size="10.00">vector</text>
</g>
<!-- Node1&#45;&gt;Node3 -->
<g id="edge2" class="edge"><title>Node1&#45;&gt;Node3</title>
<path fill="none" stroke="midnightblue" d="M190.432,-171.305C163.361,-165.313 125.552,-153.636 99,-132 64.6062,-103.974 41.97,-55.4606 31.5781,-29.181"/>
<polygon fill="midnightblue" stroke="midnightblue" points="34.7998,-27.8059 27.9813,-19.6967 28.2547,-30.288 34.7998,-27.8059"/>
</g>
<!-- Node4 -->
<g id="node4" class="node"><title>Node4</title>
<polygon fill="white" stroke="#bfbfbf" points="328.5,-112.5 328.5,-131.5 437.5,-131.5 437.5,-112.5 328.5,-112.5"/>
<text text-anchor="middle" x="383" y="-119.5" font-family="Helvetica,sans-Serif" font-size="10.00">boost/timer/timer.hpp</text>
</g>
<!-- Node1&#45;&gt;Node4 -->
<g id="edge3" class="edge"><title>Node1&#45;&gt;Node4</title>
<path fill="none" stroke="midnightblue" d="M249.194,-168.444C275.943,-159.359 318.403,-144.939 348.305,-134.783"/>
<polygon fill="midnightblue" stroke="midnightblue" points="349.581,-138.046 357.924,-131.516 347.329,-131.418 349.581,-138.046"/>
</g>
<!-- Node5 -->
<g id="node5" class="node"><title>Node5</title>
<polygon fill="white" stroke="#bfbfbf" points="221.5,-0.5 221.5,-19.5 286.5,-19.5 286.5,-0.5 221.5,-0.5"/>
<text text-anchor="middle" x="254" y="-7.5" font-family="Helvetica,sans-Serif" font-size="10.00">Eigen/Core</text>
</g>
<!-- Node1&#45;&gt;Node5 -->
<g id="edge4" class="edge"><title>Node1&#45;&gt;Node5</title>
<path fill="none" stroke="midnightblue" d="M225.68,-168.363C229.06,-150.924 236.881,-110.25 243,-76 245.771,-60.4888 248.743,-42.8623 250.898,-29.8817"/>
<polygon fill="midnightblue" stroke="midnightblue" points="254.38,-30.2769 252.557,-19.8403 247.474,-29.1363 254.38,-30.2769"/>
</g>
<!-- Node6 -->
<g id="node6" class="node"><title>Node6</title>
<g id="a_node6"><a xlink:href="a00111.html" target="_top" xlink:title="QPSolverData.h">
<polygon fill="white" stroke="black" points="108,-112.5 108,-131.5 196,-131.5 196,-112.5 108,-112.5"/>
<text text-anchor="middle" x="152" y="-119.5" font-family="Helvetica,sans-Serif" font-size="10.00">QPSolverData.h</text>
</a>
</g>
</g>
<!-- Node1&#45;&gt;Node6 -->
<g id="edge5" class="edge"><title>Node1&#45;&gt;Node6</title>
<path fill="none" stroke="midnightblue" d="M212.432,-168.324C201.58,-160.185 185.119,-147.839 172.117,-138.087"/>
<polygon fill="midnightblue" stroke="midnightblue" points="173.879,-135.034 163.779,-131.834 169.679,-140.634 173.879,-135.034"/>
</g>
<!-- Node8 -->
<g id="node8" class="node"><title>Node8</title>
<g id="a_node8"><a xlink:href="a00108.html" target="_top" xlink:title="QPContacts.h">
<polygon fill="white" stroke="black" points="154.5,-56.5 154.5,-75.5 233.5,-75.5 233.5,-56.5 154.5,-56.5"/>
<text text-anchor="middle" x="194" y="-63.5" font-family="Helvetica,sans-Serif" font-size="10.00">QPContacts.h</text>
</a>
</g>
</g>
<!-- Node1&#45;&gt;Node8 -->
<g id="edge12" class="edge"><title>Node1&#45;&gt;Node8</title>
<path fill="none" stroke="midnightblue" d="M221.646,-168.368C216.783,-150.537 205.535,-109.295 198.983,-85.2717"/>
<polygon fill="midnightblue" stroke="midnightblue" points="202.351,-84.3181 196.343,-75.5914 195.598,-86.16 202.351,-84.3181"/>
</g>
<!-- Node9 -->
<g id="node9" class="node"><title>Node9</title>
<polygon fill="white" stroke="#bfbfbf" points="304.5,-0.5 304.5,-19.5 387.5,-19.5 387.5,-0.5 304.5,-0.5"/>
<text text-anchor="middle" x="346" y="-7.5" font-family="Helvetica,sans-Serif" font-size="10.00">tasks/config.hh</text>
</g>
<!-- Node1&#45;&gt;Node9 -->
<g id="edge13" class="edge"><title>Node1&#45;&gt;Node9</title>
<path fill="none" stroke="midnightblue" d="M230.559,-168.075C250.096,-141.493 308.123,-62.5379 333.68,-27.7633"/>
<polygon fill="midnightblue" stroke="midnightblue" points="336.601,-29.6987 339.703,-19.5681 330.961,-25.5533 336.601,-29.6987"/>
</g>
<!-- Node7 -->
<g id="node7" class="node"><title>Node7</title>
<polygon fill="white" stroke="#bfbfbf" points="65,-0.5 65,-19.5 203,-19.5 203,-0.5 65,-0.5"/>
<text text-anchor="middle" x="134" y="-7.5" font-family="Helvetica,sans-Serif" font-size="10.00">SpaceVecAlg/SpaceVecAlg</text>
</g>
<!-- Node6&#45;&gt;Node7 -->
<g id="edge6" class="edge"><title>Node6&#45;&gt;Node7</title>
<path fill="none" stroke="midnightblue" d="M150.588,-112.368C147.683,-94.617 140.982,-53.6664 137.043,-29.5974"/>
<polygon fill="midnightblue" stroke="midnightblue" points="140.475,-28.8949 135.406,-19.5914 133.567,-30.0254 140.475,-28.8949"/>
</g>
<!-- Node6&#45;&gt;Node8 -->
<g id="edge7" class="edge"><title>Node6&#45;&gt;Node8</title>
<path fill="none" stroke="midnightblue" d="M158.935,-112.083C164.929,-104.377 173.752,-93.0333 181.048,-83.6531"/>
<polygon fill="midnightblue" stroke="midnightblue" points="183.817,-85.7934 187.194,-75.7511 178.291,-81.4958 183.817,-85.7934"/>
</g>
<!-- Node8&#45;&gt;Node3 -->
<g id="edge8" class="edge"><title>Node8&#45;&gt;Node3</title>
<path fill="none" stroke="midnightblue" d="M167.221,-56.4435C137.239,-46.8634 88.6854,-31.3492 56.7982,-21.1604"/>
<polygon fill="midnightblue" stroke="midnightblue" points="57.6664,-17.7635 47.0755,-18.0537 55.5357,-24.4314 57.6664,-17.7635"/>
</g>
<!-- Node8&#45;&gt;Node5 -->
<g id="edge9" class="edge"><title>Node8&#45;&gt;Node5</title>
<path fill="none" stroke="midnightblue" d="M203.64,-56.324C212.51,-48.3414 225.875,-36.3128 236.608,-26.6529"/>
<polygon fill="midnightblue" stroke="midnightblue" points="239.093,-29.1251 244.185,-19.8339 234.41,-23.922 239.093,-29.1251"/>
</g>
<!-- Node8&#45;&gt;Node7 -->
<g id="edge10" class="edge"><title>Node8&#45;&gt;Node7</title>
<path fill="none" stroke="midnightblue" d="M184.36,-56.324C175.49,-48.3414 162.125,-36.3128 151.392,-26.6529"/>
<polygon fill="midnightblue" stroke="midnightblue" points="153.59,-23.922 143.815,-19.8339 148.907,-29.1251 153.59,-23.922"/>
</g>
<!-- Node8&#45;&gt;Node9 -->
<g id="edge11" class="edge"><title>Node8&#45;&gt;Node9</title>
<path fill="none" stroke="midnightblue" d="M218.085,-56.4435C243.545,-47.3986 283.894,-33.064 312.459,-22.9158"/>
<polygon fill="midnightblue" stroke="midnightblue" points="313.777,-26.1622 322.028,-19.5164 311.433,-19.5661 313.777,-26.1622"/>
</g>
</g>
</svg>
