<?xml version="1.0" encoding="UTF-8" standalone="no"?>
<!DOCTYPE svg PUBLIC "-//W3C//DTD SVG 1.1//EN"
 "http://www.w3.org/Graphics/SVG/1.1/DTD/svg11.dtd">
<!-- Generated by graphviz version 2.38.0 (20140413.2041)
 -->
<!-- Title: QPConstr.h Pages: 1 -->
<svg width="1257pt" height="252pt"
 viewBox="0.00 0.00 1257.00 252.00" xmlns="http://www.w3.org/2000/svg" xmlns:xlink="http://www.w3.org/1999/xlink">
<g id="graph0" class="graph" transform="scale(1 1) rotate(0) translate(4 248)">
<title>QPConstr.h</title>
<polygon fill="white" stroke="none" points="-4,4 -4,-248 1253,-248 1253,4 -4,4"/>
<!-- Node1 -->
<g id="node1" class="node"><title>Node1</title>
<polygon fill="#bfbfbf" stroke="black" points="433.5,-224.5 433.5,-243.5 501.5,-243.5 501.5,-224.5 433.5,-224.5"/>
<text text-anchor="middle" x="467.5" y="-231.5" font-family="Helvetica,sans-Serif" font-size="10.00">QPConstr.h</text>
</g>
<!-- Node2 -->
<g id="node2" class="node"><title>Node2</title>
<polygon fill="white" stroke="#bfbfbf" points="0,-0.5 0,-19.5 65,-19.5 65,-0.5 0,-0.5"/>
<text text-anchor="middle" x="32.5" y="-7.5" font-family="Helvetica,sans-Serif" font-size="10.00">Eigen/Core</text>
</g>
<!-- Node1&#45;&gt;Node2 -->
<g id="edge1" class="edge"><title>Node1&#45;&gt;Node2</title>
<path fill="none" stroke="midnightblue" d="M433.36,-229.83C341.038,-220.544 89.6743,-190.314 34.5,-132 8.48332,-104.503 18.0976,-55.7738 26.0753,-29.3202"/>
<polygon fill="midnightblue" stroke="midnightblue" points="29.4173,-30.3606 29.1821,-19.7684 22.7606,-28.1954 29.4173,-30.3606"/>
</g>
<!-- Node3 -->
<g id="node3" class="node"><title>Node3</title>
<polygon fill="white" stroke="#bfbfbf" points="423.5,-168.5 423.5,-187.5 511.5,-187.5 511.5,-168.5 423.5,-168.5"/>
<text text-anchor="middle" x="467.5" y="-175.5" font-family="Helvetica,sans-Serif" font-size="10.00">Eigen/StdVector</text>
</g>
<!-- Node1&#45;&gt;Node3 -->
<g id="edge2" class="edge"><title>Node1&#45;&gt;Node3</title>
<path fill="none" stroke="midnightblue" d="M467.5,-224.083C467.5,-217.006 467.5,-206.861 467.5,-197.986"/>
<polygon fill="midnightblue" stroke="midnightblue" points="471,-197.751 467.5,-187.751 464,-197.751 471,-197.751"/>
</g>
<!-- Node4 -->
<g id="node4" class="node"><title>Node4</title>
<polygon fill="white" stroke="#bfbfbf" points="530,-168.5 530,-187.5 629,-187.5 629,-168.5 530,-168.5"/>
<text text-anchor="middle" x="579.5" y="-175.5" font-family="Helvetica,sans-Serif" font-size="10.00">RBDyn/Jacobian.h</text>
</g>
<!-- Node1&#45;&gt;Node4 -->
<g id="edge3" class="edge"><title>Node1&#45;&gt;Node4</title>
<path fill="none" stroke="midnightblue" d="M485.495,-224.324C503.538,-215.625 531.547,-202.12 552.303,-192.113"/>
<polygon fill="midnightblue" stroke="midnightblue" points="554.062,-195.15 561.55,-187.655 551.022,-188.845 554.062,-195.15"/>
</g>
<!-- Node5 -->
<g id="node5" class="node"><title>Node5</title>
<polygon fill="white" stroke="#bfbfbf" points="647,-168.5 647,-187.5 728,-187.5 728,-168.5 647,-168.5"/>
<text text-anchor="middle" x="687.5" y="-175.5" font-family="Helvetica,sans-Serif" font-size="10.00">RBDyn/CoM.h</text>
</g>
<!-- Node1&#45;&gt;Node5 -->
<g id="edge4" class="edge"><title>Node1&#45;&gt;Node5</title>
<path fill="none" stroke="midnightblue" d="M501.875,-224.562C539.834,-215.245 601.08,-200.212 642.755,-189.983"/>
<polygon fill="midnightblue" stroke="midnightblue" points="643.763,-193.339 652.64,-187.556 642.094,-186.541 643.763,-193.339"/>
</g>
<!-- Node6 -->
<g id="node6" class="node"><title>Node6</title>
<g id="a_node6"><a doxygen="/usr/local/share/doc/sch-core/doxygen-html/sch-core.doxytag:/usr/local/share/doc/sch-core/doxygen-html/" xlink:href="/usr/local/share/doc/sch-core/doxygen-html/a00099.html" target="_top" xlink:title="sch/Matrix/SCH_Types.h">
<polygon fill="white" stroke="black" points="784.5,-168.5 784.5,-187.5 912.5,-187.5 912.5,-168.5 784.5,-168.5"/>
<text text-anchor="middle" x="848.5" y="-175.5" font-family="Helvetica,sans-Serif" font-size="10.00">sch/Matrix/SCH_Types.h</text>
</a>
</g>
</g>
<!-- Node1&#45;&gt;Node6 -->
<g id="edge5" class="edge"><title>Node1&#45;&gt;Node6</title>
<path fill="none" stroke="midnightblue" d="M501.647,-228.16C563.716,-219.363 696.19,-200.587 778.267,-188.954"/>
<polygon fill="midnightblue" stroke="midnightblue" points="778.856,-192.406 788.266,-187.537 777.874,-185.475 778.856,-192.406"/>
</g>
<!-- Node12 -->
<g id="node12" class="node"><title>Node12</title>
<g id="a_node12"><a xlink:href="a00110.html" target="_top" xlink:title="QPSolver.h">
<polygon fill="white" stroke="black" points="281,-168.5 281,-187.5 348,-187.5 348,-168.5 281,-168.5"/>
<text text-anchor="middle" x="314.5" y="-175.5" font-family="Helvetica,sans-Serif" font-size="10.00">QPSolver.h</text>
</a>
</g>
</g>
<!-- Node1&#45;&gt;Node12 -->
<g id="edge11" class="edge"><title>Node1&#45;&gt;Node12</title>
<path fill="none" stroke="midnightblue" d="M443.257,-224.444C417.629,-215.399 377.015,-201.064 348.262,-190.916"/>
<polygon fill="midnightblue" stroke="midnightblue" points="349.225,-187.544 338.63,-187.516 346.895,-194.145 349.225,-187.544"/>
</g>
<!-- Node13 -->
<g id="node13" class="node"><title>Node13</title>
<polygon fill="white" stroke="#bfbfbf" points="408.5,-112.5 408.5,-131.5 460.5,-131.5 460.5,-112.5 408.5,-112.5"/>
<text text-anchor="middle" x="434.5" y="-119.5" font-family="Helvetica,sans-Serif" font-size="10.00">memory</text>
</g>
<!-- Node1&#45;&gt;Node13 -->
<g id="edge25" class="edge"><title>Node1&#45;&gt;Node13</title>
<path fill="none" stroke="midnightblue" d="M451.166,-224.387C438.545,-216.72 422.003,-204.213 414.5,-188 407.318,-172.48 414.665,-153.714 422.4,-140.344"/>
<polygon fill="midnightblue" stroke="midnightblue" points="425.492,-142.003 427.899,-131.685 419.583,-138.251 425.492,-142.003"/>
</g>
<!-- Node7 -->
<g id="node7" class="node"><title>Node7</title>
<g id="a_node7"><a doxygen="/usr/local/share/doc/sch-core/doxygen-html/sch-core.doxytag:/usr/local/share/doc/sch-core/doxygen-html/" xlink:href="/usr/local/share/doc/sch-core/doxygen-html/a00101.html" target="_top" xlink:title="sch/Matrix/SmallMatrix3x3T.h">
<polygon fill="white" stroke="black" points="624,-112.5 624,-131.5 771,-131.5 771,-112.5 624,-112.5"/>
<text text-anchor="middle" x="697.5" y="-119.5" font-family="Helvetica,sans-Serif" font-size="10.00">sch/Matrix/SmallMatrix3x3T.h</text>
</a>
</g>
</g>
<!-- Node6&#45;&gt;Node7 -->
<g id="edge6" class="edge"><title>Node6&#45;&gt;Node7</title>
<path fill="none" stroke="midnightblue" d="M824.574,-168.444C799.281,-159.399 759.198,-145.064 730.82,-134.916"/>
<polygon fill="midnightblue" stroke="midnightblue" points="731.909,-131.588 721.314,-131.516 729.552,-138.179 731.909,-131.588"/>
</g>
<!-- Node8 -->
<g id="node8" class="node"><title>Node8</title>
<g id="a_node8"><a doxygen="/usr/local/share/doc/sch-core/doxygen-html/sch-core.doxytag:/usr/local/share/doc/sch-core/doxygen-html/" xlink:href="/usr/local/share/doc/sch-core/doxygen-html/a00103.html" target="_top" xlink:title="sch/Matrix/SmallVector3T.h">
<polygon fill="white" stroke="black" points="789.5,-112.5 789.5,-131.5 927.5,-131.5 927.5,-112.5 789.5,-112.5"/>
<text text-anchor="middle" x="858.5" y="-119.5" font-family="Helvetica,sans-Serif" font-size="10.00">sch/Matrix/SmallVector3T.h</text>
</a>
</g>
</g>
<!-- Node6&#45;&gt;Node8 -->
<g id="edge7" class="edge"><title>Node6&#45;&gt;Node8</title>
<path fill="none" stroke="midnightblue" d="M850.151,-168.083C851.476,-160.927 853.382,-150.635 855.039,-141.691"/>
<polygon fill="midnightblue" stroke="midnightblue" points="858.5,-142.221 856.879,-131.751 851.617,-140.947 858.5,-142.221"/>
</g>
<!-- Node9 -->
<g id="node9" class="node"><title>Node9</title>
<g id="a_node9"><a doxygen="/usr/local/share/doc/sch-core/doxygen-html/sch-core.doxytag:/usr/local/share/doc/sch-core/doxygen-html/" xlink:href="/usr/local/share/doc/sch-core/doxygen-html/a00104.html" target="_top" xlink:title="sch/Matrix/SmallVector4T.h">
<polygon fill="white" stroke="black" points="945.5,-112.5 945.5,-131.5 1083.5,-131.5 1083.5,-112.5 945.5,-112.5"/>
<text text-anchor="middle" x="1014.5" y="-119.5" font-family="Helvetica,sans-Serif" font-size="10.00">sch/Matrix/SmallVector4T.h</text>
</a>
</g>
</g>
<!-- Node6&#45;&gt;Node9 -->
<g id="edge8" class="edge"><title>Node6&#45;&gt;Node9</title>
<path fill="none" stroke="midnightblue" d="M874.803,-168.444C902.851,-159.32 947.444,-144.813 978.684,-134.651"/>
<polygon fill="midnightblue" stroke="midnightblue" points="979.893,-137.938 988.32,-131.516 977.728,-131.282 979.893,-137.938"/>
</g>
<!-- Node10 -->
<g id="node10" class="node"><title>Node10</title>
<g id="a_node10"><a doxygen="/usr/local/share/doc/sch-core/doxygen-html/sch-core.doxytag:/usr/local/share/doc/sch-core/doxygen-html/" xlink:href="/usr/local/share/doc/sch-core/doxygen-html/a00102.html" target="_top" xlink:title="sch/Matrix/SmallMatrix4x4T.h">
<polygon fill="white" stroke="black" points="1102,-112.5 1102,-131.5 1249,-131.5 1249,-112.5 1102,-112.5"/>
<text text-anchor="middle" x="1175.5" y="-119.5" font-family="Helvetica,sans-Serif" font-size="10.00">sch/Matrix/SmallMatrix4x4T.h</text>
</a>
</g>
</g>
<!-- Node6&#45;&gt;Node10 -->
<g id="edge9" class="edge"><title>Node6&#45;&gt;Node10</title>
<path fill="none" stroke="midnightblue" d="M900.314,-168.444C958.315,-158.865 1052.24,-143.356 1113.94,-133.167"/>
<polygon fill="midnightblue" stroke="midnightblue" points="1114.63,-136.599 1123.93,-131.516 1113.49,-129.693 1114.63,-136.599"/>
</g>
<!-- Node11 -->
<g id="node11" class="node"><title>Node11</title>
<g id="a_node11"><a doxygen="/usr/local/share/doc/sch-core/doxygen-html/sch-core.doxytag:/usr/local/share/doc/sch-core/doxygen-html/" xlink:href="/usr/local/share/doc/sch-core/doxygen-html/a00083.html" target="_top" xlink:title="sch/Matrix/QuaternionT.h">
<polygon fill="white" stroke="black" points="479,-112.5 479,-131.5 606,-131.5 606,-112.5 479,-112.5"/>
<text text-anchor="middle" x="542.5" y="-119.5" font-family="Helvetica,sans-Serif" font-size="10.00">sch/Matrix/QuaternionT.h</text>
</a>
</g>
</g>
<!-- Node6&#45;&gt;Node11 -->
<g id="edge10" class="edge"><title>Node6&#45;&gt;Node11</title>
<path fill="none" stroke="midnightblue" d="M800.013,-168.444C745.961,-158.905 658.572,-143.483 600.827,-133.293"/>
<polygon fill="midnightblue" stroke="midnightblue" points="601.216,-129.808 590.76,-131.516 599.999,-136.701 601.216,-129.808"/>
</g>
<!-- Node12&#45;&gt;Node2 -->
<g id="edge15" class="edge"><title>Node12&#45;&gt;Node2</title>
<path fill="none" stroke="midnightblue" d="M280.754,-175.969C217.126,-173.289 82.973,-163.907 51.5,-132 24.7144,-104.845 26.1371,-56.3381 29.3884,-29.7333"/>
<polygon fill="midnightblue" stroke="midnightblue" points="32.858,-30.1946 30.817,-19.7983 25.9293,-29.1983 32.858,-30.1946"/>
</g>
<!-- Node12&#45;&gt;Node13 -->
<g id="edge12" class="edge"><title>Node12&#45;&gt;Node13</title>
<path fill="none" stroke="midnightblue" d="M333.514,-168.444C353.088,-159.636 383.808,-145.812 406.229,-135.722"/>
<polygon fill="midnightblue" stroke="midnightblue" points="407.892,-138.812 415.575,-131.516 405.019,-132.428 407.892,-138.812"/>
</g>
<!-- Node14 -->
<g id="node14" class="node"><title>Node14</title>
<polygon fill="white" stroke="#bfbfbf" points="266.5,-0.5 266.5,-19.5 310.5,-19.5 310.5,-0.5 266.5,-0.5"/>
<text text-anchor="middle" x="288.5" y="-7.5" font-family="Helvetica,sans-Serif" font-size="10.00">vector</text>
</g>
<!-- Node12&#45;&gt;Node14 -->
<g id="edge13" class="edge"><title>Node12&#45;&gt;Node14</title>
<path fill="none" stroke="midnightblue" d="M313.154,-168.167C311.245,-155.661 307.635,-132.08 304.5,-112 300.015,-83.2734 294.72,-49.967 291.487,-29.6967"/>
<polygon fill="midnightblue" stroke="midnightblue" points="294.915,-28.9678 289.883,-19.6446 288.003,-30.0714 294.915,-28.9678"/>
</g>
<!-- Node15 -->
<g id="node15" class="node"><title>Node15</title>
<polygon fill="white" stroke="#bfbfbf" points="167,-112.5 167,-131.5 276,-131.5 276,-112.5 167,-112.5"/>
<text text-anchor="middle" x="221.5" y="-119.5" font-family="Helvetica,sans-Serif" font-size="10.00">boost/timer/timer.hpp</text>
</g>
<!-- Node12&#45;&gt;Node15 -->
<g id="edge14" class="edge"><title>Node12&#45;&gt;Node15</title>
<path fill="none" stroke="midnightblue" d="M299.558,-168.324C284.915,-159.822 262.366,-146.729 245.262,-136.797"/>
<polygon fill="midnightblue" stroke="midnightblue" points="246.81,-133.649 236.405,-131.655 243.295,-139.703 246.81,-133.649"/>
</g>
<!-- Node16 -->
<g id="node16" class="node"><title>Node16</title>
<g id="a_node16"><a xlink:href="a00111.html" target="_top" xlink:title="QPSolverData.h">
<polygon fill="white" stroke="black" points="60.5,-112.5 60.5,-131.5 148.5,-131.5 148.5,-112.5 60.5,-112.5"/>
<text text-anchor="middle" x="104.5" y="-119.5" font-family="Helvetica,sans-Serif" font-size="10.00">QPSolverData.h</text>
</a>
</g>
</g>
<!-- Node12&#45;&gt;Node16 -->
<g id="edge16" class="edge"><title>Node12&#45;&gt;Node16</title>
<path fill="none" stroke="midnightblue" d="M281.225,-168.444C245.052,-159.142 187.123,-144.246 147.519,-134.062"/>
<polygon fill="midnightblue" stroke="midnightblue" points="148.176,-130.617 137.619,-131.516 146.433,-137.397 148.176,-130.617"/>
</g>
<!-- Node18 -->
<g id="node18" class="node"><title>Node18</title>
<g id="a_node18"><a xlink:href="a00108.html" target="_top" xlink:title="QPContacts.h">
<polygon fill="white" stroke="black" points="205,-56.5 205,-75.5 284,-75.5 284,-56.5 205,-56.5"/>
<text text-anchor="middle" x="244.5" y="-63.5" font-family="Helvetica,sans-Serif" font-size="10.00">QPContacts.h</text>
</a>
</g>
</g>
<!-- Node12&#45;&gt;Node18 -->
<g id="edge23" class="edge"><title>Node12&#45;&gt;Node18</title>
<path fill="none" stroke="midnightblue" d="M311.377,-168.165C306.606,-155.249 296.751,-130.719 284.5,-112 277.717,-101.636 268.643,-91.2246 260.852,-83.0306"/>
<polygon fill="midnightblue" stroke="midnightblue" points="263.123,-80.3473 253.621,-75.6594 258.125,-85.2492 263.123,-80.3473"/>
</g>
<!-- Node19 -->
<g id="node19" class="node"><title>Node19</title>
<polygon fill="white" stroke="#bfbfbf" points="334,-0.5 334,-19.5 417,-19.5 417,-0.5 334,-0.5"/>
<text text-anchor="middle" x="375.5" y="-7.5" font-family="Helvetica,sans-Serif" font-size="10.00">tasks/config.hh</text>
</g>
<!-- Node12&#45;&gt;Node19 -->
<g id="edge24" class="edge"><title>Node12&#45;&gt;Node19</title>
<path fill="none" stroke="midnightblue" d="M317.78,-168.075C327.423,-141.832 355.824,-64.5453 368.843,-29.1165"/>
<polygon fill="midnightblue" stroke="midnightblue" points="372.187,-30.1617 372.351,-19.5681 365.617,-27.7472 372.187,-30.1617"/>
</g>
<!-- Node17 -->
<g id="node17" class="node"><title>Node17</title>
<polygon fill="white" stroke="#bfbfbf" points="101.5,-0.5 101.5,-19.5 239.5,-19.5 239.5,-0.5 101.5,-0.5"/>
<text text-anchor="middle" x="170.5" y="-7.5" font-family="Helvetica,sans-Serif" font-size="10.00">SpaceVecAlg/SpaceVecAlg</text>
</g>
<!-- Node16&#45;&gt;Node17 -->
<g id="edge17" class="edge"><title>Node16&#45;&gt;Node17</title>
<path fill="none" stroke="midnightblue" d="M109.679,-112.368C120.523,-94.2957 145.794,-52.1764 160.116,-28.3074"/>
<polygon fill="midnightblue" stroke="midnightblue" points="163.201,-29.9671 165.345,-19.5914 157.199,-26.3656 163.201,-29.9671"/>
</g>
<!-- Node16&#45;&gt;Node18 -->
<g id="edge18" class="edge"><title>Node16&#45;&gt;Node18</title>
<path fill="none" stroke="midnightblue" d="M126.683,-112.444C149.928,-103.478 186.649,-89.314 212.915,-79.1827"/>
<polygon fill="midnightblue" stroke="midnightblue" points="214.35,-82.3807 222.42,-75.5164 211.831,-75.8497 214.35,-82.3807"/>
</g>
<!-- Node18&#45;&gt;Node2 -->
<g id="edge20" class="edge"><title>Node18&#45;&gt;Node2</title>
<path fill="none" stroke="midnightblue" d="M210.908,-56.4435C174.097,-47.0673 114.971,-32.0068 74.9706,-21.818"/>
<polygon fill="midnightblue" stroke="midnightblue" points="75.7928,-18.4157 65.2383,-19.339 74.0649,-25.1991 75.7928,-18.4157"/>
</g>
<!-- Node18&#45;&gt;Node14 -->
<g id="edge19" class="edge"><title>Node18&#45;&gt;Node14</title>
<path fill="none" stroke="midnightblue" d="M251.766,-56.083C258.045,-48.3768 267.288,-37.0333 274.931,-27.6531"/>
<polygon fill="midnightblue" stroke="midnightblue" points="277.766,-29.7143 281.369,-19.7511 272.339,-25.2926 277.766,-29.7143"/>
</g>
<!-- Node18&#45;&gt;Node17 -->
<g id="edge21" class="edge"><title>Node18&#45;&gt;Node17</title>
<path fill="none" stroke="midnightblue" d="M232.611,-56.324C221.35,-48.1066 204.213,-35.6017 190.791,-25.8069"/>
<polygon fill="midnightblue" stroke="midnightblue" points="192.747,-22.9014 182.606,-19.8339 188.62,-28.5559 192.747,-22.9014"/>
</g>
<!-- Node18&#45;&gt;Node19 -->
<g id="edge22" class="edge"><title>Node18&#45;&gt;Node19</title>
<path fill="none" stroke="midnightblue" d="M265.257,-56.4435C286.816,-47.5566 320.763,-33.5632 345.294,-23.4514"/>
<polygon fill="midnightblue" stroke="midnightblue" points="346.928,-26.5634 354.84,-19.5164 344.261,-20.0917 346.928,-26.5634"/>
</g>
</g>
</svg>
