<?xml version="1.0" encoding="UTF-8" standalone="no"?>
<!DOCTYPE svg PUBLIC "-//W3C//DTD SVG 1.1//EN"
 "http://www.w3.org/Graphics/SVG/1.1/DTD/svg11.dtd">
<!-- Generated by graphviz version 2.38.0 (20140413.2041)
 -->
<!-- Title: tasks::qp::BilateralContact Pages: 1 -->
<svg width="772pt" height="128pt"
 viewBox="0.00 0.00 772.00 127.50" xmlns="http://www.w3.org/2000/svg" xmlns:xlink="http://www.w3.org/1999/xlink">
<g id="graph0" class="graph" transform="scale(1 1) rotate(0) translate(4 123.5)">
<title>tasks::qp::BilateralContact</title>
<polygon fill="white" stroke="none" points="-4,4 -4,-123.5 768,-123.5 768,4 -4,4"/>
<!-- Node1 -->
<g id="node1" class="node"><title>Node1</title>
<polygon fill="#bfbfbf" stroke="black" points="621,-50 621,-69 764,-69 764,-50 621,-50"/>
<text text-anchor="middle" x="692.5" y="-57" font-family="Helvetica,sans-Serif" font-size="10.00">tasks::qp::BilateralContact</text>
</g>
<!-- Node2 -->
<g id="node2" class="node"><title>Node2</title>
<polygon fill="white" stroke="#bfbfbf" points="425.5,-44.5 425.5,-74.5 536.5,-74.5 536.5,-44.5 425.5,-44.5"/>
<text text-anchor="start" x="433.5" y="-62.5" font-family="Helvetica,sans-Serif" font-size="10.00">std::vector&lt; tasks</text>
<text text-anchor="middle" x="481" y="-51.5" font-family="Helvetica,sans-Serif" font-size="10.00">::qp::FrictionCone &gt;</text>
</g>
<!-- Node2&#45;&gt;Node1 -->
<g id="edge1" class="edge"><title>Node2&#45;&gt;Node1</title>
<path fill="none" stroke="#9a32cd" stroke-dasharray="5,2" d="M546.952,-59.5C570.392,-59.5 596.955,-59.5 620.858,-59.5"/>
<polygon fill="#9a32cd" stroke="#9a32cd" points="546.77,-56.0001 536.77,-59.5 546.77,-63.0001 546.77,-56.0001"/>
<text text-anchor="middle" x="579" y="-73.5" font-family="Helvetica,sans-Serif" font-size="10.00"> r1Cones</text>
<text text-anchor="middle" x="579" y="-62.5" font-family="Helvetica,sans-Serif" font-size="10.00">r2Cones</text>
</g>
<!-- Node3 -->
<g id="node3" class="node"><title>Node3</title>
<g id="a_node3"><a xlink:href="a00029.html" target="_top" xlink:title="Linearized friction cone generator. ">
<polygon fill="white" stroke="black" points="197,-54 197,-73 322,-73 322,-54 197,-54"/>
<text text-anchor="middle" x="259.5" y="-61" font-family="Helvetica,sans-Serif" font-size="10.00">tasks::qp::FrictionCone</text>
</a>
</g>
</g>
<!-- Node3&#45;&gt;Node2 -->
<g id="edge2" class="edge"><title>Node3&#45;&gt;Node2</title>
<path fill="none" stroke="#9a32cd" stroke-dasharray="5,2" d="M332.318,-62.1912C362.617,-61.6391 397.313,-61.0068 425.46,-60.4939"/>
<polygon fill="#9a32cd" stroke="#9a32cd" points="332.162,-58.6934 322.227,-62.3751 332.289,-65.6923 332.162,-58.6934"/>
<text text-anchor="middle" x="373.5" y="-65.5" font-family="Helvetica,sans-Serif" font-size="10.00"> elements</text>
</g>
<!-- Node4 -->
<g id="node4" class="node"><title>Node4</title>
<polygon fill="white" stroke="#bfbfbf" points="0,-68.5 0,-98.5 105,-98.5 105,-68.5 0,-68.5"/>
<text text-anchor="start" x="8" y="-86.5" font-family="Helvetica,sans-Serif" font-size="10.00">std::vector&lt; Eigen</text>
<text text-anchor="middle" x="52.5" y="-75.5" font-family="Helvetica,sans-Serif" font-size="10.00">::Vector3d &gt;</text>
</g>
<!-- Node4&#45;&gt;Node1 -->
<g id="edge7" class="edge"><title>Node4&#45;&gt;Node1</title>
<path fill="none" stroke="#9a32cd" stroke-dasharray="5,2" d="M115.25,-89.1087C117.867,-89.2586 120.459,-89.3905 123,-89.5 147.866,-90.5714 154.111,-89.6174 179,-89.5 367.451,-88.6111 416.596,-113.213 603,-85.5 624.701,-82.2738 648.52,-75.0544 665.976,-69.0398"/>
<polygon fill="#9a32cd" stroke="#9a32cd" points="115.289,-85.604 105.084,-88.4507 114.837,-92.5894 115.289,-85.604"/>
<text text-anchor="middle" x="373.5" y="-111.5" font-family="Helvetica,sans-Serif" font-size="10.00"> r1Points</text>
<text text-anchor="middle" x="373.5" y="-100.5" font-family="Helvetica,sans-Serif" font-size="10.00">r2Points</text>
</g>
<!-- Node4&#45;&gt;Node3 -->
<g id="edge3" class="edge"><title>Node4&#45;&gt;Node3</title>
<path fill="none" stroke="#9a32cd" stroke-dasharray="5,2" d="M115.286,-77.4721C141.135,-74.9503 171.108,-72.0261 196.932,-69.5066"/>
<polygon fill="#9a32cd" stroke="#9a32cd" points="114.843,-73.9986 105.23,-78.4532 115.523,-80.9655 114.843,-73.9986"/>
<text text-anchor="middle" x="151" y="-79.5" font-family="Helvetica,sans-Serif" font-size="10.00"> generators</text>
</g>
<!-- Node5 -->
<g id="node5" class="node"><title>Node5</title>
<g id="a_node5"><a xlink:href="a00022.html" target="_top" xlink:title="Unique identifier for a contact. ">
<polygon fill="white" stroke="black" points="425,-6 425,-25 537,-25 537,-6 425,-6"/>
<text text-anchor="middle" x="481" y="-13" font-family="Helvetica,sans-Serif" font-size="10.00">tasks::qp::ContactId</text>
</a>
</g>
</g>
<!-- Node5&#45;&gt;Node1 -->
<g id="edge4" class="edge"><title>Node5&#45;&gt;Node1</title>
<path fill="none" stroke="#9a32cd" stroke-dasharray="5,2" d="M537.67,-27.192C571.559,-34.3096 614.305,-43.2872 646.13,-49.9713"/>
<polygon fill="#9a32cd" stroke="#9a32cd" points="537.964,-23.6775 527.458,-25.0473 536.525,-30.5281 537.964,-23.6775"/>
<text text-anchor="middle" x="579" y="-43.5" font-family="Helvetica,sans-Serif" font-size="10.00"> contactId</text>
</g>
<!-- Node6 -->
<g id="node6" class="node"><title>Node6</title>
<g id="a_node6"><a xlink:title="STL class. ">
<polygon fill="white" stroke="#bfbfbf" points="227,-6 227,-25 292,-25 292,-6 227,-6"/>
<text text-anchor="middle" x="259.5" y="-13" font-family="Helvetica,sans-Serif" font-size="10.00">std::string</text>
</a>
</g>
</g>
<!-- Node6&#45;&gt;Node5 -->
<g id="edge5" class="edge"><title>Node6&#45;&gt;Node5</title>
<path fill="none" stroke="#9a32cd" stroke-dasharray="5,2" d="M302.68,-15.5C337.369,-15.5 386.799,-15.5 424.663,-15.5"/>
<polygon fill="#9a32cd" stroke="#9a32cd" points="302.417,-12.0001 292.417,-15.5 302.417,-19.0001 302.417,-12.0001"/>
<text text-anchor="middle" x="373.5" y="-29.5" font-family="Helvetica,sans-Serif" font-size="10.00"> r2BodyName</text>
<text text-anchor="middle" x="373.5" y="-18.5" font-family="Helvetica,sans-Serif" font-size="10.00">r1BodyName</text>
</g>
<!-- Node7 -->
<g id="node7" class="node"><title>Node7</title>
<g id="a_node7"><a xlink:title="STL class. ">
<polygon fill="white" stroke="#bfbfbf" points="1,-0.5 1,-30.5 104,-30.5 104,-0.5 1,-0.5"/>
<text text-anchor="start" x="9" y="-18.5" font-family="Helvetica,sans-Serif" font-size="10.00">std::basic_string&lt;</text>
<text text-anchor="middle" x="52.5" y="-7.5" font-family="Helvetica,sans-Serif" font-size="10.00"> char &gt;</text>
</a>
</g>
</g>
<!-- Node7&#45;&gt;Node6 -->
<g id="edge6" class="edge"><title>Node7&#45;&gt;Node6</title>
<path fill="none" stroke="midnightblue" d="M114.35,-15.5C151.318,-15.5 196.997,-15.5 226.897,-15.5"/>
<polygon fill="midnightblue" stroke="midnightblue" points="114.174,-12.0001 104.174,-15.5 114.174,-19.0001 114.174,-12.0001"/>
</g>
</g>
</svg>
