<?xml version="1.0" encoding="UTF-8" standalone="no"?>
<!DOCTYPE svg PUBLIC "-//W3C//DTD SVG 1.1//EN"
 "http://www.w3.org/Graphics/SVG/1.1/DTD/svg11.dtd">
<!-- Generated by graphviz version 2.38.0 (20140413.2041)
 -->
<!-- Title: tasks::qp::ConstraintFunction&lt; Fun &gt; Pages: 1 -->
<svg width="179pt" height="95pt"
 viewBox="0.00 0.00 179.00 95.00" xmlns="http://www.w3.org/2000/svg" xmlns:xlink="http://www.w3.org/1999/xlink">
<g id="graph0" class="graph" transform="scale(1 1) rotate(0) translate(4 91)">
<title>tasks::qp::ConstraintFunction&lt; Fun &gt;</title>
<polygon fill="white" stroke="none" points="-4,4 -4,-91 175,-91 175,4 -4,4"/>
<!-- Node1 -->
<g id="node1" class="node"><title>Node1</title>
<polygon fill="#bfbfbf" stroke="black" points="25,-0.5 25,-30.5 171,-30.5 171,-0.5 25,-0.5"/>
<text text-anchor="start" x="33" y="-18.5" font-family="Helvetica,sans-Serif" font-size="10.00">tasks::qp::ConstraintFunction</text>
<text text-anchor="middle" x="98" y="-7.5" font-family="Helvetica,sans-Serif" font-size="10.00">&lt; Fun &gt;</text>
</g>
<!-- Node2 -->
<g id="node2" class="node"><title>Node2</title>
<g id="a_node2"><a xlink:href="a00014.html" target="_top" xlink:title="tasks::qp::Constraint">
<polygon fill="white" stroke="black" points="0,-67.5 0,-86.5 108,-86.5 108,-67.5 0,-67.5"/>
<text text-anchor="middle" x="54" y="-74.5" font-family="Helvetica,sans-Serif" font-size="10.00">tasks::qp::Constraint</text>
</a>
</g>
</g>
<!-- Node2&#45;&gt;Node1 -->
<g id="edge1" class="edge"><title>Node2&#45;&gt;Node1</title>
<path fill="none" stroke="midnightblue" d="M66.3887,-59.2472C73.0889,-50.1866 81.2696,-39.124 87.6301,-30.523"/>
<polygon fill="midnightblue" stroke="midnightblue" points="63.4358,-57.3537 60.3041,-67.4751 69.0641,-61.5158 63.4358,-57.3537"/>
</g>
<!-- Node3 -->
<g id="node3" class="node"><title>Node3</title>
<polygon fill="white" stroke="#bfbfbf" points="126.5,-67.5 126.5,-86.5 159.5,-86.5 159.5,-67.5 126.5,-67.5"/>
<text text-anchor="middle" x="143" y="-74.5" font-family="Helvetica,sans-Serif" font-size="10.00">Fun</text>
</g>
<!-- Node3&#45;&gt;Node1 -->
<g id="edge2" class="edge"><title>Node3&#45;&gt;Node1</title>
<path fill="none" stroke="midnightblue" d="M130.33,-59.2472C123.477,-50.1866 115.111,-39.124 108.606,-30.523"/>
<polygon fill="midnightblue" stroke="midnightblue" points="127.729,-61.6105 136.553,-67.4751 133.312,-57.388 127.729,-61.6105"/>
</g>
</g>
</svg>
