<?xml version="1.0" encoding="UTF-8" standalone="no"?>
<!DOCTYPE svg PUBLIC "-//W3C//DTD SVG 1.1//EN"
 "http://www.w3.org/Graphics/SVG/1.1/DTD/svg11.dtd">
<!-- Generated by graphviz version 2.38.0 (20140413.2041)
 -->
<!-- Title: tasks::qp::Constraint Pages: 1 -->
<svg width="925pt" height="432pt"
 viewBox="0.00 0.00 925.00 431.50" xmlns="http://www.w3.org/2000/svg" xmlns:xlink="http://www.w3.org/1999/xlink">
<g id="graph0" class="graph" transform="scale(1 1) rotate(0) translate(4 427.5)">
<title>tasks::qp::Constraint</title>
<polygon fill="white" stroke="none" points="-4,4 -4,-427.5 921,-427.5 921,4 -4,4"/>
<!-- Node1 -->
<g id="node1" class="node"><title>Node1</title>
<polygon fill="#bfbfbf" stroke="black" points="0,-174.5 0,-193.5 116,-193.5 116,-174.5 0,-174.5"/>
<text text-anchor="middle" x="58" y="-181.5" font-family="Helvetica,sans-Serif" font-size="10.00">tasks::qp::Constraint</text>
</g>
<!-- Node2 -->
<g id="node2" class="node"><title>Node2</title>
<g id="a_node2"><a xlink:href="a00015.html" target="_top" xlink:title="tasks::qp::ConstraintFunction\l\&lt; Bound \&gt;">
<polygon fill="white" stroke="black" points="152,-330 152,-360 308,-360 308,-330 152,-330"/>
<text text-anchor="start" x="160" y="-348" font-family="Helvetica,sans-Serif" font-size="10.00">tasks::qp::ConstraintFunction</text>
<text text-anchor="middle" x="230" y="-337" font-family="Helvetica,sans-Serif" font-size="10.00">&lt; Bound &gt;</text>
</a>
</g>
</g>
<!-- Node1&#45;&gt;Node2 -->
<g id="edge1" class="edge"><title>Node1&#45;&gt;Node2</title>
<path fill="none" stroke="midnightblue" d="M75.7892,-200.794C94.2757,-219.199 124.968,-249.503 152,-275 172.371,-294.214 196.302,-315.822 212.014,-329.882"/>
<polygon fill="midnightblue" stroke="midnightblue" points="78.2119,-198.267 68.66,-193.683 73.2685,-203.223 78.2119,-198.267"/>
</g>
<!-- Node6 -->
<g id="node6" class="node"><title>Node6</title>
<g id="a_node6"><a xlink:href="a00015.html" target="_top" xlink:title="tasks::qp::ConstraintFunction\l\&lt; Equality \&gt;">
<polygon fill="white" stroke="black" points="152,-235 152,-265 308,-265 308,-235 152,-235"/>
<text text-anchor="start" x="160" y="-253" font-family="Helvetica,sans-Serif" font-size="10.00">tasks::qp::ConstraintFunction</text>
<text text-anchor="middle" x="230" y="-242" font-family="Helvetica,sans-Serif" font-size="10.00">&lt; Equality &gt;</text>
</a>
</g>
</g>
<!-- Node1&#45;&gt;Node6 -->
<g id="edge5" class="edge"><title>Node1&#45;&gt;Node6</title>
<path fill="none" stroke="midnightblue" d="M93.1076,-197.242C121.129,-208.121 160.83,-223.534 190.088,-234.893"/>
<polygon fill="midnightblue" stroke="midnightblue" points="94.3083,-193.953 83.7195,-193.597 91.7748,-200.479 94.3083,-193.953"/>
</g>
<!-- Node12 -->
<g id="node12" class="node"><title>Node12</title>
<g id="a_node12"><a xlink:href="a00015.html" target="_top" xlink:title="tasks::qp::ConstraintFunction\l\&lt; GenInequality \&gt;">
<polygon fill="white" stroke="black" points="152,-169 152,-199 308,-199 308,-169 152,-169"/>
<text text-anchor="start" x="160" y="-187" font-family="Helvetica,sans-Serif" font-size="10.00">tasks::qp::ConstraintFunction</text>
<text text-anchor="middle" x="230" y="-176" font-family="Helvetica,sans-Serif" font-size="10.00">&lt; GenInequality &gt;</text>
</a>
</g>
</g>
<!-- Node1&#45;&gt;Node12 -->
<g id="edge11" class="edge"><title>Node1&#45;&gt;Node12</title>
<path fill="none" stroke="midnightblue" d="M126.203,-184C134.619,-184 143.28,-184 151.833,-184"/>
<polygon fill="midnightblue" stroke="midnightblue" points="126.08,-180.5 116.08,-184 126.08,-187.5 126.08,-180.5"/>
</g>
<!-- Node18 -->
<g id="node18" class="node"><title>Node18</title>
<g id="a_node18"><a xlink:href="a00015.html" target="_top" xlink:title="tasks::qp::ConstraintFunction\l\&lt; Inequality \&gt;">
<polygon fill="white" stroke="black" points="152,-112 152,-142 308,-142 308,-112 152,-112"/>
<text text-anchor="start" x="160" y="-130" font-family="Helvetica,sans-Serif" font-size="10.00">tasks::qp::ConstraintFunction</text>
<text text-anchor="middle" x="230" y="-119" font-family="Helvetica,sans-Serif" font-size="10.00">&lt; Inequality &gt;</text>
</a>
</g>
</g>
<!-- Node1&#45;&gt;Node18 -->
<g id="edge17" class="edge"><title>Node1&#45;&gt;Node18</title>
<path fill="none" stroke="midnightblue" d="M97.237,-171.179C122.997,-162.542 157.077,-151.115 184.123,-142.047"/>
<polygon fill="midnightblue" stroke="midnightblue" points="95.8227,-167.962 87.4542,-174.459 98.0481,-174.599 95.8227,-167.962"/>
</g>
<!-- Node23 -->
<g id="node23" class="node"><title>Node23</title>
<g id="a_node23"><a xlink:href="a00015.html" target="_top" xlink:title="tasks::qp::ConstraintFunction\l\&lt; Fun \&gt;">
<polygon fill="white" stroke="black" points="152,-63 152,-93 308,-93 308,-63 152,-63"/>
<text text-anchor="start" x="160" y="-81" font-family="Helvetica,sans-Serif" font-size="10.00">tasks::qp::ConstraintFunction</text>
<text text-anchor="middle" x="230" y="-70" font-family="Helvetica,sans-Serif" font-size="10.00">&lt; Fun &gt;</text>
</a>
</g>
</g>
<!-- Node1&#45;&gt;Node23 -->
<g id="edge22" class="edge"><title>Node1&#45;&gt;Node23</title>
<path fill="none" stroke="midnightblue" d="M74.0064,-167.053C91.1753,-148.623 120.949,-119.466 152,-102 157.98,-98.6363 164.492,-95.6809 171.113,-93.1009"/>
<polygon fill="midnightblue" stroke="midnightblue" points="71.4046,-164.712 67.2491,-174.458 76.5752,-169.43 71.4046,-164.712"/>
</g>
<!-- Node3 -->
<g id="node3" class="node"><title>Node3</title>
<g id="a_node3"><a xlink:href="a00027.html" target="_top" xlink:title="Avoid to reach articular position and velocity limits based on a velocity damper. ...">
<polygon fill="white" stroke="black" points="354,-393 354,-423 508,-423 508,-393 354,-393"/>
<text text-anchor="start" x="362" y="-411" font-family="Helvetica,sans-Serif" font-size="10.00">tasks::qp::DamperJointLimits</text>
<text text-anchor="middle" x="431" y="-400" font-family="Helvetica,sans-Serif" font-size="10.00">Constr</text>
</a>
</g>
</g>
<!-- Node2&#45;&gt;Node3 -->
<g id="edge2" class="edge"><title>Node2&#45;&gt;Node3</title>
<path fill="none" stroke="midnightblue" d="M283.95,-363.311C302.845,-369.712 324.322,-376.834 344,-383 354.534,-386.301 365.841,-389.694 376.68,-392.874"/>
<polygon fill="midnightblue" stroke="midnightblue" points="284.922,-359.945 274.327,-360.039 282.668,-366.572 284.922,-359.945"/>
</g>
<!-- Node4 -->
<g id="node4" class="node"><title>Node4</title>
<g id="a_node4"><a xlink:href="a00041.html" target="_top" xlink:title="Avoid to reach articular position limits based on direct integration. ">
<polygon fill="white" stroke="black" points="358,-354.5 358,-373.5 504,-373.5 504,-354.5 358,-354.5"/>
<text text-anchor="middle" x="431" y="-361.5" font-family="Helvetica,sans-Serif" font-size="10.00">tasks::qp::JointLimitsConstr</text>
</a>
</g>
</g>
<!-- Node2&#45;&gt;Node4 -->
<g id="edge3" class="edge"><title>Node2&#45;&gt;Node4</title>
<path fill="none" stroke="midnightblue" d="M318.231,-353.329C331.414,-354.587 344.887,-355.874 357.708,-357.098"/>
<polygon fill="midnightblue" stroke="midnightblue" points="318.511,-349.839 308.223,-352.373 317.845,-356.808 318.511,-349.839"/>
</g>
<!-- Node5 -->
<g id="node5" class="node"><title>Node5</title>
<g id="a_node5"><a xlink:href="a00067.html" target="_top" xlink:title="tasks::qp::PositiveLambda">
<polygon fill="white" stroke="black" points="360,-316.5 360,-335.5 502,-335.5 502,-316.5 360,-316.5"/>
<text text-anchor="middle" x="431" y="-323.5" font-family="Helvetica,sans-Serif" font-size="10.00">tasks::qp::PositiveLambda</text>
</a>
</g>
</g>
<!-- Node2&#45;&gt;Node5 -->
<g id="edge4" class="edge"><title>Node2&#45;&gt;Node5</title>
<path fill="none" stroke="midnightblue" d="M318.299,-336.665C332.237,-335.334 346.499,-333.972 359.969,-332.686"/>
<polygon fill="midnightblue" stroke="midnightblue" points="317.845,-333.192 308.223,-337.627 318.511,-340.161 317.845,-333.192"/>
</g>
<!-- Node7 -->
<g id="node7" class="node"><title>Node7</title>
<g id="a_node7"><a xlink:href="a00018.html" target="_top" xlink:title="Common contact constraint computation. ">
<polygon fill="white" stroke="black" points="363.5,-278.5 363.5,-297.5 498.5,-297.5 498.5,-278.5 363.5,-278.5"/>
<text text-anchor="middle" x="431" y="-285.5" font-family="Helvetica,sans-Serif" font-size="10.00">tasks::qp::ContactConstr</text>
</a>
</g>
</g>
<!-- Node6&#45;&gt;Node7 -->
<g id="edge6" class="edge"><title>Node6&#45;&gt;Node7</title>
<path fill="none" stroke="midnightblue" d="M318.214,-266.654C339.396,-270.699 361.331,-274.887 380.101,-278.472"/>
<polygon fill="midnightblue" stroke="midnightblue" points="318.702,-263.184 308.223,-264.746 317.389,-270.06 318.702,-263.184"/>
</g>
<!-- Node11 -->
<g id="node11" class="node"><title>Node11</title>
<g id="a_node11"><a xlink:href="a00039.html" target="_top" xlink:title="tasks::qp::JointAccConstr">
<polygon fill="white" stroke="black" points="363.5,-240.5 363.5,-259.5 498.5,-259.5 498.5,-240.5 363.5,-240.5"/>
<text text-anchor="middle" x="431" y="-247.5" font-family="Helvetica,sans-Serif" font-size="10.00">tasks::qp::JointAccConstr</text>
</a>
</g>
</g>
<!-- Node6&#45;&gt;Node11 -->
<g id="edge10" class="edge"><title>Node6&#45;&gt;Node11</title>
<path fill="none" stroke="midnightblue" d="M318.58,-250C333.65,-250 349.091,-250 363.491,-250"/>
<polygon fill="midnightblue" stroke="midnightblue" points="318.223,-246.5 308.223,-250 318.223,-253.5 318.223,-246.5"/>
</g>
<!-- Node8 -->
<g id="node8" class="node"><title>Node8</title>
<g id="a_node8"><a xlink:href="a00016.html" target="_top" xlink:title="Contact constraint by targeting a null acceleration. ">
<polygon fill="white" stroke="black" points="561,-316.5 561,-335.5 713,-335.5 713,-316.5 561,-316.5"/>
<text text-anchor="middle" x="637" y="-323.5" font-family="Helvetica,sans-Serif" font-size="10.00">tasks::qp::ContactAccConstr</text>
</a>
</g>
</g>
<!-- Node7&#45;&gt;Node8 -->
<g id="edge7" class="edge"><title>Node7&#45;&gt;Node8</title>
<path fill="none" stroke="midnightblue" d="M493.297,-299.418C522.486,-304.855 556.994,-311.283 584.764,-316.456"/>
<polygon fill="midnightblue" stroke="midnightblue" points="493.686,-295.93 483.214,-297.54 492.404,-302.812 493.686,-295.93"/>
</g>
<!-- Node9 -->
<g id="node9" class="node"><title>Node9</title>
<g id="a_node9"><a xlink:href="a00023.html" target="_top" xlink:title="Contact constraint by targeting a constant frame. ">
<polygon fill="white" stroke="black" points="561,-278.5 561,-297.5 713,-297.5 713,-278.5 561,-278.5"/>
<text text-anchor="middle" x="637" y="-285.5" font-family="Helvetica,sans-Serif" font-size="10.00">tasks::qp::ContactPosConstr</text>
</a>
</g>
</g>
<!-- Node7&#45;&gt;Node9 -->
<g id="edge8" class="edge"><title>Node7&#45;&gt;Node9</title>
<path fill="none" stroke="midnightblue" d="M508.931,-288C525.893,-288 543.841,-288 560.737,-288"/>
<polygon fill="midnightblue" stroke="midnightblue" points="508.515,-284.5 498.515,-288 508.515,-291.5 508.515,-284.5"/>
</g>
<!-- Node10 -->
<g id="node10" class="node"><title>Node10</title>
<g id="a_node10"><a xlink:href="a00025.html" target="_top" xlink:title="Contact constraint by targeting a null velocity. ">
<polygon fill="white" stroke="black" points="554,-240.5 554,-259.5 720,-259.5 720,-240.5 554,-240.5"/>
<text text-anchor="middle" x="637" y="-247.5" font-family="Helvetica,sans-Serif" font-size="10.00">tasks::qp::ContactSpeedConstr</text>
</a>
</g>
</g>
<!-- Node7&#45;&gt;Node10 -->
<g id="edge9" class="edge"><title>Node7&#45;&gt;Node10</title>
<path fill="none" stroke="midnightblue" d="M493.297,-276.582C522.486,-271.145 556.994,-264.717 584.764,-259.544"/>
<polygon fill="midnightblue" stroke="midnightblue" points="492.404,-273.188 483.214,-278.46 493.686,-280.07 492.404,-273.188"/>
</g>
<!-- Node13 -->
<g id="node13" class="node"><title>Node13</title>
<g id="a_node13"><a xlink:href="a00005.html" target="_top" xlink:title="Constraint some link velocity in link frame by direct integration. ">
<polygon fill="white" stroke="black" points="345.5,-202.5 345.5,-221.5 516.5,-221.5 516.5,-202.5 345.5,-202.5"/>
<text text-anchor="middle" x="431" y="-209.5" font-family="Helvetica,sans-Serif" font-size="10.00">tasks::qp::BoundedSpeedConstr</text>
</a>
</g>
</g>
<!-- Node12&#45;&gt;Node13 -->
<g id="edge12" class="edge"><title>Node12&#45;&gt;Node13</title>
<path fill="none" stroke="midnightblue" d="M318.33,-196.288C333.035,-198.357 348.101,-200.476 362.215,-202.462"/>
<polygon fill="midnightblue" stroke="midnightblue" points="318.614,-192.793 308.223,-194.866 317.638,-199.725 318.614,-192.793"/>
</g>
<!-- Node14 -->
<g id="node14" class="node"><title>Node14</title>
<g id="a_node14"><a xlink:href="a00050.html" target="_top" xlink:title="tasks::qp::MotionConstrCommon">
<polygon fill="white" stroke="black" points="344,-164.5 344,-183.5 518,-183.5 518,-164.5 344,-164.5"/>
<text text-anchor="middle" x="431" y="-171.5" font-family="Helvetica,sans-Serif" font-size="10.00">tasks::qp::MotionConstrCommon</text>
</a>
</g>
</g>
<!-- Node12&#45;&gt;Node14 -->
<g id="edge13" class="edge"><title>Node12&#45;&gt;Node14</title>
<path fill="none" stroke="midnightblue" d="M318.453,-179.605C326.9,-179.181 335.465,-178.75 343.9,-178.327"/>
<polygon fill="midnightblue" stroke="midnightblue" points="318.035,-176.122 308.223,-180.119 318.387,-183.113 318.035,-176.122"/>
</g>
<!-- Node15 -->
<g id="node15" class="node"><title>Node15</title>
<g id="a_node15"><a xlink:href="a00049.html" target="_top" xlink:title="tasks::qp::MotionConstr">
<polygon fill="white" stroke="black" points="572,-183.5 572,-202.5 702,-202.5 702,-183.5 572,-183.5"/>
<text text-anchor="middle" x="637" y="-190.5" font-family="Helvetica,sans-Serif" font-size="10.00">tasks::qp::MotionConstr</text>
</a>
</g>
</g>
<!-- Node14&#45;&gt;Node15 -->
<g id="edge14" class="edge"><title>Node14&#45;&gt;Node15</title>
<path fill="none" stroke="midnightblue" d="M528.367,-182.975C543.083,-184.346 557.956,-185.731 571.756,-187.016"/>
<polygon fill="midnightblue" stroke="midnightblue" points="528.5,-179.473 518.219,-182.03 527.851,-186.443 528.5,-179.473"/>
</g>
<!-- Node17 -->
<g id="node17" class="node"><title>Node17</title>
<g id="a_node17"><a xlink:href="a00051.html" target="_top" xlink:title="Use polynome in function of q to compute torque limits. ">
<polygon fill="white" stroke="black" points="562.5,-145.5 562.5,-164.5 711.5,-164.5 711.5,-145.5 562.5,-145.5"/>
<text text-anchor="middle" x="637" y="-152.5" font-family="Helvetica,sans-Serif" font-size="10.00">tasks::qp::MotionPolyConstr</text>
</a>
</g>
</g>
<!-- Node14&#45;&gt;Node17 -->
<g id="edge16" class="edge"><title>Node14&#45;&gt;Node17</title>
<path fill="none" stroke="midnightblue" d="M528.251,-165.035C539.712,-163.968 551.27,-162.892 562.344,-161.86"/>
<polygon fill="midnightblue" stroke="midnightblue" points="527.851,-161.557 518.219,-165.97 528.5,-168.527 527.851,-161.557"/>
</g>
<!-- Node16 -->
<g id="node16" class="node"><title>Node16</title>
<g id="a_node16"><a xlink:href="a00052.html" target="_top" xlink:title="tasks::qp::MotionSpringConstr">
<polygon fill="white" stroke="black" points="756,-183.5 756,-202.5 917,-202.5 917,-183.5 756,-183.5"/>
<text text-anchor="middle" x="836.5" y="-190.5" font-family="Helvetica,sans-Serif" font-size="10.00">tasks::qp::MotionSpringConstr</text>
</a>
</g>
</g>
<!-- Node15&#45;&gt;Node16 -->
<g id="edge15" class="edge"><title>Node15&#45;&gt;Node16</title>
<path fill="none" stroke="midnightblue" d="M712.318,-193C726.519,-193 741.439,-193 755.801,-193"/>
<polygon fill="midnightblue" stroke="midnightblue" points="712.123,-189.5 702.123,-193 712.123,-196.5 712.123,-189.5"/>
</g>
<!-- Node19 -->
<g id="node19" class="node"><title>Node19</title>
<g id="a_node19"><a xlink:href="a00006.html" target="_top" xlink:title="Avoid that too robot links enter into collision based on a velocity damper. ">
<polygon fill="white" stroke="black" points="362.5,-126.5 362.5,-145.5 499.5,-145.5 499.5,-126.5 362.5,-126.5"/>
<text text-anchor="middle" x="431" y="-133.5" font-family="Helvetica,sans-Serif" font-size="10.00">tasks::qp::CollisionConstr</text>
</a>
</g>
</g>
<!-- Node18&#45;&gt;Node19 -->
<g id="edge18" class="edge"><title>Node18&#45;&gt;Node19</title>
<path fill="none" stroke="midnightblue" d="M318.33,-130.95C333.035,-131.615 348.101,-132.296 362.215,-132.934"/>
<polygon fill="midnightblue" stroke="midnightblue" points="318.371,-127.448 308.223,-130.493 318.055,-134.441 318.371,-127.448"/>
</g>
<!-- Node20 -->
<g id="node20" class="node"><title>Node20</title>
<g id="a_node20"><a xlink:href="a00007.html" target="_top" xlink:title="Prevent robot CoM to go out of a convex hull. ">
<polygon fill="white" stroke="black" points="352,-88.5 352,-107.5 510,-107.5 510,-88.5 352,-88.5"/>
<text text-anchor="middle" x="431" y="-95.5" font-family="Helvetica,sans-Serif" font-size="10.00">tasks::qp::CoMIncPlaneConstr</text>
</a>
</g>
</g>
<!-- Node18&#45;&gt;Node20 -->
<g id="edge19" class="edge"><title>Node18&#45;&gt;Node20</title>
<path fill="none" stroke="midnightblue" d="M318.385,-114.266C333.961,-111.996 349.939,-109.667 364.762,-107.507"/>
<polygon fill="midnightblue" stroke="midnightblue" points="317.614,-110.841 308.223,-115.746 318.624,-117.768 317.614,-110.841"/>
</g>
<!-- Node21 -->
<g id="node21" class="node"><title>Node21</title>
<g id="a_node21"><a xlink:href="a00034.html" target="_top" xlink:title="tasks::qp::GripperTorque\lConstr">
<polygon fill="white" stroke="black" points="364,-39 364,-69 498,-69 498,-39 364,-39"/>
<text text-anchor="start" x="372" y="-57" font-family="Helvetica,sans-Serif" font-size="10.00">tasks::qp::GripperTorque</text>
<text text-anchor="middle" x="431" y="-46" font-family="Helvetica,sans-Serif" font-size="10.00">Constr</text>
</a>
</g>
</g>
<!-- Node18&#45;&gt;Node21 -->
<g id="edge20" class="edge"><title>Node18&#45;&gt;Node21</title>
<path fill="none" stroke="midnightblue" d="M292.857,-108.471C298.045,-106.45 303.155,-104.288 308,-102 325.168,-93.8917 326.708,-86.8409 344,-79 352.213,-75.2758 361.119,-71.9558 369.983,-69.0481"/>
<polygon fill="midnightblue" stroke="midnightblue" points="291.63,-105.193 283.474,-111.955 294.066,-111.755 291.63,-105.193"/>
</g>
<!-- Node22 -->
<g id="node22" class="node"><title>Node22</title>
<g id="a_node22"><a xlink:href="a00037.html" target="_top" xlink:title="Generalized Image Point Constraint This can be used as either a Field of View constraint or an Occlus...">
<polygon fill="white" stroke="black" points="367,-0.5 367,-19.5 495,-19.5 495,-0.5 367,-0.5"/>
<text text-anchor="middle" x="431" y="-7.5" font-family="Helvetica,sans-Serif" font-size="10.00">tasks::qp::ImageConstr</text>
</a>
</g>
</g>
<!-- Node18&#45;&gt;Node22 -->
<g id="edge21" class="edge"><title>Node18&#45;&gt;Node22</title>
<path fill="none" stroke="midnightblue" d="M301.819,-106.736C303.978,-105.266 306.047,-103.69 308,-102 335.356,-78.3297 315.534,-51.3234 344,-29 350.738,-23.716 358.643,-19.8346 366.883,-16.995"/>
<polygon fill="midnightblue" stroke="midnightblue" points="299.926,-103.789 293.104,-111.895 303.492,-109.812 299.926,-103.789"/>
</g>
</g>
</svg>
