<?xml version="1.0" encoding="UTF-8" standalone="no"?>
<!DOCTYPE svg PUBLIC "-//W3C//DTD SVG 1.1//EN"
 "http://www.w3.org/Graphics/SVG/1.1/DTD/svg11.dtd">
<!-- Generated by graphviz version 2.38.0 (20140413.2041)
 -->
<!-- Title: tasks::qp::GripperTorqueConstr Pages: 1 -->
<svg width="190pt" height="162pt"
 viewBox="0.00 0.00 190.00 162.00" xmlns="http://www.w3.org/2000/svg" xmlns:xlink="http://www.w3.org/1999/xlink">
<g id="graph0" class="graph" transform="scale(1 1) rotate(0) translate(4 158)">
<title>tasks::qp::GripperTorqueConstr</title>
<polygon fill="white" stroke="none" points="-4,4 -4,-158 186,-158 186,4 -4,4"/>
<!-- Node1 -->
<g id="node1" class="node"><title>Node1</title>
<polygon fill="#bfbfbf" stroke="black" points="37,-0.5 37,-30.5 171,-30.5 171,-0.5 37,-0.5"/>
<text text-anchor="start" x="45" y="-18.5" font-family="Helvetica,sans-Serif" font-size="10.00">tasks::qp::GripperTorque</text>
<text text-anchor="middle" x="104" y="-7.5" font-family="Helvetica,sans-Serif" font-size="10.00">Constr</text>
</g>
<!-- Node2 -->
<g id="node2" class="node"><title>Node2</title>
<g id="a_node2"><a xlink:href="a00015.html" target="_top" xlink:title="tasks::qp::ConstraintFunction\l\&lt; Inequality \&gt;">
<polygon fill="white" stroke="black" points="26,-67.5 26,-97.5 182,-97.5 182,-67.5 26,-67.5"/>
<text text-anchor="start" x="34" y="-85.5" font-family="Helvetica,sans-Serif" font-size="10.00">tasks::qp::ConstraintFunction</text>
<text text-anchor="middle" x="104" y="-74.5" font-family="Helvetica,sans-Serif" font-size="10.00">&lt; Inequality &gt;</text>
</a>
</g>
</g>
<!-- Node2&#45;&gt;Node1 -->
<g id="edge1" class="edge"><title>Node2&#45;&gt;Node1</title>
<path fill="none" stroke="midnightblue" d="M104,-57.1081C104,-48.1539 104,-38.3227 104,-30.5765"/>
<polygon fill="midnightblue" stroke="midnightblue" points="100.5,-57.3959 104,-67.396 107.5,-57.396 100.5,-57.3959"/>
</g>
<!-- Node3 -->
<g id="node3" class="node"><title>Node3</title>
<g id="a_node3"><a xlink:href="a00014.html" target="_top" xlink:title="tasks::qp::Constraint">
<polygon fill="white" stroke="black" points="0,-134.5 0,-153.5 116,-153.5 116,-134.5 0,-134.5"/>
<text text-anchor="middle" x="58" y="-141.5" font-family="Helvetica,sans-Serif" font-size="10.00">tasks::qp::Constraint</text>
</a>
</g>
</g>
<!-- Node3&#45;&gt;Node2 -->
<g id="edge2" class="edge"><title>Node3&#45;&gt;Node2</title>
<path fill="none" stroke="midnightblue" d="M70.7334,-126.53C77.7782,-117.417 86.4399,-106.214 93.1587,-97.523"/>
<polygon fill="midnightblue" stroke="midnightblue" points="67.9381,-124.423 64.5907,-134.475 73.4761,-128.704 67.9381,-124.423"/>
</g>
<!-- Node4 -->
<g id="node4" class="node"><title>Node4</title>
<polygon fill="white" stroke="#bfbfbf" points="134,-134.5 134,-153.5 168,-153.5 168,-134.5 134,-134.5"/>
<text text-anchor="middle" x="151" y="-141.5" font-family="Helvetica,sans-Serif" font-size="10.00">Fun</text>
</g>
<!-- Node4&#45;&gt;Node2 -->
<g id="edge3" class="edge"><title>Node4&#45;&gt;Node2</title>
<path fill="none" stroke="midnightblue" d="M137.99,-126.53C130.792,-117.417 121.942,-106.214 115.077,-97.523"/>
<polygon fill="midnightblue" stroke="midnightblue" points="135.321,-128.797 144.266,-134.475 140.814,-124.458 135.321,-128.797"/>
</g>
</g>
</svg>
