<?xml version="1.0" encoding="UTF-8" standalone="no"?>
<!DOCTYPE svg PUBLIC "-//W3C//DTD SVG 1.1//EN"
 "http://www.w3.org/Graphics/SVG/1.1/DTD/svg11.dtd">
<!-- Generated by graphviz version 2.38.0 (20140413.2041)
 -->
<!-- Title: tasks::qp::GenQPSolver Pages: 1 -->
<svg width="288pt" height="84pt"
 viewBox="0.00 0.00 288.00 84.00" xmlns="http://www.w3.org/2000/svg" xmlns:xlink="http://www.w3.org/1999/xlink">
<g id="graph0" class="graph" transform="scale(1 1) rotate(0) translate(4 80)">
<title>tasks::qp::GenQPSolver</title>
<polygon fill="white" stroke="none" points="-4,4 -4,-80 284,-80 284,4 -4,4"/>
<!-- Node1 -->
<g id="node1" class="node"><title>Node1</title>
<polygon fill="#bfbfbf" stroke="black" points="81,-56.5 81,-75.5 204,-75.5 204,-56.5 81,-56.5"/>
<text text-anchor="middle" x="142.5" y="-63.5" font-family="Helvetica,sans-Serif" font-size="10.00">tasks::qp::GenQPSolver</text>
</g>
<!-- Node2 -->
<g id="node2" class="node"><title>Node2</title>
<g id="a_node2"><a xlink:href="a00049.html" target="_top" xlink:title="GenQPSolver interface implementation with the LSSOL QP solver. ">
<polygon fill="white" stroke="black" points="0,-0.5 0,-19.5 137,-19.5 137,-0.5 0,-0.5"/>
<text text-anchor="middle" x="68.5" y="-7.5" font-family="Helvetica,sans-Serif" font-size="10.00">tasks::qp::LSSOLQPSolver</text>
</a>
</g>
</g>
<!-- Node1&#45;&gt;Node2 -->
<g id="edge1" class="edge"><title>Node1&#45;&gt;Node2</title>
<path fill="none" stroke="midnightblue" d="M122.466,-50.3804C109.091,-40.6204 91.9412,-28.1057 80.6057,-19.8339"/>
<polygon fill="midnightblue" stroke="midnightblue" points="120.47,-53.2565 130.611,-56.324 124.596,-47.602 120.47,-53.2565"/>
</g>
<!-- Node3 -->
<g id="node3" class="node"><title>Node3</title>
<g id="a_node3"><a xlink:href="a00074.html" target="_top" xlink:title="GenQPSolver interface implementation with the QLD QP solver. ">
<polygon fill="white" stroke="black" points="155,-0.5 155,-19.5 280,-19.5 280,-0.5 155,-0.5"/>
<text text-anchor="middle" x="217.5" y="-7.5" font-family="Helvetica,sans-Serif" font-size="10.00">tasks::qp::QLDQPSolver</text>
</a>
</g>
</g>
<!-- Node1&#45;&gt;Node3 -->
<g id="edge2" class="edge"><title>Node1&#45;&gt;Node3</title>
<path fill="none" stroke="midnightblue" d="M162.805,-50.3804C176.361,-40.6204 193.742,-28.1057 205.231,-19.8339"/>
<polygon fill="midnightblue" stroke="midnightblue" points="160.62,-47.6405 154.55,-56.324 164.71,-53.3213 160.62,-47.6405"/>
</g>
</g>
</svg>
