<?xml version="1.0" encoding="UTF-8" standalone="no"?>
<!DOCTYPE svg PUBLIC "-//W3C//DTD SVG 1.1//EN"
 "http://www.w3.org/Graphics/SVG/1.1/DTD/svg11.dtd">
<!-- Generated by graphviz version 2.38.0 (20140413.2041)
 -->
<!-- Title: tasks::qp::ContactConstr::ContactData Pages: 1 -->
<svg width="249pt" height="295pt"
 viewBox="0.00 0.00 248.50 295.00" xmlns="http://www.w3.org/2000/svg" xmlns:xlink="http://www.w3.org/1999/xlink">
<g id="graph0" class="graph" transform="scale(1 1) rotate(0) translate(4 291)">
<title>tasks::qp::ContactConstr::ContactData</title>
<polygon fill="white" stroke="none" points="-4,4 -4,-291 244.5,-291 244.5,4 -4,4"/>
<!-- Node1 -->
<g id="node1" class="node"><title>Node1</title>
<polygon fill="#bfbfbf" stroke="black" points="57.5,-0.5 57.5,-30.5 184.5,-30.5 184.5,-0.5 57.5,-0.5"/>
<text text-anchor="start" x="65.5" y="-18.5" font-family="Helvetica,sans-Serif" font-size="10.00">tasks::qp::ContactConstr</text>
<text text-anchor="middle" x="121" y="-7.5" font-family="Helvetica,sans-Serif" font-size="10.00">::ContactData</text>
</g>
<!-- Node2 -->
<g id="node2" class="node"><title>Node2</title>
<g id="a_node2"><a xlink:href="a00022.html" target="_top" xlink:title="Unique identifier for a contact. ">
<polygon fill="white" stroke="black" points="0,-89.5 0,-108.5 106,-108.5 106,-89.5 0,-89.5"/>
<text text-anchor="middle" x="53" y="-96.5" font-family="Helvetica,sans-Serif" font-size="10.00">tasks::qp::ContactId</text>
</a>
</g>
</g>
<!-- Node2&#45;&gt;Node1 -->
<g id="edge1" class="edge"><title>Node2&#45;&gt;Node1</title>
<path fill="none" stroke="#9a32cd" stroke-dasharray="5,2" d="M66.8776,-81.3673C79.349,-66.4199 97.4628,-44.71 109.238,-30.5974"/>
<polygon fill="#9a32cd" stroke="#9a32cd" points="63.9963,-79.3574 60.2772,-89.2781 69.3711,-83.842 63.9963,-79.3574"/>
<text text-anchor="middle" x="116" y="-52" font-family="Helvetica,sans-Serif" font-size="10.00"> contactId</text>
</g>
<!-- Node3 -->
<g id="node3" class="node"><title>Node3</title>
<g id="a_node3"><a xlink:title="STL class. ">
<polygon fill="white" stroke="#bfbfbf" points="23,-184 23,-203 83,-203 83,-184 23,-184"/>
<text text-anchor="middle" x="53" y="-191" font-family="Helvetica,sans-Serif" font-size="10.00">std::string</text>
</a>
</g>
</g>
<!-- Node3&#45;&gt;Node2 -->
<g id="edge2" class="edge"><title>Node3&#45;&gt;Node2</title>
<path fill="none" stroke="#9a32cd" stroke-dasharray="5,2" d="M53,-173.944C53,-154.038 53,-123.3 53,-108.516"/>
<polygon fill="#9a32cd" stroke="#9a32cd" points="49.5001,-173.964 53,-183.964 56.5001,-173.964 49.5001,-173.964"/>
<text text-anchor="middle" x="83.5" y="-152" font-family="Helvetica,sans-Serif" font-size="10.00"> r2BodyName</text>
<text text-anchor="middle" x="83.5" y="-141" font-family="Helvetica,sans-Serif" font-size="10.00">r1BodyName</text>
</g>
<!-- Node4 -->
<g id="node4" class="node"><title>Node4</title>
<g id="a_node4"><a xlink:title="STL class. ">
<polygon fill="white" stroke="#bfbfbf" points="5.5,-256.5 5.5,-286.5 100.5,-286.5 100.5,-256.5 5.5,-256.5"/>
<text text-anchor="start" x="13.5" y="-274.5" font-family="Helvetica,sans-Serif" font-size="10.00">std::basic_string&lt;</text>
<text text-anchor="middle" x="53" y="-263.5" font-family="Helvetica,sans-Serif" font-size="10.00"> char &gt;</text>
</a>
</g>
</g>
<!-- Node4&#45;&gt;Node3 -->
<g id="edge3" class="edge"><title>Node4&#45;&gt;Node3</title>
<path fill="none" stroke="midnightblue" d="M53,-246.165C53,-231.396 53,-213.448 53,-203.064"/>
<polygon fill="midnightblue" stroke="midnightblue" points="49.5001,-246.205 53,-256.205 56.5001,-246.205 49.5001,-246.205"/>
</g>
<!-- Node5 -->
<g id="node5" class="node"><title>Node5</title>
<polygon fill="white" stroke="#bfbfbf" points="123.5,-78.5 123.5,-119.5 230.5,-119.5 230.5,-78.5 123.5,-78.5"/>
<text text-anchor="start" x="131.5" y="-107.5" font-family="Helvetica,sans-Serif" font-size="10.00">std::vector&lt; tasks</text>
<text text-anchor="start" x="131.5" y="-96.5" font-family="Helvetica,sans-Serif" font-size="10.00">::qp::ContactConstr</text>
<text text-anchor="middle" x="177" y="-85.5" font-family="Helvetica,sans-Serif" font-size="10.00">::ContactSideData &gt;</text>
</g>
<!-- Node5&#45;&gt;Node1 -->
<g id="edge4" class="edge"><title>Node5&#45;&gt;Node1</title>
<path fill="none" stroke="#9a32cd" stroke-dasharray="5,2" d="M157.712,-69.9284C148.62,-56.6968 138.167,-41.4845 130.746,-30.6846"/>
<polygon fill="#9a32cd" stroke="#9a32cd" points="154.896,-72.0113 163.444,-78.2711 160.665,-68.0471 154.896,-72.0113"/>
<text text-anchor="middle" x="171.5" y="-52" font-family="Helvetica,sans-Serif" font-size="10.00"> contacts</text>
</g>
<!-- Node6 -->
<g id="node6" class="node"><title>Node6</title>
<g id="a_node6"><a xlink:href="a00024.html" target="_top" xlink:title="tasks::qp::ContactConstr\l::ContactSideData">
<polygon fill="white" stroke="black" points="113.5,-178.5 113.5,-208.5 240.5,-208.5 240.5,-178.5 113.5,-178.5"/>
<text text-anchor="start" x="121.5" y="-196.5" font-family="Helvetica,sans-Serif" font-size="10.00">tasks::qp::ContactConstr</text>
<text text-anchor="middle" x="177" y="-185.5" font-family="Helvetica,sans-Serif" font-size="10.00">::ContactSideData</text>
</a>
</g>
</g>
<!-- Node6&#45;&gt;Node5 -->
<g id="edge5" class="edge"><title>Node6&#45;&gt;Node5</title>
<path fill="none" stroke="#9a32cd" stroke-dasharray="5,2" d="M177,-168.282C177,-153.138 177,-133.882 177,-119.682"/>
<polygon fill="#9a32cd" stroke="#9a32cd" points="173.5,-168.451 177,-178.451 180.5,-168.451 173.5,-168.451"/>
<text text-anchor="middle" x="198.5" y="-146.5" font-family="Helvetica,sans-Serif" font-size="10.00"> elements</text>
</g>
<!-- Node7 -->
<g id="node7" class="node"><title>Node7</title>
<g id="a_node7"><a doxygen="/usr/local/share/doc/RBDyn/doxygen-html/RBDyn.doxytag:/usr/local/share/doc/RBDyn/doxygen-html/" xlink:href="/usr/local/share/doc/RBDyn/doxygen-html/a00013.html" target="_top" xlink:title="rbd::Jacobian">
<polygon fill="white" stroke="black" points="139.5,-262 139.5,-281 214.5,-281 214.5,-262 139.5,-262"/>
<text text-anchor="middle" x="177" y="-269" font-family="Helvetica,sans-Serif" font-size="10.00">rbd::Jacobian</text>
</a>
</g>
</g>
<!-- Node7&#45;&gt;Node6 -->
<g id="edge6" class="edge"><title>Node7&#45;&gt;Node6</title>
<path fill="none" stroke="#9a32cd" stroke-dasharray="5,2" d="M177,-251.782C177,-238.404 177,-220.688 177,-208.52"/>
<polygon fill="#9a32cd" stroke="#9a32cd" points="173.5,-251.782 177,-261.782 180.5,-251.782 173.5,-251.782"/>
<text text-anchor="middle" x="185" y="-230" font-family="Helvetica,sans-Serif" font-size="10.00"> jac</text>
</g>
</g>
</svg>
