<?xml version="1.0" encoding="UTF-8" standalone="no"?>
<!DOCTYPE svg PUBLIC "-//W3C//DTD SVG 1.1//EN"
 "http://www.w3.org/Graphics/SVG/1.1/DTD/svg11.dtd">
<!-- Generated by graphviz version 2.38.0 (20140413.2041)
 -->
<!-- Title: tasks::qp::ContactConstrCommon Pages: 1 -->
<svg width="806pt" height="99pt"
 viewBox="0.00 0.00 806.00 98.50" xmlns="http://www.w3.org/2000/svg" xmlns:xlink="http://www.w3.org/1999/xlink">
<g id="graph0" class="graph" transform="scale(1 1) rotate(0) translate(4 94.5)">
<title>tasks::qp::ContactConstrCommon</title>
<polygon fill="white" stroke="none" points="-4,4 -4,-94.5 802,-94.5 802,4 -4,4"/>
<!-- Node1 -->
<g id="node1" class="node"><title>Node1</title>
<polygon fill="#bfbfbf" stroke="black" points="671,-35 671,-65 798,-65 798,-35 671,-35"/>
<text text-anchor="start" x="679" y="-53" font-family="Helvetica,sans-Serif" font-size="10.00">tasks::qp::ContactConstr</text>
<text text-anchor="middle" x="734.5" y="-42" font-family="Helvetica,sans-Serif" font-size="10.00">Common</text>
</g>
<!-- Node2 -->
<g id="node2" class="node"><title>Node2</title>
<polygon fill="white" stroke="#bfbfbf" points="458.5,-60 458.5,-90 557.5,-90 557.5,-60 458.5,-60"/>
<text text-anchor="start" x="466.5" y="-78" font-family="Helvetica,sans-Serif" font-size="10.00">std::set&lt; tasks::qp</text>
<text text-anchor="middle" x="508" y="-67" font-family="Helvetica,sans-Serif" font-size="10.00">::ContactId &gt;</text>
</g>
<!-- Node2&#45;&gt;Node1 -->
<g id="edge1" class="edge"><title>Node2&#45;&gt;Node1</title>
<path fill="none" stroke="#9a32cd" stroke-dasharray="5,2" d="M567.72,-68.461C599.401,-64.9331 638.51,-60.578 670.785,-56.9839"/>
<polygon fill="#9a32cd" stroke="#9a32cd" points="567.264,-64.99 557.713,-69.5754 568.039,-71.947 567.264,-64.99"/>
<text text-anchor="middle" x="615.5" y="-69" font-family="Helvetica,sans-Serif" font-size="10.00"> virtualContacts_</text>
</g>
<!-- Node3 -->
<g id="node3" class="node"><title>Node3</title>
<g id="a_node3"><a xlink:href="a00022.html" target="_top" xlink:title="Unique identifier for a contact. ">
<polygon fill="white" stroke="black" points="289,-33.5 289,-52.5 395,-52.5 395,-33.5 289,-33.5"/>
<text text-anchor="middle" x="342" y="-40.5" font-family="Helvetica,sans-Serif" font-size="10.00">tasks::qp::ContactId</text>
</a>
</g>
</g>
<!-- Node3&#45;&gt;Node2 -->
<g id="edge2" class="edge"><title>Node3&#45;&gt;Node2</title>
<path fill="none" stroke="#9a32cd" stroke-dasharray="5,2" d="M401.605,-54.435C420.222,-58.0678 440.596,-62.0432 458.427,-65.5222"/>
<polygon fill="#9a32cd" stroke="#9a32cd" points="402.247,-50.9944 391.761,-52.5144 400.906,-57.8648 402.247,-50.9944"/>
<text text-anchor="middle" x="425.5" y="-63" font-family="Helvetica,sans-Serif" font-size="10.00"> keys</text>
</g>
<!-- Node6 -->
<g id="node6" class="node"><title>Node6</title>
<polygon fill="white" stroke="#bfbfbf" points="456,-0.5 456,-41.5 560,-41.5 560,-0.5 456,-0.5"/>
<text text-anchor="start" x="464" y="-29.5" font-family="Helvetica,sans-Serif" font-size="10.00">std::map&lt; tasks::qp</text>
<text text-anchor="start" x="464" y="-18.5" font-family="Helvetica,sans-Serif" font-size="10.00">::ContactId, Eigen::</text>
<text text-anchor="middle" x="508" y="-7.5" font-family="Helvetica,sans-Serif" font-size="10.00">MatrixXd &gt;</text>
</g>
<!-- Node3&#45;&gt;Node6 -->
<g id="edge6" class="edge"><title>Node3&#45;&gt;Node6</title>
<path fill="none" stroke="#9a32cd" stroke-dasharray="5,2" d="M405.547,-34.6095C422.217,-32.3733 440.026,-29.9843 455.995,-27.8421"/>
<polygon fill="#9a32cd" stroke="#9a32cd" points="404.787,-31.18 395.342,-35.9786 405.718,-38.1179 404.787,-31.18"/>
<text text-anchor="middle" x="425.5" y="-37" font-family="Helvetica,sans-Serif" font-size="10.00"> keys</text>
</g>
<!-- Node4 -->
<g id="node4" class="node"><title>Node4</title>
<g id="a_node4"><a xlink:title="STL class. ">
<polygon fill="white" stroke="#bfbfbf" points="132,-33.5 132,-52.5 192,-52.5 192,-33.5 132,-33.5"/>
<text text-anchor="middle" x="162" y="-40.5" font-family="Helvetica,sans-Serif" font-size="10.00">std::string</text>
</a>
</g>
</g>
<!-- Node4&#45;&gt;Node3 -->
<g id="edge3" class="edge"><title>Node4&#45;&gt;Node3</title>
<path fill="none" stroke="#9a32cd" stroke-dasharray="5,2" d="M202.423,-43C227.87,-43 261.257,-43 288.883,-43"/>
<polygon fill="#9a32cd" stroke="#9a32cd" points="202.393,-39.5001 192.393,-43 202.393,-46.5001 202.393,-39.5001"/>
<text text-anchor="middle" x="240.5" y="-57" font-family="Helvetica,sans-Serif" font-size="10.00"> r2BodyName</text>
<text text-anchor="middle" x="240.5" y="-46" font-family="Helvetica,sans-Serif" font-size="10.00">r1BodyName</text>
</g>
<!-- Node5 -->
<g id="node5" class="node"><title>Node5</title>
<g id="a_node5"><a xlink:title="STL class. ">
<polygon fill="white" stroke="#bfbfbf" points="0,-28 0,-58 95,-58 95,-28 0,-28"/>
<text text-anchor="start" x="8" y="-46" font-family="Helvetica,sans-Serif" font-size="10.00">std::basic_string&lt;</text>
<text text-anchor="middle" x="47.5" y="-35" font-family="Helvetica,sans-Serif" font-size="10.00"> char &gt;</text>
</a>
</g>
</g>
<!-- Node5&#45;&gt;Node4 -->
<g id="edge4" class="edge"><title>Node5&#45;&gt;Node4</title>
<path fill="none" stroke="midnightblue" d="M105.526,-43C114.678,-43 123.803,-43 131.931,-43"/>
<polygon fill="midnightblue" stroke="midnightblue" points="105.233,-39.5001 95.2328,-43 105.233,-46.5001 105.233,-39.5001"/>
</g>
<!-- Node6&#45;&gt;Node1 -->
<g id="edge5" class="edge"><title>Node6&#45;&gt;Node1</title>
<path fill="none" stroke="#9a32cd" stroke-dasharray="5,2" d="M570.53,-28.9482C601.726,-32.978 639.539,-37.8625 670.886,-41.9118"/>
<polygon fill="#9a32cd" stroke="#9a32cd" points="570.589,-25.4269 560.223,-27.6168 569.693,-32.3692 570.589,-25.4269"/>
<text text-anchor="middle" x="615.5" y="-42" font-family="Helvetica,sans-Serif" font-size="10.00"> dofContacts_</text>
</g>
</g>
</svg>
