<?xml version="1.0" encoding="UTF-8" standalone="no"?>
<!DOCTYPE svg PUBLIC "-//W3C//DTD SVG 1.1//EN"
 "http://www.w3.org/Graphics/SVG/1.1/DTD/svg11.dtd">
<!-- Generated by graphviz version 2.38.0 (20140413.2041)
 -->
<!-- Title: tasks::qp::MotionSpringConstr Pages: 1 -->
<svg width="1269pt" height="175pt"
 viewBox="0.00 0.00 1269.00 175.00" xmlns="http://www.w3.org/2000/svg" xmlns:xlink="http://www.w3.org/1999/xlink">
<g id="graph0" class="graph" transform="scale(1 1) rotate(0) translate(4 171)">
<title>tasks::qp::MotionSpringConstr</title>
<polygon fill="white" stroke="none" points="-4,4 -4,-171 1265,-171 1265,4 -4,4"/>
<!-- Node1 -->
<g id="node1" class="node"><title>Node1</title>
<polygon fill="#bfbfbf" stroke="black" points="1112,-38.5 1112,-57.5 1261,-57.5 1261,-38.5 1112,-38.5"/>
<text text-anchor="middle" x="1186.5" y="-45.5" font-family="Helvetica,sans-Serif" font-size="10.00">tasks::qp::MotionSpringConstr</text>
</g>
<!-- Node2 -->
<g id="node2" class="node"><title>Node2</title>
<g id="a_node2"><a xlink:href="a00052.html" target="_top" xlink:title="tasks::qp::MotionConstr">
<polygon fill="white" stroke="black" points="912.5,-60.5 912.5,-79.5 1034.5,-79.5 1034.5,-60.5 912.5,-60.5"/>
<text text-anchor="middle" x="973.5" y="-67.5" font-family="Helvetica,sans-Serif" font-size="10.00">tasks::qp::MotionConstr</text>
</a>
</g>
</g>
<!-- Node2&#45;&gt;Node1 -->
<g id="edge1" class="edge"><title>Node2&#45;&gt;Node1</title>
<path fill="none" stroke="midnightblue" d="M1044.72,-62.6781C1066.25,-60.4341 1089.98,-57.9593 1111.73,-55.6915"/>
<polygon fill="midnightblue" stroke="midnightblue" points="1044.26,-59.2069 1034.68,-63.7251 1044.99,-66.1691 1044.26,-59.2069"/>
</g>
<!-- Node3 -->
<g id="node3" class="node"><title>Node3</title>
<g id="a_node3"><a xlink:href="a00053.html" target="_top" xlink:title="tasks::qp::MotionConstrCommon">
<polygon fill="white" stroke="black" points="671,-60.5 671,-79.5 832,-79.5 832,-60.5 671,-60.5"/>
<text text-anchor="middle" x="751.5" y="-67.5" font-family="Helvetica,sans-Serif" font-size="10.00">tasks::qp::MotionConstrCommon</text>
</a>
</g>
</g>
<!-- Node3&#45;&gt;Node2 -->
<g id="edge2" class="edge"><title>Node3&#45;&gt;Node2</title>
<path fill="none" stroke="midnightblue" d="M842.256,-70C865.85,-70 890.731,-70 912.353,-70"/>
<polygon fill="midnightblue" stroke="midnightblue" points="842.236,-66.5001 832.236,-70 842.236,-73.5001 842.236,-66.5001"/>
</g>
<!-- Node4 -->
<g id="node4" class="node"><title>Node4</title>
<g id="a_node4"><a xlink:href="a00015.html" target="_top" xlink:title="tasks::qp::ConstraintFunction\l\&lt; GenInequality \&gt;">
<polygon fill="white" stroke="black" points="461,-109 461,-139 607,-139 607,-109 461,-109"/>
<text text-anchor="start" x="469" y="-127" font-family="Helvetica,sans-Serif" font-size="10.00">tasks::qp::ConstraintFunction</text>
<text text-anchor="middle" x="534" y="-116" font-family="Helvetica,sans-Serif" font-size="10.00">&lt; GenInequality &gt;</text>
</a>
</g>
</g>
<!-- Node4&#45;&gt;Node3 -->
<g id="edge3" class="edge"><title>Node4&#45;&gt;Node3</title>
<path fill="none" stroke="midnightblue" d="M604.925,-106.478C640.666,-97.5223 682.766,-86.9729 712.473,-79.5288"/>
<polygon fill="midnightblue" stroke="midnightblue" points="603.878,-103.132 595.029,-108.958 605.58,-109.922 603.878,-103.132"/>
</g>
<!-- Node5 -->
<g id="node5" class="node"><title>Node5</title>
<g id="a_node5"><a xlink:href="a00014.html" target="_top" xlink:title="tasks::qp::Constraint">
<polygon fill="white" stroke="black" points="247.5,-147.5 247.5,-166.5 355.5,-166.5 355.5,-147.5 247.5,-147.5"/>
<text text-anchor="middle" x="301.5" y="-154.5" font-family="Helvetica,sans-Serif" font-size="10.00">tasks::qp::Constraint</text>
</a>
</g>
</g>
<!-- Node5&#45;&gt;Node4 -->
<g id="edge4" class="edge"><title>Node5&#45;&gt;Node4</title>
<path fill="none" stroke="midnightblue" d="M365.829,-147.933C395.27,-143.718 430.426,-138.685 460.885,-134.324"/>
<polygon fill="midnightblue" stroke="midnightblue" points="365.074,-144.506 355.671,-149.388 366.066,-151.435 365.074,-144.506"/>
</g>
<!-- Node6 -->
<g id="node6" class="node"><title>Node6</title>
<polygon fill="white" stroke="#bfbfbf" points="285,-109.5 285,-128.5 318,-128.5 318,-109.5 285,-109.5"/>
<text text-anchor="middle" x="301.5" y="-116.5" font-family="Helvetica,sans-Serif" font-size="10.00">Fun</text>
</g>
<!-- Node6&#45;&gt;Node4 -->
<g id="edge5" class="edge"><title>Node6&#45;&gt;Node4</title>
<path fill="none" stroke="midnightblue" d="M328.602,-119.566C360.525,-120.259 415.871,-121.459 460.925,-122.437"/>
<polygon fill="midnightblue" stroke="midnightblue" points="328.417,-116.061 318.343,-119.344 328.265,-123.06 328.417,-116.061"/>
</g>
<!-- Node7 -->
<g id="node7" class="node"><title>Node7</title>
<polygon fill="white" stroke="#bfbfbf" points="465.5,-49.5 465.5,-90.5 602.5,-90.5 602.5,-49.5 465.5,-49.5"/>
<text text-anchor="start" x="473.5" y="-78.5" font-family="Helvetica,sans-Serif" font-size="10.00">std::vector&lt; tasks</text>
<text text-anchor="start" x="473.5" y="-67.5" font-family="Helvetica,sans-Serif" font-size="10.00">::qp::MotionConstrCommon</text>
<text text-anchor="middle" x="534" y="-56.5" font-family="Helvetica,sans-Serif" font-size="10.00">::ContactData &gt;</text>
</g>
<!-- Node7&#45;&gt;Node3 -->
<g id="edge6" class="edge"><title>Node7&#45;&gt;Node3</title>
<path fill="none" stroke="#9a32cd" stroke-dasharray="5,2" d="M612.627,-70C631.503,-70 651.72,-70 670.695,-70"/>
<polygon fill="#9a32cd" stroke="#9a32cd" points="612.594,-66.5001 602.594,-70 612.594,-73.5001 612.594,-66.5001"/>
<text text-anchor="middle" x="639" y="-73" font-family="Helvetica,sans-Serif" font-size="10.00"> cont_</text>
</g>
<!-- Node8 -->
<g id="node8" class="node"><title>Node8</title>
<g id="a_node8"><a xlink:href="a00020.html" target="_top" xlink:title="tasks::qp::MotionConstrCommon\l::ContactData">
<polygon fill="white" stroke="black" points="221,-55 221,-85 382,-85 382,-55 221,-55"/>
<text text-anchor="start" x="229" y="-73" font-family="Helvetica,sans-Serif" font-size="10.00">tasks::qp::MotionConstrCommon</text>
<text text-anchor="middle" x="301.5" y="-62" font-family="Helvetica,sans-Serif" font-size="10.00">::ContactData</text>
</a>
</g>
</g>
<!-- Node8&#45;&gt;Node7 -->
<g id="edge7" class="edge"><title>Node8&#45;&gt;Node7</title>
<path fill="none" stroke="#9a32cd" stroke-dasharray="5,2" d="M392.421,-70C416.646,-70 442.442,-70 465.235,-70"/>
<polygon fill="#9a32cd" stroke="#9a32cd" points="392.148,-66.5001 382.148,-70 392.148,-73.5001 392.148,-66.5001"/>
<text text-anchor="middle" x="421.5" y="-73" font-family="Helvetica,sans-Serif" font-size="10.00"> elements</text>
</g>
<!-- Node9 -->
<g id="node9" class="node"><title>Node9</title>
<polygon fill="white" stroke="#bfbfbf" points="0,-98.5 0,-139.5 107,-139.5 107,-98.5 0,-98.5"/>
<text text-anchor="start" x="8" y="-127.5" font-family="Helvetica,sans-Serif" font-size="10.00">std::vector&lt; Eigen</text>
<text text-anchor="start" x="8" y="-116.5" font-family="Helvetica,sans-Serif" font-size="10.00">::Matrix&lt; double, 3,</text>
<text text-anchor="middle" x="53.5" y="-105.5" font-family="Helvetica,sans-Serif" font-size="10.00"> Eigen::Dynamic &gt; &gt;</text>
</g>
<!-- Node9&#45;&gt;Node8 -->
<g id="edge8" class="edge"><title>Node9&#45;&gt;Node8</title>
<path fill="none" stroke="#9a32cd" stroke-dasharray="5,2" d="M117.196,-106.512C150.004,-99.9769 190.418,-91.9269 224.943,-85.05"/>
<polygon fill="#9a32cd" stroke="#9a32cd" points="116.397,-103.102 107.273,-108.488 117.764,-109.967 116.397,-103.102"/>
<text text-anchor="middle" x="164" y="-108" font-family="Helvetica,sans-Serif" font-size="10.00"> minusGenerators</text>
</g>
<!-- Node10 -->
<g id="node10" class="node"><title>Node10</title>
<g id="a_node10"><a doxygen="/usr/local/share/doc/RBDyn/doxygen-html/RBDyn.doxytag:/usr/local/share/doc/RBDyn/doxygen-html/" xlink:href="/usr/local/share/doc/RBDyn/doxygen-html/a00013.html" target="_top" xlink:title="rbd::Jacobian">
<polygon fill="white" stroke="black" points="16,-60.5 16,-79.5 91,-79.5 91,-60.5 16,-60.5"/>
<text text-anchor="middle" x="53.5" y="-67.5" font-family="Helvetica,sans-Serif" font-size="10.00">rbd::Jacobian</text>
</a>
</g>
</g>
<!-- Node10&#45;&gt;Node8 -->
<g id="edge9" class="edge"><title>Node10&#45;&gt;Node8</title>
<path fill="none" stroke="#9a32cd" stroke-dasharray="5,2" d="M101.114,-70C134.885,-70 181.373,-70 220.966,-70"/>
<polygon fill="#9a32cd" stroke="#9a32cd" points="101.063,-66.5001 91.0631,-70 101.063,-73.5001 101.063,-66.5001"/>
<text text-anchor="middle" x="164" y="-73" font-family="Helvetica,sans-Serif" font-size="10.00"> jac</text>
</g>
<!-- Node11 -->
<g id="node11" class="node"><title>Node11</title>
<polygon fill="white" stroke="#bfbfbf" points="5,-11 5,-41 102,-41 102,-11 5,-11"/>
<text text-anchor="start" x="13" y="-29" font-family="Helvetica,sans-Serif" font-size="10.00">std::vector&lt; Eigen</text>
<text text-anchor="middle" x="53.5" y="-18" font-family="Helvetica,sans-Serif" font-size="10.00">::Vector3d &gt;</text>
</g>
<!-- Node11&#45;&gt;Node8 -->
<g id="edge10" class="edge"><title>Node11&#45;&gt;Node8</title>
<path fill="none" stroke="#9a32cd" stroke-dasharray="5,2" d="M112.42,-36.3597C144.797,-42.1508 185.624,-49.4531 220.959,-55.7732"/>
<polygon fill="#9a32cd" stroke="#9a32cd" points="112.683,-32.8512 102.223,-34.5358 111.45,-39.7419 112.683,-32.8512"/>
<text text-anchor="middle" x="164" y="-55" font-family="Helvetica,sans-Serif" font-size="10.00"> points</text>
</g>
<!-- Node12 -->
<g id="node12" class="node"><title>Node12</title>
<g id="a_node12"><a doxygen="/usr/local/share/doc/RBDyn/doxygen-html/RBDyn.doxytag:/usr/local/share/doc/RBDyn/doxygen-html/" xlink:href="/usr/local/share/doc/RBDyn/doxygen-html/a00008.html" target="_top" xlink:title="rbd::ForwardDynamics">
<polygon fill="white" stroke="black" points="476,-11.5 476,-30.5 592,-30.5 592,-11.5 476,-11.5"/>
<text text-anchor="middle" x="534" y="-18.5" font-family="Helvetica,sans-Serif" font-size="10.00">rbd::ForwardDynamics</text>
</a>
</g>
</g>
<!-- Node12&#45;&gt;Node3 -->
<g id="edge11" class="edge"><title>Node12&#45;&gt;Node3</title>
<path fill="none" stroke="#9a32cd" stroke-dasharray="5,2" d="M586.959,-32.8143C624.188,-41.2794 673.689,-52.5348 708.443,-60.4371"/>
<polygon fill="#9a32cd" stroke="#9a32cd" points="587.333,-29.3102 576.806,-30.5058 585.781,-36.1359 587.333,-29.3102"/>
<text text-anchor="middle" x="639" y="-50" font-family="Helvetica,sans-Serif" font-size="10.00"> fd_</text>
</g>
<!-- Node13 -->
<g id="node13" class="node"><title>Node13</title>
<polygon fill="white" stroke="#bfbfbf" points="911,-0.5 911,-41.5 1036,-41.5 1036,-0.5 911,-0.5"/>
<text text-anchor="start" x="919" y="-29.5" font-family="Helvetica,sans-Serif" font-size="10.00">std::vector&lt; tasks</text>
<text text-anchor="start" x="919" y="-18.5" font-family="Helvetica,sans-Serif" font-size="10.00">::qp::MotionSpringConstr</text>
<text text-anchor="middle" x="973.5" y="-7.5" font-family="Helvetica,sans-Serif" font-size="10.00">::SpringJointData &gt;</text>
</g>
<!-- Node13&#45;&gt;Node1 -->
<g id="edge12" class="edge"><title>Node13&#45;&gt;Node1</title>
<path fill="none" stroke="#9a32cd" stroke-dasharray="5,2" d="M1046.3,-30.1877C1067.45,-32.8941 1090.62,-35.8589 1111.88,-38.5797"/>
<polygon fill="#9a32cd" stroke="#9a32cd" points="1046.46,-26.6798 1036.1,-28.8821 1045.57,-33.6231 1046.46,-26.6798"/>
<text text-anchor="middle" x="1074" y="-40" font-family="Helvetica,sans-Serif" font-size="10.00"> springs_</text>
</g>
<!-- Node14 -->
<g id="node14" class="node"><title>Node14</title>
<g id="a_node14"><a xlink:href="a00083.html" target="_top" xlink:title="tasks::qp::MotionSpringConstr\l::SpringJointData">
<polygon fill="white" stroke="black" points="677,-6 677,-36 826,-36 826,-6 677,-6"/>
<text text-anchor="start" x="685" y="-24" font-family="Helvetica,sans-Serif" font-size="10.00">tasks::qp::MotionSpringConstr</text>
<text text-anchor="middle" x="751.5" y="-13" font-family="Helvetica,sans-Serif" font-size="10.00">::SpringJointData</text>
</a>
</g>
</g>
<!-- Node14&#45;&gt;Node13 -->
<g id="edge13" class="edge"><title>Node14&#45;&gt;Node13</title>
<path fill="none" stroke="#9a32cd" stroke-dasharray="5,2" d="M836.182,-21C860.96,-21 887.631,-21 910.754,-21"/>
<polygon fill="#9a32cd" stroke="#9a32cd" points="836.063,-17.5001 826.063,-21 836.063,-24.5001 836.063,-17.5001"/>
<text text-anchor="middle" x="871.5" y="-24" font-family="Helvetica,sans-Serif" font-size="10.00"> elements</text>
</g>
</g>
</svg>
