<?xml version="1.0" encoding="UTF-8" standalone="no"?>
<!DOCTYPE svg PUBLIC "-//W3C//DTD SVG 1.1//EN"
 "http://www.w3.org/Graphics/SVG/1.1/DTD/svg11.dtd">
<!-- Generated by graphviz version 2.38.0 (20140413.2041)
 -->
<!-- Title: tasks::qp::MotionConstrCommon Pages: 1 -->
<svg width="840pt" height="165pt"
 viewBox="0.00 0.00 840.00 164.50" xmlns="http://www.w3.org/2000/svg" xmlns:xlink="http://www.w3.org/1999/xlink">
<g id="graph0" class="graph" transform="scale(1 1) rotate(0) translate(4 160.5)">
<title>tasks::qp::MotionConstrCommon</title>
<polygon fill="white" stroke="none" points="-4,4 -4,-160.5 836,-160.5 836,4 -4,4"/>
<!-- Node1 -->
<g id="node1" class="node"><title>Node1</title>
<polygon fill="#bfbfbf" stroke="black" points="671,-50 671,-69 832,-69 832,-50 671,-50"/>
<text text-anchor="middle" x="751.5" y="-57" font-family="Helvetica,sans-Serif" font-size="10.00">tasks::qp::MotionConstrCommon</text>
</g>
<!-- Node2 -->
<g id="node2" class="node"><title>Node2</title>
<g id="a_node2"><a xlink:href="a00015.html" target="_top" xlink:title="tasks::qp::ConstraintFunction\l\&lt; GenInequality \&gt;">
<polygon fill="white" stroke="black" points="461,-98.5 461,-128.5 607,-128.5 607,-98.5 461,-98.5"/>
<text text-anchor="start" x="469" y="-116.5" font-family="Helvetica,sans-Serif" font-size="10.00">tasks::qp::ConstraintFunction</text>
<text text-anchor="middle" x="534" y="-105.5" font-family="Helvetica,sans-Serif" font-size="10.00">&lt; GenInequality &gt;</text>
</a>
</g>
</g>
<!-- Node2&#45;&gt;Node1 -->
<g id="edge1" class="edge"><title>Node2&#45;&gt;Node1</title>
<path fill="none" stroke="midnightblue" d="M604.925,-95.9781C640.666,-87.0223 682.766,-76.4729 712.473,-69.0288"/>
<polygon fill="midnightblue" stroke="midnightblue" points="603.878,-92.6322 595.029,-98.458 605.58,-99.4223 603.878,-92.6322"/>
</g>
<!-- Node3 -->
<g id="node3" class="node"><title>Node3</title>
<g id="a_node3"><a xlink:href="a00014.html" target="_top" xlink:title="tasks::qp::Constraint">
<polygon fill="white" stroke="black" points="247.5,-137 247.5,-156 355.5,-156 355.5,-137 247.5,-137"/>
<text text-anchor="middle" x="301.5" y="-144" font-family="Helvetica,sans-Serif" font-size="10.00">tasks::qp::Constraint</text>
</a>
</g>
</g>
<!-- Node3&#45;&gt;Node2 -->
<g id="edge2" class="edge"><title>Node3&#45;&gt;Node2</title>
<path fill="none" stroke="midnightblue" d="M365.829,-137.433C395.27,-133.218 430.426,-128.185 460.885,-123.824"/>
<polygon fill="midnightblue" stroke="midnightblue" points="365.074,-134.006 355.671,-138.888 366.066,-140.935 365.074,-134.006"/>
</g>
<!-- Node4 -->
<g id="node4" class="node"><title>Node4</title>
<polygon fill="white" stroke="#bfbfbf" points="285,-99 285,-118 318,-118 318,-99 285,-99"/>
<text text-anchor="middle" x="301.5" y="-106" font-family="Helvetica,sans-Serif" font-size="10.00">Fun</text>
</g>
<!-- Node4&#45;&gt;Node2 -->
<g id="edge3" class="edge"><title>Node4&#45;&gt;Node2</title>
<path fill="none" stroke="midnightblue" d="M328.602,-109.066C360.525,-109.759 415.871,-110.959 460.925,-111.937"/>
<polygon fill="midnightblue" stroke="midnightblue" points="328.417,-105.561 318.343,-108.844 328.265,-112.56 328.417,-105.561"/>
</g>
<!-- Node5 -->
<g id="node5" class="node"><title>Node5</title>
<polygon fill="white" stroke="#bfbfbf" points="465.5,-39 465.5,-80 602.5,-80 602.5,-39 465.5,-39"/>
<text text-anchor="start" x="473.5" y="-68" font-family="Helvetica,sans-Serif" font-size="10.00">std::vector&lt; tasks</text>
<text text-anchor="start" x="473.5" y="-57" font-family="Helvetica,sans-Serif" font-size="10.00">::qp::MotionConstrCommon</text>
<text text-anchor="middle" x="534" y="-46" font-family="Helvetica,sans-Serif" font-size="10.00">::ContactData &gt;</text>
</g>
<!-- Node5&#45;&gt;Node1 -->
<g id="edge4" class="edge"><title>Node5&#45;&gt;Node1</title>
<path fill="none" stroke="#9a32cd" stroke-dasharray="5,2" d="M612.627,-59.5C631.503,-59.5 651.72,-59.5 670.695,-59.5"/>
<polygon fill="#9a32cd" stroke="#9a32cd" points="612.594,-56.0001 602.594,-59.5 612.594,-63.0001 612.594,-56.0001"/>
<text text-anchor="middle" x="639" y="-62.5" font-family="Helvetica,sans-Serif" font-size="10.00"> cont_</text>
</g>
<!-- Node6 -->
<g id="node6" class="node"><title>Node6</title>
<g id="a_node6"><a xlink:href="a00020.html" target="_top" xlink:title="tasks::qp::MotionConstrCommon\l::ContactData">
<polygon fill="white" stroke="black" points="221,-44.5 221,-74.5 382,-74.5 382,-44.5 221,-44.5"/>
<text text-anchor="start" x="229" y="-62.5" font-family="Helvetica,sans-Serif" font-size="10.00">tasks::qp::MotionConstrCommon</text>
<text text-anchor="middle" x="301.5" y="-51.5" font-family="Helvetica,sans-Serif" font-size="10.00">::ContactData</text>
</a>
</g>
</g>
<!-- Node6&#45;&gt;Node5 -->
<g id="edge5" class="edge"><title>Node6&#45;&gt;Node5</title>
<path fill="none" stroke="#9a32cd" stroke-dasharray="5,2" d="M392.421,-59.5C416.646,-59.5 442.442,-59.5 465.235,-59.5"/>
<polygon fill="#9a32cd" stroke="#9a32cd" points="392.148,-56.0001 382.148,-59.5 392.148,-63.0001 392.148,-56.0001"/>
<text text-anchor="middle" x="421.5" y="-62.5" font-family="Helvetica,sans-Serif" font-size="10.00"> elements</text>
</g>
<!-- Node7 -->
<g id="node7" class="node"><title>Node7</title>
<polygon fill="white" stroke="#bfbfbf" points="0,-88 0,-129 107,-129 107,-88 0,-88"/>
<text text-anchor="start" x="8" y="-117" font-family="Helvetica,sans-Serif" font-size="10.00">std::vector&lt; Eigen</text>
<text text-anchor="start" x="8" y="-106" font-family="Helvetica,sans-Serif" font-size="10.00">::Matrix&lt; double, 3,</text>
<text text-anchor="middle" x="53.5" y="-95" font-family="Helvetica,sans-Serif" font-size="10.00"> Eigen::Dynamic &gt; &gt;</text>
</g>
<!-- Node7&#45;&gt;Node6 -->
<g id="edge6" class="edge"><title>Node7&#45;&gt;Node6</title>
<path fill="none" stroke="#9a32cd" stroke-dasharray="5,2" d="M117.196,-96.0118C150.004,-89.4769 190.418,-81.4269 224.943,-74.55"/>
<polygon fill="#9a32cd" stroke="#9a32cd" points="116.397,-92.6021 107.273,-97.9883 117.764,-99.4673 116.397,-92.6021"/>
<text text-anchor="middle" x="164" y="-97.5" font-family="Helvetica,sans-Serif" font-size="10.00"> minusGenerators</text>
</g>
<!-- Node8 -->
<g id="node8" class="node"><title>Node8</title>
<g id="a_node8"><a doxygen="/usr/local/share/doc/RBDyn/doxygen-html/RBDyn.doxytag:/usr/local/share/doc/RBDyn/doxygen-html/" xlink:href="/usr/local/share/doc/RBDyn/doxygen-html/a00013.html" target="_top" xlink:title="rbd::Jacobian">
<polygon fill="white" stroke="black" points="16,-50 16,-69 91,-69 91,-50 16,-50"/>
<text text-anchor="middle" x="53.5" y="-57" font-family="Helvetica,sans-Serif" font-size="10.00">rbd::Jacobian</text>
</a>
</g>
</g>
<!-- Node8&#45;&gt;Node6 -->
<g id="edge7" class="edge"><title>Node8&#45;&gt;Node6</title>
<path fill="none" stroke="#9a32cd" stroke-dasharray="5,2" d="M101.114,-59.5C134.885,-59.5 181.373,-59.5 220.966,-59.5"/>
<polygon fill="#9a32cd" stroke="#9a32cd" points="101.063,-56.0001 91.0631,-59.5 101.063,-63.0001 101.063,-56.0001"/>
<text text-anchor="middle" x="164" y="-62.5" font-family="Helvetica,sans-Serif" font-size="10.00"> jac</text>
</g>
<!-- Node9 -->
<g id="node9" class="node"><title>Node9</title>
<polygon fill="white" stroke="#bfbfbf" points="5,-0.5 5,-30.5 102,-30.5 102,-0.5 5,-0.5"/>
<text text-anchor="start" x="13" y="-18.5" font-family="Helvetica,sans-Serif" font-size="10.00">std::vector&lt; Eigen</text>
<text text-anchor="middle" x="53.5" y="-7.5" font-family="Helvetica,sans-Serif" font-size="10.00">::Vector3d &gt;</text>
</g>
<!-- Node9&#45;&gt;Node6 -->
<g id="edge8" class="edge"><title>Node9&#45;&gt;Node6</title>
<path fill="none" stroke="#9a32cd" stroke-dasharray="5,2" d="M112.42,-25.8597C144.797,-31.6508 185.624,-38.9531 220.959,-45.2732"/>
<polygon fill="#9a32cd" stroke="#9a32cd" points="112.683,-22.3512 102.223,-24.0358 111.45,-29.2419 112.683,-22.3512"/>
<text text-anchor="middle" x="164" y="-44.5" font-family="Helvetica,sans-Serif" font-size="10.00"> points</text>
</g>
<!-- Node10 -->
<g id="node10" class="node"><title>Node10</title>
<g id="a_node10"><a doxygen="/usr/local/share/doc/RBDyn/doxygen-html/RBDyn.doxytag:/usr/local/share/doc/RBDyn/doxygen-html/" xlink:href="/usr/local/share/doc/RBDyn/doxygen-html/a00008.html" target="_top" xlink:title="rbd::ForwardDynamics">
<polygon fill="white" stroke="black" points="476,-1 476,-20 592,-20 592,-1 476,-1"/>
<text text-anchor="middle" x="534" y="-8" font-family="Helvetica,sans-Serif" font-size="10.00">rbd::ForwardDynamics</text>
</a>
</g>
</g>
<!-- Node10&#45;&gt;Node1 -->
<g id="edge9" class="edge"><title>Node10&#45;&gt;Node1</title>
<path fill="none" stroke="#9a32cd" stroke-dasharray="5,2" d="M586.959,-22.3143C624.188,-30.7794 673.689,-42.0348 708.443,-49.9371"/>
<polygon fill="#9a32cd" stroke="#9a32cd" points="587.333,-18.8102 576.806,-20.0058 585.781,-25.6359 587.333,-18.8102"/>
<text text-anchor="middle" x="639" y="-39.5" font-family="Helvetica,sans-Serif" font-size="10.00"> fd_</text>
</g>
</g>
</svg>
