<?xml version="1.0" encoding="UTF-8" standalone="no"?>
<!DOCTYPE svg PUBLIC "-//W3C//DTD SVG 1.1//EN"
 "http://www.w3.org/Graphics/SVG/1.1/DTD/svg11.dtd">
<!-- Generated by graphviz version 2.38.0 (20140413.2041)
 -->
<!-- Title: tasks::qp::MotionConstrCommon Pages: 1 -->
<svg width="303pt" height="263pt"
 viewBox="0.00 0.00 303.00 263.00" xmlns="http://www.w3.org/2000/svg" xmlns:xlink="http://www.w3.org/1999/xlink">
<g id="graph0" class="graph" transform="scale(1 1) rotate(0) translate(4 259)">
<title>tasks::qp::MotionConstrCommon</title>
<polygon fill="white" stroke="none" points="-4,4 -4,-259 299,-259 299,4 -4,4"/>
<!-- Node1 -->
<g id="node1" class="node"><title>Node1</title>
<polygon fill="#bfbfbf" stroke="black" points="69,-112.5 69,-131.5 230,-131.5 230,-112.5 69,-112.5"/>
<text text-anchor="middle" x="149.5" y="-119.5" font-family="Helvetica,sans-Serif" font-size="10.00">tasks::qp::MotionConstrCommon</text>
</g>
<!-- Node5 -->
<g id="node5" class="node"><title>Node5</title>
<g id="a_node5"><a xlink:href="a00051.html" target="_top" xlink:title="tasks::qp::MotionConstr">
<polygon fill="white" stroke="black" points="13.5,-56.5 13.5,-75.5 135.5,-75.5 135.5,-56.5 13.5,-56.5"/>
<text text-anchor="middle" x="74.5" y="-63.5" font-family="Helvetica,sans-Serif" font-size="10.00">tasks::qp::MotionConstr</text>
</a>
</g>
</g>
<!-- Node1&#45;&gt;Node5 -->
<g id="edge4" class="edge"><title>Node1&#45;&gt;Node5</title>
<path fill="none" stroke="midnightblue" d="M129.195,-106.38C115.639,-96.6204 98.2579,-84.1057 86.7693,-75.8339"/>
<polygon fill="midnightblue" stroke="midnightblue" points="127.29,-109.321 137.45,-112.324 131.38,-103.641 127.29,-109.321"/>
</g>
<!-- Node7 -->
<g id="node7" class="node"><title>Node7</title>
<g id="a_node7"><a xlink:href="a00053.html" target="_top" xlink:title="Use polynome in function of q to compute torque limits. ">
<polygon fill="white" stroke="black" points="154,-56.5 154,-75.5 295,-75.5 295,-56.5 154,-56.5"/>
<text text-anchor="middle" x="224.5" y="-63.5" font-family="Helvetica,sans-Serif" font-size="10.00">tasks::qp::MotionPolyConstr</text>
</a>
</g>
</g>
<!-- Node1&#45;&gt;Node7 -->
<g id="edge6" class="edge"><title>Node1&#45;&gt;Node7</title>
<path fill="none" stroke="midnightblue" d="M169.805,-106.38C183.361,-96.6204 200.742,-84.1057 212.231,-75.8339"/>
<polygon fill="midnightblue" stroke="midnightblue" points="167.62,-103.641 161.55,-112.324 171.71,-109.321 167.62,-103.641"/>
</g>
<!-- Node2 -->
<g id="node2" class="node"><title>Node2</title>
<g id="a_node2"><a xlink:href="a00015.html" target="_top" xlink:title="tasks::qp::ConstraintFunction\l\&lt; GenInequality \&gt;">
<polygon fill="white" stroke="black" points="76.5,-168.5 76.5,-198.5 222.5,-198.5 222.5,-168.5 76.5,-168.5"/>
<text text-anchor="start" x="84.5" y="-186.5" font-family="Helvetica,sans-Serif" font-size="10.00">tasks::qp::ConstraintFunction</text>
<text text-anchor="middle" x="149.5" y="-175.5" font-family="Helvetica,sans-Serif" font-size="10.00">&lt; GenInequality &gt;</text>
</a>
</g>
</g>
<!-- Node2&#45;&gt;Node1 -->
<g id="edge1" class="edge"><title>Node2&#45;&gt;Node1</title>
<path fill="none" stroke="midnightblue" d="M149.5,-158.289C149.5,-148.857 149.5,-138.655 149.5,-131.658"/>
<polygon fill="midnightblue" stroke="midnightblue" points="146,-158.399 149.5,-168.399 153,-158.399 146,-158.399"/>
</g>
<!-- Node3 -->
<g id="node3" class="node"><title>Node3</title>
<g id="a_node3"><a xlink:href="a00014.html" target="_top" xlink:title="tasks::qp::Constraint">
<polygon fill="white" stroke="black" points="51.5,-235.5 51.5,-254.5 159.5,-254.5 159.5,-235.5 51.5,-235.5"/>
<text text-anchor="middle" x="105.5" y="-242.5" font-family="Helvetica,sans-Serif" font-size="10.00">tasks::qp::Constraint</text>
</a>
</g>
</g>
<!-- Node3&#45;&gt;Node2 -->
<g id="edge2" class="edge"><title>Node3&#45;&gt;Node2</title>
<path fill="none" stroke="midnightblue" d="M117.889,-227.247C124.589,-218.187 132.77,-207.124 139.13,-198.523"/>
<polygon fill="midnightblue" stroke="midnightblue" points="114.936,-225.354 111.804,-235.475 120.564,-229.516 114.936,-225.354"/>
</g>
<!-- Node4 -->
<g id="node4" class="node"><title>Node4</title>
<polygon fill="white" stroke="#bfbfbf" points="178,-235.5 178,-254.5 211,-254.5 211,-235.5 178,-235.5"/>
<text text-anchor="middle" x="194.5" y="-242.5" font-family="Helvetica,sans-Serif" font-size="10.00">Fun</text>
</g>
<!-- Node4&#45;&gt;Node2 -->
<g id="edge3" class="edge"><title>Node4&#45;&gt;Node2</title>
<path fill="none" stroke="midnightblue" d="M181.83,-227.247C174.977,-218.187 166.611,-207.124 160.106,-198.523"/>
<polygon fill="midnightblue" stroke="midnightblue" points="179.229,-229.611 188.053,-235.475 184.812,-225.388 179.229,-229.611"/>
</g>
<!-- Node6 -->
<g id="node6" class="node"><title>Node6</title>
<g id="a_node6"><a xlink:href="a00054.html" target="_top" xlink:title="tasks::qp::MotionSpringConstr">
<polygon fill="white" stroke="black" points="0,-0.5 0,-19.5 149,-19.5 149,-0.5 0,-0.5"/>
<text text-anchor="middle" x="74.5" y="-7.5" font-family="Helvetica,sans-Serif" font-size="10.00">tasks::qp::MotionSpringConstr</text>
</a>
</g>
</g>
<!-- Node5&#45;&gt;Node6 -->
<g id="edge5" class="edge"><title>Node5&#45;&gt;Node6</title>
<path fill="none" stroke="midnightblue" d="M74.5,-45.8045C74.5,-36.9102 74.5,-26.7798 74.5,-19.7511"/>
<polygon fill="midnightblue" stroke="midnightblue" points="71.0001,-46.083 74.5,-56.083 78.0001,-46.083 71.0001,-46.083"/>
</g>
</g>
</svg>
