<?xml version="1.0" encoding="UTF-8" standalone="no"?>
<!DOCTYPE svg PUBLIC "-//W3C//DTD SVG 1.1//EN"
 "http://www.w3.org/Graphics/SVG/1.1/DTD/svg11.dtd">
<!-- Generated by graphviz version 2.38.0 (20140413.2041)
 -->
<!-- Title: tasks::qp::GripperTorqueConstr Pages: 1 -->
<svg width="179pt" height="162pt"
 viewBox="0.00 0.00 179.00 162.00" xmlns="http://www.w3.org/2000/svg" xmlns:xlink="http://www.w3.org/1999/xlink">
<g id="graph0" class="graph" transform="scale(1 1) rotate(0) translate(4 158)">
<title>tasks::qp::GripperTorqueConstr</title>
<polygon fill="white" stroke="none" points="-4,4 -4,-158 175,-158 175,4 -4,4"/>
<!-- Node1 -->
<g id="node1" class="node"><title>Node1</title>
<polygon fill="#bfbfbf" stroke="black" points="35.5,-0.5 35.5,-30.5 160.5,-30.5 160.5,-0.5 35.5,-0.5"/>
<text text-anchor="start" x="43.5" y="-18.5" font-family="Helvetica,sans-Serif" font-size="10.00">tasks::qp::GripperTorque</text>
<text text-anchor="middle" x="98" y="-7.5" font-family="Helvetica,sans-Serif" font-size="10.00">Constr</text>
</g>
<!-- Node2 -->
<g id="node2" class="node"><title>Node2</title>
<g id="a_node2"><a xlink:href="a00015.html" target="_top" xlink:title="tasks::qp::ConstraintFunction\l\&lt; Inequality \&gt;">
<polygon fill="white" stroke="black" points="25,-67.5 25,-97.5 171,-97.5 171,-67.5 25,-67.5"/>
<text text-anchor="start" x="33" y="-85.5" font-family="Helvetica,sans-Serif" font-size="10.00">tasks::qp::ConstraintFunction</text>
<text text-anchor="middle" x="98" y="-74.5" font-family="Helvetica,sans-Serif" font-size="10.00">&lt; Inequality &gt;</text>
</a>
</g>
</g>
<!-- Node2&#45;&gt;Node1 -->
<g id="edge1" class="edge"><title>Node2&#45;&gt;Node1</title>
<path fill="none" stroke="midnightblue" d="M98,-57.1081C98,-48.1539 98,-38.3227 98,-30.5765"/>
<polygon fill="midnightblue" stroke="midnightblue" points="94.5001,-57.3959 98,-67.396 101.5,-57.396 94.5001,-57.3959"/>
</g>
<!-- Node3 -->
<g id="node3" class="node"><title>Node3</title>
<g id="a_node3"><a xlink:href="a00014.html" target="_top" xlink:title="tasks::qp::Constraint">
<polygon fill="white" stroke="black" points="0,-134.5 0,-153.5 108,-153.5 108,-134.5 0,-134.5"/>
<text text-anchor="middle" x="54" y="-141.5" font-family="Helvetica,sans-Serif" font-size="10.00">tasks::qp::Constraint</text>
</a>
</g>
</g>
<!-- Node3&#45;&gt;Node2 -->
<g id="edge2" class="edge"><title>Node3&#45;&gt;Node2</title>
<path fill="none" stroke="midnightblue" d="M66.3887,-126.247C73.0889,-117.187 81.2696,-106.124 87.6301,-97.523"/>
<polygon fill="midnightblue" stroke="midnightblue" points="63.4358,-124.354 60.3041,-134.475 69.0641,-128.516 63.4358,-124.354"/>
</g>
<!-- Node4 -->
<g id="node4" class="node"><title>Node4</title>
<polygon fill="white" stroke="#bfbfbf" points="126.5,-134.5 126.5,-153.5 159.5,-153.5 159.5,-134.5 126.5,-134.5"/>
<text text-anchor="middle" x="143" y="-141.5" font-family="Helvetica,sans-Serif" font-size="10.00">Fun</text>
</g>
<!-- Node4&#45;&gt;Node2 -->
<g id="edge3" class="edge"><title>Node4&#45;&gt;Node2</title>
<path fill="none" stroke="midnightblue" d="M130.33,-126.247C123.477,-117.187 115.111,-106.124 108.606,-97.523"/>
<polygon fill="midnightblue" stroke="midnightblue" points="127.729,-128.611 136.553,-134.475 133.312,-124.388 127.729,-128.611"/>
</g>
</g>
</svg>
