<?xml version="1.0" encoding="UTF-8" standalone="no"?>
<!DOCTYPE svg PUBLIC "-//W3C//DTD SVG 1.1//EN"
 "http://www.w3.org/Graphics/SVG/1.1/DTD/svg11.dtd">
<!-- Generated by graphviz version 2.38.0 (20140413.2041)
 -->
<!-- Title: tasks::qp::HighLevelTask Pages: 1 -->
<svg width="544pt" height="655pt"
 viewBox="0.00 0.00 544.00 654.50" xmlns="http://www.w3.org/2000/svg" xmlns:xlink="http://www.w3.org/1999/xlink">
<g id="graph0" class="graph" transform="scale(1 1) rotate(0) translate(4 650.5)">
<title>tasks::qp::HighLevelTask</title>
<polygon fill="white" stroke="none" points="-4,4 -4,-650.5 540,-650.5 540,4 -4,4"/>
<!-- Node1 -->
<g id="node1" class="node"><title>Node1</title>
<polygon fill="#bfbfbf" stroke="black" points="0,-339 0,-358 128,-358 128,-339 0,-339"/>
<text text-anchor="middle" x="64" y="-346" font-family="Helvetica,sans-Serif" font-size="10.00">tasks::qp::HighLevelTask</text>
</g>
<!-- Node2 -->
<g id="node2" class="node"><title>Node2</title>
<g id="a_node2"><a xlink:href="a00008.html" target="_top" xlink:title="tasks::qp::CoMTask">
<polygon fill="white" stroke="black" points="197.5,-627 197.5,-646 303.5,-646 303.5,-627 197.5,-627"/>
<text text-anchor="middle" x="250.5" y="-634" font-family="Helvetica,sans-Serif" font-size="10.00">tasks::qp::CoMTask</text>
</a>
</g>
</g>
<!-- Node1&#45;&gt;Node2 -->
<g id="edge1" class="edge"><title>Node1&#45;&gt;Node2</title>
<path fill="none" stroke="midnightblue" d="M66.0757,-368.258C69.9101,-418.213 87.1862,-550.345 164,-617.5 173.273,-625.607 185.237,-630.486 197.262,-633.368"/>
<polygon fill="midnightblue" stroke="midnightblue" points="69.5594,-367.896 65.4026,-358.15 62.5749,-368.361 69.5594,-367.896"/>
</g>
<!-- Node3 -->
<g id="node3" class="node"><title>Node3</title>
<g id="a_node3"><a xlink:href="a00029.html" target="_top" xlink:title="tasks::qp::ForceMinimizationTask">
<polygon fill="white" stroke="black" points="168.5,-589 168.5,-608 332.5,-608 332.5,-589 168.5,-589"/>
<text text-anchor="middle" x="250.5" y="-596" font-family="Helvetica,sans-Serif" font-size="10.00">tasks::qp::ForceMinimizationTask</text>
</a>
</g>
</g>
<!-- Node1&#45;&gt;Node3 -->
<g id="edge2" class="edge"><title>Node1&#45;&gt;Node3</title>
<path fill="none" stroke="midnightblue" d="M67.4,-368.175C73.9679,-413.076 96.4998,-523.53 164,-579.5 168.565,-583.285 173.724,-586.358 179.189,-588.848"/>
<polygon fill="midnightblue" stroke="midnightblue" points="70.8657,-367.685 66.0565,-358.245 63.9289,-368.624 70.8657,-367.685"/>
</g>
<!-- Node4 -->
<g id="node4" class="node"><title>Node4</title>
<g id="a_node4"><a xlink:href="a00031.html" target="_top" xlink:title="tasks::qp::GazeTask">
<polygon fill="white" stroke="black" points="196.5,-551 196.5,-570 304.5,-570 304.5,-551 196.5,-551"/>
<text text-anchor="middle" x="250.5" y="-558" font-family="Helvetica,sans-Serif" font-size="10.00">tasks::qp::GazeTask</text>
</a>
</g>
</g>
<!-- Node1&#45;&gt;Node4 -->
<g id="edge3" class="edge"><title>Node1&#45;&gt;Node4</title>
<path fill="none" stroke="midnightblue" d="M69.2576,-368.389C78.8114,-407.95 105.83,-496.563 164,-541.5 173.266,-548.658 184.693,-553.229 196.142,-556.121"/>
<polygon fill="midnightblue" stroke="midnightblue" points="72.6145,-367.368 66.9701,-358.402 65.7912,-368.931 72.6145,-367.368"/>
</g>
<!-- Node5 -->
<g id="node5" class="node"><title>Node5</title>
<g id="a_node5"><a xlink:href="a00043.html" target="_top" xlink:title="tasks::qp::JointsSelector">
<polygon fill="white" stroke="black" points="188,-513 188,-532 313,-532 313,-513 188,-513"/>
<text text-anchor="middle" x="250.5" y="-520" font-family="Helvetica,sans-Serif" font-size="10.00">tasks::qp::JointsSelector</text>
</a>
</g>
</g>
<!-- Node1&#45;&gt;Node5 -->
<g id="edge4" class="edge"><title>Node1&#45;&gt;Node5</title>
<path fill="none" stroke="midnightblue" d="M71.7152,-367.901C84.2893,-401.201 114.661,-468.977 164,-503.5 171.102,-508.469 179.279,-512.167 187.702,-514.914"/>
<polygon fill="midnightblue" stroke="midnightblue" points="74.9624,-366.589 68.2565,-358.386 68.3836,-368.981 74.9624,-366.589"/>
</g>
<!-- Node6 -->
<g id="node6" class="node"><title>Node6</title>
<g id="a_node6"><a xlink:href="a00046.html" target="_top" xlink:title="tasks::qp::LinVelocityTask">
<polygon fill="white" stroke="black" points="184,-475 184,-494 317,-494 317,-475 184,-475"/>
<text text-anchor="middle" x="250.5" y="-482" font-family="Helvetica,sans-Serif" font-size="10.00">tasks::qp::LinVelocityTask</text>
</a>
</g>
</g>
<!-- Node1&#45;&gt;Node6 -->
<g id="edge5" class="edge"><title>Node1&#45;&gt;Node6</title>
<path fill="none" stroke="midnightblue" d="M75.3873,-367.15C91.0344,-393.416 123.21,-440.849 164,-465.5 170.377,-469.354 177.445,-472.428 184.706,-474.881"/>
<polygon fill="midnightblue" stroke="midnightblue" points="78.2532,-365.114 70.2162,-358.21 72.194,-368.619 78.2532,-365.114"/>
</g>
<!-- Node7 -->
<g id="node7" class="node"><title>Node7</title>
<g id="a_node7"><a xlink:href="a00049.html" target="_top" xlink:title="tasks::qp::MomentumTask">
<polygon fill="white" stroke="black" points="183.5,-437 183.5,-456 317.5,-456 317.5,-437 183.5,-437"/>
<text text-anchor="middle" x="250.5" y="-444" font-family="Helvetica,sans-Serif" font-size="10.00">tasks::qp::MomentumTask</text>
</a>
</g>
</g>
<!-- Node1&#45;&gt;Node7 -->
<g id="edge6" class="edge"><title>Node1&#45;&gt;Node7</title>
<path fill="none" stroke="midnightblue" d="M81.3488,-365.536C99.7428,-383.678 131.341,-411.881 164,-427.5 172.094,-431.371 180.998,-434.466 189.909,-436.939"/>
<polygon fill="midnightblue" stroke="midnightblue" points="83.6166,-362.852 74.0897,-358.217 78.6464,-367.782 83.6166,-362.852"/>
</g>
<!-- Node8 -->
<g id="node8" class="node"><title>Node8</title>
<g id="a_node8"><a xlink:href="a00059.html" target="_top" xlink:title="tasks::qp::OrientationTask">
<polygon fill="white" stroke="black" points="184.5,-399 184.5,-418 316.5,-418 316.5,-399 184.5,-399"/>
<text text-anchor="middle" x="250.5" y="-406" font-family="Helvetica,sans-Serif" font-size="10.00">tasks::qp::OrientationTask</text>
</a>
</g>
</g>
<!-- Node1&#45;&gt;Node8 -->
<g id="edge7" class="edge"><title>Node1&#45;&gt;Node8</title>
<path fill="none" stroke="midnightblue" d="M94.321,-362.223C113.765,-370.928 140.021,-381.934 164,-389.5 175.456,-393.115 187.983,-396.308 199.83,-398.995"/>
<polygon fill="midnightblue" stroke="midnightblue" points="95.6457,-358.981 85.093,-358.036 92.7534,-365.356 95.6457,-358.981"/>
</g>
<!-- Node9 -->
<g id="node9" class="node"><title>Node9</title>
<g id="a_node9"><a xlink:href="a00061.html" target="_top" xlink:title="tasks::qp::OrientationTrackingTask">
<polygon fill="white" stroke="black" points="165.5,-361 165.5,-380 335.5,-380 335.5,-361 165.5,-361"/>
<text text-anchor="middle" x="250.5" y="-368" font-family="Helvetica,sans-Serif" font-size="10.00">tasks::qp::OrientationTrackingTask</text>
</a>
</g>
</g>
<!-- Node1&#45;&gt;Node9 -->
<g id="edge8" class="edge"><title>Node1&#45;&gt;Node9</title>
<path fill="none" stroke="midnightblue" d="M138.4,-357.252C148.692,-358.48 159.312,-359.746 169.716,-360.986"/>
<polygon fill="midnightblue" stroke="midnightblue" points="138.58,-353.749 128.236,-356.04 137.752,-360.7 138.58,-353.749"/>
</g>
<!-- Node10 -->
<g id="node10" class="node"><title>Node10</title>
<g id="a_node10"><a xlink:href="a00066.html" target="_top" xlink:title="tasks::qp::PositionBased\lVisServoTask">
<polygon fill="white" stroke="black" points="187.5,-311.5 187.5,-341.5 313.5,-341.5 313.5,-311.5 187.5,-311.5"/>
<text text-anchor="start" x="195.5" y="-329.5" font-family="Helvetica,sans-Serif" font-size="10.00">tasks::qp::PositionBased</text>
<text text-anchor="middle" x="250.5" y="-318.5" font-family="Helvetica,sans-Serif" font-size="10.00">VisServoTask</text>
</a>
</g>
</g>
<!-- Node1&#45;&gt;Node10 -->
<g id="edge9" class="edge"><title>Node1&#45;&gt;Node10</title>
<path fill="none" stroke="midnightblue" d="M138.224,-339.769C154.466,-337.832 171.53,-335.797 187.283,-333.919"/>
<polygon fill="midnightblue" stroke="midnightblue" points="137.752,-336.3 128.236,-340.96 138.58,-343.251 137.752,-336.3"/>
</g>
<!-- Node11 -->
<g id="node11" class="node"><title>Node11</title>
<g id="a_node11"><a xlink:href="a00067.html" target="_top" xlink:title="tasks::qp::PositionTask">
<polygon fill="white" stroke="black" points="190.5,-273 190.5,-292 310.5,-292 310.5,-273 190.5,-273"/>
<text text-anchor="middle" x="250.5" y="-280" font-family="Helvetica,sans-Serif" font-size="10.00">tasks::qp::PositionTask</text>
</a>
</g>
</g>
<!-- Node1&#45;&gt;Node11 -->
<g id="edge10" class="edge"><title>Node1&#45;&gt;Node11</title>
<path fill="none" stroke="midnightblue" d="M91.7187,-334.257C111.297,-324.277 138.751,-311.215 164,-302.5 175.816,-298.421 188.835,-294.903 201.074,-292.006"/>
<polygon fill="midnightblue" stroke="midnightblue" points="90.0597,-331.175 82.7843,-338.877 93.2747,-337.393 90.0597,-331.175"/>
</g>
<!-- Node12 -->
<g id="node12" class="node"><title>Node12</title>
<g id="a_node12"><a xlink:href="a00075.html" target="_top" xlink:title="tasks::qp::RelativeDistTask">
<polygon fill="white" stroke="black" points="181,-235 181,-254 320,-254 320,-235 181,-235"/>
<text text-anchor="middle" x="250.5" y="-242" font-family="Helvetica,sans-Serif" font-size="10.00">tasks::qp::RelativeDistTask</text>
</a>
</g>
</g>
<!-- Node1&#45;&gt;Node12 -->
<g id="edge11" class="edge"><title>Node1&#45;&gt;Node12</title>
<path fill="none" stroke="midnightblue" d="M79.9878,-331.312C97.9667,-311.817 129.967,-280.534 164,-263.5 171.751,-259.621 180.289,-256.527 188.879,-254.061"/>
<polygon fill="midnightblue" stroke="midnightblue" points="77.2716,-329.098 73.176,-338.869 82.4711,-333.784 77.2716,-329.098"/>
</g>
<!-- Node13 -->
<g id="node13" class="node"><title>Node13</title>
<g id="a_node13"><a xlink:href="a00084.html" target="_top" xlink:title="tasks::qp::SurfaceOrientationTask">
<polygon fill="white" stroke="black" points="167.5,-197 167.5,-216 333.5,-216 333.5,-197 167.5,-197"/>
<text text-anchor="middle" x="250.5" y="-204" font-family="Helvetica,sans-Serif" font-size="10.00">tasks::qp::SurfaceOrientationTask</text>
</a>
</g>
</g>
<!-- Node1&#45;&gt;Node13 -->
<g id="edge12" class="edge"><title>Node1&#45;&gt;Node13</title>
<path fill="none" stroke="midnightblue" d="M74.4888,-330.067C89.5729,-302.713 121.695,-251.781 164,-225.5 170.2,-221.648 177.081,-218.573 184.169,-216.119"/>
<polygon fill="midnightblue" stroke="midnightblue" points="71.3468,-328.521 69.7151,-338.989 77.5189,-331.823 71.3468,-328.521"/>
</g>
<!-- Node14 -->
<g id="node14" class="node"><title>Node14</title>
<g id="a_node14"><a xlink:href="a00095.html" target="_top" xlink:title="tasks::qp::TransformTask\lCommon\&lt; transform_task_t \&gt;">
<polygon fill="white" stroke="black" points="176.5,-147.5 176.5,-177.5 324.5,-177.5 324.5,-147.5 176.5,-147.5"/>
<text text-anchor="start" x="184.5" y="-165.5" font-family="Helvetica,sans-Serif" font-size="10.00">tasks::qp::TransformTask</text>
<text text-anchor="middle" x="250.5" y="-154.5" font-family="Helvetica,sans-Serif" font-size="10.00">Common&lt; transform_task_t &gt;</text>
</a>
</g>
</g>
<!-- Node1&#45;&gt;Node14 -->
<g id="edge13" class="edge"><title>Node1&#45;&gt;Node14</title>
<path fill="none" stroke="midnightblue" d="M71.5663,-329.186C84.0772,-295.315 114.576,-225.227 164,-187.5 169.04,-183.653 174.659,-180.396 180.542,-177.641"/>
<polygon fill="midnightblue" stroke="midnightblue" points="68.192,-328.228 68.1352,-338.823 74.7865,-330.576 68.192,-328.228"/>
</g>
<!-- Node15 -->
<g id="node15" class="node"><title>Node15</title>
<g id="a_node15"><a xlink:href="a00099.html" target="_top" xlink:title="tasks::qp::VectorOrientationTask">
<polygon fill="white" stroke="black" points="170,-109 170,-128 331,-128 331,-109 170,-109"/>
<text text-anchor="middle" x="250.5" y="-116" font-family="Helvetica,sans-Serif" font-size="10.00">tasks::qp::VectorOrientationTask</text>
</a>
</g>
</g>
<!-- Node1&#45;&gt;Node15 -->
<g id="edge14" class="edge"><title>Node1&#45;&gt;Node15</title>
<path fill="none" stroke="midnightblue" d="M68.4043,-328.685C76.6952,-286.723 101.99,-188.648 164,-138.5 169.334,-134.186 175.435,-130.771 181.868,-128.072"/>
<polygon fill="midnightblue" stroke="midnightblue" points="64.9234,-328.26 66.5375,-338.731 71.8056,-329.539 64.9234,-328.26"/>
</g>
<!-- Node16 -->
<g id="node16" class="node"><title>Node16</title>
<g id="a_node16"><a xlink:href="a00095.html" target="_top" xlink:title="tasks::qp::TransformTask\lCommon\&lt; tasks::SurfaceTransform\lTask \&gt;">
<polygon fill="white" stroke="black" points="164,-49 164,-90 337,-90 337,-49 164,-49"/>
<text text-anchor="start" x="172" y="-78" font-family="Helvetica,sans-Serif" font-size="10.00">tasks::qp::TransformTask</text>
<text text-anchor="start" x="172" y="-67" font-family="Helvetica,sans-Serif" font-size="10.00">Common&lt; tasks::SurfaceTransform</text>
<text text-anchor="middle" x="250.5" y="-56" font-family="Helvetica,sans-Serif" font-size="10.00">Task &gt;</text>
</a>
</g>
</g>
<!-- Node1&#45;&gt;Node16 -->
<g id="edge15" class="edge"><title>Node1&#45;&gt;Node16</title>
<path fill="none" stroke="midnightblue" d="M67.2766,-328.843C73.6889,-282.355 96.0979,-164.676 164,-99.5 167.632,-96.0141 171.691,-92.931 176.015,-90.2044"/>
<polygon fill="midnightblue" stroke="midnightblue" points="63.7975,-328.457 66.0002,-338.82 70.7409,-329.345 63.7975,-328.457"/>
</g>
<!-- Node18 -->
<g id="node18" class="node"><title>Node18</title>
<g id="a_node18"><a xlink:href="a00095.html" target="_top" xlink:title="tasks::qp::TransformTask\lCommon\&lt; tasks::TransformTask \&gt;">
<polygon fill="white" stroke="black" points="165.5,-0.5 165.5,-30.5 335.5,-30.5 335.5,-0.5 165.5,-0.5"/>
<text text-anchor="start" x="173.5" y="-18.5" font-family="Helvetica,sans-Serif" font-size="10.00">tasks::qp::TransformTask</text>
<text text-anchor="middle" x="250.5" y="-7.5" font-family="Helvetica,sans-Serif" font-size="10.00">Common&lt; tasks::TransformTask &gt;</text>
</a>
</g>
</g>
<!-- Node1&#45;&gt;Node18 -->
<g id="edge17" class="edge"><title>Node1&#45;&gt;Node18</title>
<path fill="none" stroke="midnightblue" d="M65.2355,-328.712C66.9916,-274.269 79.5765,-120.905 164,-39.5 167.551,-36.0755 171.551,-33.1321 175.831,-30.6031"/>
<polygon fill="midnightblue" stroke="midnightblue" points="61.7352,-328.689 65.0032,-338.767 68.7333,-328.85 61.7352,-328.689"/>
</g>
<!-- Node17 -->
<g id="node17" class="node"><title>Node17</title>
<g id="a_node17"><a xlink:href="a00086.html" target="_top" xlink:title="TransformTask in surface frame. ">
<polygon fill="white" stroke="black" points="373,-60 373,-79 536,-79 536,-60 373,-60"/>
<text text-anchor="middle" x="454.5" y="-67" font-family="Helvetica,sans-Serif" font-size="10.00">tasks::qp::SurfaceTransformTask</text>
</a>
</g>
</g>
<!-- Node16&#45;&gt;Node17 -->
<g id="edge16" class="edge"><title>Node16&#45;&gt;Node17</title>
<path fill="none" stroke="midnightblue" d="M347.2,-69.5C355.779,-69.5 364.41,-69.5 372.843,-69.5"/>
<polygon fill="midnightblue" stroke="midnightblue" points="347.166,-66.0001 337.166,-69.5 347.166,-73.0001 347.166,-66.0001"/>
</g>
<!-- Node19 -->
<g id="node19" class="node"><title>Node19</title>
<g id="a_node19"><a xlink:href="a00094.html" target="_top" xlink:title="TransformTask in world or user frame. ">
<polygon fill="white" stroke="black" points="390,-6 390,-25 519,-25 519,-6 390,-6"/>
<text text-anchor="middle" x="454.5" y="-13" font-family="Helvetica,sans-Serif" font-size="10.00">tasks::qp::TransformTask</text>
</a>
</g>
</g>
<!-- Node18&#45;&gt;Node19 -->
<g id="edge18" class="edge"><title>Node18&#45;&gt;Node19</title>
<path fill="none" stroke="midnightblue" d="M345.935,-15.5C360.78,-15.5 375.815,-15.5 389.75,-15.5"/>
<polygon fill="midnightblue" stroke="midnightblue" points="345.704,-12.0001 335.703,-15.5 345.703,-19.0001 345.704,-12.0001"/>
</g>
</g>
</svg>
