<?xml version="1.0" encoding="UTF-8" standalone="no"?>
<!DOCTYPE svg PUBLIC "-//W3C//DTD SVG 1.1//EN"
 "http://www.w3.org/Graphics/SVG/1.1/DTD/svg11.dtd">
<!-- Generated by graphviz version 2.38.0 (20140413.2041)
 -->
<!-- Title: tasks::qp::ContactConstrCommon::ContactCommon Pages: 1 -->
<svg width="145pt" height="252pt"
 viewBox="0.00 0.00 145.00 252.00" xmlns="http://www.w3.org/2000/svg" xmlns:xlink="http://www.w3.org/1999/xlink">
<g id="graph0" class="graph" transform="scale(1 1) rotate(0) translate(4 248)">
<title>tasks::qp::ContactConstrCommon::ContactCommon</title>
<polygon fill="white" stroke="none" points="-4,4 -4,-248 141,-248 141,4 -4,4"/>
<!-- Node1 -->
<g id="node1" class="node"><title>Node1</title>
<polygon fill="#bfbfbf" stroke="black" points="0,-0.5 0,-30.5 137,-30.5 137,-0.5 0,-0.5"/>
<text text-anchor="start" x="8" y="-18.5" font-family="Helvetica,sans-Serif" font-size="10.00">tasks::qp::ContactConstr</text>
<text text-anchor="middle" x="68.5" y="-7.5" font-family="Helvetica,sans-Serif" font-size="10.00">Common::ContactCommon</text>
</g>
<!-- Node2 -->
<g id="node2" class="node"><title>Node2</title>
<g id="a_node2"><a xlink:href="a00022.html" target="_top" xlink:title="Unique identifier for a contact. ">
<polygon fill="white" stroke="black" points="15.5,-78.5 15.5,-97.5 121.5,-97.5 121.5,-78.5 15.5,-78.5"/>
<text text-anchor="middle" x="68.5" y="-85.5" font-family="Helvetica,sans-Serif" font-size="10.00">tasks::qp::ContactId</text>
</a>
</g>
</g>
<!-- Node2&#45;&gt;Node1 -->
<g id="edge1" class="edge"><title>Node2&#45;&gt;Node1</title>
<path fill="none" stroke="#9a32cd" stroke-dasharray="5,2" d="M68.5,-68.2362C68.5,-56.4079 68.5,-41.3829 68.5,-30.5762"/>
<polygon fill="#9a32cd" stroke="#9a32cd" points="65.0001,-68.3553 68.5,-78.3553 72.0001,-68.3554 65.0001,-68.3553"/>
<text text-anchor="middle" x="77" y="-52" font-family="Helvetica,sans-Serif" font-size="10.00"> cId</text>
</g>
<!-- Node3 -->
<g id="node3" class="node"><title>Node3</title>
<g id="a_node3"><a xlink:title="STL class. ">
<polygon fill="white" stroke="#bfbfbf" points="38.5,-156.5 38.5,-175.5 98.5,-175.5 98.5,-156.5 38.5,-156.5"/>
<text text-anchor="middle" x="68.5" y="-163.5" font-family="Helvetica,sans-Serif" font-size="10.00">std::string</text>
</a>
</g>
</g>
<!-- Node3&#45;&gt;Node2 -->
<g id="edge2" class="edge"><title>Node3&#45;&gt;Node2</title>
<path fill="none" stroke="#9a32cd" stroke-dasharray="5,2" d="M68.5,-146.224C68.5,-130.697 68.5,-109.358 68.5,-97.6165"/>
<polygon fill="#9a32cd" stroke="#9a32cd" points="65.0001,-146.282 68.5,-156.282 72.0001,-146.282 65.0001,-146.282"/>
<text text-anchor="middle" x="99" y="-130" font-family="Helvetica,sans-Serif" font-size="10.00"> r2BodyName</text>
<text text-anchor="middle" x="99" y="-119" font-family="Helvetica,sans-Serif" font-size="10.00">r1BodyName</text>
</g>
<!-- Node4 -->
<g id="node4" class="node"><title>Node4</title>
<g id="a_node4"><a xlink:title="STL class. ">
<polygon fill="white" stroke="#bfbfbf" points="21,-213.5 21,-243.5 116,-243.5 116,-213.5 21,-213.5"/>
<text text-anchor="start" x="29" y="-231.5" font-family="Helvetica,sans-Serif" font-size="10.00">std::basic_string&lt;</text>
<text text-anchor="middle" x="68.5" y="-220.5" font-family="Helvetica,sans-Serif" font-size="10.00"> char &gt;</text>
</a>
</g>
</g>
<!-- Node4&#45;&gt;Node3 -->
<g id="edge3" class="edge"><title>Node4&#45;&gt;Node3</title>
<path fill="none" stroke="midnightblue" d="M68.5,-203.352C68.5,-193.513 68.5,-182.775 68.5,-175.54"/>
<polygon fill="midnightblue" stroke="midnightblue" points="65.0001,-203.468 68.5,-213.468 72.0001,-203.468 65.0001,-203.468"/>
</g>
</g>
</svg>
