<?xml version="1.0" encoding="UTF-8" standalone="no"?>
<!DOCTYPE svg PUBLIC "-//W3C//DTD SVG 1.1//EN"
 "http://www.w3.org/Graphics/SVG/1.1/DTD/svg11.dtd">
<!-- Generated by graphviz version 2.38.0 (20140413.2041)
 -->
<!-- Title: tasks::qp::ContactConstrCommon Pages: 1 -->
<svg width="489pt" height="104pt"
 viewBox="0.00 0.00 489.00 104.00" xmlns="http://www.w3.org/2000/svg" xmlns:xlink="http://www.w3.org/1999/xlink">
<g id="graph0" class="graph" transform="scale(1 1) rotate(0) translate(4 100)">
<title>tasks::qp::ContactConstrCommon</title>
<polygon fill="white" stroke="none" points="-4,4 -4,-100 485,-100 485,4 -4,4"/>
<!-- Node1 -->
<g id="node1" class="node"><title>Node1</title>
<polygon fill="#bfbfbf" stroke="black" points="0,-33 0,-63 127,-63 127,-33 0,-33"/>
<text text-anchor="start" x="8" y="-51" font-family="Helvetica,sans-Serif" font-size="10.00">tasks::qp::ContactConstr</text>
<text text-anchor="middle" x="63.5" y="-40" font-family="Helvetica,sans-Serif" font-size="10.00">Common</text>
</g>
<!-- Node2 -->
<g id="node2" class="node"><title>Node2</title>
<g id="a_node2"><a xlink:href="a00018.html" target="_top" xlink:title="Common contact constraint computation. ">
<polygon fill="white" stroke="black" points="163,-38.5 163,-57.5 290,-57.5 290,-38.5 163,-38.5"/>
<text text-anchor="middle" x="226.5" y="-45.5" font-family="Helvetica,sans-Serif" font-size="10.00">tasks::qp::ContactConstr</text>
</a>
</g>
</g>
<!-- Node1&#45;&gt;Node2 -->
<g id="edge1" class="edge"><title>Node1&#45;&gt;Node2</title>
<path fill="none" stroke="midnightblue" d="M137.218,-48C145.813,-48 154.527,-48 162.963,-48"/>
<polygon fill="midnightblue" stroke="midnightblue" points="137.208,-44.5001 127.208,-48 137.208,-51.5001 137.208,-44.5001"/>
</g>
<!-- Node3 -->
<g id="node3" class="node"><title>Node3</title>
<g id="a_node3"><a xlink:href="a00016.html" target="_top" xlink:title="Contact constraint by targeting a null acceleration. ">
<polygon fill="white" stroke="black" points="331.5,-76.5 331.5,-95.5 475.5,-95.5 475.5,-76.5 331.5,-76.5"/>
<text text-anchor="middle" x="403.5" y="-83.5" font-family="Helvetica,sans-Serif" font-size="10.00">tasks::qp::ContactAccConstr</text>
</a>
</g>
</g>
<!-- Node2&#45;&gt;Node3 -->
<g id="edge2" class="edge"><title>Node2&#45;&gt;Node3</title>
<path fill="none" stroke="midnightblue" d="M281.624,-59.7526C306.369,-65.1258 335.303,-71.4086 358.658,-76.4799"/>
<polygon fill="midnightblue" stroke="midnightblue" points="282.175,-56.2908 271.66,-57.589 280.689,-63.1314 282.175,-56.2908"/>
</g>
<!-- Node4 -->
<g id="node4" class="node"><title>Node4</title>
<g id="a_node4"><a xlink:href="a00023.html" target="_top" xlink:title="Contact constraint by targeting a constant frame. ">
<polygon fill="white" stroke="black" points="331.5,-38.5 331.5,-57.5 475.5,-57.5 475.5,-38.5 331.5,-38.5"/>
<text text-anchor="middle" x="403.5" y="-45.5" font-family="Helvetica,sans-Serif" font-size="10.00">tasks::qp::ContactPosConstr</text>
</a>
</g>
</g>
<!-- Node2&#45;&gt;Node4 -->
<g id="edge3" class="edge"><title>Node2&#45;&gt;Node4</title>
<path fill="none" stroke="midnightblue" d="M300.324,-48C310.577,-48 321.107,-48 331.329,-48"/>
<polygon fill="midnightblue" stroke="midnightblue" points="300.185,-44.5001 290.185,-48 300.185,-51.5001 300.185,-44.5001"/>
</g>
<!-- Node5 -->
<g id="node5" class="node"><title>Node5</title>
<g id="a_node5"><a xlink:href="a00025.html" target="_top" xlink:title="Contact constraint by targeting a null velocity. ">
<polygon fill="white" stroke="black" points="326,-0.5 326,-19.5 481,-19.5 481,-0.5 326,-0.5"/>
<text text-anchor="middle" x="403.5" y="-7.5" font-family="Helvetica,sans-Serif" font-size="10.00">tasks::qp::ContactSpeedConstr</text>
</a>
</g>
</g>
<!-- Node2&#45;&gt;Node5 -->
<g id="edge4" class="edge"><title>Node2&#45;&gt;Node5</title>
<path fill="none" stroke="midnightblue" d="M281.624,-36.2474C306.369,-30.8742 335.303,-24.5914 358.658,-19.5201"/>
<polygon fill="midnightblue" stroke="midnightblue" points="280.689,-32.8686 271.66,-38.411 282.175,-39.7092 280.689,-32.8686"/>
</g>
</g>
</svg>
