<?xml version="1.0" encoding="UTF-8" standalone="no"?>
<!DOCTYPE svg PUBLIC "-//W3C//DTD SVG 1.1//EN"
 "http://www.w3.org/Graphics/SVG/1.1/DTD/svg11.dtd">
<!-- Generated by graphviz version 2.38.0 (20140413.2041)
 -->
<!-- Title: tasks::qp::ContactSpeedConstr Pages: 1 -->
<svg width="325pt" height="207pt"
 viewBox="0.00 0.00 324.50 207.00" xmlns="http://www.w3.org/2000/svg" xmlns:xlink="http://www.w3.org/1999/xlink">
<g id="graph0" class="graph" transform="scale(1 1) rotate(0) translate(4 203)">
<title>tasks::qp::ContactSpeedConstr</title>
<polygon fill="white" stroke="none" points="-4,4 -4,-203 320.5,-203 320.5,4 -4,4"/>
<!-- Node1 -->
<g id="node1" class="node"><title>Node1</title>
<polygon fill="#bfbfbf" stroke="black" points="97.5,-0.5 97.5,-19.5 252.5,-19.5 252.5,-0.5 97.5,-0.5"/>
<text text-anchor="middle" x="175" y="-7.5" font-family="Helvetica,sans-Serif" font-size="10.00">tasks::qp::ContactSpeedConstr</text>
</g>
<!-- Node2 -->
<g id="node2" class="node"><title>Node2</title>
<g id="a_node2"><a xlink:href="a00018.html" target="_top" xlink:title="Common contact constraint computation. ">
<polygon fill="white" stroke="black" points="111.5,-56.5 111.5,-75.5 238.5,-75.5 238.5,-56.5 111.5,-56.5"/>
<text text-anchor="middle" x="175" y="-63.5" font-family="Helvetica,sans-Serif" font-size="10.00">tasks::qp::ContactConstr</text>
</a>
</g>
</g>
<!-- Node2&#45;&gt;Node1 -->
<g id="edge1" class="edge"><title>Node2&#45;&gt;Node1</title>
<path fill="none" stroke="midnightblue" d="M175,-45.8045C175,-36.9102 175,-26.7798 175,-19.7511"/>
<polygon fill="midnightblue" stroke="midnightblue" points="171.5,-46.083 175,-56.083 178.5,-46.083 171.5,-46.083"/>
</g>
<!-- Node3 -->
<g id="node3" class="node"><title>Node3</title>
<g id="a_node3"><a xlink:href="a00015.html" target="_top" xlink:title="tasks::qp::ConstraintFunction\l\&lt; Equality \&gt;">
<polygon fill="white" stroke="black" points="25,-112.5 25,-142.5 171,-142.5 171,-112.5 25,-112.5"/>
<text text-anchor="start" x="33" y="-130.5" font-family="Helvetica,sans-Serif" font-size="10.00">tasks::qp::ConstraintFunction</text>
<text text-anchor="middle" x="98" y="-119.5" font-family="Helvetica,sans-Serif" font-size="10.00">&lt; Equality &gt;</text>
</a>
</g>
</g>
<!-- Node3&#45;&gt;Node2 -->
<g id="edge2" class="edge"><title>Node3&#45;&gt;Node2</title>
<path fill="none" stroke="midnightblue" d="M124.285,-106.189C137.766,-95.7719 153.475,-83.6329 163.796,-75.6578"/>
<polygon fill="midnightblue" stroke="midnightblue" points="122.021,-103.515 116.248,-112.399 126.301,-109.054 122.021,-103.515"/>
</g>
<!-- Node4 -->
<g id="node4" class="node"><title>Node4</title>
<g id="a_node4"><a xlink:href="a00014.html" target="_top" xlink:title="tasks::qp::Constraint">
<polygon fill="white" stroke="black" points="0,-179.5 0,-198.5 108,-198.5 108,-179.5 0,-179.5"/>
<text text-anchor="middle" x="54" y="-186.5" font-family="Helvetica,sans-Serif" font-size="10.00">tasks::qp::Constraint</text>
</a>
</g>
</g>
<!-- Node4&#45;&gt;Node3 -->
<g id="edge3" class="edge"><title>Node4&#45;&gt;Node3</title>
<path fill="none" stroke="midnightblue" d="M66.3887,-171.247C73.0889,-162.187 81.2696,-151.124 87.6301,-142.523"/>
<polygon fill="midnightblue" stroke="midnightblue" points="63.4358,-169.354 60.3041,-179.475 69.0641,-173.516 63.4358,-169.354"/>
</g>
<!-- Node5 -->
<g id="node5" class="node"><title>Node5</title>
<polygon fill="white" stroke="#bfbfbf" points="126.5,-179.5 126.5,-198.5 159.5,-198.5 159.5,-179.5 126.5,-179.5"/>
<text text-anchor="middle" x="143" y="-186.5" font-family="Helvetica,sans-Serif" font-size="10.00">Fun</text>
</g>
<!-- Node5&#45;&gt;Node3 -->
<g id="edge4" class="edge"><title>Node5&#45;&gt;Node3</title>
<path fill="none" stroke="midnightblue" d="M130.33,-171.247C123.477,-162.187 115.111,-151.124 108.606,-142.523"/>
<polygon fill="midnightblue" stroke="midnightblue" points="127.729,-173.611 136.553,-179.475 133.312,-169.388 127.729,-173.611"/>
</g>
<!-- Node6 -->
<g id="node6" class="node"><title>Node6</title>
<g id="a_node6"><a xlink:href="a00019.html" target="_top" xlink:title="Manage modifier on contact constraint. ">
<polygon fill="white" stroke="black" points="189.5,-112.5 189.5,-142.5 316.5,-142.5 316.5,-112.5 189.5,-112.5"/>
<text text-anchor="start" x="197.5" y="-130.5" font-family="Helvetica,sans-Serif" font-size="10.00">tasks::qp::ContactConstr</text>
<text text-anchor="middle" x="253" y="-119.5" font-family="Helvetica,sans-Serif" font-size="10.00">Common</text>
</a>
</g>
</g>
<!-- Node6&#45;&gt;Node2 -->
<g id="edge5" class="edge"><title>Node6&#45;&gt;Node2</title>
<path fill="none" stroke="midnightblue" d="M226.373,-106.189C212.718,-95.7719 196.804,-83.6329 186.35,-75.6578"/>
<polygon fill="midnightblue" stroke="midnightblue" points="224.441,-109.117 234.515,-112.399 228.687,-103.551 224.441,-109.117"/>
</g>
</g>
</svg>
