<?xml version="1.0" encoding="UTF-8" standalone="no"?>
<!DOCTYPE svg PUBLIC "-//W3C//DTD SVG 1.1//EN"
 "http://www.w3.org/Graphics/SVG/1.1/DTD/svg11.dtd">
<!-- Generated by graphviz version 2.38.0 (20140413.2041)
 -->
<!-- Title: tasks::qp::MotionPolyConstr Pages: 1 -->
<svg width="187pt" height="207pt"
 viewBox="0.00 0.00 186.50 207.00" xmlns="http://www.w3.org/2000/svg" xmlns:xlink="http://www.w3.org/1999/xlink">
<g id="graph0" class="graph" transform="scale(1 1) rotate(0) translate(4 203)">
<title>tasks::qp::MotionPolyConstr</title>
<polygon fill="white" stroke="none" points="-4,4 -4,-203 182.5,-203 182.5,4 -4,4"/>
<!-- Node1 -->
<g id="node1" class="node"><title>Node1</title>
<polygon fill="#bfbfbf" stroke="black" points="27.5,-0.5 27.5,-19.5 168.5,-19.5 168.5,-0.5 27.5,-0.5"/>
<text text-anchor="middle" x="98" y="-7.5" font-family="Helvetica,sans-Serif" font-size="10.00">tasks::qp::MotionPolyConstr</text>
</g>
<!-- Node2 -->
<g id="node2" class="node"><title>Node2</title>
<g id="a_node2"><a xlink:href="a00053.html" target="_top" xlink:title="tasks::qp::MotionConstrCommon">
<polygon fill="white" stroke="black" points="17.5,-56.5 17.5,-75.5 178.5,-75.5 178.5,-56.5 17.5,-56.5"/>
<text text-anchor="middle" x="98" y="-63.5" font-family="Helvetica,sans-Serif" font-size="10.00">tasks::qp::MotionConstrCommon</text>
</a>
</g>
</g>
<!-- Node2&#45;&gt;Node1 -->
<g id="edge1" class="edge"><title>Node2&#45;&gt;Node1</title>
<path fill="none" stroke="midnightblue" d="M98,-45.8045C98,-36.9102 98,-26.7798 98,-19.7511"/>
<polygon fill="midnightblue" stroke="midnightblue" points="94.5001,-46.083 98,-56.083 101.5,-46.083 94.5001,-46.083"/>
</g>
<!-- Node3 -->
<g id="node3" class="node"><title>Node3</title>
<g id="a_node3"><a xlink:href="a00015.html" target="_top" xlink:title="tasks::qp::ConstraintFunction\l\&lt; GenInequality \&gt;">
<polygon fill="white" stroke="black" points="25,-112.5 25,-142.5 171,-142.5 171,-112.5 25,-112.5"/>
<text text-anchor="start" x="33" y="-130.5" font-family="Helvetica,sans-Serif" font-size="10.00">tasks::qp::ConstraintFunction</text>
<text text-anchor="middle" x="98" y="-119.5" font-family="Helvetica,sans-Serif" font-size="10.00">&lt; GenInequality &gt;</text>
</a>
</g>
</g>
<!-- Node3&#45;&gt;Node2 -->
<g id="edge2" class="edge"><title>Node3&#45;&gt;Node2</title>
<path fill="none" stroke="midnightblue" d="M98,-102.289C98,-92.857 98,-82.6548 98,-75.6578"/>
<polygon fill="midnightblue" stroke="midnightblue" points="94.5001,-102.399 98,-112.399 101.5,-102.399 94.5001,-102.399"/>
</g>
<!-- Node4 -->
<g id="node4" class="node"><title>Node4</title>
<g id="a_node4"><a xlink:href="a00014.html" target="_top" xlink:title="tasks::qp::Constraint">
<polygon fill="white" stroke="black" points="0,-179.5 0,-198.5 108,-198.5 108,-179.5 0,-179.5"/>
<text text-anchor="middle" x="54" y="-186.5" font-family="Helvetica,sans-Serif" font-size="10.00">tasks::qp::Constraint</text>
</a>
</g>
</g>
<!-- Node4&#45;&gt;Node3 -->
<g id="edge3" class="edge"><title>Node4&#45;&gt;Node3</title>
<path fill="none" stroke="midnightblue" d="M66.3887,-171.247C73.0889,-162.187 81.2696,-151.124 87.6301,-142.523"/>
<polygon fill="midnightblue" stroke="midnightblue" points="63.4358,-169.354 60.3041,-179.475 69.0641,-173.516 63.4358,-169.354"/>
</g>
<!-- Node5 -->
<g id="node5" class="node"><title>Node5</title>
<polygon fill="white" stroke="#bfbfbf" points="126.5,-179.5 126.5,-198.5 159.5,-198.5 159.5,-179.5 126.5,-179.5"/>
<text text-anchor="middle" x="143" y="-186.5" font-family="Helvetica,sans-Serif" font-size="10.00">Fun</text>
</g>
<!-- Node5&#45;&gt;Node3 -->
<g id="edge4" class="edge"><title>Node5&#45;&gt;Node3</title>
<path fill="none" stroke="midnightblue" d="M130.33,-171.247C123.477,-162.187 115.111,-151.124 108.606,-142.523"/>
<polygon fill="midnightblue" stroke="midnightblue" points="127.729,-173.611 136.553,-179.475 133.312,-169.388 127.729,-173.611"/>
</g>
</g>
</svg>
