<?xml version="1.0" encoding="UTF-8" standalone="no"?>
<!DOCTYPE svg PUBLIC "-//W3C//DTD SVG 1.1//EN"
 "http://www.w3.org/Graphics/SVG/1.1/DTD/svg11.dtd">
<!-- Generated by graphviz version 2.38.0 (20140413.2041)
 -->
<!-- Title: tasks::qp::MotionConstrCommon::ContactData Pages: 1 -->
<svg width="390pt" height="138pt"
 viewBox="0.00 0.00 390.00 137.50" xmlns="http://www.w3.org/2000/svg" xmlns:xlink="http://www.w3.org/1999/xlink">
<g id="graph0" class="graph" transform="scale(1 1) rotate(0) translate(4 133.5)">
<title>tasks::qp::MotionConstrCommon::ContactData</title>
<polygon fill="white" stroke="none" points="-4,4 -4,-133.5 386,-133.5 386,4 -4,4"/>
<!-- Node1 -->
<g id="node1" class="node"><title>Node1</title>
<polygon fill="#bfbfbf" stroke="black" points="221,-44.5 221,-74.5 382,-74.5 382,-44.5 221,-44.5"/>
<text text-anchor="start" x="229" y="-62.5" font-family="Helvetica,sans-Serif" font-size="10.00">tasks::qp::MotionConstrCommon</text>
<text text-anchor="middle" x="301.5" y="-51.5" font-family="Helvetica,sans-Serif" font-size="10.00">::ContactData</text>
</g>
<!-- Node2 -->
<g id="node2" class="node"><title>Node2</title>
<polygon fill="white" stroke="#bfbfbf" points="0,-88 0,-129 107,-129 107,-88 0,-88"/>
<text text-anchor="start" x="8" y="-117" font-family="Helvetica,sans-Serif" font-size="10.00">std::vector&lt; Eigen</text>
<text text-anchor="start" x="8" y="-106" font-family="Helvetica,sans-Serif" font-size="10.00">::Matrix&lt; double, 3,</text>
<text text-anchor="middle" x="53.5" y="-95" font-family="Helvetica,sans-Serif" font-size="10.00"> Eigen::Dynamic &gt; &gt;</text>
</g>
<!-- Node2&#45;&gt;Node1 -->
<g id="edge1" class="edge"><title>Node2&#45;&gt;Node1</title>
<path fill="none" stroke="#9a32cd" stroke-dasharray="5,2" d="M117.196,-96.0118C150.004,-89.4769 190.418,-81.4269 224.943,-74.55"/>
<polygon fill="#9a32cd" stroke="#9a32cd" points="116.397,-92.6021 107.273,-97.9883 117.764,-99.4673 116.397,-92.6021"/>
<text text-anchor="middle" x="164" y="-96.5" font-family="Helvetica,sans-Serif" font-size="10.00"> minusGenerators</text>
</g>
<!-- Node3 -->
<g id="node3" class="node"><title>Node3</title>
<g id="a_node3"><a doxygen="/usr/local/share/doc/RBDyn/doxygen-html/RBDyn.doxytag:/usr/local/share/doc/RBDyn/doxygen-html/" xlink:href="/usr/local/share/doc/RBDyn/doxygen-html/a00013.html" target="_top" xlink:title="rbd::Jacobian">
<polygon fill="white" stroke="black" points="16,-50 16,-69 91,-69 91,-50 16,-50"/>
<text text-anchor="middle" x="53.5" y="-57" font-family="Helvetica,sans-Serif" font-size="10.00">rbd::Jacobian</text>
</a>
</g>
</g>
<!-- Node3&#45;&gt;Node1 -->
<g id="edge2" class="edge"><title>Node3&#45;&gt;Node1</title>
<path fill="none" stroke="#9a32cd" stroke-dasharray="5,2" d="M101.114,-59.5C134.885,-59.5 181.373,-59.5 220.966,-59.5"/>
<polygon fill="#9a32cd" stroke="#9a32cd" points="101.063,-56.0001 91.0631,-59.5 101.063,-63.0001 101.063,-56.0001"/>
<text text-anchor="middle" x="164" y="-62.5" font-family="Helvetica,sans-Serif" font-size="10.00"> jac</text>
</g>
<!-- Node4 -->
<g id="node4" class="node"><title>Node4</title>
<polygon fill="white" stroke="#bfbfbf" points="5,-0.5 5,-30.5 102,-30.5 102,-0.5 5,-0.5"/>
<text text-anchor="start" x="13" y="-18.5" font-family="Helvetica,sans-Serif" font-size="10.00">std::vector&lt; Eigen</text>
<text text-anchor="middle" x="53.5" y="-7.5" font-family="Helvetica,sans-Serif" font-size="10.00">::Vector3d &gt;</text>
</g>
<!-- Node4&#45;&gt;Node1 -->
<g id="edge3" class="edge"><title>Node4&#45;&gt;Node1</title>
<path fill="none" stroke="#9a32cd" stroke-dasharray="5,2" d="M112.42,-25.8597C144.797,-31.6508 185.624,-38.9531 220.959,-45.2732"/>
<polygon fill="#9a32cd" stroke="#9a32cd" points="112.683,-22.3512 102.223,-24.0358 111.45,-29.2419 112.683,-22.3512"/>
<text text-anchor="middle" x="164" y="-44.5" font-family="Helvetica,sans-Serif" font-size="10.00"> points</text>
</g>
</g>
</svg>
