<?xml version="1.0" encoding="UTF-8" standalone="no"?>
<!DOCTYPE svg PUBLIC "-//W3C//DTD SVG 1.1//EN"
 "http://www.w3.org/Graphics/SVG/1.1/DTD/svg11.dtd">
<!-- Generated by graphviz version 2.38.0 (20140413.2041)
 -->
<!-- Title: tasks::qp::MotionPolyConstr Pages: 1 -->
<svg width="1068pt" height="203pt"
 viewBox="0.00 0.00 1068.00 203.00" xmlns="http://www.w3.org/2000/svg" xmlns:xlink="http://www.w3.org/1999/xlink">
<g id="graph0" class="graph" transform="scale(1 1) rotate(0) translate(4 199)">
<title>tasks::qp::MotionPolyConstr</title>
<polygon fill="white" stroke="none" points="-4,4 -4,-199 1064,-199 1064,4 -4,4"/>
<!-- Node1 -->
<g id="node1" class="node"><title>Node1</title>
<polygon fill="#bfbfbf" stroke="black" points="919,-44.5 919,-63.5 1060,-63.5 1060,-44.5 919,-44.5"/>
<text text-anchor="middle" x="989.5" y="-51.5" font-family="Helvetica,sans-Serif" font-size="10.00">tasks::qp::MotionPolyConstr</text>
</g>
<!-- Node2 -->
<g id="node2" class="node"><title>Node2</title>
<g id="a_node2"><a xlink:href="a00053.html" target="_top" xlink:title="tasks::qp::MotionConstrCommon">
<polygon fill="white" stroke="black" points="671,-88.5 671,-107.5 832,-107.5 832,-88.5 671,-88.5"/>
<text text-anchor="middle" x="751.5" y="-95.5" font-family="Helvetica,sans-Serif" font-size="10.00">tasks::qp::MotionConstrCommon</text>
</a>
</g>
</g>
<!-- Node2&#45;&gt;Node1 -->
<g id="edge1" class="edge"><title>Node2&#45;&gt;Node1</title>
<path fill="none" stroke="midnightblue" d="M842.35,-89.5755C861.79,-87.0666 882.162,-83.9115 901,-80 921.327,-75.7794 943.763,-69.0701 960.827,-63.5243"/>
<polygon fill="midnightblue" stroke="midnightblue" points="841.773,-86.1202 832.282,-90.8291 842.638,-93.0666 841.773,-86.1202"/>
</g>
<!-- Node3 -->
<g id="node3" class="node"><title>Node3</title>
<g id="a_node3"><a xlink:href="a00015.html" target="_top" xlink:title="tasks::qp::ConstraintFunction\l\&lt; GenInequality \&gt;">
<polygon fill="white" stroke="black" points="461,-137 461,-167 607,-167 607,-137 461,-137"/>
<text text-anchor="start" x="469" y="-155" font-family="Helvetica,sans-Serif" font-size="10.00">tasks::qp::ConstraintFunction</text>
<text text-anchor="middle" x="534" y="-144" font-family="Helvetica,sans-Serif" font-size="10.00">&lt; GenInequality &gt;</text>
</a>
</g>
</g>
<!-- Node3&#45;&gt;Node2 -->
<g id="edge2" class="edge"><title>Node3&#45;&gt;Node2</title>
<path fill="none" stroke="midnightblue" d="M604.925,-134.478C640.666,-125.522 682.766,-114.973 712.473,-107.529"/>
<polygon fill="midnightblue" stroke="midnightblue" points="603.878,-131.132 595.029,-136.958 605.58,-137.922 603.878,-131.132"/>
</g>
<!-- Node4 -->
<g id="node4" class="node"><title>Node4</title>
<g id="a_node4"><a xlink:href="a00014.html" target="_top" xlink:title="tasks::qp::Constraint">
<polygon fill="white" stroke="black" points="247.5,-175.5 247.5,-194.5 355.5,-194.5 355.5,-175.5 247.5,-175.5"/>
<text text-anchor="middle" x="301.5" y="-182.5" font-family="Helvetica,sans-Serif" font-size="10.00">tasks::qp::Constraint</text>
</a>
</g>
</g>
<!-- Node4&#45;&gt;Node3 -->
<g id="edge3" class="edge"><title>Node4&#45;&gt;Node3</title>
<path fill="none" stroke="midnightblue" d="M365.829,-175.933C395.27,-171.718 430.426,-166.685 460.885,-162.324"/>
<polygon fill="midnightblue" stroke="midnightblue" points="365.074,-172.506 355.671,-177.388 366.066,-179.435 365.074,-172.506"/>
</g>
<!-- Node5 -->
<g id="node5" class="node"><title>Node5</title>
<polygon fill="white" stroke="#bfbfbf" points="285,-137.5 285,-156.5 318,-156.5 318,-137.5 285,-137.5"/>
<text text-anchor="middle" x="301.5" y="-144.5" font-family="Helvetica,sans-Serif" font-size="10.00">Fun</text>
</g>
<!-- Node5&#45;&gt;Node3 -->
<g id="edge4" class="edge"><title>Node5&#45;&gt;Node3</title>
<path fill="none" stroke="midnightblue" d="M328.602,-147.566C360.525,-148.259 415.871,-149.459 460.925,-150.437"/>
<polygon fill="midnightblue" stroke="midnightblue" points="328.417,-144.061 318.343,-147.344 328.265,-151.06 328.417,-144.061"/>
</g>
<!-- Node6 -->
<g id="node6" class="node"><title>Node6</title>
<polygon fill="white" stroke="#bfbfbf" points="465.5,-77.5 465.5,-118.5 602.5,-118.5 602.5,-77.5 465.5,-77.5"/>
<text text-anchor="start" x="473.5" y="-106.5" font-family="Helvetica,sans-Serif" font-size="10.00">std::vector&lt; tasks</text>
<text text-anchor="start" x="473.5" y="-95.5" font-family="Helvetica,sans-Serif" font-size="10.00">::qp::MotionConstrCommon</text>
<text text-anchor="middle" x="534" y="-84.5" font-family="Helvetica,sans-Serif" font-size="10.00">::ContactData &gt;</text>
</g>
<!-- Node6&#45;&gt;Node2 -->
<g id="edge5" class="edge"><title>Node6&#45;&gt;Node2</title>
<path fill="none" stroke="#9a32cd" stroke-dasharray="5,2" d="M612.627,-98C631.503,-98 651.72,-98 670.695,-98"/>
<polygon fill="#9a32cd" stroke="#9a32cd" points="612.594,-94.5001 602.594,-98 612.594,-101.5 612.594,-94.5001"/>
<text text-anchor="middle" x="639" y="-101" font-family="Helvetica,sans-Serif" font-size="10.00"> cont_</text>
</g>
<!-- Node7 -->
<g id="node7" class="node"><title>Node7</title>
<g id="a_node7"><a xlink:href="a00020.html" target="_top" xlink:title="tasks::qp::MotionConstrCommon\l::ContactData">
<polygon fill="white" stroke="black" points="221,-83 221,-113 382,-113 382,-83 221,-83"/>
<text text-anchor="start" x="229" y="-101" font-family="Helvetica,sans-Serif" font-size="10.00">tasks::qp::MotionConstrCommon</text>
<text text-anchor="middle" x="301.5" y="-90" font-family="Helvetica,sans-Serif" font-size="10.00">::ContactData</text>
</a>
</g>
</g>
<!-- Node7&#45;&gt;Node6 -->
<g id="edge6" class="edge"><title>Node7&#45;&gt;Node6</title>
<path fill="none" stroke="#9a32cd" stroke-dasharray="5,2" d="M392.421,-98C416.646,-98 442.442,-98 465.235,-98"/>
<polygon fill="#9a32cd" stroke="#9a32cd" points="392.148,-94.5001 382.148,-98 392.148,-101.5 392.148,-94.5001"/>
<text text-anchor="middle" x="421.5" y="-101" font-family="Helvetica,sans-Serif" font-size="10.00"> elements</text>
</g>
<!-- Node8 -->
<g id="node8" class="node"><title>Node8</title>
<polygon fill="white" stroke="#bfbfbf" points="0,-126.5 0,-167.5 107,-167.5 107,-126.5 0,-126.5"/>
<text text-anchor="start" x="8" y="-155.5" font-family="Helvetica,sans-Serif" font-size="10.00">std::vector&lt; Eigen</text>
<text text-anchor="start" x="8" y="-144.5" font-family="Helvetica,sans-Serif" font-size="10.00">::Matrix&lt; double, 3,</text>
<text text-anchor="middle" x="53.5" y="-133.5" font-family="Helvetica,sans-Serif" font-size="10.00"> Eigen::Dynamic &gt; &gt;</text>
</g>
<!-- Node8&#45;&gt;Node7 -->
<g id="edge7" class="edge"><title>Node8&#45;&gt;Node7</title>
<path fill="none" stroke="#9a32cd" stroke-dasharray="5,2" d="M117.196,-134.512C150.004,-127.977 190.418,-119.927 224.943,-113.05"/>
<polygon fill="#9a32cd" stroke="#9a32cd" points="116.397,-131.102 107.273,-136.488 117.764,-137.967 116.397,-131.102"/>
<text text-anchor="middle" x="164" y="-136" font-family="Helvetica,sans-Serif" font-size="10.00"> minusGenerators</text>
</g>
<!-- Node9 -->
<g id="node9" class="node"><title>Node9</title>
<g id="a_node9"><a doxygen="/usr/local/share/doc/RBDyn/doxygen-html/RBDyn.doxytag:/usr/local/share/doc/RBDyn/doxygen-html/" xlink:href="/usr/local/share/doc/RBDyn/doxygen-html/a00013.html" target="_top" xlink:title="rbd::Jacobian">
<polygon fill="white" stroke="black" points="16,-88.5 16,-107.5 91,-107.5 91,-88.5 16,-88.5"/>
<text text-anchor="middle" x="53.5" y="-95.5" font-family="Helvetica,sans-Serif" font-size="10.00">rbd::Jacobian</text>
</a>
</g>
</g>
<!-- Node9&#45;&gt;Node7 -->
<g id="edge8" class="edge"><title>Node9&#45;&gt;Node7</title>
<path fill="none" stroke="#9a32cd" stroke-dasharray="5,2" d="M101.114,-98C134.885,-98 181.373,-98 220.966,-98"/>
<polygon fill="#9a32cd" stroke="#9a32cd" points="101.063,-94.5001 91.0631,-98 101.063,-101.5 101.063,-94.5001"/>
<text text-anchor="middle" x="164" y="-101" font-family="Helvetica,sans-Serif" font-size="10.00"> jac</text>
</g>
<!-- Node10 -->
<g id="node10" class="node"><title>Node10</title>
<polygon fill="white" stroke="#bfbfbf" points="5,-39 5,-69 102,-69 102,-39 5,-39"/>
<text text-anchor="start" x="13" y="-57" font-family="Helvetica,sans-Serif" font-size="10.00">std::vector&lt; Eigen</text>
<text text-anchor="middle" x="53.5" y="-46" font-family="Helvetica,sans-Serif" font-size="10.00">::Vector3d &gt;</text>
</g>
<!-- Node10&#45;&gt;Node7 -->
<g id="edge9" class="edge"><title>Node10&#45;&gt;Node7</title>
<path fill="none" stroke="#9a32cd" stroke-dasharray="5,2" d="M112.42,-64.3597C144.797,-70.1508 185.624,-77.4531 220.959,-83.7732"/>
<polygon fill="#9a32cd" stroke="#9a32cd" points="112.683,-60.8512 102.223,-62.5358 111.45,-67.7419 112.683,-60.8512"/>
<text text-anchor="middle" x="164" y="-83" font-family="Helvetica,sans-Serif" font-size="10.00"> points</text>
</g>
<!-- Node11 -->
<g id="node11" class="node"><title>Node11</title>
<g id="a_node11"><a doxygen="/usr/local/share/doc/RBDyn/doxygen-html/RBDyn.doxytag:/usr/local/share/doc/RBDyn/doxygen-html/" xlink:href="/usr/local/share/doc/RBDyn/doxygen-html/a00008.html" target="_top" xlink:title="rbd::ForwardDynamics">
<polygon fill="white" stroke="black" points="476,-39.5 476,-58.5 592,-58.5 592,-39.5 476,-39.5"/>
<text text-anchor="middle" x="534" y="-46.5" font-family="Helvetica,sans-Serif" font-size="10.00">rbd::ForwardDynamics</text>
</a>
</g>
</g>
<!-- Node11&#45;&gt;Node2 -->
<g id="edge10" class="edge"><title>Node11&#45;&gt;Node2</title>
<path fill="none" stroke="#9a32cd" stroke-dasharray="5,2" d="M586.959,-60.8143C624.188,-69.2794 673.689,-80.5348 708.443,-88.4371"/>
<polygon fill="#9a32cd" stroke="#9a32cd" points="587.333,-57.3102 576.806,-58.5058 585.781,-64.1359 587.333,-57.3102"/>
<text text-anchor="middle" x="639" y="-78" font-family="Helvetica,sans-Serif" font-size="10.00"> fd_</text>
</g>
<!-- Node12 -->
<g id="node12" class="node"><title>Node12</title>
<polygon fill="white" stroke="#bfbfbf" points="703,-39 703,-69 800,-69 800,-39 703,-39"/>
<text text-anchor="start" x="711" y="-57" font-family="Helvetica,sans-Serif" font-size="10.00">std::vector&lt; Eigen</text>
<text text-anchor="middle" x="751.5" y="-46" font-family="Helvetica,sans-Serif" font-size="10.00">::VectorXd &gt;</text>
</g>
<!-- Node12&#45;&gt;Node1 -->
<g id="edge11" class="edge"><title>Node12&#45;&gt;Node1</title>
<path fill="none" stroke="#9a32cd" stroke-dasharray="5,2" d="M810.574,-54C843.311,-54 884.426,-54 918.884,-54"/>
<polygon fill="#9a32cd" stroke="#9a32cd" points="810.258,-50.5001 800.258,-54 810.258,-57.5001 810.258,-50.5001"/>
<text text-anchor="middle" x="875.5" y="-68" font-family="Helvetica,sans-Serif" font-size="10.00"> torqueU_</text>
<text text-anchor="middle" x="875.5" y="-57" font-family="Helvetica,sans-Serif" font-size="10.00">torqueL_</text>
</g>
<!-- Node13 -->
<g id="node13" class="node"><title>Node13</title>
<polygon fill="white" stroke="#bfbfbf" points="705.5,-0.5 705.5,-19.5 797.5,-19.5 797.5,-0.5 705.5,-0.5"/>
<text text-anchor="middle" x="751.5" y="-7.5" font-family="Helvetica,sans-Serif" font-size="10.00">std::vector&lt; int &gt;</text>
</g>
<!-- Node13&#45;&gt;Node1 -->
<g id="edge12" class="edge"><title>Node13&#45;&gt;Node1</title>
<path fill="none" stroke="#9a32cd" stroke-dasharray="5,2" d="M807.638,-20.2799C846.805,-27.5823 899.023,-37.3178 937.279,-44.4503"/>
<polygon fill="#9a32cd" stroke="#9a32cd" points="808.196,-16.8238 797.724,-18.4316 806.913,-23.7052 808.196,-16.8238"/>
<text text-anchor="middle" x="875.5" y="-41" font-family="Helvetica,sans-Serif" font-size="10.00"> jointIndex_</text>
</g>
</g>
</svg>
