<?xml version="1.0" encoding="UTF-8" standalone="no"?>
<!DOCTYPE svg PUBLIC "-//W3C//DTD SVG 1.1//EN"
 "http://www.w3.org/Graphics/SVG/1.1/DTD/svg11.dtd">
<!-- Generated by graphviz version 2.38.0 (20140413.2041)
 -->
<!-- Title: tasks::qp::UnilateralContact Pages: 1 -->
<svg width="343pt" height="265pt"
 viewBox="0.00 0.00 342.50 265.00" xmlns="http://www.w3.org/2000/svg" xmlns:xlink="http://www.w3.org/1999/xlink">
<g id="graph0" class="graph" transform="scale(1 1) rotate(0) translate(4 261)">
<title>tasks::qp::UnilateralContact</title>
<polygon fill="white" stroke="none" points="-4,4 -4,-261 338.5,-261 338.5,4 -4,4"/>
<!-- Node1 -->
<g id="node1" class="node"><title>Node1</title>
<polygon fill="#bfbfbf" stroke="black" points="73.5,-0.5 73.5,-19.5 222.5,-19.5 222.5,-0.5 73.5,-0.5"/>
<text text-anchor="middle" x="148" y="-7.5" font-family="Helvetica,sans-Serif" font-size="10.00">tasks::qp::UnilateralContact</text>
</g>
<!-- Node2 -->
<g id="node2" class="node"><title>Node2</title>
<g id="a_node2"><a xlink:href="a00023.html" target="_top" xlink:title="Unique identifier for a contact. ">
<polygon fill="white" stroke="black" points="0,-79.5 0,-98.5 112,-98.5 112,-79.5 0,-79.5"/>
<text text-anchor="middle" x="56" y="-86.5" font-family="Helvetica,sans-Serif" font-size="10.00">tasks::qp::ContactId</text>
</a>
</g>
</g>
<!-- Node2&#45;&gt;Node1 -->
<g id="edge1" class="edge"><title>Node2&#45;&gt;Node1</title>
<path fill="none" stroke="#9a32cd" stroke-dasharray="5,2" d="M63.4032,-70.0168C68.4709,-59.5392 76.0728,-46.7164 86,-38 95.2633,-29.8665 107.358,-23.8629 118.403,-19.6102"/>
<polygon fill="#9a32cd" stroke="#9a32cd" points="60.0625,-68.9149 59.1881,-79.4736 66.4561,-71.7648 60.0625,-68.9149"/>
<text text-anchor="middle" x="110" y="-46.5" font-family="Helvetica,sans-Serif" font-size="10.00"> contactId</text>
</g>
<!-- Node3 -->
<g id="node3" class="node"><title>Node3</title>
<g id="a_node3"><a xlink:title="STL class. ">
<polygon fill="white" stroke="#bfbfbf" points="23.5,-164 23.5,-183 88.5,-183 88.5,-164 23.5,-164"/>
<text text-anchor="middle" x="56" y="-171" font-family="Helvetica,sans-Serif" font-size="10.00">std::string</text>
</a>
</g>
</g>
<!-- Node3&#45;&gt;Node2 -->
<g id="edge2" class="edge"><title>Node3&#45;&gt;Node2</title>
<path fill="none" stroke="#9a32cd" stroke-dasharray="5,2" d="M56,-153.933C56,-136.634 56,-111.611 56,-98.5955"/>
<polygon fill="#9a32cd" stroke="#9a32cd" points="52.5001,-153.982 56,-163.982 59.5001,-153.982 52.5001,-153.982"/>
<text text-anchor="middle" x="89.5" y="-132" font-family="Helvetica,sans-Serif" font-size="10.00"> r2BodyName</text>
<text text-anchor="middle" x="89.5" y="-121" font-family="Helvetica,sans-Serif" font-size="10.00">r1BodyName</text>
</g>
<!-- Node4 -->
<g id="node4" class="node"><title>Node4</title>
<g id="a_node4"><a xlink:title="STL class. ">
<polygon fill="white" stroke="#bfbfbf" points="4.5,-226.5 4.5,-256.5 107.5,-256.5 107.5,-226.5 4.5,-226.5"/>
<text text-anchor="start" x="12.5" y="-244.5" font-family="Helvetica,sans-Serif" font-size="10.00">std::basic_string&lt;</text>
<text text-anchor="middle" x="56" y="-233.5" font-family="Helvetica,sans-Serif" font-size="10.00"> char &gt;</text>
</a>
</g>
</g>
<!-- Node4&#45;&gt;Node3 -->
<g id="edge3" class="edge"><title>Node4&#45;&gt;Node3</title>
<path fill="none" stroke="midnightblue" d="M56,-215.876C56,-204.471 56,-191.636 56,-183.328"/>
<polygon fill="midnightblue" stroke="midnightblue" points="52.5001,-216.179 56,-226.179 59.5001,-216.179 52.5001,-216.179"/>
</g>
<!-- Node5 -->
<g id="node5" class="node"><title>Node5</title>
<g id="a_node5"><a xlink:href="a00032.html" target="_top" xlink:title="Linearized friction cone generator. ">
<polygon fill="white" stroke="black" points="209.5,-79.5 209.5,-98.5 334.5,-98.5 334.5,-79.5 209.5,-79.5"/>
<text text-anchor="middle" x="272" y="-86.5" font-family="Helvetica,sans-Serif" font-size="10.00">tasks::qp::FrictionCone</text>
</a>
</g>
</g>
<!-- Node5&#45;&gt;Node1 -->
<g id="edge4" class="edge"><title>Node5&#45;&gt;Node1</title>
<path fill="none" stroke="#9a32cd" stroke-dasharray="5,2" d="M249.606,-74.0944C224.057,-58.2289 183.072,-32.7786 161.806,-19.5728"/>
<polygon fill="#9a32cd" stroke="#9a32cd" points="247.914,-77.1634 258.256,-79.4655 251.607,-71.2167 247.914,-77.1634"/>
<text text-anchor="middle" x="244" y="-52" font-family="Helvetica,sans-Serif" font-size="10.00"> r1Cone</text>
<text text-anchor="middle" x="244" y="-41" font-family="Helvetica,sans-Serif" font-size="10.00">r2Cone</text>
</g>
<!-- Node6 -->
<g id="node6" class="node"><title>Node6</title>
<polygon fill="white" stroke="#bfbfbf" points="139.5,-158.5 139.5,-188.5 244.5,-188.5 244.5,-158.5 139.5,-158.5"/>
<text text-anchor="start" x="147.5" y="-176.5" font-family="Helvetica,sans-Serif" font-size="10.00">std::vector&lt; Eigen</text>
<text text-anchor="middle" x="192" y="-165.5" font-family="Helvetica,sans-Serif" font-size="10.00">::Vector3d &gt;</text>
</g>
<!-- Node6&#45;&gt;Node1 -->
<g id="edge6" class="edge"><title>Node6&#45;&gt;Node1</title>
<path fill="none" stroke="#9a32cd" stroke-dasharray="5,2" d="M178.829,-149.478C171.494,-135.587 162.88,-117.284 158,-100 149.888,-71.27 148.319,-35.5725 148.041,-19.5194"/>
<polygon fill="#9a32cd" stroke="#9a32cd" points="175.788,-151.213 183.642,-158.324 181.937,-147.867 175.788,-151.213"/>
<text text-anchor="middle" x="179.5" y="-92" font-family="Helvetica,sans-Serif" font-size="10.00"> r1Points</text>
<text text-anchor="middle" x="179.5" y="-81" font-family="Helvetica,sans-Serif" font-size="10.00">r2Points</text>
</g>
<!-- Node6&#45;&gt;Node5 -->
<g id="edge5" class="edge"><title>Node6&#45;&gt;Node5</title>
<path fill="none" stroke="#9a32cd" stroke-dasharray="5,2" d="M213.078,-150.763C229.607,-133.718 251.737,-110.896 263.618,-98.6439"/>
<polygon fill="#9a32cd" stroke="#9a32cd" points="210.384,-148.514 205.935,-158.13 215.409,-153.387 210.384,-148.514"/>
<text text-anchor="middle" x="272" y="-126.5" font-family="Helvetica,sans-Serif" font-size="10.00"> generators</text>
</g>
</g>
</svg>
