<?xml version="1.0" encoding="UTF-8" standalone="no"?>
<!DOCTYPE svg PUBLIC "-//W3C//DTD SVG 1.1//EN"
 "http://www.w3.org/Graphics/SVG/1.1/DTD/svg11.dtd">
<!-- Generated by graphviz version 2.38.0 (20140413.2041)
 -->
<!-- Title: tasks::qp::UnilateralContact Pages: 1 -->
<svg width="328pt" height="265pt"
 viewBox="0.00 0.00 327.50 265.00" xmlns="http://www.w3.org/2000/svg" xmlns:xlink="http://www.w3.org/1999/xlink">
<g id="graph0" class="graph" transform="scale(1 1) rotate(0) translate(4 261)">
<title>tasks::qp::UnilateralContact</title>
<polygon fill="white" stroke="none" points="-4,4 -4,-261 323.5,-261 323.5,4 -4,4"/>
<!-- Node1 -->
<g id="node1" class="node"><title>Node1</title>
<polygon fill="#bfbfbf" stroke="black" points="72.5,-0.5 72.5,-19.5 211.5,-19.5 211.5,-0.5 72.5,-0.5"/>
<text text-anchor="middle" x="142" y="-7.5" font-family="Helvetica,sans-Serif" font-size="10.00">tasks::qp::UnilateralContact</text>
</g>
<!-- Node2 -->
<g id="node2" class="node"><title>Node2</title>
<g id="a_node2"><a xlink:href="a00022.html" target="_top" xlink:title="Unique identifier for a contact. ">
<polygon fill="white" stroke="black" points="0,-79.5 0,-98.5 106,-98.5 106,-79.5 0,-79.5"/>
<text text-anchor="middle" x="53" y="-86.5" font-family="Helvetica,sans-Serif" font-size="10.00">tasks::qp::ContactId</text>
</a>
</g>
</g>
<!-- Node2&#45;&gt;Node1 -->
<g id="edge1" class="edge"><title>Node2&#45;&gt;Node1</title>
<path fill="none" stroke="#9a32cd" stroke-dasharray="5,2" d="M60.8768,-70.0728C66.1879,-59.6357 74.0419,-46.8356 84,-38 93.0559,-29.9649 104.915,-23.8774 115.548,-19.5356"/>
<polygon fill="#9a32cd" stroke="#9a32cd" points="57.6955,-68.613 56.5782,-79.1488 64.0218,-71.6093 57.6955,-68.613"/>
<text text-anchor="middle" x="106" y="-46.5" font-family="Helvetica,sans-Serif" font-size="10.00"> contactId</text>
</g>
<!-- Node3 -->
<g id="node3" class="node"><title>Node3</title>
<g id="a_node3"><a xlink:title="STL class. ">
<polygon fill="white" stroke="#bfbfbf" points="23,-164 23,-183 83,-183 83,-164 23,-164"/>
<text text-anchor="middle" x="53" y="-171" font-family="Helvetica,sans-Serif" font-size="10.00">std::string</text>
</a>
</g>
</g>
<!-- Node3&#45;&gt;Node2 -->
<g id="edge2" class="edge"><title>Node3&#45;&gt;Node2</title>
<path fill="none" stroke="#9a32cd" stroke-dasharray="5,2" d="M53,-153.933C53,-136.634 53,-111.611 53,-98.5955"/>
<polygon fill="#9a32cd" stroke="#9a32cd" points="49.5001,-153.982 53,-163.982 56.5001,-153.982 49.5001,-153.982"/>
<text text-anchor="middle" x="83.5" y="-132" font-family="Helvetica,sans-Serif" font-size="10.00"> r2BodyName</text>
<text text-anchor="middle" x="83.5" y="-121" font-family="Helvetica,sans-Serif" font-size="10.00">r1BodyName</text>
</g>
<!-- Node4 -->
<g id="node4" class="node"><title>Node4</title>
<g id="a_node4"><a xlink:title="STL class. ">
<polygon fill="white" stroke="#bfbfbf" points="5.5,-226.5 5.5,-256.5 100.5,-256.5 100.5,-226.5 5.5,-226.5"/>
<text text-anchor="start" x="13.5" y="-244.5" font-family="Helvetica,sans-Serif" font-size="10.00">std::basic_string&lt;</text>
<text text-anchor="middle" x="53" y="-233.5" font-family="Helvetica,sans-Serif" font-size="10.00"> char &gt;</text>
</a>
</g>
</g>
<!-- Node4&#45;&gt;Node3 -->
<g id="edge3" class="edge"><title>Node4&#45;&gt;Node3</title>
<path fill="none" stroke="midnightblue" d="M53,-215.876C53,-204.471 53,-191.636 53,-183.328"/>
<polygon fill="midnightblue" stroke="midnightblue" points="49.5001,-216.179 53,-226.179 56.5001,-216.179 49.5001,-216.179"/>
</g>
<!-- Node5 -->
<g id="node5" class="node"><title>Node5</title>
<g id="a_node5"><a xlink:href="a00031.html" target="_top" xlink:title="Linearized friction cone generator. ">
<polygon fill="white" stroke="black" points="200.5,-79.5 200.5,-98.5 319.5,-98.5 319.5,-79.5 200.5,-79.5"/>
<text text-anchor="middle" x="260" y="-86.5" font-family="Helvetica,sans-Serif" font-size="10.00">tasks::qp::FrictionCone</text>
</a>
</g>
</g>
<!-- Node5&#45;&gt;Node1 -->
<g id="edge4" class="edge"><title>Node5&#45;&gt;Node1</title>
<path fill="none" stroke="#9a32cd" stroke-dasharray="5,2" d="M238.369,-73.885C214.035,-58.0058 175.286,-32.7207 155.137,-19.5728"/>
<polygon fill="#9a32cd" stroke="#9a32cd" points="236.634,-76.9317 246.921,-79.4655 240.459,-71.0694 236.634,-76.9317"/>
<text text-anchor="middle" x="233.5" y="-52" font-family="Helvetica,sans-Serif" font-size="10.00"> r1Cone</text>
<text text-anchor="middle" x="233.5" y="-41" font-family="Helvetica,sans-Serif" font-size="10.00">r2Cone</text>
</g>
<!-- Node6 -->
<g id="node6" class="node"><title>Node6</title>
<polygon fill="white" stroke="#bfbfbf" points="134.5,-158.5 134.5,-188.5 231.5,-188.5 231.5,-158.5 134.5,-158.5"/>
<text text-anchor="start" x="142.5" y="-176.5" font-family="Helvetica,sans-Serif" font-size="10.00">std::vector&lt; Eigen</text>
<text text-anchor="middle" x="183" y="-165.5" font-family="Helvetica,sans-Serif" font-size="10.00">::Vector3d &gt;</text>
</g>
<!-- Node6&#45;&gt;Node1 -->
<g id="edge6" class="edge"><title>Node6&#45;&gt;Node1</title>
<path fill="none" stroke="#9a32cd" stroke-dasharray="5,2" d="M170.364,-149.002C163.49,-135.136 155.495,-117.02 151,-100 143.386,-71.1706 142.13,-35.5228 141.979,-19.5007"/>
<polygon fill="#9a32cd" stroke="#9a32cd" points="167.435,-150.962 175.105,-158.271 173.667,-147.774 167.435,-150.962"/>
<text text-anchor="middle" x="171" y="-92" font-family="Helvetica,sans-Serif" font-size="10.00"> r1Points</text>
<text text-anchor="middle" x="171" y="-81" font-family="Helvetica,sans-Serif" font-size="10.00">r2Points</text>
</g>
<!-- Node6&#45;&gt;Node5 -->
<g id="edge5" class="edge"><title>Node6&#45;&gt;Node5</title>
<path fill="none" stroke="#9a32cd" stroke-dasharray="5,2" d="M203.288,-150.763C219.197,-133.718 240.497,-110.896 251.932,-98.6439"/>
<polygon fill="#9a32cd" stroke="#9a32cd" points="200.677,-148.431 196.412,-158.13 205.794,-153.207 200.677,-148.431"/>
<text text-anchor="middle" x="257.5" y="-126.5" font-family="Helvetica,sans-Serif" font-size="10.00"> generators</text>
</g>
</g>
</svg>
