<?xml version="1.0" encoding="UTF-8" standalone="no"?>
<!DOCTYPE svg PUBLIC "-//W3C//DTD SVG 1.1//EN"
 "http://www.w3.org/Graphics/SVG/1.1/DTD/svg11.dtd">
<!-- Generated by graphviz version 2.38.0 (20140413.2041)
 -->
<!-- Title: tasks::qp::TrajectoryTask Pages: 1 -->
<svg width="240pt" height="152pt"
 viewBox="0.00 0.00 239.50 152.00" xmlns="http://www.w3.org/2000/svg" xmlns:xlink="http://www.w3.org/1999/xlink">
<g id="graph0" class="graph" transform="scale(1 1) rotate(0) translate(4 148)">
<title>tasks::qp::TrajectoryTask</title>
<polygon fill="white" stroke="none" points="-4,4 -4,-148 235.5,-148 235.5,4 -4,4"/>
<!-- Node1 -->
<g id="node1" class="node"><title>Node1</title>
<polygon fill="#bfbfbf" stroke="black" points="40.5,-0.5 40.5,-19.5 168.5,-19.5 168.5,-0.5 40.5,-0.5"/>
<text text-anchor="middle" x="104.5" y="-7.5" font-family="Helvetica,sans-Serif" font-size="10.00">tasks::qp::TrajectoryTask</text>
</g>
<!-- Node2 -->
<g id="node2" class="node"><title>Node2</title>
<g id="a_node2"><a xlink:href="a00080.html" target="_top" xlink:title="tasks::qp::SetPointTaskCommon">
<polygon fill="white" stroke="black" points="23.5,-57.5 23.5,-76.5 185.5,-76.5 185.5,-57.5 23.5,-57.5"/>
<text text-anchor="middle" x="104.5" y="-64.5" font-family="Helvetica,sans-Serif" font-size="10.00">tasks::qp::SetPointTaskCommon</text>
</a>
</g>
</g>
<!-- Node2&#45;&gt;Node1 -->
<g id="edge1" class="edge"><title>Node2&#45;&gt;Node1</title>
<path fill="none" stroke="midnightblue" d="M104.5,-47.1166C104.5,-37.8173 104.5,-27.0557 104.5,-19.7149"/>
<polygon fill="midnightblue" stroke="midnightblue" points="101,-47.4062 104.5,-57.4062 108,-47.4063 101,-47.4062"/>
</g>
<!-- Node3 -->
<g id="node3" class="node"><title>Node3</title>
<g id="a_node3"><a xlink:href="a00089.html" target="_top" xlink:title="tasks::qp::Task">
<polygon fill="white" stroke="black" points="0,-124.5 0,-143.5 85,-143.5 85,-124.5 0,-124.5"/>
<text text-anchor="middle" x="42.5" y="-131.5" font-family="Helvetica,sans-Serif" font-size="10.00">tasks::qp::Task</text>
</a>
</g>
</g>
<!-- Node3&#45;&gt;Node2 -->
<g id="edge2" class="edge"><title>Node3&#45;&gt;Node2</title>
<path fill="none" stroke="midnightblue" d="M57.7646,-116.997C69.9235,-104.25 86.4774,-86.8947 96.2709,-76.6273"/>
<polygon fill="midnightblue" stroke="midnightblue" points="55.2311,-114.582 50.8616,-124.234 60.2964,-119.413 55.2311,-114.582"/>
</g>
<!-- Node4 -->
<g id="node4" class="node"><title>Node4</title>
<g id="a_node4"><a xlink:href="a00038.html" target="_top" xlink:title="tasks::qp::HighLevelTask">
<polygon fill="white" stroke="black" points="103.5,-124.5 103.5,-143.5 231.5,-143.5 231.5,-124.5 103.5,-124.5"/>
<text text-anchor="middle" x="167.5" y="-131.5" font-family="Helvetica,sans-Serif" font-size="10.00">tasks::qp::HighLevelTask</text>
</a>
</g>
</g>
<!-- Node4&#45;&gt;Node2 -->
<g id="edge3" class="edge"><title>Node4&#45;&gt;Node2</title>
<path fill="none" stroke="#9a32cd" stroke-dasharray="5,2" d="M151.989,-116.997C139.634,-104.25 122.813,-86.8947 112.862,-76.6273"/>
<polygon fill="#9a32cd" stroke="#9a32cd" points="149.531,-119.489 159.004,-124.234 154.557,-114.617 149.531,-119.489"/>
<text text-anchor="middle" x="159.5" y="-98" font-family="Helvetica,sans-Serif" font-size="10.00"> hlTask_</text>
</g>
</g>
</svg>
