<?xml version="1.0" encoding="UTF-8" standalone="no"?>
<!DOCTYPE svg PUBLIC "-//W3C//DTD SVG 1.1//EN"
 "http://www.w3.org/Graphics/SVG/1.1/DTD/svg11.dtd">
<!-- Generated by graphviz version 2.38.0 (20140413.2041)
 -->
<!-- Title: tasks::qp::SetPointTaskCommon Pages: 1 -->
<svg width="455pt" height="142pt"
 viewBox="0.00 0.00 455.00 142.00" xmlns="http://www.w3.org/2000/svg" xmlns:xlink="http://www.w3.org/1999/xlink">
<g id="graph0" class="graph" transform="scale(1 1) rotate(0) translate(4 138)">
<title>tasks::qp::SetPointTaskCommon</title>
<polygon fill="white" stroke="none" points="-4,4 -4,-138 451,-138 451,4 -4,4"/>
<!-- Node1 -->
<g id="node1" class="node"><title>Node1</title>
<polygon fill="#bfbfbf" stroke="black" points="121,-57.5 121,-76.5 283,-76.5 283,-57.5 121,-57.5"/>
<text text-anchor="middle" x="202" y="-64.5" font-family="Helvetica,sans-Serif" font-size="10.00">tasks::qp::SetPointTaskCommon</text>
</g>
<!-- Node3 -->
<g id="node3" class="node"><title>Node3</title>
<g id="a_node3"><a xlink:href="a00062.html" target="_top" xlink:title="tasks::qp::PIDTask">
<polygon fill="white" stroke="black" points="332,-114.5 332,-133.5 434,-133.5 434,-114.5 332,-114.5"/>
<text text-anchor="middle" x="383" y="-121.5" font-family="Helvetica,sans-Serif" font-size="10.00">tasks::qp::PIDTask</text>
</a>
</g>
</g>
<!-- Node1&#45;&gt;Node3 -->
<g id="edge2" class="edge"><title>Node1&#45;&gt;Node3</title>
<path fill="none" stroke="midnightblue" d="M241.107,-79.7348C263.706,-87.2241 292.938,-96.8024 319,-105 329.026,-108.154 339.982,-111.494 349.905,-114.48"/>
<polygon fill="midnightblue" stroke="midnightblue" points="242.136,-76.3884 231.542,-76.5584 239.929,-83.0317 242.136,-76.3884"/>
</g>
<!-- Node4 -->
<g id="node4" class="node"><title>Node4</title>
<g id="a_node4"><a xlink:href="a00077.html" target="_top" xlink:title="tasks::qp::SetPointTask">
<polygon fill="white" stroke="black" points="322,-76.5 322,-95.5 444,-95.5 444,-76.5 322,-76.5"/>
<text text-anchor="middle" x="383" y="-83.5" font-family="Helvetica,sans-Serif" font-size="10.00">tasks::qp::SetPointTask</text>
</a>
</g>
</g>
<!-- Node1&#45;&gt;Node4 -->
<g id="edge3" class="edge"><title>Node1&#45;&gt;Node4</title>
<path fill="none" stroke="midnightblue" d="M293.19,-76.5732C302.91,-77.605 312.619,-78.6355 321.859,-79.6163"/>
<polygon fill="midnightblue" stroke="midnightblue" points="293.39,-73.0749 283.076,-75.4997 292.651,-80.0358 293.39,-73.0749"/>
</g>
<!-- Node5 -->
<g id="node5" class="node"><title>Node5</title>
<g id="a_node5"><a xlink:href="a00090.html" target="_top" xlink:title="tasks::qp::TrackingTask">
<polygon fill="white" stroke="black" points="322,-38.5 322,-57.5 444,-57.5 444,-38.5 322,-38.5"/>
<text text-anchor="middle" x="383" y="-45.5" font-family="Helvetica,sans-Serif" font-size="10.00">tasks::qp::TrackingTask</text>
</a>
</g>
</g>
<!-- Node1&#45;&gt;Node5 -->
<g id="edge4" class="edge"><title>Node1&#45;&gt;Node5</title>
<path fill="none" stroke="midnightblue" d="M293.19,-57.4268C302.91,-56.395 312.619,-55.3645 321.859,-54.3837"/>
<polygon fill="midnightblue" stroke="midnightblue" points="292.651,-53.9642 283.076,-58.5003 293.39,-60.9251 292.651,-53.9642"/>
</g>
<!-- Node6 -->
<g id="node6" class="node"><title>Node6</title>
<g id="a_node6"><a xlink:href="a00091.html" target="_top" xlink:title="tasks::qp::TrajectoryTask">
<polygon fill="white" stroke="black" points="319,-0.5 319,-19.5 447,-19.5 447,-0.5 319,-0.5"/>
<text text-anchor="middle" x="383" y="-7.5" font-family="Helvetica,sans-Serif" font-size="10.00">tasks::qp::TrajectoryTask</text>
</a>
</g>
</g>
<!-- Node1&#45;&gt;Node6 -->
<g id="edge5" class="edge"><title>Node1&#45;&gt;Node6</title>
<path fill="none" stroke="midnightblue" d="M241.107,-54.2652C263.706,-46.7759 292.938,-37.1976 319,-29 329.026,-25.8465 339.982,-22.5057 349.905,-19.5195"/>
<polygon fill="midnightblue" stroke="midnightblue" points="239.929,-50.9683 231.542,-57.4416 242.136,-57.6116 239.929,-50.9683"/>
</g>
<!-- Node2 -->
<g id="node2" class="node"><title>Node2</title>
<g id="a_node2"><a xlink:href="a00087.html" target="_top" xlink:title="tasks::qp::Task">
<polygon fill="white" stroke="black" points="0,-57.5 0,-76.5 85,-76.5 85,-57.5 0,-57.5"/>
<text text-anchor="middle" x="42.5" y="-64.5" font-family="Helvetica,sans-Serif" font-size="10.00">tasks::qp::Task</text>
</a>
</g>
</g>
<!-- Node2&#45;&gt;Node1 -->
<g id="edge1" class="edge"><title>Node2&#45;&gt;Node1</title>
<path fill="none" stroke="midnightblue" d="M95.4136,-67C103.614,-67 112.256,-67 120.919,-67"/>
<polygon fill="midnightblue" stroke="midnightblue" points="95.2936,-63.5001 85.2936,-67 95.2936,-70.5001 95.2936,-63.5001"/>
</g>
</g>
</svg>
