<?xml version="1.0" encoding="UTF-8" standalone="no"?>
<!DOCTYPE svg PUBLIC "-//W3C//DTD SVG 1.1//EN"
 "http://www.w3.org/Graphics/SVG/1.1/DTD/svg11.dtd">
<!-- Generated by graphviz version 2.38.0 (20140413.2041)
 -->
<!-- Title: tasks::qp::SurfaceTransformTask Pages: 1 -->
<svg width="303pt" height="298pt"
 viewBox="0.00 0.00 303.00 298.00" xmlns="http://www.w3.org/2000/svg" xmlns:xlink="http://www.w3.org/1999/xlink">
<g id="graph0" class="graph" transform="scale(1 1) rotate(0) translate(4 294)">
<title>tasks::qp::SurfaceTransformTask</title>
<polygon fill="white" stroke="none" points="-4,4 -4,-294 299,-294 299,4 -4,4"/>
<!-- Node1 -->
<g id="node1" class="node"><title>Node1</title>
<polygon fill="#bfbfbf" stroke="black" points="29.5,-0.5 29.5,-19.5 192.5,-19.5 192.5,-0.5 29.5,-0.5"/>
<text text-anchor="middle" x="111" y="-7.5" font-family="Helvetica,sans-Serif" font-size="10.00">tasks::qp::SurfaceTransformTask</text>
</g>
<!-- Node2 -->
<g id="node2" class="node"><title>Node2</title>
<g id="a_node2"><a xlink:href="a00097.html" target="_top" xlink:title="tasks::qp::TransformTask\lCommon\&lt; tasks::SurfaceTransform\lTask \&gt;">
<polygon fill="white" stroke="black" points="24.5,-57.5 24.5,-98.5 197.5,-98.5 197.5,-57.5 24.5,-57.5"/>
<text text-anchor="start" x="32.5" y="-86.5" font-family="Helvetica,sans-Serif" font-size="10.00">tasks::qp::TransformTask</text>
<text text-anchor="start" x="32.5" y="-75.5" font-family="Helvetica,sans-Serif" font-size="10.00">Common&lt; tasks::SurfaceTransform</text>
<text text-anchor="middle" x="111" y="-64.5" font-family="Helvetica,sans-Serif" font-size="10.00">Task &gt;</text>
</a>
</g>
</g>
<!-- Node2&#45;&gt;Node1 -->
<g id="edge1" class="edge"><title>Node2&#45;&gt;Node1</title>
<path fill="none" stroke="midnightblue" d="M111,-47.1201C111,-37.1695 111,-26.8372 111,-19.7856"/>
<polygon fill="midnightblue" stroke="midnightblue" points="107.5,-47.1978 111,-57.1978 114.5,-47.1979 107.5,-47.1978"/>
</g>
<!-- Node3 -->
<g id="node3" class="node"><title>Node3</title>
<g id="a_node3"><a xlink:href="a00038.html" target="_top" xlink:title="tasks::qp::HighLevelTask">
<polygon fill="white" stroke="black" points="0,-146.5 0,-165.5 128,-165.5 128,-146.5 0,-146.5"/>
<text text-anchor="middle" x="64" y="-153.5" font-family="Helvetica,sans-Serif" font-size="10.00">tasks::qp::HighLevelTask</text>
</a>
</g>
</g>
<!-- Node3&#45;&gt;Node2 -->
<g id="edge2" class="edge"><title>Node3&#45;&gt;Node2</title>
<path fill="none" stroke="midnightblue" d="M74.7936,-137.547C81.9686,-125.944 91.4033,-110.688 98.8429,-98.6584"/>
<polygon fill="midnightblue" stroke="midnightblue" points="71.6745,-135.936 69.3915,-146.282 77.628,-139.618 71.6745,-135.936"/>
</g>
<!-- Node4 -->
<g id="node4" class="node"><title>Node4</title>
<g id="a_node4"><a xlink:href="a00087.html" target="_top" xlink:title="tasks::SurfaceTransformTask">
<polygon fill="white" stroke="black" points="146,-146.5 146,-165.5 292,-165.5 292,-146.5 146,-146.5"/>
<text text-anchor="middle" x="219" y="-153.5" font-family="Helvetica,sans-Serif" font-size="10.00">tasks::SurfaceTransformTask</text>
</a>
</g>
</g>
<!-- Node4&#45;&gt;Node2 -->
<g id="edge3" class="edge"><title>Node4&#45;&gt;Node2</title>
<path fill="none" stroke="#9a32cd" stroke-dasharray="5,2" d="M198.05,-140.257C181.209,-128.406 157.398,-111.651 138.936,-98.6584"/>
<polygon fill="#9a32cd" stroke="#9a32cd" points="196.419,-143.389 206.611,-146.282 200.447,-137.665 196.419,-143.389"/>
<text text-anchor="middle" x="184.5" y="-120" font-family="Helvetica,sans-Serif" font-size="10.00"> tt_</text>
</g>
<!-- Node5 -->
<g id="node5" class="node"><title>Node5</title>
<g id="a_node5"><a xlink:href="a00096.html" target="_top" xlink:title="tasks::TransformTaskCommon">
<polygon fill="white" stroke="black" points="143,-203.5 143,-222.5 295,-222.5 295,-203.5 143,-203.5"/>
<text text-anchor="middle" x="219" y="-210.5" font-family="Helvetica,sans-Serif" font-size="10.00">tasks::TransformTaskCommon</text>
</a>
</g>
</g>
<!-- Node5&#45;&gt;Node4 -->
<g id="edge4" class="edge"><title>Node5&#45;&gt;Node4</title>
<path fill="none" stroke="midnightblue" d="M219,-193.117C219,-183.817 219,-173.056 219,-165.715"/>
<polygon fill="midnightblue" stroke="midnightblue" points="215.5,-193.406 219,-203.406 222.5,-193.406 215.5,-193.406"/>
</g>
<!-- Node6 -->
<g id="node6" class="node"><title>Node6</title>
<g id="a_node6"><a doxygen="/usr/local/share/doc/RBDyn/doxygen-html/RBDyn.doxytag:/usr/local/share/doc/RBDyn/doxygen-html/" xlink:href="/usr/local/share/doc/RBDyn/doxygen-html/a00013.html" target="_top" xlink:title="rbd::Jacobian">
<polygon fill="white" stroke="black" points="181.5,-270.5 181.5,-289.5 256.5,-289.5 256.5,-270.5 181.5,-270.5"/>
<text text-anchor="middle" x="219" y="-277.5" font-family="Helvetica,sans-Serif" font-size="10.00">rbd::Jacobian</text>
</a>
</g>
</g>
<!-- Node6&#45;&gt;Node5 -->
<g id="edge5" class="edge"><title>Node6&#45;&gt;Node5</title>
<path fill="none" stroke="#9a32cd" stroke-dasharray="5,2" d="M219,-260.037C219,-247.67 219,-232.12 219,-222.627"/>
<polygon fill="#9a32cd" stroke="#9a32cd" points="215.5,-260.234 219,-270.234 222.5,-260.234 215.5,-260.234"/>
<text text-anchor="middle" x="230" y="-244" font-family="Helvetica,sans-Serif" font-size="10.00"> jac_</text>
</g>
</g>
</svg>
