<?xml version="1.0" encoding="UTF-8" standalone="no"?>
<!DOCTYPE svg PUBLIC "-//W3C//DTD SVG 1.1//EN"
 "http://www.w3.org/Graphics/SVG/1.1/DTD/svg11.dtd">
<!-- Generated by graphviz version 2.38.0 (20140413.2041)
 -->
<!-- Title: tasks::qp::TransformTask Pages: 1 -->
<svg width="302pt" height="287pt"
 viewBox="0.00 0.00 301.50 287.00" xmlns="http://www.w3.org/2000/svg" xmlns:xlink="http://www.w3.org/1999/xlink">
<g id="graph0" class="graph" transform="scale(1 1) rotate(0) translate(4 283)">
<title>tasks::qp::TransformTask</title>
<polygon fill="white" stroke="none" points="-4,4 -4,-283 297.5,-283 297.5,4 -4,4"/>
<!-- Node1 -->
<g id="node1" class="node"><title>Node1</title>
<polygon fill="#bfbfbf" stroke="black" points="42.5,-0.5 42.5,-19.5 179.5,-19.5 179.5,-0.5 42.5,-0.5"/>
<text text-anchor="middle" x="111" y="-7.5" font-family="Helvetica,sans-Serif" font-size="10.00">tasks::qp::TransformTask</text>
</g>
<!-- Node2 -->
<g id="node2" class="node"><title>Node2</title>
<g id="a_node2"><a xlink:href="a00100.html" target="_top" xlink:title="tasks::qp::TransformTask\lCommon\&lt; tasks::TransformTask \&gt;">
<polygon fill="white" stroke="black" points="18.5,-57.5 18.5,-87.5 203.5,-87.5 203.5,-57.5 18.5,-57.5"/>
<text text-anchor="start" x="26.5" y="-75.5" font-family="Helvetica,sans-Serif" font-size="10.00">tasks::qp::TransformTask</text>
<text text-anchor="middle" x="111" y="-64.5" font-family="Helvetica,sans-Serif" font-size="10.00">Common&lt; tasks::TransformTask &gt;</text>
</a>
</g>
</g>
<!-- Node2&#45;&gt;Node1 -->
<g id="edge1" class="edge"><title>Node2&#45;&gt;Node1</title>
<path fill="none" stroke="midnightblue" d="M111,-47.3524C111,-37.5132 111,-26.7753 111,-19.5399"/>
<polygon fill="midnightblue" stroke="midnightblue" points="107.5,-47.468 111,-57.468 114.5,-47.4681 107.5,-47.468"/>
</g>
<!-- Node3 -->
<g id="node3" class="node"><title>Node3</title>
<g id="a_node3"><a xlink:href="a00040.html" target="_top" xlink:title="tasks::qp::HighLevelTask">
<polygon fill="white" stroke="black" points="0,-135.5 0,-154.5 134,-154.5 134,-135.5 0,-135.5"/>
<text text-anchor="middle" x="67" y="-142.5" font-family="Helvetica,sans-Serif" font-size="10.00">tasks::qp::HighLevelTask</text>
</a>
</g>
</g>
<!-- Node3&#45;&gt;Node2 -->
<g id="edge2" class="edge"><title>Node3&#45;&gt;Node2</title>
<path fill="none" stroke="midnightblue" d="M77.808,-126.683C85.3151,-114.654 95.1921,-98.8286 102.215,-87.5762"/>
<polygon fill="midnightblue" stroke="midnightblue" points="74.7207,-125.019 72.3953,-135.355 80.6591,-128.725 74.7207,-125.019"/>
</g>
<!-- Node4 -->
<g id="node4" class="node"><title>Node4</title>
<g id="a_node4"><a xlink:href="a00097.html" target="_top" xlink:title="tasks::TransformTask">
<polygon fill="white" stroke="black" points="152.5,-135.5 152.5,-154.5 271.5,-154.5 271.5,-135.5 152.5,-135.5"/>
<text text-anchor="middle" x="212" y="-142.5" font-family="Helvetica,sans-Serif" font-size="10.00">tasks::TransformTask</text>
</a>
</g>
</g>
<!-- Node4&#45;&gt;Node2 -->
<g id="edge3" class="edge"><title>Node4&#45;&gt;Node2</title>
<path fill="none" stroke="#9a32cd" stroke-dasharray="5,2" d="M191.177,-129.465C173.591,-117.19 148.563,-99.7198 131.166,-87.5762"/>
<polygon fill="#9a32cd" stroke="#9a32cd" points="189.412,-132.502 199.615,-135.355 193.419,-126.762 189.412,-132.502"/>
<text text-anchor="middle" x="178" y="-109" font-family="Helvetica,sans-Serif" font-size="10.00"> tt_</text>
</g>
<!-- Node5 -->
<g id="node5" class="node"><title>Node5</title>
<g id="a_node5"><a xlink:href="a00099.html" target="_top" xlink:title="tasks::TransformTaskCommon">
<polygon fill="white" stroke="black" points="130.5,-192.5 130.5,-211.5 293.5,-211.5 293.5,-192.5 130.5,-192.5"/>
<text text-anchor="middle" x="212" y="-199.5" font-family="Helvetica,sans-Serif" font-size="10.00">tasks::TransformTaskCommon</text>
</a>
</g>
</g>
<!-- Node5&#45;&gt;Node4 -->
<g id="edge4" class="edge"><title>Node5&#45;&gt;Node4</title>
<path fill="none" stroke="midnightblue" d="M212,-182.117C212,-172.817 212,-162.056 212,-154.715"/>
<polygon fill="midnightblue" stroke="midnightblue" points="208.5,-182.406 212,-192.406 215.5,-182.406 208.5,-182.406"/>
</g>
<!-- Node6 -->
<g id="node6" class="node"><title>Node6</title>
<g id="a_node6"><a doxygen="/usr/local/share/doc/RBDyn/doxygen-html/RBDyn.doxytag:/usr/local/share/doc/RBDyn/doxygen-html/" xlink:href="/usr/local/share/doc/RBDyn/doxygen-html/a00013.html" target="_top" xlink:title="rbd::Jacobian">
<polygon fill="white" stroke="black" points="173,-259.5 173,-278.5 251,-278.5 251,-259.5 173,-259.5"/>
<text text-anchor="middle" x="212" y="-266.5" font-family="Helvetica,sans-Serif" font-size="10.00">rbd::Jacobian</text>
</a>
</g>
</g>
<!-- Node6&#45;&gt;Node5 -->
<g id="edge5" class="edge"><title>Node6&#45;&gt;Node5</title>
<path fill="none" stroke="#9a32cd" stroke-dasharray="5,2" d="M212,-249.037C212,-236.67 212,-221.12 212,-211.627"/>
<polygon fill="#9a32cd" stroke="#9a32cd" points="208.5,-249.234 212,-259.234 215.5,-249.234 208.5,-249.234"/>
<text text-anchor="middle" x="223" y="-233" font-family="Helvetica,sans-Serif" font-size="10.00"> jac_</text>
</g>
</g>
</svg>
