<?xml version="1.0" encoding="UTF-8" standalone="no"?>
<!DOCTYPE svg PUBLIC "-//W3C//DTD SVG 1.1//EN"
 "http://www.w3.org/Graphics/SVG/1.1/DTD/svg11.dtd">
<!-- Generated by graphviz version 2.38.0 (20140413.2041)
 -->
<!-- Title: tasks::qp::TrajectoryTask Pages: 1 -->
<svg width="248pt" height="152pt"
 viewBox="0.00 0.00 248.00 152.00" xmlns="http://www.w3.org/2000/svg" xmlns:xlink="http://www.w3.org/1999/xlink">
<g id="graph0" class="graph" transform="scale(1 1) rotate(0) translate(4 148)">
<title>tasks::qp::TrajectoryTask</title>
<polygon fill="white" stroke="none" points="-4,4 -4,-148 244,-148 244,4 -4,4"/>
<!-- Node1 -->
<g id="node1" class="node"><title>Node1</title>
<polygon fill="#bfbfbf" stroke="black" points="40.5,-0.5 40.5,-19.5 175.5,-19.5 175.5,-0.5 40.5,-0.5"/>
<text text-anchor="middle" x="108" y="-7.5" font-family="Helvetica,sans-Serif" font-size="10.00">tasks::qp::TrajectoryTask</text>
</g>
<!-- Node2 -->
<g id="node2" class="node"><title>Node2</title>
<g id="a_node2"><a xlink:href="a00083.html" target="_top" xlink:title="tasks::qp::SetPointTaskCommon">
<polygon fill="white" stroke="black" points="21.5,-57.5 21.5,-76.5 194.5,-76.5 194.5,-57.5 21.5,-57.5"/>
<text text-anchor="middle" x="108" y="-64.5" font-family="Helvetica,sans-Serif" font-size="10.00">tasks::qp::SetPointTaskCommon</text>
</a>
</g>
</g>
<!-- Node2&#45;&gt;Node1 -->
<g id="edge1" class="edge"><title>Node2&#45;&gt;Node1</title>
<path fill="none" stroke="midnightblue" d="M108,-47.1166C108,-37.8173 108,-27.0557 108,-19.7149"/>
<polygon fill="midnightblue" stroke="midnightblue" points="104.5,-47.4062 108,-57.4062 111.5,-47.4063 104.5,-47.4062"/>
</g>
<!-- Node3 -->
<g id="node3" class="node"><title>Node3</title>
<g id="a_node3"><a xlink:href="a00092.html" target="_top" xlink:title="tasks::qp::Task">
<polygon fill="white" stroke="black" points="0,-124.5 0,-143.5 88,-143.5 88,-124.5 0,-124.5"/>
<text text-anchor="middle" x="44" y="-131.5" font-family="Helvetica,sans-Serif" font-size="10.00">tasks::qp::Task</text>
</a>
</g>
</g>
<!-- Node3&#45;&gt;Node2 -->
<g id="edge2" class="edge"><title>Node3&#45;&gt;Node2</title>
<path fill="none" stroke="midnightblue" d="M59.757,-116.997C72.3081,-104.25 89.396,-86.8947 99.5054,-76.6273"/>
<polygon fill="midnightblue" stroke="midnightblue" points="57.1534,-114.652 52.6313,-124.234 62.1414,-119.564 57.1534,-114.652"/>
</g>
<!-- Node4 -->
<g id="node4" class="node"><title>Node4</title>
<g id="a_node4"><a xlink:href="a00040.html" target="_top" xlink:title="tasks::qp::HighLevelTask">
<polygon fill="white" stroke="black" points="106,-124.5 106,-143.5 240,-143.5 240,-124.5 106,-124.5"/>
<text text-anchor="middle" x="173" y="-131.5" font-family="Helvetica,sans-Serif" font-size="10.00">tasks::qp::HighLevelTask</text>
</a>
</g>
</g>
<!-- Node4&#45;&gt;Node2 -->
<g id="edge3" class="edge"><title>Node4&#45;&gt;Node2</title>
<path fill="none" stroke="#9a32cd" stroke-dasharray="5,2" d="M156.997,-116.997C144.25,-104.25 126.895,-86.8947 116.627,-76.6273"/>
<polygon fill="#9a32cd" stroke="#9a32cd" points="154.688,-119.638 164.234,-124.234 159.638,-114.688 154.688,-119.638"/>
<text text-anchor="middle" x="163.5" y="-98" font-family="Helvetica,sans-Serif" font-size="10.00"> hlTask_</text>
</g>
</g>
</svg>
