<?xml version="1.0" encoding="UTF-8" standalone="no"?>
<!DOCTYPE svg PUBLIC "-//W3C//DTD SVG 1.1//EN"
 "http://www.w3.org/Graphics/SVG/1.1/DTD/svg11.dtd">
<!-- Generated by graphviz version 2.38.0 (20140413.2041)
 -->
<!-- Title: tasks::qp::TransformTask Pages: 1 -->
<svg width="193pt" height="151pt"
 viewBox="0.00 0.00 193.00 151.00" xmlns="http://www.w3.org/2000/svg" xmlns:xlink="http://www.w3.org/1999/xlink">
<g id="graph0" class="graph" transform="scale(1 1) rotate(0) translate(4 147)">
<title>tasks::qp::TransformTask</title>
<polygon fill="white" stroke="none" points="-4,4 -4,-147 189,-147 189,4 -4,4"/>
<!-- Node1 -->
<g id="node1" class="node"><title>Node1</title>
<polygon fill="#bfbfbf" stroke="black" points="24,-0.5 24,-19.5 161,-19.5 161,-0.5 24,-0.5"/>
<text text-anchor="middle" x="92.5" y="-7.5" font-family="Helvetica,sans-Serif" font-size="10.00">tasks::qp::TransformTask</text>
</g>
<!-- Node2 -->
<g id="node2" class="node"><title>Node2</title>
<g id="a_node2"><a xlink:href="a00100.html" target="_top" xlink:title="tasks::qp::TransformTask\lCommon\&lt; tasks::TransformTask \&gt;">
<polygon fill="white" stroke="black" points="-1.42109e-14,-56.5 -1.42109e-14,-86.5 185,-86.5 185,-56.5 -1.42109e-14,-56.5"/>
<text text-anchor="start" x="8" y="-74.5" font-family="Helvetica,sans-Serif" font-size="10.00">tasks::qp::TransformTask</text>
<text text-anchor="middle" x="92.5" y="-63.5" font-family="Helvetica,sans-Serif" font-size="10.00">Common&lt; tasks::TransformTask &gt;</text>
</a>
</g>
</g>
<!-- Node2&#45;&gt;Node1 -->
<g id="edge1" class="edge"><title>Node2&#45;&gt;Node1</title>
<path fill="none" stroke="midnightblue" d="M92.5,-46.2892C92.5,-36.857 92.5,-26.6548 92.5,-19.6578"/>
<polygon fill="midnightblue" stroke="midnightblue" points="89.0001,-46.3993 92.5,-56.3993 96.0001,-46.3994 89.0001,-46.3993"/>
</g>
<!-- Node3 -->
<g id="node3" class="node"><title>Node3</title>
<g id="a_node3"><a xlink:href="a00040.html" target="_top" xlink:title="tasks::qp::HighLevelTask">
<polygon fill="white" stroke="black" points="25.5,-123.5 25.5,-142.5 159.5,-142.5 159.5,-123.5 25.5,-123.5"/>
<text text-anchor="middle" x="92.5" y="-130.5" font-family="Helvetica,sans-Serif" font-size="10.00">tasks::qp::HighLevelTask</text>
</a>
</g>
</g>
<!-- Node3&#45;&gt;Node2 -->
<g id="edge2" class="edge"><title>Node3&#45;&gt;Node2</title>
<path fill="none" stroke="midnightblue" d="M92.5,-113.235C92.5,-104.586 92.5,-94.4969 92.5,-86.523"/>
<polygon fill="midnightblue" stroke="midnightblue" points="89.0001,-113.475 92.5,-123.475 96.0001,-113.475 89.0001,-113.475"/>
</g>
</g>
</svg>
