<?xml version="1.0" encoding="UTF-8" standalone="no"?>
<!DOCTYPE svg PUBLIC "-//W3C//DTD SVG 1.1//EN"
 "http://www.w3.org/Graphics/SVG/1.1/DTD/svg11.dtd">
<!-- Generated by graphviz version 2.38.0 (20140413.2041)
 -->
<!-- Title: tasks::qp::Task Pages: 1 -->
<svg width="469pt" height="294pt"
 viewBox="0.00 0.00 469.00 294.00" xmlns="http://www.w3.org/2000/svg" xmlns:xlink="http://www.w3.org/1999/xlink">
<g id="graph0" class="graph" transform="scale(1 1) rotate(0) translate(4 290)">
<title>tasks::qp::Task</title>
<polygon fill="white" stroke="none" points="-4,4 -4,-290 465,-290 465,4 -4,4"/>
<!-- Node1 -->
<g id="node1" class="node"><title>Node1</title>
<polygon fill="#bfbfbf" stroke="black" points="0,-133.5 0,-152.5 85,-152.5 85,-133.5 0,-133.5"/>
<text text-anchor="middle" x="42.5" y="-140.5" font-family="Helvetica,sans-Serif" font-size="10.00">tasks::qp::Task</text>
</g>
<!-- Node2 -->
<g id="node2" class="node"><title>Node2</title>
<g id="a_node2"><a xlink:href="a00026.html" target="_top" xlink:title="tasks::qp::ContactTask">
<polygon fill="white" stroke="black" points="149.5,-266.5 149.5,-285.5 268.5,-285.5 268.5,-266.5 149.5,-266.5"/>
<text text-anchor="middle" x="209" y="-273.5" font-family="Helvetica,sans-Serif" font-size="10.00">tasks::qp::ContactTask</text>
</a>
</g>
</g>
<!-- Node1&#45;&gt;Node2 -->
<g id="edge1" class="edge"><title>Node1&#45;&gt;Node2</title>
<path fill="none" stroke="midnightblue" d="M51.1245,-162.24C62.3823,-188.037 85.9724,-233.324 121,-257 129.454,-262.714 139.331,-266.745 149.336,-269.58"/>
<polygon fill="midnightblue" stroke="midnightblue" points="54.2622,-160.671 47.1759,-152.795 47.8038,-163.371 54.2622,-160.671"/>
</g>
<!-- Node3 -->
<g id="node3" class="node"><title>Node3</title>
<g id="a_node3"><a xlink:href="a00036.html" target="_top" xlink:title="tasks::qp::GripperTorqueTask">
<polygon fill="white" stroke="black" points="136,-228.5 136,-247.5 282,-247.5 282,-228.5 136,-228.5"/>
<text text-anchor="middle" x="209" y="-235.5" font-family="Helvetica,sans-Serif" font-size="10.00">tasks::qp::GripperTorqueTask</text>
</a>
</g>
</g>
<!-- Node1&#45;&gt;Node3 -->
<g id="edge2" class="edge"><title>Node1&#45;&gt;Node3</title>
<path fill="none" stroke="midnightblue" d="M56.8054,-160.97C70.8029,-178.533 94.4565,-204.66 121,-219 128.209,-222.895 136.162,-225.991 144.242,-228.453"/>
<polygon fill="midnightblue" stroke="midnightblue" points="59.2827,-158.451 50.4016,-152.674 53.7414,-162.728 59.2827,-158.451"/>
</g>
<!-- Node4 -->
<g id="node4" class="node"><title>Node4</title>
<g id="a_node4"><a xlink:href="a00055.html" target="_top" xlink:title="tasks::qp::MultiCoMTask">
<polygon fill="white" stroke="black" points="145.5,-190.5 145.5,-209.5 272.5,-209.5 272.5,-190.5 145.5,-190.5"/>
<text text-anchor="middle" x="209" y="-197.5" font-family="Helvetica,sans-Serif" font-size="10.00">tasks::qp::MultiCoMTask</text>
</a>
</g>
</g>
<!-- Node1&#45;&gt;Node4 -->
<g id="edge3" class="edge"><title>Node1&#45;&gt;Node4</title>
<path fill="none" stroke="midnightblue" d="M68.9629,-157.423C83.7707,-165.312 103.009,-174.728 121,-181 131.657,-184.715 143.31,-187.857 154.525,-190.449"/>
<polygon fill="midnightblue" stroke="midnightblue" points="70.3861,-154.212 59.9294,-152.507 67.0402,-160.361 70.3861,-154.212"/>
</g>
<!-- Node5 -->
<g id="node5" class="node"><title>Node5</title>
<g id="a_node5"><a xlink:href="a00057.html" target="_top" xlink:title="tasks::qp::MultiRobotTransformTask">
<polygon fill="white" stroke="black" points="121,-152.5 121,-171.5 297,-171.5 297,-152.5 121,-152.5"/>
<text text-anchor="middle" x="209" y="-159.5" font-family="Helvetica,sans-Serif" font-size="10.00">tasks::qp::MultiRobotTransformTask</text>
</a>
</g>
</g>
<!-- Node1&#45;&gt;Node5 -->
<g id="edge4" class="edge"><title>Node1&#45;&gt;Node5</title>
<path fill="none" stroke="midnightblue" d="M95.188,-148.97C104.832,-150.084 115.13,-151.273 125.434,-152.463"/>
<polygon fill="midnightblue" stroke="midnightblue" points="95.3459,-145.465 85.0103,-147.795 94.5426,-152.419 95.3459,-145.465"/>
</g>
<!-- Node6 -->
<g id="node6" class="node"><title>Node6</title>
<g id="a_node6"><a xlink:href="a00071.html" target="_top" xlink:title="tasks::qp::PostureTask">
<polygon fill="white" stroke="black" points="149.5,-114.5 149.5,-133.5 268.5,-133.5 268.5,-114.5 149.5,-114.5"/>
<text text-anchor="middle" x="209" y="-121.5" font-family="Helvetica,sans-Serif" font-size="10.00">tasks::qp::PostureTask</text>
</a>
</g>
</g>
<!-- Node1&#45;&gt;Node6 -->
<g id="edge5" class="edge"><title>Node1&#45;&gt;Node6</title>
<path fill="none" stroke="midnightblue" d="M95.4012,-137.005C112.568,-135.023 131.785,-132.803 149.417,-130.766"/>
<polygon fill="midnightblue" stroke="midnightblue" points="94.5426,-133.581 85.0103,-138.205 95.3459,-140.535 94.5426,-133.581"/>
</g>
<!-- Node7 -->
<g id="node7" class="node"><title>Node7</title>
<g id="a_node7"><a xlink:href="a00079.html" target="_top" xlink:title="tasks::qp::SetPointTaskCommon">
<polygon fill="white" stroke="black" points="128,-76.5 128,-95.5 290,-95.5 290,-76.5 128,-76.5"/>
<text text-anchor="middle" x="209" y="-83.5" font-family="Helvetica,sans-Serif" font-size="10.00">tasks::qp::SetPointTaskCommon</text>
</a>
</g>
</g>
<!-- Node1&#45;&gt;Node7 -->
<g id="edge6" class="edge"><title>Node1&#45;&gt;Node7</title>
<path fill="none" stroke="midnightblue" d="M68.9629,-128.577C83.7707,-120.688 103.009,-111.272 121,-105 131.657,-101.285 143.31,-98.1434 154.525,-95.5508"/>
<polygon fill="midnightblue" stroke="midnightblue" points="67.0402,-125.639 59.9294,-133.493 70.3861,-131.788 67.0402,-125.639"/>
</g>
<!-- Node12 -->
<g id="node12" class="node"><title>Node12</title>
<g id="a_node12"><a xlink:href="a00087.html" target="_top" xlink:title="tasks::qp::TargetObjectiveTask">
<polygon fill="white" stroke="black" points="132,-38.5 132,-57.5 286,-57.5 286,-38.5 132,-38.5"/>
<text text-anchor="middle" x="209" y="-45.5" font-family="Helvetica,sans-Serif" font-size="10.00">tasks::qp::TargetObjectiveTask</text>
</a>
</g>
</g>
<!-- Node1&#45;&gt;Node12 -->
<g id="edge11" class="edge"><title>Node1&#45;&gt;Node12</title>
<path fill="none" stroke="midnightblue" d="M56.8054,-125.03C70.8029,-107.467 94.4565,-81.3399 121,-67 128.209,-63.1053 136.162,-60.0089 144.242,-57.5472"/>
<polygon fill="midnightblue" stroke="midnightblue" points="53.7414,-123.272 50.4016,-133.326 59.2827,-127.549 53.7414,-123.272"/>
</g>
<!-- Node13 -->
<g id="node13" class="node"><title>Node13</title>
<g id="a_node13"><a xlink:href="a00090.html" target="_top" xlink:title="tasks::qp::TorqueTask">
<polygon fill="white" stroke="black" points="151.5,-0.5 151.5,-19.5 266.5,-19.5 266.5,-0.5 151.5,-0.5"/>
<text text-anchor="middle" x="209" y="-7.5" font-family="Helvetica,sans-Serif" font-size="10.00">tasks::qp::TorqueTask</text>
</a>
</g>
</g>
<!-- Node1&#45;&gt;Node13 -->
<g id="edge12" class="edge"><title>Node1&#45;&gt;Node13</title>
<path fill="none" stroke="midnightblue" d="M51.1245,-123.76C62.3823,-97.9629 85.9724,-52.6756 121,-29 129.966,-22.9397 140.534,-18.773 151.157,-15.9175"/>
<polygon fill="midnightblue" stroke="midnightblue" points="47.8038,-122.629 47.1759,-133.205 54.2622,-125.329 47.8038,-122.629"/>
</g>
<!-- Node8 -->
<g id="node8" class="node"><title>Node8</title>
<g id="a_node8"><a xlink:href="a00063.html" target="_top" xlink:title="tasks::qp::PIDTask">
<polygon fill="white" stroke="black" points="346,-133.5 346,-152.5 448,-152.5 448,-133.5 346,-133.5"/>
<text text-anchor="middle" x="397" y="-140.5" font-family="Helvetica,sans-Serif" font-size="10.00">tasks::qp::PIDTask</text>
</a>
</g>
</g>
<!-- Node7&#45;&gt;Node8 -->
<g id="edge7" class="edge"><title>Node7&#45;&gt;Node8</title>
<path fill="none" stroke="midnightblue" d="M274.272,-97.9648C282.02,-100.013 289.751,-102.351 297,-105 313.993,-111.209 316.262,-117.134 333,-124 341.561,-127.512 351.012,-130.703 359.932,-133.426"/>
<polygon fill="midnightblue" stroke="midnightblue" points="275.033,-94.5474 264.483,-95.5242 273.34,-101.34 275.033,-94.5474"/>
</g>
<!-- Node9 -->
<g id="node9" class="node"><title>Node9</title>
<g id="a_node9"><a xlink:href="a00078.html" target="_top" xlink:title="tasks::qp::SetPointTask">
<polygon fill="white" stroke="black" points="336,-95.5 336,-114.5 458,-114.5 458,-95.5 336,-95.5"/>
<text text-anchor="middle" x="397" y="-102.5" font-family="Helvetica,sans-Serif" font-size="10.00">tasks::qp::SetPointTask</text>
</a>
</g>
</g>
<!-- Node7&#45;&gt;Node9 -->
<g id="edge8" class="edge"><title>Node7&#45;&gt;Node9</title>
<path fill="none" stroke="midnightblue" d="M300.346,-95.2289C312.426,-96.4629 324.566,-97.703 335.95,-98.8659"/>
<polygon fill="midnightblue" stroke="midnightblue" points="300.534,-91.73 290.23,-94.1956 299.823,-98.6938 300.534,-91.73"/>
</g>
<!-- Node10 -->
<g id="node10" class="node"><title>Node10</title>
<g id="a_node10"><a xlink:href="a00091.html" target="_top" xlink:title="tasks::qp::TrackingTask">
<polygon fill="white" stroke="black" points="336,-57.5 336,-76.5 458,-76.5 458,-57.5 336,-57.5"/>
<text text-anchor="middle" x="397" y="-64.5" font-family="Helvetica,sans-Serif" font-size="10.00">tasks::qp::TrackingTask</text>
</a>
</g>
</g>
<!-- Node7&#45;&gt;Node10 -->
<g id="edge9" class="edge"><title>Node7&#45;&gt;Node10</title>
<path fill="none" stroke="midnightblue" d="M300.346,-76.7711C312.426,-75.5371 324.566,-74.297 335.95,-73.1341"/>
<polygon fill="midnightblue" stroke="midnightblue" points="299.823,-73.3062 290.23,-77.8044 300.534,-80.27 299.823,-73.3062"/>
</g>
<!-- Node11 -->
<g id="node11" class="node"><title>Node11</title>
<g id="a_node11"><a xlink:href="a00092.html" target="_top" xlink:title="tasks::qp::TrajectoryTask">
<polygon fill="white" stroke="black" points="333,-19.5 333,-38.5 461,-38.5 461,-19.5 333,-19.5"/>
<text text-anchor="middle" x="397" y="-26.5" font-family="Helvetica,sans-Serif" font-size="10.00">tasks::qp::TrajectoryTask</text>
</a>
</g>
</g>
<!-- Node7&#45;&gt;Node11 -->
<g id="edge10" class="edge"><title>Node7&#45;&gt;Node11</title>
<path fill="none" stroke="midnightblue" d="M274.272,-74.0352C282.02,-71.9871 289.751,-69.6488 297,-67 313.993,-60.791 316.262,-54.866 333,-48 341.561,-44.4882 351.012,-41.2966 359.932,-38.5741"/>
<polygon fill="midnightblue" stroke="midnightblue" points="273.34,-70.6605 264.483,-76.4758 275.033,-77.4526 273.34,-70.6605"/>
</g>
</g>
</svg>
