<?xml version="1.0" encoding="UTF-8" standalone="no"?>
<!DOCTYPE svg PUBLIC "-//W3C//DTD SVG 1.1//EN"
 "http://www.w3.org/Graphics/SVG/1.1/DTD/svg11.dtd">
<!-- Generated by graphviz version 2.38.0 (20140413.2041)
 -->
<!-- Title: tasks::qp::TransformTaskCommon&lt; transform_task_t &gt; Pages: 1 -->
<svg width="244pt" height="106pt"
 viewBox="0.00 0.00 244.00 106.00" xmlns="http://www.w3.org/2000/svg" xmlns:xlink="http://www.w3.org/1999/xlink">
<g id="graph0" class="graph" transform="scale(1 1) rotate(0) translate(4 102)">
<title>tasks::qp::TransformTaskCommon&lt; transform_task_t &gt;</title>
<polygon fill="white" stroke="none" points="-4,4 -4,-102 240,-102 240,4 -4,4"/>
<!-- Node1 -->
<g id="node1" class="node"><title>Node1</title>
<polygon fill="#bfbfbf" stroke="black" points="53,-0.5 53,-30.5 201,-30.5 201,-0.5 53,-0.5"/>
<text text-anchor="start" x="61" y="-18.5" font-family="Helvetica,sans-Serif" font-size="10.00">tasks::qp::TransformTask</text>
<text text-anchor="middle" x="127" y="-7.5" font-family="Helvetica,sans-Serif" font-size="10.00">Common&lt; transform_task_t &gt;</text>
</g>
<!-- Node2 -->
<g id="node2" class="node"><title>Node2</title>
<g id="a_node2"><a xlink:href="a00038.html" target="_top" xlink:title="tasks::qp::HighLevelTask">
<polygon fill="white" stroke="black" points="0,-78.5 0,-97.5 128,-97.5 128,-78.5 0,-78.5"/>
<text text-anchor="middle" x="64" y="-85.5" font-family="Helvetica,sans-Serif" font-size="10.00">tasks::qp::HighLevelTask</text>
</a>
</g>
</g>
<!-- Node2&#45;&gt;Node1 -->
<g id="edge1" class="edge"><title>Node2&#45;&gt;Node1</title>
<path fill="none" stroke="midnightblue" d="M78.5264,-70.7443C89.3802,-58.5984 104.067,-42.1628 114.421,-30.5762"/>
<polygon fill="midnightblue" stroke="midnightblue" points="75.7786,-68.5666 71.725,-78.3553 80.9982,-73.2309 75.7786,-68.5666"/>
</g>
<!-- Node3 -->
<g id="node3" class="node"><title>Node3</title>
<polygon fill="white" stroke="#bfbfbf" points="146,-78.5 146,-97.5 236,-97.5 236,-78.5 146,-78.5"/>
<text text-anchor="middle" x="191" y="-85.5" font-family="Helvetica,sans-Serif" font-size="10.00">transform_task_t</text>
</g>
<!-- Node3&#45;&gt;Node1 -->
<g id="edge2" class="edge"><title>Node3&#45;&gt;Node1</title>
<path fill="none" stroke="#9a32cd" stroke-dasharray="5,2" d="M176.243,-70.7443C165.217,-58.5984 150.297,-42.1628 139.778,-30.5762"/>
<polygon fill="#9a32cd" stroke="#9a32cd" points="173.839,-73.3037 183.152,-78.3553 179.022,-68.5986 173.839,-73.3037"/>
<text text-anchor="middle" x="171.5" y="-52" font-family="Helvetica,sans-Serif" font-size="10.00"> tt_</text>
</g>
</g>
</svg>
