<?xml version="1.0" encoding="UTF-8" standalone="no"?>
<!DOCTYPE svg PUBLIC "-//W3C//DTD SVG 1.1//EN"
 "http://www.w3.org/Graphics/SVG/1.1/DTD/svg11.dtd">
<!-- Generated by graphviz version 2.38.0 (20140413.2041)
 -->
<!-- Title: tasks::qp::TransformTask Pages: 1 -->
<svg width="287pt" height="287pt"
 viewBox="0.00 0.00 287.00 287.00" xmlns="http://www.w3.org/2000/svg" xmlns:xlink="http://www.w3.org/1999/xlink">
<g id="graph0" class="graph" transform="scale(1 1) rotate(0) translate(4 283)">
<title>tasks::qp::TransformTask</title>
<polygon fill="white" stroke="none" points="-4,4 -4,-283 283,-283 283,4 -4,4"/>
<!-- Node1 -->
<g id="node1" class="node"><title>Node1</title>
<polygon fill="#bfbfbf" stroke="black" points="42.5,-0.5 42.5,-19.5 171.5,-19.5 171.5,-0.5 42.5,-0.5"/>
<text text-anchor="middle" x="107" y="-7.5" font-family="Helvetica,sans-Serif" font-size="10.00">tasks::qp::TransformTask</text>
</g>
<!-- Node2 -->
<g id="node2" class="node"><title>Node2</title>
<g id="a_node2"><a xlink:href="a00097.html" target="_top" xlink:title="tasks::qp::TransformTask\lCommon\&lt; tasks::TransformTask \&gt;">
<polygon fill="white" stroke="black" points="22,-57.5 22,-87.5 192,-87.5 192,-57.5 22,-57.5"/>
<text text-anchor="start" x="30" y="-75.5" font-family="Helvetica,sans-Serif" font-size="10.00">tasks::qp::TransformTask</text>
<text text-anchor="middle" x="107" y="-64.5" font-family="Helvetica,sans-Serif" font-size="10.00">Common&lt; tasks::TransformTask &gt;</text>
</a>
</g>
</g>
<!-- Node2&#45;&gt;Node1 -->
<g id="edge1" class="edge"><title>Node2&#45;&gt;Node1</title>
<path fill="none" stroke="midnightblue" d="M107,-47.3524C107,-37.5132 107,-26.7753 107,-19.5399"/>
<polygon fill="midnightblue" stroke="midnightblue" points="103.5,-47.468 107,-57.468 110.5,-47.4681 103.5,-47.468"/>
</g>
<!-- Node3 -->
<g id="node3" class="node"><title>Node3</title>
<g id="a_node3"><a xlink:href="a00038.html" target="_top" xlink:title="tasks::qp::HighLevelTask">
<polygon fill="white" stroke="black" points="0,-135.5 0,-154.5 128,-154.5 128,-135.5 0,-135.5"/>
<text text-anchor="middle" x="64" y="-142.5" font-family="Helvetica,sans-Serif" font-size="10.00">tasks::qp::HighLevelTask</text>
</a>
</g>
</g>
<!-- Node3&#45;&gt;Node2 -->
<g id="edge2" class="edge"><title>Node3&#45;&gt;Node2</title>
<path fill="none" stroke="midnightblue" d="M74.5623,-126.683C81.8988,-114.654 91.5514,-98.8286 98.4145,-87.5762"/>
<polygon fill="midnightblue" stroke="midnightblue" points="71.4918,-124.995 69.2726,-135.355 77.4679,-128.641 71.4918,-124.995"/>
</g>
<!-- Node4 -->
<g id="node4" class="node"><title>Node4</title>
<g id="a_node4"><a xlink:href="a00095.html" target="_top" xlink:title="tasks::TransformTask">
<polygon fill="white" stroke="black" points="146.5,-135.5 146.5,-154.5 259.5,-154.5 259.5,-135.5 146.5,-135.5"/>
<text text-anchor="middle" x="203" y="-142.5" font-family="Helvetica,sans-Serif" font-size="10.00">tasks::TransformTask</text>
</a>
</g>
</g>
<!-- Node4&#45;&gt;Node2 -->
<g id="edge3" class="edge"><title>Node4&#45;&gt;Node2</title>
<path fill="none" stroke="#9a32cd" stroke-dasharray="5,2" d="M182.746,-129.126C166.057,-116.87 142.552,-99.6084 126.168,-87.5762"/>
<polygon fill="#9a32cd" stroke="#9a32cd" points="181.097,-132.257 191.229,-135.355 185.24,-126.615 181.097,-132.257"/>
<text text-anchor="middle" x="170.5" y="-109" font-family="Helvetica,sans-Serif" font-size="10.00"> tt_</text>
</g>
<!-- Node5 -->
<g id="node5" class="node"><title>Node5</title>
<g id="a_node5"><a xlink:href="a00096.html" target="_top" xlink:title="tasks::TransformTaskCommon">
<polygon fill="white" stroke="black" points="127,-192.5 127,-211.5 279,-211.5 279,-192.5 127,-192.5"/>
<text text-anchor="middle" x="203" y="-199.5" font-family="Helvetica,sans-Serif" font-size="10.00">tasks::TransformTaskCommon</text>
</a>
</g>
</g>
<!-- Node5&#45;&gt;Node4 -->
<g id="edge4" class="edge"><title>Node5&#45;&gt;Node4</title>
<path fill="none" stroke="midnightblue" d="M203,-182.117C203,-172.817 203,-162.056 203,-154.715"/>
<polygon fill="midnightblue" stroke="midnightblue" points="199.5,-182.406 203,-192.406 206.5,-182.406 199.5,-182.406"/>
</g>
<!-- Node6 -->
<g id="node6" class="node"><title>Node6</title>
<g id="a_node6"><a doxygen="/usr/local/share/doc/RBDyn/doxygen-html/RBDyn.doxytag:/usr/local/share/doc/RBDyn/doxygen-html/" xlink:href="/usr/local/share/doc/RBDyn/doxygen-html/a00013.html" target="_top" xlink:title="rbd::Jacobian">
<polygon fill="white" stroke="black" points="165.5,-259.5 165.5,-278.5 240.5,-278.5 240.5,-259.5 165.5,-259.5"/>
<text text-anchor="middle" x="203" y="-266.5" font-family="Helvetica,sans-Serif" font-size="10.00">rbd::Jacobian</text>
</a>
</g>
</g>
<!-- Node6&#45;&gt;Node5 -->
<g id="edge5" class="edge"><title>Node6&#45;&gt;Node5</title>
<path fill="none" stroke="#9a32cd" stroke-dasharray="5,2" d="M203,-249.037C203,-236.67 203,-221.12 203,-211.627"/>
<polygon fill="#9a32cd" stroke="#9a32cd" points="199.5,-249.234 203,-259.234 206.5,-249.234 199.5,-249.234"/>
<text text-anchor="middle" x="214" y="-233" font-family="Helvetica,sans-Serif" font-size="10.00"> jac_</text>
</g>
</g>
</svg>
