<?xml version="1.0" encoding="UTF-8" standalone="no"?>
<!DOCTYPE svg PUBLIC "-//W3C//DTD SVG 1.1//EN"
 "http://www.w3.org/Graphics/SVG/1.1/DTD/svg11.dtd">
<!-- Generated by graphviz version 2.38.0 (20140413.2041)
 -->
<!-- Title: tasks::qp::QLDQPSolver Pages: 1 -->
<svg width="151pt" height="220pt"
 viewBox="0.00 0.00 150.50 220.00" xmlns="http://www.w3.org/2000/svg" xmlns:xlink="http://www.w3.org/1999/xlink">
<g id="graph0" class="graph" transform="scale(1 1) rotate(0) translate(4 216)">
<title>tasks::qp::QLDQPSolver</title>
<polygon fill="white" stroke="none" points="-4,4 -4,-216 146.5,-216 146.5,4 -4,4"/>
<!-- Node1 -->
<g id="node1" class="node"><title>Node1</title>
<polygon fill="#bfbfbf" stroke="black" points="-7.10543e-15,-0.5 -7.10543e-15,-19.5 125,-19.5 125,-0.5 -7.10543e-15,-0.5"/>
<text text-anchor="middle" x="62.5" y="-7.5" font-family="Helvetica,sans-Serif" font-size="10.00">tasks::qp::QLDQPSolver</text>
</g>
<!-- Node2 -->
<g id="node2" class="node"><title>Node2</title>
<g id="a_node2"><a xlink:href="a00035.html" target="_top" xlink:title="Generic QP solver abstract interface. ">
<polygon fill="white" stroke="black" points="1,-57.5 1,-76.5 124,-76.5 124,-57.5 1,-57.5"/>
<text text-anchor="middle" x="62.5" y="-64.5" font-family="Helvetica,sans-Serif" font-size="10.00">tasks::qp::GenQPSolver</text>
</a>
</g>
</g>
<!-- Node2&#45;&gt;Node1 -->
<g id="edge1" class="edge"><title>Node2&#45;&gt;Node1</title>
<path fill="none" stroke="midnightblue" d="M62.5,-47.1166C62.5,-37.8173 62.5,-27.0557 62.5,-19.7149"/>
<polygon fill="midnightblue" stroke="midnightblue" points="59.0001,-47.4062 62.5,-57.4062 66.0001,-47.4063 59.0001,-47.4062"/>
</g>
<!-- Node3 -->
<g id="node3" class="node"><title>Node3</title>
<g id="a_node3"><a xlink:title="STL class. ">
<polygon fill="white" stroke="#bfbfbf" points="32.5,-124.5 32.5,-143.5 92.5,-143.5 92.5,-124.5 32.5,-124.5"/>
<text text-anchor="middle" x="62.5" y="-131.5" font-family="Helvetica,sans-Serif" font-size="10.00">std::string</text>
</a>
</g>
</g>
<!-- Node3&#45;&gt;Node2 -->
<g id="edge2" class="edge"><title>Node3&#45;&gt;Node2</title>
<path fill="none" stroke="#9a32cd" stroke-dasharray="5,2" d="M62.5,-114.037C62.5,-101.67 62.5,-86.1198 62.5,-76.6273"/>
<polygon fill="#9a32cd" stroke="#9a32cd" points="59.0001,-114.234 62.5,-124.234 66.0001,-114.234 59.0001,-114.234"/>
<text text-anchor="middle" x="102.5" y="-98" font-family="Helvetica,sans-Serif" font-size="10.00"> default_qp_solver</text>
</g>
<!-- Node4 -->
<g id="node4" class="node"><title>Node4</title>
<g id="a_node4"><a xlink:title="STL class. ">
<polygon fill="white" stroke="#bfbfbf" points="15,-181.5 15,-211.5 110,-211.5 110,-181.5 15,-181.5"/>
<text text-anchor="start" x="23" y="-199.5" font-family="Helvetica,sans-Serif" font-size="10.00">std::basic_string&lt;</text>
<text text-anchor="middle" x="62.5" y="-188.5" font-family="Helvetica,sans-Serif" font-size="10.00"> char &gt;</text>
</a>
</g>
</g>
<!-- Node4&#45;&gt;Node3 -->
<g id="edge3" class="edge"><title>Node4&#45;&gt;Node3</title>
<path fill="none" stroke="midnightblue" d="M62.5,-171.352C62.5,-161.513 62.5,-150.775 62.5,-143.54"/>
<polygon fill="midnightblue" stroke="midnightblue" points="59.0001,-171.468 62.5,-181.468 66.0001,-171.468 59.0001,-171.468"/>
</g>
</g>
</svg>
