<?xml version="1.0" encoding="UTF-8" standalone="no"?>
<!DOCTYPE svg PUBLIC "-//W3C//DTD SVG 1.1//EN"
 "http://www.w3.org/Graphics/SVG/1.1/DTD/svg11.dtd">
<!-- Generated by graphviz version 2.38.0 (20140413.2041)
 -->
<!-- Title: Graphical Class Hierarchy Pages: 1 -->
<svg width="342pt" height="66pt"
 viewBox="0.00 0.00 342.00 66.00" xmlns="http://www.w3.org/2000/svg" xmlns:xlink="http://www.w3.org/1999/xlink">
<g id="graph0" class="graph" transform="scale(1 1) rotate(0) translate(4 62)">
<title>Graphical Class Hierarchy</title>
<polygon fill="white" stroke="none" points="-4,4 -4,-62 338,-62 338,4 -4,4"/>
<!-- Node1 -->
<g id="node1" class="node"><title>Node1</title>
<g id="a_node1"><a xlink:href="a00096.html" target="_top" xlink:title="tasks::TransformTaskCommon">
<polygon fill="white" stroke="black" points="0,-19.5 0,-38.5 152,-38.5 152,-19.5 0,-19.5"/>
<text text-anchor="middle" x="76" y="-26.5" font-family="Helvetica,sans-Serif" font-size="10.00">tasks::TransformTaskCommon</text>
</a>
</g>
</g>
<!-- Node2 -->
<g id="node2" class="node"><title>Node2</title>
<g id="a_node2"><a xlink:href="a00087.html" target="_top" xlink:title="tasks::SurfaceTransformTask">
<polygon fill="white" stroke="black" points="188,-38.5 188,-57.5 334,-57.5 334,-38.5 188,-38.5"/>
<text text-anchor="middle" x="261" y="-45.5" font-family="Helvetica,sans-Serif" font-size="10.00">tasks::SurfaceTransformTask</text>
</a>
</g>
</g>
<!-- Node1&#45;&gt;Node2 -->
<g id="edge1" class="edge"><title>Node1&#45;&gt;Node2</title>
<path fill="none" stroke="midnightblue" d="M162.193,-37.8452C170.728,-38.7314 179.337,-39.6252 187.72,-40.4955"/>
<polygon fill="midnightblue" stroke="midnightblue" points="162.533,-34.3618 152.225,-36.8103 161.81,-41.3244 162.533,-34.3618"/>
</g>
<!-- Node3 -->
<g id="node3" class="node"><title>Node3</title>
<g id="a_node3"><a xlink:href="a00095.html" target="_top" xlink:title="tasks::TransformTask">
<polygon fill="white" stroke="black" points="204.5,-0.5 204.5,-19.5 317.5,-19.5 317.5,-0.5 204.5,-0.5"/>
<text text-anchor="middle" x="261" y="-7.5" font-family="Helvetica,sans-Serif" font-size="10.00">tasks::TransformTask</text>
</a>
</g>
</g>
<!-- Node1&#45;&gt;Node3 -->
<g id="edge2" class="edge"><title>Node1&#45;&gt;Node3</title>
<path fill="none" stroke="midnightblue" d="M162.523,-20.1206C176.739,-18.6446 191.148,-17.1485 204.37,-15.7757"/>
<polygon fill="midnightblue" stroke="midnightblue" points="161.81,-16.6756 152.225,-21.1897 162.533,-23.6382 161.81,-16.6756"/>
</g>
</g>
</svg>
