<?xml version="1.0" encoding="UTF-8" standalone="no"?>
<!DOCTYPE svg PUBLIC "-//W3C//DTD SVG 1.1//EN"
 "http://www.w3.org/Graphics/SVG/1.1/DTD/svg11.dtd">
<!-- Generated by graphviz version 2.38.0 (20140413.2041)
 -->
<!-- Title: Graphical Class Hierarchy Pages: 1 -->
<svg width="871pt" height="489pt"
 viewBox="0.00 0.00 871.00 489.00" xmlns="http://www.w3.org/2000/svg" xmlns:xlink="http://www.w3.org/1999/xlink">
<g id="graph0" class="graph" transform="scale(1 1) rotate(0) translate(4 485)">
<title>Graphical Class Hierarchy</title>
<polygon fill="white" stroke="none" points="-4,4 -4,-485 867,-485 867,4 -4,4"/>
<!-- Node1 -->
<g id="node1" class="node"><title>Node1</title>
<g id="a_node1"><a xlink:href="a00014.html" target="_top" xlink:title="tasks::qp::Constraint">
<polygon fill="white" stroke="black" points="0,-234.5 0,-253.5 108,-253.5 108,-234.5 0,-234.5"/>
<text text-anchor="middle" x="54" y="-241.5" font-family="Helvetica,sans-Serif" font-size="10.00">tasks::qp::Constraint</text>
</a>
</g>
</g>
<!-- Node2 -->
<g id="node2" class="node"><title>Node2</title>
<g id="a_node2"><a xlink:href="a00015.html" target="_top" xlink:title="tasks::qp::ConstraintFunction\l\&lt; Bound \&gt;">
<polygon fill="white" stroke="black" points="144,-210 144,-240 290,-240 290,-210 144,-210"/>
<text text-anchor="start" x="152" y="-228" font-family="Helvetica,sans-Serif" font-size="10.00">tasks::qp::ConstraintFunction</text>
<text text-anchor="middle" x="217" y="-217" font-family="Helvetica,sans-Serif" font-size="10.00">&lt; Bound &gt;</text>
</a>
</g>
</g>
<!-- Node1&#45;&gt;Node2 -->
<g id="edge1" class="edge"><title>Node1&#45;&gt;Node2</title>
<path fill="none" stroke="midnightblue" d="M118.276,-236.533C126.695,-235.539 135.377,-234.514 143.931,-233.505"/>
<polygon fill="midnightblue" stroke="midnightblue" points="117.684,-233.078 108.164,-237.726 118.505,-240.03 117.684,-233.078"/>
</g>
<!-- Node7 -->
<g id="node7" class="node"><title>Node7</title>
<g id="a_node7"><a xlink:href="a00015.html" target="_top" xlink:title="tasks::qp::ConstraintFunction\l\&lt; Equality \&gt;">
<polygon fill="white" stroke="black" points="144,-112 144,-142 290,-142 290,-112 144,-112"/>
<text text-anchor="start" x="152" y="-130" font-family="Helvetica,sans-Serif" font-size="10.00">tasks::qp::ConstraintFunction</text>
<text text-anchor="middle" x="217" y="-119" font-family="Helvetica,sans-Serif" font-size="10.00">&lt; Equality &gt;</text>
</a>
</g>
</g>
<!-- Node1&#45;&gt;Node7 -->
<g id="edge6" class="edge"><title>Node1&#45;&gt;Node7</title>
<path fill="none" stroke="midnightblue" d="M102.395,-229.324C104.374,-228.002 106.256,-226.564 108,-225 135.227,-200.579 116.5,-175.113 144,-151 147.963,-147.525 152.445,-144.55 157.188,-142.004"/>
<polygon fill="midnightblue" stroke="midnightblue" points="100.277,-226.496 93.2251,-234.403 103.669,-232.619 100.277,-226.496"/>
</g>
<!-- Node13 -->
<g id="node13" class="node"><title>Node13</title>
<g id="a_node13"><a xlink:href="a00015.html" target="_top" xlink:title="tasks::qp::ConstraintFunction\l\&lt; GenInequality \&gt;">
<polygon fill="white" stroke="black" points="144,-57 144,-87 290,-87 290,-57 144,-57"/>
<text text-anchor="start" x="152" y="-75" font-family="Helvetica,sans-Serif" font-size="10.00">tasks::qp::ConstraintFunction</text>
<text text-anchor="middle" x="217" y="-64" font-family="Helvetica,sans-Serif" font-size="10.00">&lt; GenInequality &gt;</text>
</a>
</g>
</g>
<!-- Node1&#45;&gt;Node13 -->
<g id="edge12" class="edge"><title>Node1&#45;&gt;Node13</title>
<path fill="none" stroke="midnightblue" d="M103.517,-229.071C105.114,-227.822 106.617,-226.467 108,-225 147.061,-183.543 105.999,-144.431 144,-102 149.421,-95.9475 156.255,-91.0841 163.544,-87.1849"/>
<polygon fill="midnightblue" stroke="midnightblue" points="101.498,-226.206 94.8937,-234.491 105.223,-232.133 101.498,-226.206"/>
</g>
<!-- Node19 -->
<g id="node19" class="node"><title>Node19</title>
<g id="a_node19"><a xlink:href="a00015.html" target="_top" xlink:title="tasks::qp::ConstraintFunction\l\&lt; Inequality \&gt;">
<polygon fill="white" stroke="black" points="144,-352 144,-382 290,-382 290,-352 144,-352"/>
<text text-anchor="start" x="152" y="-370" font-family="Helvetica,sans-Serif" font-size="10.00">tasks::qp::ConstraintFunction</text>
<text text-anchor="middle" x="217" y="-359" font-family="Helvetica,sans-Serif" font-size="10.00">&lt; Inequality &gt;</text>
</a>
</g>
</g>
<!-- Node1&#45;&gt;Node19 -->
<g id="edge18" class="edge"><title>Node1&#45;&gt;Node19</title>
<path fill="none" stroke="midnightblue" d="M75.6625,-259.786C106.887,-283.64 165.692,-328.566 196.324,-351.968"/>
<polygon fill="midnightblue" stroke="midnightblue" points="77.7046,-256.941 67.6334,-253.652 73.455,-262.504 77.7046,-256.941"/>
</g>
<!-- Node24 -->
<g id="node24" class="node"><title>Node24</title>
<g id="a_node24"><a xlink:href="a00015.html" target="_top" xlink:title="tasks::qp::ConstraintFunction\l\&lt; Fun \&gt;">
<polygon fill="white" stroke="black" points="144,-259 144,-289 290,-289 290,-259 144,-259"/>
<text text-anchor="start" x="152" y="-277" font-family="Helvetica,sans-Serif" font-size="10.00">tasks::qp::ConstraintFunction</text>
<text text-anchor="middle" x="217" y="-266" font-family="Helvetica,sans-Serif" font-size="10.00">&lt; Fun &gt;</text>
</a>
</g>
</g>
<!-- Node1&#45;&gt;Node24 -->
<g id="edge23" class="edge"><title>Node1&#45;&gt;Node24</title>
<path fill="none" stroke="midnightblue" d="M116.394,-255.44C125.411,-257.12 134.768,-258.864 143.974,-260.579"/>
<polygon fill="midnightblue" stroke="midnightblue" points="116.856,-251.966 106.384,-253.575 115.574,-258.847 116.856,-251.966"/>
</g>
<!-- Node3 -->
<g id="node3" class="node"><title>Node3</title>
<g id="a_node3"><a xlink:href="a00027.html" target="_top" xlink:title="Avoid to reach articular position and velocity limits based on a velocity damper. ...">
<polygon fill="white" stroke="black" points="334,-210 334,-240 479,-240 479,-210 334,-210"/>
<text text-anchor="start" x="342" y="-228" font-family="Helvetica,sans-Serif" font-size="10.00">tasks::qp::DamperJointLimits</text>
<text text-anchor="middle" x="406.5" y="-217" font-family="Helvetica,sans-Serif" font-size="10.00">Constr</text>
</a>
</g>
</g>
<!-- Node2&#45;&gt;Node3 -->
<g id="edge2" class="edge"><title>Node2&#45;&gt;Node3</title>
<path fill="none" stroke="midnightblue" d="M300.405,-225C311.578,-225 322.97,-225 333.931,-225"/>
<polygon fill="midnightblue" stroke="midnightblue" points="300.224,-221.5 290.224,-225 300.224,-228.5 300.224,-221.5"/>
</g>
<!-- Node4 -->
<g id="node4" class="node"><title>Node4</title>
<g id="a_node4"><a xlink:href="a00041.html" target="_top" xlink:title="tasks::qp::JointAccConstr">
<polygon fill="white" stroke="black" points="341,-171.5 341,-190.5 472,-190.5 472,-171.5 341,-171.5"/>
<text text-anchor="middle" x="406.5" y="-178.5" font-family="Helvetica,sans-Serif" font-size="10.00">tasks::qp::JointAccConstr</text>
</a>
</g>
</g>
<!-- Node2&#45;&gt;Node4 -->
<g id="edge3" class="edge"><title>Node2&#45;&gt;Node4</title>
<path fill="none" stroke="midnightblue" d="M291.801,-207.681C316.714,-201.835 343.596,-195.527 364.964,-190.512"/>
<polygon fill="midnightblue" stroke="midnightblue" points="290.938,-204.289 282.002,-209.981 292.538,-211.104 290.938,-204.289"/>
</g>
<!-- Node5 -->
<g id="node5" class="node"><title>Node5</title>
<g id="a_node5"><a xlink:href="a00043.html" target="_top" xlink:title="Avoid to reach articular position limits based on direct integration. ">
<polygon fill="white" stroke="black" points="336.5,-297.5 336.5,-316.5 476.5,-316.5 476.5,-297.5 336.5,-297.5"/>
<text text-anchor="middle" x="406.5" y="-304.5" font-family="Helvetica,sans-Serif" font-size="10.00">tasks::qp::JointLimitsConstr</text>
</a>
</g>
</g>
<!-- Node2&#45;&gt;Node5 -->
<g id="edge4" class="edge"><title>Node2&#45;&gt;Node5</title>
<path fill="none" stroke="midnightblue" d="M282.382,-244.55C285.01,-245.943 287.562,-247.425 290,-249 309.814,-261.8 305.647,-276.075 326,-288 332.612,-291.874 339.972,-294.959 347.47,-297.415"/>
<polygon fill="midnightblue" stroke="midnightblue" points="283.739,-241.32 273.209,-240.151 280.712,-247.631 283.739,-241.32"/>
</g>
<!-- Node6 -->
<g id="node6" class="node"><title>Node6</title>
<g id="a_node6"><a xlink:href="a00070.html" target="_top" xlink:title="tasks::qp::PositiveLambda">
<polygon fill="white" stroke="black" points="340,-259.5 340,-278.5 473,-278.5 473,-259.5 340,-259.5"/>
<text text-anchor="middle" x="406.5" y="-266.5" font-family="Helvetica,sans-Serif" font-size="10.00">tasks::qp::PositiveLambda</text>
</a>
</g>
</g>
<!-- Node2&#45;&gt;Node6 -->
<g id="edge5" class="edge"><title>Node2&#45;&gt;Node6</title>
<path fill="none" stroke="midnightblue" d="M291.801,-242.319C316.714,-248.165 343.596,-254.473 364.964,-259.488"/>
<polygon fill="midnightblue" stroke="midnightblue" points="292.538,-238.896 282.002,-240.019 290.938,-245.711 292.538,-238.896"/>
</g>
<!-- Node8 -->
<g id="node8" class="node"><title>Node8</title>
<g id="a_node8"><a xlink:href="a00018.html" target="_top" xlink:title="Common contact constraint computation. ">
<polygon fill="white" stroke="black" points="343,-133.5 343,-152.5 470,-152.5 470,-133.5 343,-133.5"/>
<text text-anchor="middle" x="406.5" y="-140.5" font-family="Helvetica,sans-Serif" font-size="10.00">tasks::qp::ContactConstr</text>
</a>
</g>
</g>
<!-- Node7&#45;&gt;Node8 -->
<g id="edge7" class="edge"><title>Node7&#45;&gt;Node8</title>
<path fill="none" stroke="midnightblue" d="M300.479,-134.038C314.673,-135.249 329.217,-136.491 342.784,-137.648"/>
<polygon fill="midnightblue" stroke="midnightblue" points="300.486,-130.526 290.224,-133.163 299.89,-137.501 300.486,-130.526"/>
</g>
<!-- Node12 -->
<g id="node12" class="node"><title>Node12</title>
<g id="a_node12"><a xlink:href="a00046.html" target="_top" xlink:title="tasks::qp::LambdaConstr">
<polygon fill="white" stroke="black" points="343,-95.5 343,-114.5 470,-114.5 470,-95.5 343,-95.5"/>
<text text-anchor="middle" x="406.5" y="-102.5" font-family="Helvetica,sans-Serif" font-size="10.00">tasks::qp::LambdaConstr</text>
</a>
</g>
</g>
<!-- Node7&#45;&gt;Node12 -->
<g id="edge11" class="edge"><title>Node7&#45;&gt;Node12</title>
<path fill="none" stroke="midnightblue" d="M300.479,-117.322C314.673,-115.657 329.217,-113.95 342.784,-112.359"/>
<polygon fill="midnightblue" stroke="midnightblue" points="299.748,-113.884 290.224,-118.526 300.564,-120.836 299.748,-113.884"/>
</g>
<!-- Node9 -->
<g id="node9" class="node"><title>Node9</title>
<g id="a_node9"><a xlink:href="a00016.html" target="_top" xlink:title="Contact constraint by targeting a null acceleration. ">
<polygon fill="white" stroke="black" points="528.5,-171.5 528.5,-190.5 672.5,-190.5 672.5,-171.5 528.5,-171.5"/>
<text text-anchor="middle" x="600.5" y="-178.5" font-family="Helvetica,sans-Serif" font-size="10.00">tasks::qp::ContactAccConstr</text>
</a>
</g>
</g>
<!-- Node8&#45;&gt;Node9 -->
<g id="edge8" class="edge"><title>Node8&#45;&gt;Node9</title>
<path fill="none" stroke="midnightblue" d="M465.798,-154.538C493.183,-159.958 525.433,-166.341 551.399,-171.48"/>
<polygon fill="midnightblue" stroke="midnightblue" points="466.439,-151.097 455.95,-152.589 465.08,-157.964 466.439,-151.097"/>
</g>
<!-- Node10 -->
<g id="node10" class="node"><title>Node10</title>
<g id="a_node10"><a xlink:href="a00023.html" target="_top" xlink:title="Contact constraint by targeting a constant frame. ">
<polygon fill="white" stroke="black" points="528.5,-133.5 528.5,-152.5 672.5,-152.5 672.5,-133.5 528.5,-133.5"/>
<text text-anchor="middle" x="600.5" y="-140.5" font-family="Helvetica,sans-Serif" font-size="10.00">tasks::qp::ContactPosConstr</text>
</a>
</g>
</g>
<!-- Node8&#45;&gt;Node10 -->
<g id="edge9" class="edge"><title>Node8&#45;&gt;Node10</title>
<path fill="none" stroke="midnightblue" d="M480.297,-143C496.033,-143 512.654,-143 528.327,-143"/>
<polygon fill="midnightblue" stroke="midnightblue" points="480.102,-139.5 470.102,-143 480.102,-146.5 480.102,-139.5"/>
</g>
<!-- Node11 -->
<g id="node11" class="node"><title>Node11</title>
<g id="a_node11"><a xlink:href="a00025.html" target="_top" xlink:title="Contact constraint by targeting a null velocity. ">
<polygon fill="white" stroke="black" points="523,-95.5 523,-114.5 678,-114.5 678,-95.5 523,-95.5"/>
<text text-anchor="middle" x="600.5" y="-102.5" font-family="Helvetica,sans-Serif" font-size="10.00">tasks::qp::ContactSpeedConstr</text>
</a>
</g>
</g>
<!-- Node8&#45;&gt;Node11 -->
<g id="edge10" class="edge"><title>Node8&#45;&gt;Node11</title>
<path fill="none" stroke="midnightblue" d="M465.798,-131.462C493.183,-126.042 525.433,-119.659 551.399,-114.52"/>
<polygon fill="midnightblue" stroke="midnightblue" points="465.08,-128.036 455.95,-133.411 466.439,-134.903 465.08,-128.036"/>
</g>
<!-- Node14 -->
<g id="node14" class="node"><title>Node14</title>
<g id="a_node14"><a xlink:href="a00005.html" target="_top" xlink:title="Constraint some link velocity in link frame by direct integration. ">
<polygon fill="white" stroke="black" points="327.5,-57.5 327.5,-76.5 485.5,-76.5 485.5,-57.5 327.5,-57.5"/>
<text text-anchor="middle" x="406.5" y="-64.5" font-family="Helvetica,sans-Serif" font-size="10.00">tasks::qp::BoundedSpeedConstr</text>
</a>
</g>
</g>
<!-- Node13&#45;&gt;Node14 -->
<g id="edge13" class="edge"><title>Node13&#45;&gt;Node14</title>
<path fill="none" stroke="midnightblue" d="M300.307,-69.8052C309.307,-69.5651 318.45,-69.3213 327.397,-69.0827"/>
<polygon fill="midnightblue" stroke="midnightblue" points="300.127,-66.3086 290.224,-70.074 300.314,-73.3061 300.127,-66.3086"/>
</g>
<!-- Node15 -->
<g id="node15" class="node"><title>Node15</title>
<g id="a_node15"><a xlink:href="a00053.html" target="_top" xlink:title="tasks::qp::MotionConstrCommon">
<polygon fill="white" stroke="black" points="326,-19.5 326,-38.5 487,-38.5 487,-19.5 326,-19.5"/>
<text text-anchor="middle" x="406.5" y="-26.5" font-family="Helvetica,sans-Serif" font-size="10.00">tasks::qp::MotionConstrCommon</text>
</a>
</g>
</g>
<!-- Node13&#45;&gt;Node15 -->
<g id="edge14" class="edge"><title>Node13&#45;&gt;Node15</title>
<path fill="none" stroke="midnightblue" d="M293.415,-54.7048C317.487,-49.1843 343.237,-43.2789 363.979,-38.5223"/>
<polygon fill="midnightblue" stroke="midnightblue" points="292.543,-51.3139 283.578,-56.9607 294.108,-58.1367 292.543,-51.3139"/>
</g>
<!-- Node16 -->
<g id="node16" class="node"><title>Node16</title>
<g id="a_node16"><a xlink:href="a00052.html" target="_top" xlink:title="tasks::qp::MotionConstr">
<polygon fill="white" stroke="black" points="539.5,-0.5 539.5,-19.5 661.5,-19.5 661.5,-0.5 539.5,-0.5"/>
<text text-anchor="middle" x="600.5" y="-7.5" font-family="Helvetica,sans-Serif" font-size="10.00">tasks::qp::MotionConstr</text>
</a>
</g>
</g>
<!-- Node15&#45;&gt;Node16 -->
<g id="edge15" class="edge"><title>Node15&#45;&gt;Node16</title>
<path fill="none" stroke="midnightblue" d="M497.526,-20.0912C511.695,-18.689 526.038,-17.2696 539.315,-15.9558"/>
<polygon fill="midnightblue" stroke="midnightblue" points="496.864,-16.6395 487.257,-21.1074 497.553,-23.6055 496.864,-16.6395"/>
</g>
<!-- Node18 -->
<g id="node18" class="node"><title>Node18</title>
<g id="a_node18"><a xlink:href="a00054.html" target="_top" xlink:title="Use polynome in function of q to compute torque limits. ">
<polygon fill="white" stroke="black" points="530,-38.5 530,-57.5 671,-57.5 671,-38.5 530,-38.5"/>
<text text-anchor="middle" x="600.5" y="-45.5" font-family="Helvetica,sans-Serif" font-size="10.00">tasks::qp::MotionPolyConstr</text>
</a>
</g>
</g>
<!-- Node15&#45;&gt;Node18 -->
<g id="edge17" class="edge"><title>Node15&#45;&gt;Node18</title>
<path fill="none" stroke="midnightblue" d="M497.245,-37.881C508.172,-38.9623 519.207,-40.0544 529.782,-41.1008"/>
<polygon fill="midnightblue" stroke="midnightblue" points="497.553,-34.3945 487.257,-36.8926 496.864,-41.3605 497.553,-34.3945"/>
</g>
<!-- Node17 -->
<g id="node17" class="node"><title>Node17</title>
<g id="a_node17"><a xlink:href="a00055.html" target="_top" xlink:title="tasks::qp::MotionSpringConstr">
<polygon fill="white" stroke="black" points="714,-0.5 714,-19.5 863,-19.5 863,-0.5 714,-0.5"/>
<text text-anchor="middle" x="788.5" y="-7.5" font-family="Helvetica,sans-Serif" font-size="10.00">tasks::qp::MotionSpringConstr</text>
</a>
</g>
</g>
<!-- Node16&#45;&gt;Node17 -->
<g id="edge16" class="edge"><title>Node16&#45;&gt;Node17</title>
<path fill="none" stroke="midnightblue" d="M671.965,-10C685.683,-10 700.097,-10 713.912,-10"/>
<polygon fill="midnightblue" stroke="midnightblue" points="671.632,-6.5001 661.632,-10 671.632,-13.5001 671.632,-6.5001"/>
</g>
<!-- Node20 -->
<g id="node20" class="node"><title>Node20</title>
<g id="a_node20"><a xlink:href="a00006.html" target="_top" xlink:title="Avoid that too robot links enter into collision based on a velocity damper. ">
<polygon fill="white" stroke="black" points="341.5,-461.5 341.5,-480.5 471.5,-480.5 471.5,-461.5 341.5,-461.5"/>
<text text-anchor="middle" x="406.5" y="-468.5" font-family="Helvetica,sans-Serif" font-size="10.00">tasks::qp::CollisionConstr</text>
</a>
</g>
</g>
<!-- Node19&#45;&gt;Node20 -->
<g id="edge19" class="edge"><title>Node19&#45;&gt;Node20</title>
<path fill="none" stroke="midnightblue" d="M239.905,-388.997C260.438,-408.382 292.862,-435.964 326,-452 333.92,-455.832 342.666,-458.923 351.375,-461.406"/>
<polygon fill="midnightblue" stroke="midnightblue" points="242.274,-386.42 232.641,-382.01 237.421,-391.465 242.274,-386.42"/>
</g>
<!-- Node21 -->
<g id="node21" class="node"><title>Node21</title>
<g id="a_node21"><a xlink:href="a00007.html" target="_top" xlink:title="Prevent robot CoM to go out of a convex hull. ">
<polygon fill="white" stroke="black" points="330.5,-423.5 330.5,-442.5 482.5,-442.5 482.5,-423.5 330.5,-423.5"/>
<text text-anchor="middle" x="406.5" y="-430.5" font-family="Helvetica,sans-Serif" font-size="10.00">tasks::qp::CoMIncPlaneConstr</text>
</a>
</g>
</g>
<!-- Node19&#45;&gt;Node21 -->
<g id="edge20" class="edge"><title>Node19&#45;&gt;Node21</title>
<path fill="none" stroke="midnightblue" d="M257.79,-386.317C277.906,-395.565 302.895,-406.278 326,-414 336.633,-417.553 348.274,-420.723 359.288,-423.407"/>
<polygon fill="midnightblue" stroke="midnightblue" points="259.169,-383.098 248.626,-382.051 256.214,-389.444 259.169,-383.098"/>
</g>
<!-- Node22 -->
<g id="node22" class="node"><title>Node22</title>
<g id="a_node22"><a xlink:href="a00036.html" target="_top" xlink:title="tasks::qp::GripperTorque\lConstr">
<polygon fill="white" stroke="black" points="344,-374 344,-404 469,-404 469,-374 344,-374"/>
<text text-anchor="start" x="352" y="-392" font-family="Helvetica,sans-Serif" font-size="10.00">tasks::qp::GripperTorque</text>
<text text-anchor="middle" x="406.5" y="-381" font-family="Helvetica,sans-Serif" font-size="10.00">Constr</text>
</a>
</g>
</g>
<!-- Node19&#45;&gt;Node22 -->
<g id="edge21" class="edge"><title>Node19&#45;&gt;Node22</title>
<path fill="none" stroke="midnightblue" d="M300.302,-376.657C314.972,-378.378 330.022,-380.144 343.986,-381.782"/>
<polygon fill="midnightblue" stroke="midnightblue" points="300.564,-373.164 290.224,-375.474 299.748,-380.116 300.564,-373.164"/>
</g>
<!-- Node23 -->
<g id="node23" class="node"><title>Node23</title>
<g id="a_node23"><a xlink:href="a00039.html" target="_top" xlink:title="Generalized Image Point Constraint This can be used as either a Field of View constraint or an Occlus...">
<polygon fill="white" stroke="black" points="347,-335.5 347,-354.5 466,-354.5 466,-335.5 347,-335.5"/>
<text text-anchor="middle" x="406.5" y="-342.5" font-family="Helvetica,sans-Serif" font-size="10.00">tasks::qp::ImageConstr</text>
</a>
</g>
</g>
<!-- Node19&#45;&gt;Node23 -->
<g id="edge22" class="edge"><title>Node19&#45;&gt;Node23</title>
<path fill="none" stroke="midnightblue" d="M300.445,-357.326C316.12,-355.487 332.223,-353.598 346.966,-351.868"/>
<polygon fill="midnightblue" stroke="midnightblue" points="299.748,-353.884 290.224,-358.526 300.564,-360.836 299.748,-353.884"/>
</g>
<!-- Node25 -->
<g id="node25" class="node"><title>Node25</title>
<g id="a_node25"><a xlink:href="a00019.html" target="_top" xlink:title="Manage modifier on contact constraint. ">
<polygon fill="white" stroke="black" points="153.5,-161 153.5,-191 280.5,-191 280.5,-161 153.5,-161"/>
<text text-anchor="start" x="161.5" y="-179" font-family="Helvetica,sans-Serif" font-size="10.00">tasks::qp::ContactConstr</text>
<text text-anchor="middle" x="217" y="-168" font-family="Helvetica,sans-Serif" font-size="10.00">Common</text>
</a>
</g>
</g>
<!-- Node25&#45;&gt;Node8 -->
<g id="edge24" class="edge"><title>Node25&#45;&gt;Node8</title>
<path fill="none" stroke="midnightblue" d="M290.775,-163.192C310.931,-159.644 332.449,-155.857 351.34,-152.532"/>
<polygon fill="midnightblue" stroke="midnightblue" points="289.937,-159.785 280.695,-164.966 291.151,-166.679 289.937,-159.785"/>
</g>
<!-- Node26 -->
<g id="node26" class="node"><title>Node26</title>
<polygon fill="white" stroke="#bfbfbf" points="37.5,-196.5 37.5,-215.5 70.5,-215.5 70.5,-196.5 37.5,-196.5"/>
<text text-anchor="middle" x="54" y="-203.5" font-family="Helvetica,sans-Serif" font-size="10.00">Fun</text>
</g>
<!-- Node26&#45;&gt;Node2 -->
<g id="edge25" class="edge"><title>Node26&#45;&gt;Node2</title>
<path fill="none" stroke="midnightblue" d="M81.0294,-209.072C98.1756,-211.095 121.532,-213.852 143.995,-216.503"/>
<polygon fill="midnightblue" stroke="midnightblue" points="81.0718,-205.553 70.7305,-207.856 80.2514,-212.504 81.0718,-205.553"/>
</g>
<!-- Node26&#45;&gt;Node7 -->
<g id="edge26" class="edge"><title>Node26&#45;&gt;Node7</title>
<path fill="none" stroke="midnightblue" d="M76.7021,-190.603C94.246,-178.652 119.903,-162.275 144,-151 150.922,-147.761 158.403,-144.758 165.835,-142.05"/>
<polygon fill="midnightblue" stroke="midnightblue" points="74.5543,-187.832 68.3185,-196.398 78.5347,-193.591 74.5543,-187.832"/>
</g>
<!-- Node26&#45;&gt;Node13 -->
<g id="edge27" class="edge"><title>Node26&#45;&gt;Node13</title>
<path fill="none" stroke="midnightblue" d="M66.4771,-187.976C81.7483,-165.242 110.725,-126.204 144,-102 151.994,-96.185 161.284,-91.247 170.48,-87.1586"/>
<polygon fill="midnightblue" stroke="midnightblue" points="63.5333,-186.082 60.9701,-196.362 69.3846,-189.924 63.5333,-186.082"/>
</g>
<!-- Node26&#45;&gt;Node19 -->
<g id="edge28" class="edge"><title>Node26&#45;&gt;Node19</title>
<path fill="none" stroke="midnightblue" d="M80.3689,-210.841C89.9017,-213.68 100.286,-218.119 108,-225 134.995,-249.082 122.617,-268.821 144,-298 159.248,-318.808 181.137,-338.769 196.771,-351.819"/>
<polygon fill="midnightblue" stroke="midnightblue" points="81.0791,-207.41 70.5258,-208.347 79.3601,-214.196 81.0791,-207.41"/>
</g>
<!-- Node26&#45;&gt;Node24 -->
<g id="edge29" class="edge"><title>Node26&#45;&gt;Node24</title>
<path fill="none" stroke="midnightblue" d="M80.2578,-213.649C89.2176,-216.726 99.2448,-220.595 108,-225 125.178,-233.642 126.779,-240.444 144,-249 151.347,-252.65 159.359,-255.999 167.282,-258.978"/>
<polygon fill="midnightblue" stroke="midnightblue" points="81.3129,-210.312 70.7202,-210.525 79.1337,-216.964 81.3129,-210.312"/>
</g>
</g>
</svg>
