<?xml version="1.0" encoding="UTF-8" standalone="no"?>
<!DOCTYPE svg PUBLIC "-//W3C//DTD SVG 1.1//EN"
 "http://www.w3.org/Graphics/SVG/1.1/DTD/svg11.dtd">
<!-- Generated by graphviz version 2.38.0 (20140413.2041)
 -->
<!-- Title: Graphical Class Hierarchy Pages: 1 -->
<svg width="544pt" height="617pt"
 viewBox="0.00 0.00 544.00 616.50" xmlns="http://www.w3.org/2000/svg" xmlns:xlink="http://www.w3.org/1999/xlink">
<g id="graph0" class="graph" transform="scale(1 1) rotate(0) translate(4 612.5)">
<title>Graphical Class Hierarchy</title>
<polygon fill="white" stroke="none" points="-4,4 -4,-612.5 540,-612.5 540,4 -4,4"/>
<!-- Node1 -->
<g id="node1" class="node"><title>Node1</title>
<g id="a_node1"><a xlink:href="a00038.html" target="_top" xlink:title="tasks::qp::HighLevelTask">
<polygon fill="white" stroke="black" points="0,-317 0,-336 128,-336 128,-317 0,-317"/>
<text text-anchor="middle" x="64" y="-324" font-family="Helvetica,sans-Serif" font-size="10.00">tasks::qp::HighLevelTask</text>
</a>
</g>
</g>
<!-- Node2 -->
<g id="node2" class="node"><title>Node2</title>
<g id="a_node2"><a xlink:href="a00008.html" target="_top" xlink:title="tasks::qp::CoMTask">
<polygon fill="white" stroke="black" points="197.5,-589 197.5,-608 303.5,-608 303.5,-589 197.5,-589"/>
<text text-anchor="middle" x="250.5" y="-596" font-family="Helvetica,sans-Serif" font-size="10.00">tasks::qp::CoMTask</text>
</a>
</g>
</g>
<!-- Node1&#45;&gt;Node2 -->
<g id="edge1" class="edge"><title>Node1&#45;&gt;Node2</title>
<path fill="none" stroke="midnightblue" d="M66.5727,-346.058C71.5081,-393.812 91.0376,-517.01 164,-579.5 173.355,-587.512 185.349,-592.356 197.377,-595.235"/>
<polygon fill="midnightblue" stroke="midnightblue" points="70.0575,-345.731 65.6471,-336.098 63.0875,-346.379 70.0575,-345.731"/>
</g>
<!-- Node3 -->
<g id="node3" class="node"><title>Node3</title>
<g id="a_node3"><a xlink:href="a00032.html" target="_top" xlink:title="tasks::qp::GazeTask">
<polygon fill="white" stroke="black" points="196.5,-551 196.5,-570 304.5,-570 304.5,-551 196.5,-551"/>
<text text-anchor="middle" x="250.5" y="-558" font-family="Helvetica,sans-Serif" font-size="10.00">tasks::qp::GazeTask</text>
</a>
</g>
</g>
<!-- Node1&#45;&gt;Node3 -->
<g id="edge2" class="edge"><title>Node1&#45;&gt;Node3</title>
<path fill="none" stroke="midnightblue" d="M68.0502,-345.964C75.7894,-388.511 100.297,-490.094 164,-541.5 173.23,-548.948 184.773,-553.622 196.362,-556.52"/>
<polygon fill="midnightblue" stroke="midnightblue" points="71.491,-345.32 66.3611,-336.05 64.5904,-346.496 71.491,-345.32"/>
</g>
<!-- Node4 -->
<g id="node4" class="node"><title>Node4</title>
<g id="a_node4"><a xlink:href="a00044.html" target="_top" xlink:title="tasks::qp::JointsSelector">
<polygon fill="white" stroke="black" points="188,-513 188,-532 313,-532 313,-513 188,-513"/>
<text text-anchor="middle" x="250.5" y="-520" font-family="Helvetica,sans-Serif" font-size="10.00">tasks::qp::JointsSelector</text>
</a>
</g>
</g>
<!-- Node1&#45;&gt;Node4 -->
<g id="edge3" class="edge"><title>Node1&#45;&gt;Node4</title>
<path fill="none" stroke="midnightblue" d="M70.126,-345.994C80.8897,-382.905 109.475,-462.926 164,-503.5 171.075,-508.765 179.333,-512.62 187.875,-515.433"/>
<polygon fill="midnightblue" stroke="midnightblue" points="73.4017,-344.71 67.3487,-336.014 66.6579,-346.587 73.4017,-344.71"/>
</g>
<!-- Node5 -->
<g id="node5" class="node"><title>Node5</title>
<g id="a_node5"><a xlink:href="a00047.html" target="_top" xlink:title="tasks::qp::LinVelocityTask">
<polygon fill="white" stroke="black" points="184,-475 184,-494 317,-494 317,-475 184,-475"/>
<text text-anchor="middle" x="250.5" y="-482" font-family="Helvetica,sans-Serif" font-size="10.00">tasks::qp::LinVelocityTask</text>
</a>
</g>
</g>
<!-- Node1&#45;&gt;Node5 -->
<g id="edge4" class="edge"><title>Node1&#45;&gt;Node5</title>
<path fill="none" stroke="midnightblue" d="M73.0407,-345.575C86.9001,-376.007 118.272,-435.193 164,-465.5 170.084,-469.532 176.892,-472.72 183.939,-475.239"/>
<polygon fill="midnightblue" stroke="midnightblue" points="76.1048,-343.848 68.874,-336.104 69.6975,-346.667 76.1048,-343.848"/>
</g>
<!-- Node6 -->
<g id="node6" class="node"><title>Node6</title>
<g id="a_node6"><a xlink:href="a00050.html" target="_top" xlink:title="tasks::qp::MomentumTask">
<polygon fill="white" stroke="black" points="183.5,-437 183.5,-456 317.5,-456 317.5,-437 183.5,-437"/>
<text text-anchor="middle" x="250.5" y="-444" font-family="Helvetica,sans-Serif" font-size="10.00">tasks::qp::MomentumTask</text>
</a>
</g>
</g>
<!-- Node1&#45;&gt;Node6 -->
<g id="edge5" class="edge"><title>Node1&#45;&gt;Node6</title>
<path fill="none" stroke="midnightblue" d="M77.2386,-344.249C94.0425,-367.191 126.481,-406.659 164,-427.5 171.045,-431.413 178.838,-434.521 186.767,-436.988"/>
<polygon fill="midnightblue" stroke="midnightblue" points="80.0572,-342.173 71.3979,-336.069 74.3603,-346.241 80.0572,-342.173"/>
</g>
<!-- Node7 -->
<g id="node7" class="node"><title>Node7</title>
<g id="a_node7"><a xlink:href="a00060.html" target="_top" xlink:title="tasks::qp::OrientationTask">
<polygon fill="white" stroke="black" points="184.5,-399 184.5,-418 316.5,-418 316.5,-399 184.5,-399"/>
<text text-anchor="middle" x="250.5" y="-406" font-family="Helvetica,sans-Serif" font-size="10.00">tasks::qp::OrientationTask</text>
</a>
</g>
</g>
<!-- Node1&#45;&gt;Node7 -->
<g id="edge6" class="edge"><title>Node1&#45;&gt;Node7</title>
<path fill="none" stroke="midnightblue" d="M85.0414,-342.236C104.262,-356.579 134.62,-377.331 164,-389.5 173.272,-393.341 183.446,-396.464 193.441,-398.984"/>
<polygon fill="midnightblue" stroke="midnightblue" points="87.1164,-339.417 77.0376,-336.15 82.8796,-344.989 87.1164,-339.417"/>
</g>
<!-- Node8 -->
<g id="node8" class="node"><title>Node8</title>
<g id="a_node8"><a xlink:href="a00062.html" target="_top" xlink:title="tasks::qp::OrientationTrackingTask">
<polygon fill="white" stroke="black" points="165.5,-361 165.5,-380 335.5,-380 335.5,-361 165.5,-361"/>
<text text-anchor="middle" x="250.5" y="-368" font-family="Helvetica,sans-Serif" font-size="10.00">tasks::qp::OrientationTrackingTask</text>
</a>
</g>
</g>
<!-- Node1&#45;&gt;Node8 -->
<g id="edge7" class="edge"><title>Node1&#45;&gt;Node8</title>
<path fill="none" stroke="midnightblue" d="M111.58,-338.555C128.109,-342.755 146.86,-347.432 164,-351.5 177.463,-354.695 192.159,-358.02 205.509,-360.978"/>
<polygon fill="midnightblue" stroke="midnightblue" points="112.165,-335.093 101.61,-336.011 110.435,-341.875 112.165,-335.093"/>
</g>
<!-- Node9 -->
<g id="node9" class="node"><title>Node9</title>
<g id="a_node9"><a xlink:href="a00067.html" target="_top" xlink:title="tasks::qp::PositionBased\lVisServoTask">
<polygon fill="white" stroke="black" points="187.5,-311.5 187.5,-341.5 313.5,-341.5 313.5,-311.5 187.5,-311.5"/>
<text text-anchor="start" x="195.5" y="-329.5" font-family="Helvetica,sans-Serif" font-size="10.00">tasks::qp::PositionBased</text>
<text text-anchor="middle" x="250.5" y="-318.5" font-family="Helvetica,sans-Serif" font-size="10.00">VisServoTask</text>
</a>
</g>
</g>
<!-- Node1&#45;&gt;Node9 -->
<g id="edge8" class="edge"><title>Node1&#45;&gt;Node9</title>
<path fill="none" stroke="midnightblue" d="M138.684,-326.5C154.788,-326.5 171.679,-326.5 187.283,-326.5"/>
<polygon fill="midnightblue" stroke="midnightblue" points="138.236,-323 128.236,-326.5 138.236,-330 138.236,-323"/>
</g>
<!-- Node10 -->
<g id="node10" class="node"><title>Node10</title>
<g id="a_node10"><a xlink:href="a00068.html" target="_top" xlink:title="tasks::qp::PositionTask">
<polygon fill="white" stroke="black" points="190.5,-273 190.5,-292 310.5,-292 310.5,-273 190.5,-273"/>
<text text-anchor="middle" x="250.5" y="-280" font-family="Helvetica,sans-Serif" font-size="10.00">tasks::qp::PositionTask</text>
</a>
</g>
</g>
<!-- Node1&#45;&gt;Node10 -->
<g id="edge9" class="edge"><title>Node1&#45;&gt;Node10</title>
<path fill="none" stroke="midnightblue" d="M114.161,-314.5C130.058,-310.641 147.77,-306.365 164,-302.5 178.385,-299.074 194.144,-295.373 208.17,-292.097"/>
<polygon fill="midnightblue" stroke="midnightblue" points="112.9,-311.204 104.009,-316.967 114.553,-318.006 112.9,-311.204"/>
</g>
<!-- Node11 -->
<g id="node11" class="node"><title>Node11</title>
<g id="a_node11"><a xlink:href="a00076.html" target="_top" xlink:title="tasks::qp::RelativeDistTask">
<polygon fill="white" stroke="black" points="181,-235 181,-254 320,-254 320,-235 181,-235"/>
<text text-anchor="middle" x="250.5" y="-242" font-family="Helvetica,sans-Serif" font-size="10.00">tasks::qp::RelativeDistTask</text>
</a>
</g>
</g>
<!-- Node1&#45;&gt;Node11 -->
<g id="edge10" class="edge"><title>Node1&#45;&gt;Node11</title>
<path fill="none" stroke="midnightblue" d="M85.0414,-310.764C104.262,-296.421 134.62,-275.669 164,-263.5 173.272,-259.659 183.446,-256.536 193.441,-254.016"/>
<polygon fill="midnightblue" stroke="midnightblue" points="82.8796,-308.011 77.0376,-316.85 87.1164,-313.583 82.8796,-308.011"/>
</g>
<!-- Node12 -->
<g id="node12" class="node"><title>Node12</title>
<g id="a_node12"><a xlink:href="a00085.html" target="_top" xlink:title="tasks::qp::SurfaceOrientationTask">
<polygon fill="white" stroke="black" points="167.5,-197 167.5,-216 333.5,-216 333.5,-197 167.5,-197"/>
<text text-anchor="middle" x="250.5" y="-204" font-family="Helvetica,sans-Serif" font-size="10.00">tasks::qp::SurfaceOrientationTask</text>
</a>
</g>
</g>
<!-- Node1&#45;&gt;Node12 -->
<g id="edge11" class="edge"><title>Node1&#45;&gt;Node12</title>
<path fill="none" stroke="midnightblue" d="M77.2386,-308.751C94.0425,-285.809 126.481,-246.341 164,-225.5 171.045,-221.587 178.838,-218.479 186.767,-216.012"/>
<polygon fill="midnightblue" stroke="midnightblue" points="74.3603,-306.759 71.3979,-316.931 80.0572,-310.827 74.3603,-306.759"/>
</g>
<!-- Node13 -->
<g id="node13" class="node"><title>Node13</title>
<g id="a_node13"><a xlink:href="a00097.html" target="_top" xlink:title="tasks::qp::TransformTask\lCommon\&lt; transform_task_t \&gt;">
<polygon fill="white" stroke="black" points="176.5,-147.5 176.5,-177.5 324.5,-177.5 324.5,-147.5 176.5,-147.5"/>
<text text-anchor="start" x="184.5" y="-165.5" font-family="Helvetica,sans-Serif" font-size="10.00">tasks::qp::TransformTask</text>
<text text-anchor="middle" x="250.5" y="-154.5" font-family="Helvetica,sans-Serif" font-size="10.00">Common&lt; transform_task_t &gt;</text>
</a>
</g>
</g>
<!-- Node1&#45;&gt;Node13 -->
<g id="edge12" class="edge"><title>Node1&#45;&gt;Node13</title>
<path fill="none" stroke="midnightblue" d="M73.4822,-307.331C87.7732,-277.252 119.509,-219.141 164,-187.5 169.419,-183.646 175.43,-180.381 181.681,-177.617"/>
<polygon fill="midnightblue" stroke="midnightblue" points="70.166,-306.165 69.1625,-316.712 76.5243,-309.093 70.166,-306.165"/>
</g>
<!-- Node14 -->
<g id="node14" class="node"><title>Node14</title>
<g id="a_node14"><a xlink:href="a00100.html" target="_top" xlink:title="tasks::qp::VectorOrientationTask">
<polygon fill="white" stroke="black" points="170,-109 170,-128 331,-128 331,-109 170,-109"/>
<text text-anchor="middle" x="250.5" y="-116" font-family="Helvetica,sans-Serif" font-size="10.00">tasks::qp::VectorOrientationTask</text>
</a>
</g>
</g>
<!-- Node1&#45;&gt;Node14 -->
<g id="edge13" class="edge"><title>Node1&#45;&gt;Node14</title>
<path fill="none" stroke="midnightblue" d="M69.5244,-306.922C79.4991,-268.342 107.15,-182.434 164,-138.5 169.549,-134.212 175.864,-130.819 182.491,-128.138"/>
<polygon fill="midnightblue" stroke="midnightblue" points="66.0655,-306.331 67.0761,-316.877 72.863,-308.003 66.0655,-306.331"/>
</g>
<!-- Node15 -->
<g id="node15" class="node"><title>Node15</title>
<g id="a_node15"><a xlink:href="a00097.html" target="_top" xlink:title="tasks::qp::TransformTask\lCommon\&lt; tasks::SurfaceTransform\lTask \&gt;">
<polygon fill="white" stroke="black" points="164,-49 164,-90 337,-90 337,-49 164,-49"/>
<text text-anchor="start" x="172" y="-78" font-family="Helvetica,sans-Serif" font-size="10.00">tasks::qp::TransformTask</text>
<text text-anchor="start" x="172" y="-67" font-family="Helvetica,sans-Serif" font-size="10.00">Common&lt; tasks::SurfaceTransform</text>
<text text-anchor="middle" x="250.5" y="-56" font-family="Helvetica,sans-Serif" font-size="10.00">Task &gt;</text>
</a>
</g>
</g>
<!-- Node1&#45;&gt;Node15 -->
<g id="edge14" class="edge"><title>Node1&#45;&gt;Node15</title>
<path fill="none" stroke="midnightblue" d="M68.1396,-306.82C76.1047,-263.254 101.113,-157.909 164,-99.5 167.804,-95.9672 172.047,-92.8466 176.555,-90.0908"/>
<polygon fill="midnightblue" stroke="midnightblue" points="64.6825,-306.272 66.4332,-316.721 71.5808,-307.461 64.6825,-306.272"/>
</g>
<!-- Node17 -->
<g id="node17" class="node"><title>Node17</title>
<g id="a_node17"><a xlink:href="a00097.html" target="_top" xlink:title="tasks::qp::TransformTask\lCommon\&lt; tasks::TransformTask \&gt;">
<polygon fill="white" stroke="black" points="165.5,-0.5 165.5,-30.5 335.5,-30.5 335.5,-0.5 165.5,-0.5"/>
<text text-anchor="start" x="173.5" y="-18.5" font-family="Helvetica,sans-Serif" font-size="10.00">tasks::qp::TransformTask</text>
<text text-anchor="middle" x="250.5" y="-7.5" font-family="Helvetica,sans-Serif" font-size="10.00">Common&lt; tasks::TransformTask &gt;</text>
</a>
</g>
</g>
<!-- Node1&#45;&gt;Node17 -->
<g id="edge16" class="edge"><title>Node1&#45;&gt;Node17</title>
<path fill="none" stroke="midnightblue" d="M65.7967,-306.753C68.98,-254.972 84.8616,-114.139 164,-39.5 167.589,-36.115 171.617,-33.2012 175.918,-30.6937"/>
<polygon fill="midnightblue" stroke="midnightblue" points="62.2928,-306.738 65.2704,-316.906 69.2835,-307.1 62.2928,-306.738"/>
</g>
<!-- Node16 -->
<g id="node16" class="node"><title>Node16</title>
<g id="a_node16"><a xlink:href="a00086.html" target="_top" xlink:title="TransformTask in surface frame. ">
<polygon fill="white" stroke="black" points="373,-60 373,-79 536,-79 536,-60 373,-60"/>
<text text-anchor="middle" x="454.5" y="-67" font-family="Helvetica,sans-Serif" font-size="10.00">tasks::qp::SurfaceTransformTask</text>
</a>
</g>
</g>
<!-- Node15&#45;&gt;Node16 -->
<g id="edge15" class="edge"><title>Node15&#45;&gt;Node16</title>
<path fill="none" stroke="midnightblue" d="M347.2,-69.5C355.779,-69.5 364.41,-69.5 372.843,-69.5"/>
<polygon fill="midnightblue" stroke="midnightblue" points="347.166,-66.0001 337.166,-69.5 347.166,-73.0001 347.166,-66.0001"/>
</g>
<!-- Node18 -->
<g id="node18" class="node"><title>Node18</title>
<g id="a_node18"><a xlink:href="a00094.html" target="_top" xlink:title="TransformTask in world or user frame. ">
<polygon fill="white" stroke="black" points="390,-6 390,-25 519,-25 519,-6 390,-6"/>
<text text-anchor="middle" x="454.5" y="-13" font-family="Helvetica,sans-Serif" font-size="10.00">tasks::qp::TransformTask</text>
</a>
</g>
</g>
<!-- Node17&#45;&gt;Node18 -->
<g id="edge17" class="edge"><title>Node17&#45;&gt;Node18</title>
<path fill="none" stroke="midnightblue" d="M345.935,-15.5C360.78,-15.5 375.815,-15.5 389.75,-15.5"/>
<polygon fill="midnightblue" stroke="midnightblue" points="345.704,-12.0001 335.703,-15.5 345.703,-19.0001 345.704,-12.0001"/>
</g>
</g>
</svg>
