<?xml version="1.0" encoding="UTF-8" standalone="no"?>
<!DOCTYPE svg PUBLIC "-//W3C//DTD SVG 1.1//EN"
 "http://www.w3.org/Graphics/SVG/1.1/DTD/svg11.dtd">
<!-- Generated by graphviz version 2.38.0 (20140413.2041)
 -->
<!-- Title: Graphical Class Hierarchy Pages: 1 -->
<svg width="304pt" height="66pt"
 viewBox="0.00 0.00 304.00 66.00" xmlns="http://www.w3.org/2000/svg" xmlns:xlink="http://www.w3.org/1999/xlink">
<g id="graph0" class="graph" transform="scale(1 1) rotate(0) translate(4 62)">
<title>Graphical Class Hierarchy</title>
<polygon fill="white" stroke="none" points="-4,4 -4,-62 300,-62 300,4 -4,4"/>
<!-- Node1 -->
<g id="node1" class="node"><title>Node1</title>
<g id="a_node1"><a xlink:href="a00035.html" target="_top" xlink:title="Generic QP solver abstract interface. ">
<polygon fill="white" stroke="black" points="0,-19.5 0,-38.5 123,-38.5 123,-19.5 0,-19.5"/>
<text text-anchor="middle" x="61.5" y="-26.5" font-family="Helvetica,sans-Serif" font-size="10.00">tasks::qp::GenQPSolver</text>
</a>
</g>
</g>
<!-- Node2 -->
<g id="node2" class="node"><title>Node2</title>
<g id="a_node2"><a xlink:href="a00049.html" target="_top" xlink:title="GenQPSolver interface implementation with the LSSOL QP solver. ">
<polygon fill="white" stroke="black" points="159,-38.5 159,-57.5 296,-57.5 296,-38.5 159,-38.5"/>
<text text-anchor="middle" x="227.5" y="-45.5" font-family="Helvetica,sans-Serif" font-size="10.00">tasks::qp::LSSOLQPSolver</text>
</a>
</g>
</g>
<!-- Node1&#45;&gt;Node2 -->
<g id="edge1" class="edge"><title>Node1&#45;&gt;Node2</title>
<path fill="none" stroke="midnightblue" d="M133.081,-37.177C141.668,-38.1719 150.425,-39.1865 158.967,-40.176"/>
<polygon fill="midnightblue" stroke="midnightblue" points="133.438,-33.6951 123.102,-36.0209 132.632,-40.6486 133.438,-33.6951"/>
</g>
<!-- Node3 -->
<g id="node3" class="node"><title>Node3</title>
<g id="a_node3"><a xlink:href="a00074.html" target="_top" xlink:title="GenQPSolver interface implementation with the QLD QP solver. ">
<polygon fill="white" stroke="black" points="165,-0.5 165,-19.5 290,-19.5 290,-0.5 165,-0.5"/>
<text text-anchor="middle" x="227.5" y="-7.5" font-family="Helvetica,sans-Serif" font-size="10.00">tasks::qp::QLDQPSolver</text>
</a>
</g>
</g>
<!-- Node1&#45;&gt;Node3 -->
<g id="edge2" class="edge"><title>Node1&#45;&gt;Node3</title>
<path fill="none" stroke="midnightblue" d="M133.105,-20.8202C143.644,-19.5991 154.44,-18.3484 164.777,-17.1508"/>
<polygon fill="midnightblue" stroke="midnightblue" points="132.632,-17.3514 123.102,-21.9791 133.438,-24.3049 132.632,-17.3514"/>
</g>
</g>
</svg>
